<?xml version="1.0" standalone="no"?>
 <!DOCTYPE svg PUBLIC "-//W3C//DTD SVG 1.1//EN" 
 "http://www.w3.org/Graphics/SVG/1.1/DTD/svg11.dtd"> 
<svg xmlns="http://www.w3.org/2000/svg" version="1.1" 
    width="15.0012cm" height="15.0012cm" viewBox="0 0 59060 59060 ">
<title>SVG Picture created as irblock-Block 0.svg date 2018/06/20 09:17:59 </title>
  <desc>Picture generated by Eeschema-SVG </desc>
<g style="fill:#000000; fill-opacity:1;stroke:#000000; stroke-opacity:1;
stroke-linecap:round; stroke-linejoin:round; "
 transform="translate(0 0) scale(1 1)">
</g>
<g style="fill:#000000; fill-opacity:0.0; 
stroke:#000000; stroke-width:-10; stroke-opacity:1; 
stroke-linecap:round; stroke-linejoin:round;">
</g>
<g style="fill:#840000; fill-opacity:0.0; 
stroke:#840000; stroke-width:-10; stroke-opacity:1; 
stroke-linecap:round; stroke-linejoin:round;">
</g>
<g style="fill:#840000; fill-opacity:0.0; 
stroke:#840000; stroke-width:100; stroke-opacity:1; 
stroke-linecap:round; stroke-linejoin:round;">
</g>
<g style="fill:#840000; fill-opacity:0.0; 
stroke:#840000; stroke-width:60; stroke-opacity:1; 
stroke-linecap:round; stroke-linejoin:round;">
<rect x="11820" y="41740" width="42520" height="12600" rx="0" />
</g>
<g style="fill:#840000; fill-opacity:0.0; 
stroke:#840000; stroke-width:100; stroke-opacity:1; 
stroke-linecap:round; stroke-linejoin:round;">
</g>
<g style="fill:#840000; fill-opacity:0.0; 
stroke:#840000; stroke-width:60; stroke-opacity:1; 
stroke-linecap:round; stroke-linejoin:round;">
<rect x="3940" y="3940" width="51180" height="51180" rx="0" />
</g>
<g style="fill:#840000; fill-opacity:0.0; 
stroke:#840000; stroke-width:100; stroke-opacity:1; 
stroke-linecap:round; stroke-linejoin:round;">
</g>
<g style="fill:#840000; fill-opacity:0.0; 
stroke:#840000; stroke-width:60; stroke-opacity:1; 
stroke-linecap:round; stroke-linejoin:round;">
<rect x="4720" y="4720" width="49620" height="49620" rx="0" />
</g>
<g style="fill:#840000; fill-opacity:0.0; 
stroke:#840000; stroke-width:100; stroke-opacity:1; 
stroke-linecap:round; stroke-linejoin:round;">
</g>
<g style="fill:#840000; fill-opacity:0.0; 
stroke:#840000; stroke-width:60; stroke-opacity:1; 
stroke-linecap:round; stroke-linejoin:round;">
<path d="M23620 4720
L23620 3940
" />
</g>
<g style="fill:#840000; fill-opacity:0.0; 
stroke:#840000; stroke-width:100; stroke-opacity:1; 
stroke-linecap:round; stroke-linejoin:round;">
</g>
<g style="fill:#840000; fill-opacity:0.0; 
stroke:#840000; stroke-width:60; stroke-opacity:1; 
stroke-linecap:round; stroke-linejoin:round;">
<path d="M43310 4720
L43310 3940
" />
</g>
<g style="fill:#840000; fill-opacity:0.0; 
stroke:#840000; stroke-width:100; stroke-opacity:1; 
stroke-linecap:round; stroke-linejoin:round;">
</g>
<g style="fill:#840000; fill-opacity:0.0; 
stroke:#840000; stroke-width:60; stroke-opacity:1; 
stroke-linecap:round; stroke-linejoin:round;">
<path d="M14190 4560
L13900 4560
" />
<path d="M14050 4560
L14050 4050
L14000 4120
L13950 4170
L13900 4190
" />
</g>
<g style="fill:#840000; fill-opacity:0.0; 
stroke:#840000; stroke-width:100; stroke-opacity:1; 
stroke-linecap:round; stroke-linejoin:round;">
</g>
<g style="fill:#840000; fill-opacity:0.0; 
stroke:#840000; stroke-width:60; stroke-opacity:1; 
stroke-linecap:round; stroke-linejoin:round;">
<path d="M33580 4090
L33610 4070
L33660 4050
L33780 4050
L33830 4070
L33850 4090
L33870 4140
L33870 4190
L33850 4260
L33560 4560
L33870 4560
" />
</g>
<g style="fill:#840000; fill-opacity:0.0; 
stroke:#840000; stroke-width:100; stroke-opacity:1; 
stroke-linecap:round; stroke-linejoin:round;">
</g>
<g style="fill:#840000; fill-opacity:0.0; 
stroke:#840000; stroke-width:60; stroke-opacity:1; 
stroke-linecap:round; stroke-linejoin:round;">
<path d="M53250 4050
L53560 4050
L53390 4240
L53470 4240
L53520 4260
L53540 4290
L53560 4340
L53560 4460
L53540 4510
L53520 4530
L53470 4560
L53320 4560
L53270 4530
L53250 4510
" />
</g>
<g style="fill:#840000; fill-opacity:0.0; 
stroke:#840000; stroke-width:100; stroke-opacity:1; 
stroke-linecap:round; stroke-linejoin:round;">
</g>
<g style="fill:#840000; fill-opacity:0.0; 
stroke:#840000; stroke-width:60; stroke-opacity:1; 
stroke-linecap:round; stroke-linejoin:round;">
<path d="M23620 54340
L23620 55120
" />
</g>
<g style="fill:#840000; fill-opacity:0.0; 
stroke:#840000; stroke-width:100; stroke-opacity:1; 
stroke-linecap:round; stroke-linejoin:round;">
</g>
<g style="fill:#840000; fill-opacity:0.0; 
stroke:#840000; stroke-width:60; stroke-opacity:1; 
stroke-linecap:round; stroke-linejoin:round;">
<path d="M43310 54340
L43310 55120
" />
</g>
<g style="fill:#840000; fill-opacity:0.0; 
stroke:#840000; stroke-width:100; stroke-opacity:1; 
stroke-linecap:round; stroke-linejoin:round;">
</g>
<g style="fill:#840000; fill-opacity:0.0; 
stroke:#840000; stroke-width:60; stroke-opacity:1; 
stroke-linecap:round; stroke-linejoin:round;">
<path d="M14190 54960
L13900 54960
" />
<path d="M14050 54960
L14050 54450
L14000 54520
L13950 54570
L13900 54590
" />
</g>
<g style="fill:#840000; fill-opacity:0.0; 
stroke:#840000; stroke-width:100; stroke-opacity:1; 
stroke-linecap:round; stroke-linejoin:round;">
</g>
<g style="fill:#840000; fill-opacity:0.0; 
stroke:#840000; stroke-width:60; stroke-opacity:1; 
stroke-linecap:round; stroke-linejoin:round;">
<path d="M33580 54490
L33610 54470
L33660 54450
L33780 54450
L33830 54470
L33850 54490
L33870 54540
L33870 54590
L33850 54660
L33560 54960
L33870 54960
" />
</g>
<g style="fill:#840000; fill-opacity:0.0; 
stroke:#840000; stroke-width:100; stroke-opacity:1; 
stroke-linecap:round; stroke-linejoin:round;">
</g>
<g style="fill:#840000; fill-opacity:0.0; 
stroke:#840000; stroke-width:60; stroke-opacity:1; 
stroke-linecap:round; stroke-linejoin:round;">
<path d="M53250 54450
L53560 54450
L53390 54640
L53470 54640
L53520 54660
L53540 54690
L53560 54740
L53560 54860
L53540 54910
L53520 54930
L53470 54960
L53320 54960
L53270 54930
L53250 54910
" />
</g>
<g style="fill:#840000; fill-opacity:0.0; 
stroke:#840000; stroke-width:100; stroke-opacity:1; 
stroke-linecap:round; stroke-linejoin:round;">
</g>
<g style="fill:#840000; fill-opacity:0.0; 
stroke:#840000; stroke-width:60; stroke-opacity:1; 
stroke-linecap:round; stroke-linejoin:round;">
<path d="M3940 23620
L4720 23620
" />
</g>
<g style="fill:#840000; fill-opacity:0.0; 
stroke:#840000; stroke-width:100; stroke-opacity:1; 
stroke-linecap:round; stroke-linejoin:round;">
</g>
<g style="fill:#840000; fill-opacity:0.0; 
stroke:#840000; stroke-width:60; stroke-opacity:1; 
stroke-linecap:round; stroke-linejoin:round;">
<path d="M3940 43310
L4720 43310
" />
</g>
<g style="fill:#840000; fill-opacity:0.0; 
stroke:#840000; stroke-width:100; stroke-opacity:1; 
stroke-linecap:round; stroke-linejoin:round;">
</g>
<g style="fill:#840000; fill-opacity:0.0; 
stroke:#840000; stroke-width:60; stroke-opacity:1; 
stroke-linecap:round; stroke-linejoin:round;">
<path d="M4200 13860
L4450 13860
" />
<path d="M4160 14010
L4330 13500
L4500 14010
" />
</g>
<g style="fill:#840000; fill-opacity:0.0; 
stroke:#840000; stroke-width:100; stroke-opacity:1; 
stroke-linecap:round; stroke-linejoin:round;">
</g>
<g style="fill:#840000; fill-opacity:0.0; 
stroke:#840000; stroke-width:60; stroke-opacity:1; 
stroke-linecap:round; stroke-linejoin:round;">
<path d="M4360 33420
L4430 33440
L4460 33470
L4480 33520
L4480 33590
L4460 33640
L4430 33660
L4390 33690
L4190 33690
L4190 33180
L4360 33180
L4410 33200
L4430 33220
L4460 33270
L4460 33320
L4430 33370
L4410 33390
L4360 33420
L4190 33420
" />
</g>
<g style="fill:#840000; fill-opacity:0.0; 
stroke:#840000; stroke-width:100; stroke-opacity:1; 
stroke-linecap:round; stroke-linejoin:round;">
</g>
<g style="fill:#840000; fill-opacity:0.0; 
stroke:#840000; stroke-width:60; stroke-opacity:1; 
stroke-linecap:round; stroke-linejoin:round;">
<path d="M4480 53330
L4460 53350
L4390 53380
L4340 53380
L4260 53350
L4220 53300
L4190 53250
L4170 53160
L4170 53080
L4190 52990
L4220 52940
L4260 52890
L4340 52870
L4390 52870
L4460 52890
L4480 52910
" />
</g>
<g style="fill:#840000; fill-opacity:0.0; 
stroke:#840000; stroke-width:100; stroke-opacity:1; 
stroke-linecap:round; stroke-linejoin:round;">
</g>
<g style="fill:#840000; fill-opacity:0.0; 
stroke:#840000; stroke-width:60; stroke-opacity:1; 
stroke-linecap:round; stroke-linejoin:round;">
<path d="M55120 23620
L54340 23620
" />
</g>
<g style="fill:#840000; fill-opacity:0.0; 
stroke:#840000; stroke-width:100; stroke-opacity:1; 
stroke-linecap:round; stroke-linejoin:round;">
</g>
<g style="fill:#840000; fill-opacity:0.0; 
stroke:#840000; stroke-width:60; stroke-opacity:1; 
stroke-linecap:round; stroke-linejoin:round;">
<path d="M55120 43310
L54340 43310
" />
</g>
<g style="fill:#840000; fill-opacity:0.0; 
stroke:#840000; stroke-width:100; stroke-opacity:1; 
stroke-linecap:round; stroke-linejoin:round;">
</g>
<g style="fill:#840000; fill-opacity:0.0; 
stroke:#840000; stroke-width:60; stroke-opacity:1; 
stroke-linecap:round; stroke-linejoin:round;">
<path d="M54600 13860
L54850 13860
" />
<path d="M54560 14010
L54730 13500
L54900 14010
" />
</g>
<g style="fill:#840000; fill-opacity:0.0; 
stroke:#840000; stroke-width:100; stroke-opacity:1; 
stroke-linecap:round; stroke-linejoin:round;">
</g>
<g style="fill:#840000; fill-opacity:0.0; 
stroke:#840000; stroke-width:60; stroke-opacity:1; 
stroke-linecap:round; stroke-linejoin:round;">
<path d="M54760 33420
L54830 33440
L54860 33470
L54880 33520
L54880 33590
L54860 33640
L54830 33660
L54790 33690
L54590 33690
L54590 33180
L54760 33180
L54810 33200
L54830 33220
L54860 33270
L54860 33320
L54830 33370
L54810 33390
L54760 33420
L54590 33420
" />
</g>
<g style="fill:#840000; fill-opacity:0.0; 
stroke:#840000; stroke-width:100; stroke-opacity:1; 
stroke-linecap:round; stroke-linejoin:round;">
</g>
<g style="fill:#840000; fill-opacity:0.0; 
stroke:#840000; stroke-width:60; stroke-opacity:1; 
stroke-linecap:round; stroke-linejoin:round;">
<path d="M54880 53330
L54860 53350
L54790 53380
L54740 53380
L54660 53350
L54620 53300
L54590 53250
L54570 53160
L54570 53080
L54590 52990
L54620 52940
L54660 52890
L54740 52870
L54790 52870
L54860 52890
L54880 52910
" />
</g>
<g style="fill:#840000; fill-opacity:0.0; 
stroke:#840000; stroke-width:100; stroke-opacity:1; 
stroke-linecap:round; stroke-linejoin:round;">
</g>
<g style="fill:#840000; fill-opacity:0.0; 
stroke:#840000; stroke-width:60; stroke-opacity:1; 
stroke-linecap:round; stroke-linejoin:round;">
<path d="M21040 52670
L21040 52080
L21180 52080
L21260 52110
L21320 52170
L21340 52220
L21370 52330
L21370 52420
L21340 52530
L21320 52590
L21260 52640
L21180 52670
L21040 52670
" />
<path d="M21880 52670
L21880 52360
L21850 52310
L21790 52280
L21680 52280
L21630 52310
" />
<path d="M21880 52640
L21820 52670
L21680 52670
L21630 52640
L21600 52590
L21600 52530
L21630 52480
L21680 52450
L21820 52450
L21880 52420
" />
<path d="M22080 52280
L22300 52280
" />
<path d="M22160 52080
L22160 52590
L22190 52640
L22240 52670
L22300 52670
" />
<path d="M22720 52640
L22670 52670
L22550 52670
L22500 52640
L22470 52590
L22470 52360
L22500 52310
L22550 52280
L22670 52280
L22720 52310
L22750 52360
L22750 52420
L22470 52480
" />
<path d="M23000 52620
L23030 52640
L23000 52670
L22970 52640
L23000 52620
L23000 52670
" />
<path d="M23000 52310
L23030 52330
L23000 52360
L22970 52330
L23000 52310
L23000 52360
" />
</g>
<g style="fill:#840000; fill-opacity:0.0; 
stroke:#840000; stroke-width:100; stroke-opacity:1; 
stroke-linecap:round; stroke-linejoin:round;">
</g>
<g style="fill:#840000; fill-opacity:0.0; 
stroke:#840000; stroke-width:60; stroke-opacity:1; 
stroke-linecap:round; stroke-linejoin:round;">
<path d="M11820 52960
L54340 52960
" />
</g>
<g style="fill:#840000; fill-opacity:0.0; 
stroke:#840000; stroke-width:100; stroke-opacity:1; 
stroke-linecap:round; stroke-linejoin:round;">
</g>
<g style="fill:#840000; fill-opacity:0.0; 
stroke:#840000; stroke-width:60; stroke-opacity:1; 
stroke-linecap:round; stroke-linejoin:round;">
<path d="M12380 53770
L12380 53180
" />
<path d="M12710 53770
L12460 53430
" />
<path d="M12710 53180
L12380 53520
" />
<path d="M12970 53770
L12970 53380
" />
<path d="M12970 53180
L12940 53210
L12970 53240
L12990 53210
L12970 53180
L12970 53240
" />
<path d="M13580 53720
L13560 53740
L13470 53770
L13420 53770
L13330 53740
L13270 53690
L13250 53630
L13220 53520
L13220 53430
L13250 53320
L13270 53270
L13330 53210
L13420 53180
L13470 53180
L13560 53210
L13580 53240
" />
<path d="M14090 53770
L14090 53460
L14060 53410
L14010 53380
L13890 53380
L13840 53410
" />
<path d="M14090 53740
L14030 53770
L13890 53770
L13840 53740
L13810 53690
L13810 53630
L13840 53580
L13890 53550
L14030 53550
L14090 53520
" />
<path d="M14620 53770
L14620 53180
" />
<path d="M14620 53740
L14570 53770
L14450 53770
L14400 53740
L14370 53720
L14340 53660
L14340 53490
L14370 53430
L14400 53410
L14450 53380
L14570 53380
L14620 53410
" />
<path d="M15350 53460
L15550 53460
" />
<path d="M15630 53770
L15350 53770
L15350 53180
L15630 53180
" />
<path d="M15890 53720
L15920 53740
L15890 53770
L15860 53740
L15890 53720
L15890 53770
" />
<path d="M16170 53770
L16170 53180
L16310 53180
L16390 53210
L16450 53270
L16480 53320
L16510 53430
L16510 53520
L16480 53630
L16450 53690
L16390 53740
L16310 53770
L16170 53770
" />
<path d="M16760 53720
L16790 53740
L16760 53770
L16730 53740
L16760 53720
L16760 53770
" />
<path d="M17010 53600
L17290 53600
" />
<path d="M16960 53770
L17150 53180
L17350 53770
" />
<path d="M17550 53720
L17570 53740
L17550 53770
L17520 53740
L17550 53720
L17550 53770
" />
<path d="M18730 53770
L18730 53180
" />
<path d="M18780 53550
L18950 53770
" />
<path d="M18950 53380
L18730 53600
" />
<path d="M19200 53770
L19200 53380
" />
<path d="M19200 53180
L19170 53210
L19200 53240
L19230 53210
L19200 53180
L19200 53240
" />
<path d="M19740 53740
L19680 53770
L19570 53770
L19510 53740
L19480 53720
L19460 53660
L19460 53490
L19480 53430
L19510 53410
L19570 53380
L19680 53380
L19740 53410
" />
<path d="M20240 53770
L20240 53460
L20210 53410
L20160 53380
L20050 53380
L19990 53410
" />
<path d="M20240 53740
L20190 53770
L20050 53770
L19990 53740
L19960 53690
L19960 53630
L19990 53580
L20050 53550
L20190 53550
L20240 53520
" />
<path d="M20780 53770
L20780 53180
" />
<path d="M20780 53740
L20720 53770
L20610 53770
L20550 53740
L20520 53720
L20500 53660
L20500 53490
L20520 53430
L20550 53410
L20610 53380
L20720 53380
L20780 53410
" />
<path d="M21680 54000
L21650 53970
L21590 53880
L21560 53830
L21530 53740
L21510 53600
L21510 53490
L21530 53350
L21560 53270
L21590 53210
L21650 53130
L21680 53100
" />
<path d="M22180 53180
L21900 53180
L21870 53460
L21900 53430
L21960 53410
L22100 53410
L22150 53430
L22180 53460
L22210 53520
L22210 53660
L22180 53720
L22150 53740
L22100 53770
L21960 53770
L21900 53740
L21870 53720
" />
<path d="M22460 53720
L22490 53740
L22460 53770
L22430 53740
L22460 53720
L22460 53770
" />
<path d="M22860 53180
L22910 53180
L22970 53210
L23000 53240
L23020 53290
L23050 53410
L23050 53550
L23020 53660
L23000 53720
L22970 53740
L22910 53770
L22860 53770
L22800 53740
L22770 53720
L22740 53660
L22710 53550
L22710 53410
L22740 53290
L22770 53240
L22800 53210
L22860 53180
" />
<path d="M23300 53720
L23330 53740
L23300 53770
L23280 53740
L23300 53720
L23300 53770
" />
<path d="M23700 53180
L23750 53180
L23810 53210
L23840 53240
L23870 53290
L23890 53410
L23890 53550
L23870 53660
L23840 53720
L23810 53740
L23750 53770
L23700 53770
L23640 53740
L23610 53720
L23590 53660
L23560 53550
L23560 53410
L23590 53290
L23610 53240
L23640 53210
L23700 53180
" />
<path d="M24150 53550
L24600 53550
" />
<path d="M24880 53770
L24880 53380
" />
<path d="M24880 53490
L24910 53430
L24930 53410
L24990 53380
L25050 53380
" />
<path d="M25500 53740
L25440 53770
L25330 53770
L25270 53740
L25240 53720
L25220 53660
L25220 53490
L25240 53430
L25270 53410
L25330 53380
L25440 53380
L25500 53410
" />
<path d="M25720 53240
L25750 53210
L25810 53180
L25950 53180
L26000 53210
L26030 53240
L26060 53290
L26060 53350
L26030 53430
L25690 53770
L26060 53770
" />
<path d="M26310 53550
L26760 53550
" />
<path d="M27290 53180
L27180 53180
L27130 53210
L27100 53240
L27040 53320
L27010 53430
L27010 53660
L27040 53720
L27070 53740
L27130 53770
L27240 53770
L27290 53740
L27320 53720
L27350 53660
L27350 53520
L27320 53460
L27290 53430
L27240 53410
L27130 53410
L27070 53430
L27040 53460
L27010 53520
" />
<path d="M27550 53180
L27910 53180
L27720 53410
L27800 53410
L27860 53430
L27880 53460
L27910 53520
L27910 53660
L27880 53720
L27860 53740
L27800 53770
L27630 53770
L27580 53740
L27550 53720
" />
<path d="M28170 53550
L28610 53550
" />
<path d="M29150 53380
L29150 53860
L29120 53910
L29090 53940
L29040 53970
L28950 53970
L28900 53940
" />
<path d="M29150 53740
L29090 53770
L28980 53770
L28920 53740
L28900 53720
L28870 53660
L28870 53490
L28900 53430
L28920 53410
L28980 53380
L29090 53380
L29150 53410
" />
<path d="M29680 53770
L29680 53180
" />
<path d="M29680 53740
L29630 53770
L29510 53770
L29460 53740
L29430 53720
L29400 53660
L29400 53490
L29430 53430
L29460 53410
L29510 53380
L29630 53380
L29680 53410
" />
<path d="M30220 53380
L30220 53770
" />
<path d="M30080 53150
L29930 53580
L30300 53580
" />
<path d="M30470 53180
L30830 53180
L30640 53410
L30720 53410
L30780 53430
L30810 53460
L30830 53520
L30830 53660
L30810 53720
L30780 53740
L30720 53770
L30550 53770
L30500 53740
L30470 53720
" />
<path d="M31110 53770
L31230 53770
L31280 53740
L31310 53720
L31370 53630
L31400 53520
L31400 53290
L31370 53240
L31340 53210
L31280 53180
L31170 53180
L31110 53210
L31090 53240
L31060 53290
L31060 53430
L31090 53490
L31110 53520
L31170 53550
L31280 53550
L31340 53520
L31370 53490
L31400 53430
" />
<path d="M31590 53180
L31960 53180
L31760 53410
L31850 53410
L31900 53430
L31930 53460
L31960 53520
L31960 53660
L31930 53720
L31900 53740
L31850 53770
L31680 53770
L31620 53740
L31590 53720
" />
<path d="M32210 53770
L32210 53180
" />
<path d="M32210 53410
L32270 53380
L32380 53380
L32440 53410
L32460 53430
L32490 53490
L32490 53660
L32460 53720
L32440 53740
L32380 53770
L32270 53770
L32210 53740
" />
<path d="M32720 53240
L32740 53210
L32800 53180
L32940 53180
L33000 53210
L33030 53240
L33050 53290
L33050 53350
L33030 53430
L32690 53770
L33050 53770
" />
<path d="M33390 53430
L33330 53410
L33310 53380
L33280 53320
L33280 53290
L33310 53240
L33330 53210
L33390 53180
L33500 53180
L33560 53210
L33590 53240
L33620 53290
L33620 53320
L33590 53380
L33560 53410
L33500 53430
L33390 53430
L33330 53460
L33310 53490
L33280 53550
L33280 53660
L33310 53720
L33330 53740
L33390 53770
L33500 53770
L33560 53740
L33590 53720
L33620 53660
L33620 53550
L33590 53490
L33560 53460
L33500 53430
" />
<path d="M34180 53770
L33840 53770
" />
<path d="M34010 53770
L34010 53180
L33950 53270
L33900 53320
L33840 53350
" />
<path d="M34370 54000
L34400 53970
L34460 53880
L34490 53830
L34510 53740
L34540 53600
L34540 53490
L34510 53350
L34490 53270
L34460 53210
L34400 53130
L34370 53100
" />
</g>
<g style="fill:#840000; fill-opacity:0.0; 
stroke:#840000; stroke-width:100; stroke-opacity:1; 
stroke-linecap:round; stroke-linejoin:round;">
</g>
<g style="fill:#840000; fill-opacity:0.0; 
stroke:#840000; stroke-width:60; stroke-opacity:1; 
stroke-linecap:round; stroke-linejoin:round;">
<path d="M11820 51780
L54340 51780
" />
</g>
<g style="fill:#840000; fill-opacity:0.0; 
stroke:#840000; stroke-width:100; stroke-opacity:1; 
stroke-linecap:round; stroke-linejoin:round;">
</g>
<g style="fill:#840000; fill-opacity:0.0; 
stroke:#840000; stroke-width:120; stroke-opacity:1; 
stroke-linecap:round; stroke-linejoin:round;">
<path d="M46220 52670
L46020 52390
" />
<path d="M45880 52670
L45880 52080
L46110 52080
L46160 52110
L46190 52140
L46220 52190
L46220 52280
L46190 52330
L46160 52360
L46110 52390
L45880 52390
" />
<path d="M46700 52640
L46640 52670
L46530 52670
L46470 52640
L46450 52590
L46450 52360
L46470 52310
L46530 52280
L46640 52280
L46700 52310
L46730 52360
L46730 52420
L46450 52480
" />
<path d="M46920 52280
L47060 52670
L47200 52280
" />
<path d="M47430 52620
L47460 52640
L47430 52670
L47400 52640
L47430 52620
L47430 52670
" />
<path d="M47430 52310
L47460 52330
L47430 52360
L47400 52330
L47430 52310
L47430 52360
" />
</g>
<g style="fill:#840000; fill-opacity:0.0; 
stroke:#840000; stroke-width:100; stroke-opacity:1; 
stroke-linecap:round; stroke-linejoin:round;">
</g>
<g style="fill:#840000; fill-opacity:0.0; 
stroke:#840000; stroke-width:60; stroke-opacity:1; 
stroke-linecap:round; stroke-linejoin:round;">
<path d="M12350 52640
L12430 52670
L12570 52670
L12630 52640
L12660 52620
L12680 52560
L12680 52500
L12660 52450
L12630 52420
L12570 52390
L12460 52360
L12400 52330
L12380 52310
L12350 52250
L12350 52190
L12380 52140
L12400 52110
L12460 52080
L12600 52080
L12680 52110
" />
<path d="M12940 52670
L12940 52280
" />
<path d="M12940 52080
L12910 52110
L12940 52140
L12970 52110
L12940 52080
L12940 52140
" />
<path d="M13160 52280
L13470 52280
L13160 52670
L13470 52670
" />
<path d="M13920 52640
L13860 52670
L13750 52670
L13700 52640
L13670 52590
L13670 52360
L13700 52310
L13750 52280
L13860 52280
L13920 52310
L13950 52360
L13950 52420
L13670 52480
" />
<path d="M14200 52620
L14230 52640
L14200 52670
L14170 52640
L14200 52620
L14200 52670
" />
<path d="M14200 52310
L14230 52330
L14200 52360
L14170 52330
L14200 52310
L14200 52360
" />
<path d="M14930 52080
L14930 52560
L14960 52620
L14990 52640
L15040 52670
L15160 52670
L15210 52640
L15240 52620
L15270 52560
L15270 52080
" />
<path d="M15520 52640
L15580 52670
L15690 52670
L15750 52640
L15780 52590
L15780 52560
L15750 52500
L15690 52480
L15610 52480
L15550 52450
L15520 52390
L15520 52360
L15550 52310
L15610 52280
L15690 52280
L15750 52310
" />
<path d="M16250 52640
L16200 52670
L16080 52670
L16030 52640
L16000 52590
L16000 52360
L16030 52310
L16080 52280
L16200 52280
L16250 52310
L16280 52360
L16280 52420
L16000 52480
" />
<path d="M16530 52670
L16530 52280
" />
<path d="M16530 52390
L16560 52330
L16590 52310
L16650 52280
L16700 52280
" />
</g>
<g style="fill:#840000; fill-opacity:0.0; 
stroke:#840000; stroke-width:100; stroke-opacity:1; 
stroke-linecap:round; stroke-linejoin:round;">
</g>
<g style="fill:#840000; fill-opacity:0.0; 
stroke:#840000; stroke-width:60; stroke-opacity:1; 
stroke-linecap:round; stroke-linejoin:round;">
<path d="M45840 53770
L45840 53180
" />
<path d="M46370 53770
L46370 53180
" />
<path d="M46370 53740
L46310 53770
L46200 53770
L46140 53740
L46120 53720
L46090 53660
L46090 53490
L46120 53430
L46140 53410
L46200 53380
L46310 53380
L46370 53410
" />
<path d="M46650 53720
L46680 53740
L46650 53770
L46620 53740
L46650 53720
L46650 53770
" />
<path d="M46650 53410
L46680 53430
L46650 53460
L46620 53430
L46650 53410
L46650 53460
" />
<path d="M47350 53240
L47380 53210
L47440 53180
L47580 53180
L47630 53210
L47660 53240
L47690 53290
L47690 53350
L47660 53430
L47320 53770
L47690 53770
" />
<path d="M48360 53150
L47860 53910
" />
<path d="M48590 53770
L48700 53770
L48760 53740
L48790 53720
L48840 53630
L48870 53520
L48870 53290
L48840 53240
L48810 53210
L48760 53180
L48650 53180
L48590 53210
L48560 53240
L48530 53290
L48530 53430
L48560 53490
L48590 53520
L48650 53550
L48760 53550
L48810 53520
L48840 53490
L48870 53430
" />
</g>
<g style="fill:#840000; fill-opacity:0.0; 
stroke:#840000; stroke-width:100; stroke-opacity:1; 
stroke-linecap:round; stroke-linejoin:round;">
</g>
<g style="fill:#840000; fill-opacity:0.0; 
stroke:#840000; stroke-width:60; stroke-opacity:1; 
stroke-linecap:round; stroke-linejoin:round;">
<path d="M11820 50200
L54340 50200
" />
</g>
<g style="fill:#840000; fill-opacity:0.0; 
stroke:#840000; stroke-width:100; stroke-opacity:1; 
stroke-linecap:round; stroke-linejoin:round;">
</g>
<g style="fill:#840000; fill-opacity:0.0; 
stroke:#840000; stroke-width:160; stroke-opacity:1; 
stroke-linecap:round; stroke-linejoin:round;">
<path d="M12490 50470
L12940 50470
" />
<path d="M12610 51260
L12710 50470
" />
<path d="M13100 51260
L13170 50740
" />
<path d="M13200 50470
L13160 50510
L13190 50550
L13240 50510
L13200 50470
L13190 50550
" />
<path d="M13430 50740
L13730 50740
" />
<path d="M13580 50470
L13490 51150
L13520 51220
L13590 51260
L13670 51260
" />
<path d="M14040 51260
L13970 51220
L13950 51150
L14030 50470
" />
<path d="M14650 51220
L14570 51260
L14420 51260
L14350 51220
L14320 51150
L14360 50850
L14410 50770
L14490 50740
L14640 50740
L14710 50770
L14740 50850
L14730 50920
L14340 51000
" />
<path d="M15030 51190
L15060 51220
L15020 51260
L14990 51220
L15030 51190
L15020 51260
" />
<path d="M15080 50770
L15120 50810
L15070 50850
L15040 50810
L15080 50770
L15070 50850
" />
</g>
<g style="fill:#840000; fill-opacity:0.0; 
stroke:#840000; stroke-width:100; stroke-opacity:1; 
stroke-linecap:round; stroke-linejoin:round;">
</g>
<g style="fill:#840000; fill-opacity:0.0; 
stroke:#840000; stroke-width:60; stroke-opacity:1; 
stroke-linecap:round; stroke-linejoin:round;">
<path d="M12570 49440
L12380 49440
" />
<path d="M12380 49750
L12380 49160
L12660 49160
" />
<path d="M12880 49750
L12880 49360
" />
<path d="M12880 49160
L12850 49190
L12880 49220
L12910 49190
L12880 49160
L12880 49220
" />
<path d="M13250 49750
L13190 49720
L13160 49670
L13160 49160
" />
<path d="M13700 49720
L13640 49750
L13530 49750
L13470 49720
L13440 49670
L13440 49440
L13470 49390
L13530 49360
L13640 49360
L13700 49390
L13720 49440
L13720 49500
L13440 49560
" />
<path d="M13980 49700
L14010 49720
L13980 49750
L13950 49720
L13980 49700
L13980 49750
" />
<path d="M13980 49390
L14010 49410
L13980 49440
L13950 49410
L13980 49390
L13980 49440
" />
<path d="M14710 49750
L14710 49360
" />
<path d="M14710 49160
L14680 49190
L14710 49220
L14740 49190
L14710 49160
L14710 49220
" />
<path d="M14990 49750
L14990 49360
" />
<path d="M14990 49470
L15020 49410
L15040 49390
L15100 49360
L15160 49360
" />
<path d="M15350 49750
L15350 49160
" />
<path d="M15350 49390
L15410 49360
L15520 49360
L15580 49390
L15610 49410
L15630 49470
L15630 49640
L15610 49700
L15580 49720
L15520 49750
L15410 49750
L15350 49720
" />
<path d="M15970 49750
L15920 49720
L15890 49670
L15890 49160
" />
<path d="M16280 49750
L16220 49720
L16200 49700
L16170 49640
L16170 49470
L16200 49410
L16220 49390
L16280 49360
L16370 49360
L16420 49390
L16450 49410
L16480 49470
L16480 49640
L16450 49700
L16420 49720
L16370 49750
L16280 49750
" />
<path d="M16980 49720
L16930 49750
L16810 49750
L16760 49720
L16730 49700
L16700 49640
L16700 49470
L16730 49410
L16760 49390
L16810 49360
L16930 49360
L16980 49390
" />
<path d="M17240 49750
L17240 49160
" />
<path d="M17290 49530
L17460 49750
" />
<path d="M17460 49360
L17240 49580
" />
<path d="M17710 49700
L17740 49720
L17710 49750
L17690 49720
L17710 49700
L17710 49750
" />
<path d="M17970 49720
L18020 49750
L18130 49750
L18190 49720
L18220 49670
L18220 49640
L18190 49580
L18130 49560
L18050 49560
L17990 49530
L17970 49470
L17970 49440
L17990 49390
L18050 49360
L18130 49360
L18190 49390
" />
<path d="M18730 49720
L18670 49750
L18560 49750
L18500 49720
L18470 49700
L18440 49640
L18440 49470
L18470 49410
L18500 49390
L18560 49360
L18670 49360
L18730 49390
" />
<path d="M18980 49750
L18980 49160
" />
<path d="M19230 49750
L19230 49440
L19200 49390
L19150 49360
L19060 49360
L19010 49390
L18980 49410
" />
</g>
<g style="fill:#840000; fill-opacity:0.0; 
stroke:#840000; stroke-width:100; stroke-opacity:1; 
stroke-linecap:round; stroke-linejoin:round;">
</g>
<g style="fill:#840000; fill-opacity:0.0; 
stroke:#840000; stroke-width:60; stroke-opacity:1; 
stroke-linecap:round; stroke-linejoin:round;">
<path d="M11820 47840
L54340 47840
" />
</g>
<g style="fill:#840000; fill-opacity:0.0; 
stroke:#840000; stroke-width:100; stroke-opacity:1; 
stroke-linecap:round; stroke-linejoin:round;">
</g>
<g style="fill:#840000; fill-opacity:0.0; 
stroke:#840000; stroke-width:60; stroke-opacity:1; 
stroke-linecap:round; stroke-linejoin:round;">
<path d="M12350 48660
L12430 48690
L12570 48690
L12630 48660
L12660 48640
L12680 48580
L12680 48520
L12660 48470
L12630 48440
L12570 48410
L12460 48380
L12400 48350
L12380 48330
L12350 48270
L12350 48210
L12380 48160
L12400 48130
L12460 48100
L12600 48100
L12680 48130
" />
<path d="M12940 48690
L12940 48100
" />
<path d="M13190 48690
L13190 48380
L13160 48330
L13110 48300
L13020 48300
L12970 48330
L12940 48350
" />
<path d="M13700 48660
L13640 48690
L13530 48690
L13470 48660
L13440 48610
L13440 48380
L13470 48330
L13530 48300
L13640 48300
L13700 48330
L13720 48380
L13720 48440
L13440 48500
" />
<path d="M14200 48660
L14150 48690
L14030 48690
L13980 48660
L13950 48610
L13950 48380
L13980 48330
L14030 48300
L14150 48300
L14200 48330
L14230 48380
L14230 48440
L13950 48500
" />
<path d="M14400 48300
L14620 48300
" />
<path d="M14480 48100
L14480 48610
L14510 48660
L14570 48690
L14620 48690
" />
<path d="M14820 48640
L14850 48660
L14820 48690
L14790 48660
L14820 48640
L14820 48690
" />
<path d="M14820 48330
L14850 48350
L14820 48380
L14790 48350
L14820 48330
L14820 48380
" />
<path d="M15970 48070
L15470 48830
" />
<path d="M16370 48380
L16450 48410
L16480 48440
L16510 48500
L16510 48580
L16480 48640
L16450 48660
L16390 48690
L16170 48690
L16170 48100
L16370 48100
L16420 48130
L16450 48160
L16480 48210
L16480 48270
L16450 48330
L16420 48350
L16370 48380
L16170 48380
" />
<path d="M16840 48690
L16790 48660
L16760 48610
L16760 48100
" />
<path d="M17150 48690
L17100 48660
L17070 48640
L17040 48580
L17040 48410
L17070 48350
L17100 48330
L17150 48300
L17240 48300
L17290 48330
L17320 48350
L17350 48410
L17350 48580
L17320 48640
L17290 48660
L17240 48690
L17150 48690
" />
<path d="M17850 48660
L17800 48690
L17690 48690
L17630 48660
L17600 48640
L17570 48580
L17570 48410
L17600 48350
L17630 48330
L17690 48300
L17800 48300
L17850 48330
" />
<path d="M18110 48690
L18110 48100
" />
<path d="M18160 48470
L18330 48690
" />
<path d="M18330 48300
L18110 48520
" />
<path d="M19150 48100
L19200 48100
L19260 48130
L19290 48160
L19320 48210
L19340 48330
L19340 48470
L19320 48580
L19290 48640
L19260 48660
L19200 48690
L19150 48690
L19090 48660
L19060 48640
L19030 48580
L19010 48470
L19010 48330
L19030 48210
L19060 48160
L19090 48130
L19150 48100
" />
<path d="M20020 48070
L19510 48830
" />
</g>
<g style="fill:#840000; fill-opacity:0.0; 
stroke:#840000; stroke-width:100; stroke-opacity:1; 
stroke-linecap:round; stroke-linejoin:round;">
</g>
<g style="fill:#840000; fill-opacity:0.0; 
stroke:#840000; stroke-width:60; stroke-opacity:1; 
stroke-linecap:round; stroke-linejoin:round;">
<path d="M19690 51780
L19690 52960
" />
</g>
<g style="fill:#840000; fill-opacity:0.0; 
stroke:#840000; stroke-width:100; stroke-opacity:1; 
stroke-linecap:round; stroke-linejoin:round;">
</g>
<g style="fill:#840000; fill-opacity:0.0; 
stroke:#840000; stroke-width:60; stroke-opacity:1; 
stroke-linecap:round; stroke-linejoin:round;">
<path d="M44890 51780
L44890 54340
" />
</g>
<g style="fill:#840000; fill-opacity:0.0; 
stroke:#840000; stroke-width:0; stroke-opacity:1; 
stroke-linecap:round; stroke-linejoin:round;">
</g>
<g style="fill:#840000; fill-opacity:0.0; 
stroke:#840000; stroke-width:80; stroke-opacity:1; 
stroke-linecap:round; stroke-linejoin:round;">
<polyline fill="none;"
points="28000,29000
27000,29000
" /> 
</g>
<g style="fill:#840000; fill-opacity:0.0; 
stroke:#840000; stroke-width:60; stroke-opacity:1; 
stroke-linecap:round; stroke-linejoin:round;">
<polyline fill="none;"
points="27500,29000
27500,28000
" /> 
</g>
<g style="fill:#840000; fill-opacity:0.0; 
stroke:#840000; stroke-width:80; stroke-opacity:1; 
stroke-linecap:round; stroke-linejoin:round;">
<polyline fill="none;"
points="28000,28000
27000,28000
27500,29000
28000,28000
" /> 
</g>
<g style="fill:#840000; fill-opacity:0.0; 
stroke:#840000; stroke-width:60; stroke-opacity:1; 
stroke-linecap:round; stroke-linejoin:round;">
<polyline fill="none;"
points="27800,29700
28400,30300
28400,30000
28400,30300
28100,30300
" /> 
<polyline fill="none;"
points="27800,29200
28400,29800
28400,29500
28400,29800
28100,29800
" /> 
<path d="M27500 29000
L27500 30000
" />
<path d="M27500 28000
L27500 27000
" />
</g>
<g style="fill:#008484; fill-opacity:0.0; 
stroke:#008484; stroke-width:60; stroke-opacity:1; 
stroke-linecap:round; stroke-linejoin:round;">
<path d="M25610 28190
L25610 27690
L25730 27690
L25800 27720
L25840 27760
L25870 27810
L25890 27910
L25890 27980
L25870 28070
L25840 28120
L25800 28170
L25730 28190
L25610 28190
" />
<path d="M26370 28190
L26080 28190
" />
<path d="M26230 28190
L26230 27690
L26180 27760
L26130 27810
L26080 27830
" />
<path d="M23610 28930
L23770 28930
" />
<path d="M23840 29190
L23610 29190
L23610 28690
L23840 28690
" />
<path d="M24060 29190
L24060 28690
L24230 29050
L24390 28690
L24390 29190
" />
<path d="M24630 29190
L24630 28690
" />
<path d="M24800 28690
L25080 28690
" />
<path d="M24940 29190
L24940 28690
" />
<path d="M25180 28690
L25460 28690
" />
<path d="M25320 29190
L25320 28690
" />
<path d="M25630 28930
L25800 28930
" />
<path d="M25870 29190
L25630 29190
L25630 28690
L25870 28690
" />
<path d="M26370 29190
L26200 28950
" />
<path d="M26080 29190
L26080 28690
L26270 28690
L26320 28720
L26340 28740
L26370 28790
L26370 28860
L26340 28910
L26320 28930
L26270 28950
L26080 28950
" />
</g>
<g style="fill:#008484; fill-opacity:0.0; 
stroke:#008484; stroke-width:0; stroke-opacity:1; 
stroke-linecap:round; stroke-linejoin:round;">
</g>
<g style="fill:#840000; fill-opacity:0.0; 
stroke:#840000; stroke-width:0; stroke-opacity:1; 
stroke-linecap:round; stroke-linejoin:round;">
</g>
<g style="fill:#840000; fill-opacity:0.0; 
stroke:#840000; stroke-width:100; stroke-opacity:1; 
stroke-linecap:round; stroke-linejoin:round;">
<rect x="27100" y="23000" width="800" height="2000" rx="0" />
</g>
<g style="fill:#840000; fill-opacity:0.0; 
stroke:#840000; stroke-width:60; stroke-opacity:1; 
stroke-linecap:round; stroke-linejoin:round;">
<path d="M27500 25000
L27500 25500
" />
<path d="M27500 23000
L27500 22500
" />
</g>
<g style="fill:#008484; fill-opacity:0.0; 
stroke:#008484; stroke-width:60; stroke-opacity:1; 
stroke-linecap:round; stroke-linejoin:round;">
<path d="M26200 23730
L26040 23490
" />
<path d="M25920 23730
L25920 23230
L26110 23230
L26150 23260
L26180 23280
L26200 23330
L26200 23400
L26180 23450
L26150 23470
L26110 23490
L25920 23490
" />
<path d="M26370 23230
L26680 23230
L26510 23420
L26580 23420
L26630 23450
L26650 23470
L26680 23520
L26680 23640
L26650 23680
L26630 23710
L26580 23730
L26440 23730
L26390 23710
L26370 23680
" />
<path d="M24910 24140
L25220 24140
L25060 24330
L25130 24330
L25170 24360
L25200 24380
L25220 24430
L25220 24550
L25200 24590
L25170 24620
L25130 24640
L24980 24640
L24940 24620
L24910 24590
" />
<path d="M25390 24140
L25700 24140
L25530 24330
L25600 24330
L25650 24360
L25670 24380
L25700 24430
L25700 24550
L25670 24590
L25650 24620
L25600 24640
L25460 24640
L25410 24620
L25390 24590
" />
<path d="M26010 24140
L26060 24140
L26100 24170
L26130 24190
L26150 24240
L26170 24330
L26170 24450
L26150 24550
L26130 24590
L26100 24620
L26060 24640
L26010 24640
L25960 24620
L25940 24590
L25910 24550
L25890 24450
L25890 24330
L25910 24240
L25940 24190
L25960 24170
L26010 24140
" />
<path d="M26670 24640
L26510 24400
" />
<path d="M26390 24640
L26390 24140
L26580 24140
L26630 24170
L26650 24190
L26670 24240
L26670 24310
L26650 24360
L26630 24380
L26580 24400
L26390 24400
" />
</g>
<g style="fill:#008400; fill-opacity:0.0; 
stroke:#008400; stroke-width:60; stroke-opacity:1; 
stroke-linecap:round; stroke-linejoin:round;">
<path d="M27500 27000
L27500 25500
" />
<path d="M27500 22500
L27500 21500
" />
<path d="M27500 30000
L27500 31500
" />
<path d="M32500 30500
L32500 31500
" />
</g>
<g style="fill:#008400; fill-opacity:0.0; 
stroke:#008400; stroke-width:0; stroke-opacity:1; 
stroke-linecap:round; stroke-linejoin:round;">
</g>
<g style="fill:#840000; fill-opacity:0.0; 
stroke:#840000; stroke-width:0; stroke-opacity:1; 
stroke-linecap:round; stroke-linejoin:round;">
</g>
<g style="fill:#840000; fill-opacity:0.0; 
stroke:#840000; stroke-width:100; stroke-opacity:1; 
stroke-linecap:round; stroke-linejoin:round;">
<rect x="32100" y="23000" width="800" height="2000" rx="0" />
</g>
<g style="fill:#840000; fill-opacity:0.0; 
stroke:#840000; stroke-width:60; stroke-opacity:1; 
stroke-linecap:round; stroke-linejoin:round;">
<path d="M32500 25000
L32500 25500
" />
<path d="M32500 23000
L32500 22500
" />
</g>
<g style="fill:#008484; fill-opacity:0.0; 
stroke:#008484; stroke-width:60; stroke-opacity:1; 
stroke-linecap:round; stroke-linejoin:round;">
<path d="M31200 23730
L31040 23490
" />
<path d="M30920 23730
L30920 23230
L31110 23230
L31150 23260
L31180 23280
L31200 23330
L31200 23400
L31180 23450
L31150 23470
L31110 23490
L30920 23490
" />
<path d="M31630 23400
L31630 23730
" />
<path d="M31510 23210
L31390 23560
L31700 23560
" />
<path d="M30320 24640
L30030 24640
" />
<path d="M30180 24640
L30180 24140
L30130 24210
L30080 24260
L30030 24280
" />
<path d="M30630 24140
L30680 24140
L30720 24170
L30750 24190
L30770 24240
L30800 24330
L30800 24450
L30770 24550
L30750 24590
L30720 24620
L30680 24640
L30630 24640
L30580 24620
L30560 24590
L30530 24550
L30510 24450
L30510 24330
L30530 24240
L30560 24190
L30580 24170
L30630 24140
" />
<path d="M31010 24640
L31010 24140
" />
<path d="M31060 24450
L31200 24640
" />
<path d="M31200 24310
L31010 24500
" />
<path d="M31510 24140
L31560 24140
L31610 24170
L31630 24190
L31650 24240
L31680 24330
L31680 24450
L31650 24550
L31630 24590
L31610 24620
L31560 24640
L31510 24640
L31460 24620
L31440 24590
L31410 24550
L31390 24450
L31390 24330
L31410 24240
L31440 24190
L31460 24170
L31510 24140
" />
</g>
<g style="fill:#008400; fill-opacity:0.0; 
stroke:#008400; stroke-width:60; stroke-opacity:1; 
stroke-linecap:round; stroke-linejoin:round;">
<path d="M32500 22500
L32500 21500
" />
<path d="M32500 26000
L35000 26000
" />
</g>
<g style="fill:#008400; fill-opacity:0.0; 
stroke:#008400; stroke-width:0; stroke-opacity:1; 
stroke-linecap:round; stroke-linejoin:round;">
</g>
<g style="fill:#008400; fill-opacity:1.0; 
stroke:#008400; stroke-width:100; stroke-opacity:1; 
stroke-linecap:round; stroke-linejoin:round;">
<circle cx="32500" cy="26000" r="200" /> 
</g>
<g style="fill:#008400; fill-opacity:1.0; 
stroke:#008400; stroke-width:60; stroke-opacity:1; 
stroke-linecap:round; stroke-linejoin:round;">
</g>
<g style="fill:#008400; fill-opacity:0.0; 
stroke:#008400; stroke-width:60; stroke-opacity:1; 
stroke-linecap:round; stroke-linejoin:round;">
<path d="M32500 26000
L32500 25500
" />
<path d="M32500 26500
L32500 26000
" />
<path d="M32500 21500
L30000 21500
" />
</g>
<g style="fill:#008400; fill-opacity:0.0; 
stroke:#008400; stroke-width:0; stroke-opacity:1; 
stroke-linecap:round; stroke-linejoin:round;">
</g>
<g style="fill:#840000; fill-opacity:0.0; 
stroke:#840000; stroke-width:0; stroke-opacity:1; 
stroke-linecap:round; stroke-linejoin:round;">
</g>
<g style="fill:#840000; fill-opacity:0.0; 
stroke:#840000; stroke-width:60; stroke-opacity:1; 
stroke-linecap:round; stroke-linejoin:round;">
<polyline fill="none;"
points="29700,20000
30000,19500
" /> 
<polyline fill="none;"
points="30000,20500
30000,19500
" /> 
<polyline fill="none;"
points="30000,19500
30300,20000
" /> 
</g>
<g style="fill:#008484; fill-opacity:0.0; 
stroke:#008484; stroke-width:60; stroke-opacity:1; 
stroke-linecap:round; stroke-linejoin:round;">
<path d="M29500 18820
L29880 18820
" />
<path d="M29690 19010
L29690 18630
" />
<path d="M30360 18510
L30120 18510
L30100 18750
L30120 18730
L30170 18700
L30290 18700
L30340 18730
L30360 18750
L30380 18800
L30380 18920
L30360 18960
L30340 18990
L30290 19010
L30170 19010
L30120 18990
L30100 18960
" />
<path d="M30530 18510
L30690 19010
L30860 18510
" />
</g>
<g style="fill:#008400; fill-opacity:0.0; 
stroke:#008400; stroke-width:60; stroke-opacity:1; 
stroke-linecap:round; stroke-linejoin:round;">
<path d="M30000 21500
L30000 20500
" />
</g>
<g style="fill:#008400; fill-opacity:0.0; 
stroke:#008400; stroke-width:0; stroke-opacity:1; 
stroke-linecap:round; stroke-linejoin:round;">
</g>
<g style="fill:#008400; fill-opacity:1.0; 
stroke:#008400; stroke-width:100; stroke-opacity:1; 
stroke-linecap:round; stroke-linejoin:round;">
<circle cx="30000" cy="21500" r="200" /> 
</g>
<g style="fill:#008400; fill-opacity:1.0; 
stroke:#008400; stroke-width:60; stroke-opacity:1; 
stroke-linecap:round; stroke-linejoin:round;">
</g>
<g style="fill:#008400; fill-opacity:0.0; 
stroke:#008400; stroke-width:60; stroke-opacity:1; 
stroke-linecap:round; stroke-linejoin:round;">
<path d="M30000 21500
L27500 21500
" />
<path d="M27500 31500
L30000 31500
" />
<path d="M30000 31500
L30000 32500
" />
</g>
<g style="fill:#008400; fill-opacity:0.0; 
stroke:#008400; stroke-width:0; stroke-opacity:1; 
stroke-linecap:round; stroke-linejoin:round;">
</g>
<g style="fill:#008400; fill-opacity:1.0; 
stroke:#008400; stroke-width:100; stroke-opacity:1; 
stroke-linecap:round; stroke-linejoin:round;">
<circle cx="30000" cy="31500" r="200" /> 
</g>
<g style="fill:#008400; fill-opacity:1.0; 
stroke:#008400; stroke-width:60; stroke-opacity:1; 
stroke-linecap:round; stroke-linejoin:round;">
</g>
<g style="fill:#008400; fill-opacity:0.0; 
stroke:#008400; stroke-width:60; stroke-opacity:1; 
stroke-linecap:round; stroke-linejoin:round;">
<path d="M30000 31500
L32500 31500
" />
</g>
<g style="fill:#008400; fill-opacity:0.0; 
stroke:#008400; stroke-width:0; stroke-opacity:1; 
stroke-linecap:round; stroke-linejoin:round;">
</g>
<g style="fill:#840000; fill-opacity:0.0; 
stroke:#840000; stroke-width:0; stroke-opacity:1; 
stroke-linecap:round; stroke-linejoin:round;">
</g>
<g style="fill:#840000; fill-opacity:0.0; 
stroke:#840000; stroke-width:60; stroke-opacity:1; 
stroke-linecap:round; stroke-linejoin:round;">
<polyline fill="none;"
points="30000,32500
30000,33000
30500,33000
30000,33500
29500,33000
30000,33000
" /> 
</g>
<g style="fill:#008484; fill-opacity:0.0; 
stroke:#008484; stroke-width:60; stroke-opacity:1; 
stroke-linecap:round; stroke-linejoin:round;">
<path d="M29660 34000
L29620 33970
L29550 33970
L29470 34000
L29430 34040
L29400 34090
L29380 34190
L29380 34260
L29400 34350
L29430 34400
L29470 34450
L29550 34470
L29590 34470
L29660 34450
L29690 34420
L29690 34260
L29590 34260
" />
<path d="M29900 34470
L29900 33970
L30190 34470
L30190 33970
" />
<path d="M30430 34470
L30430 33970
L30550 33970
L30620 34000
L30660 34040
L30690 34090
L30710 34190
L30710 34260
L30690 34350
L30660 34400
L30620 34450
L30550 34470
L30430 34470
" />
</g>
<g style="fill:#848400; fill-opacity:0.0; 
stroke:#848400; stroke-width:60; stroke-opacity:1; 
stroke-linecap:round; stroke-linejoin:round;">
<path d="M35840 25720
L35930 25720
L35980 25750
L36030 25790
L36050 25890
L36050 26050
L36030 26150
L35980 26200
L35930 26220
L35840 26220
L35790 26200
L35740 26150
L35720 26050
L35720 25890
L35740 25790
L35790 25750
L35840 25720
" />
<path d="M36270 25720
L36270 26130
L36290 26170
L36320 26200
L36360 26220
L36460 26220
L36510 26200
L36530 26170
L36550 26130
L36550 25720
" />
<path d="M36720 25720
L37010 25720
" />
<path d="M36860 26220
L36860 25720
" />
<path d="M37170 26220
L37170 25720
L37360 25720
L37410 25750
L37430 25770
L37460 25820
L37460 25890
L37430 25940
L37410 25960
L37360 25980
L37170 25980
" />
<path d="M37670 25720
L37670 26130
L37700 26170
L37720 26200
L37770 26220
L37860 26220
L37910 26200
L37930 26170
L37960 26130
L37960 25720
" />
<path d="M38130 25720
L38410 25720
" />
<path d="M38270 26220
L38270 25720
" />
</g>
<g style="fill:#848400; fill-opacity:0.0; 
stroke:#848400; stroke-width:100; stroke-opacity:1; 
stroke-linecap:round; stroke-linejoin:round;">
<polyline fill="none;"
points="35500,26000
35250,25750
35000,25750
35000,26250
35250,26250
35500,26000
" /> 
</g>
<g style="fill:#848400; fill-opacity:0.0; 
stroke:#848400; stroke-width:0; stroke-opacity:1; 
stroke-linecap:round; stroke-linejoin:round;">
</g>
<g style="fill:#840000; fill-opacity:0.0; 
stroke:#840000; stroke-width:0; stroke-opacity:1; 
stroke-linecap:round; stroke-linejoin:round;">
</g>
<g style="fill:#840000; fill-opacity:0.0; 
stroke:#840000; stroke-width:100; stroke-opacity:1; 
stroke-linecap:round; stroke-linejoin:round;">
<circle cx="33000" cy="28500" r="1110" /> 
</g>
<g style="fill:#840000; fill-opacity:0.0; 
stroke:#840000; stroke-width:60; stroke-opacity:1; 
stroke-linecap:round; stroke-linejoin:round;">
<polyline fill="none;"
points="34250,28000
34500,28000
" /> 
<polyline fill="none;"
points="34000,27500
34250,27500
" /> 
<polyline fill="none;"
points="33250,28250
32500,27500
" /> 
<polyline fill="none;"
points="35000,27250
34250,28000
34250,27750
" /> 
<polyline fill="none;"
points="34750,26750
34000,27500
34000,27250
" /> 
<polyline fill="none;"
points="33250,28750
32500,29500
32500,29500
" /> 
</g>
<g style="fill:#840000; fill-opacity:0.0; 
stroke:#840000; stroke-width:200; stroke-opacity:1; 
stroke-linecap:round; stroke-linejoin:round;">
<polyline fill="none;"
points="33250,27750
33250,29250
33250,29250
" /> 
</g>
<g style="fill:#840000; fill-opacity:1.0; 
stroke:#840000; stroke-width:60; stroke-opacity:1; 
stroke-linecap:round; stroke-linejoin:round;">
<polyline style="fill-rule:evenodd;"
points="33000,29200
32800,29000
32600,29400
33000,29200
33000,29200
" /> 
</g>
<g style="fill:#840000; fill-opacity:0.0; 
stroke:#840000; stroke-width:60; stroke-opacity:1; 
stroke-linecap:round; stroke-linejoin:round;">
<path d="M32500 29500
L32500 30500
" />
<path d="M33070 29850
L33070 30140
" />
<path d="M33070 30000
L32570 30000
L32640 30040
L32690 30090
L32710 30140
" />
<path d="M32500 27500
L32500 26500
" />
<path d="M32620 27140
L32600 27110
L32570 27070
L32570 26950
L32600 26900
L32620 26880
L32670 26850
L32710 26850
L32790 26880
L33070 27160
L33070 26850
" />
</g>
<g style="fill:#008484; fill-opacity:0.0; 
stroke:#008484; stroke-width:60; stroke-opacity:1; 
stroke-linecap:round; stroke-linejoin:round;">
<path d="M35760 28330
L35710 28310
L35660 28260
L35590 28190
L35540 28160
L35500 28160
" />
<path d="M35520 28280
L35470 28260
L35420 28210
L35400 28110
L35400 27950
L35420 27850
L35470 27810
L35520 27780
L35610 27780
L35660 27810
L35710 27850
L35730 27950
L35730 28110
L35710 28210
L35660 28260
L35610 28280
L35520 28280
" />
<path d="M36210 28280
L35920 28280
" />
<path d="M36070 28280
L36070 27780
L36020 27850
L35970 27900
L35920 27920
" />
<path d="M35420 29190
L35420 28690
L35540 28690
L35610 28720
L35660 28760
L35680 28810
L35710 28910
L35710 28980
L35680 29070
L35660 29120
L35610 29170
L35540 29190
L35420 29190
" />
<path d="M35920 28930
L36090 28930
" />
<path d="M36160 29190
L35920 29190
L35920 28690
L36160 28690
" />
<path d="M36300 28690
L36590 28690
" />
<path d="M36440 29190
L36440 28690
" />
<path d="M36750 28930
L36920 28930
" />
<path d="M36990 29190
L36750 29190
L36750 28690
L36990 28690
" />
<path d="M37490 29140
L37470 29170
L37400 29190
L37350 29190
L37280 29170
L37230 29120
L37210 29070
L37180 28980
L37180 28910
L37210 28810
L37230 28760
L37280 28720
L37350 28690
L37400 28690
L37470 28720
L37490 28740
" />
<path d="M37640 28690
L37920 28690
" />
<path d="M37780 29190
L37780 28690
" />
</g> 
</svg>
