G04 #@! TF.GenerationSoftware,KiCad,Pcbnew,(5.0.0-rc2-63-gd4393b281)*
G04 #@! TF.CreationDate,2018-06-20T16:53:16-07:00*
G04 #@! TF.ProjectId,IRSensorArray,495253656E736F7241727261792E6B69,rev?*
G04 #@! TF.SameCoordinates,Original*
G04 #@! TF.FileFunction,Soldermask,Top*
G04 #@! TF.FilePolarity,Negative*
%FSLAX46Y46*%
G04 Gerber Fmt 4.6, Leading zero omitted, Abs format (unit mm)*
G04 Created by KiCad (PCBNEW (5.0.0-rc2-63-gd4393b281)) date 06/20/18 16:53:16*
%MOMM*%
%LPD*%
G01*
G04 APERTURE LIST*
%ADD10C,2.200000*%
%ADD11R,2.200000X2.200000*%
%ADD12C,3.600000*%
%ADD13C,2.000000*%
%ADD14R,2.000000X2.000000*%
%ADD15C,1.900000*%
%ADD16O,2.000000X2.000000*%
%ADD17R,0.850000X1.900000*%
%ADD18R,2.150000X2.150000*%
%ADD19C,2.150000*%
%ADD20C,0.100000*%
%ADD21C,1.400000*%
%ADD22R,0.900000X1.900000*%
%ADD23R,1.400000X1.900000*%
%ADD24R,1.900000X0.900000*%
%ADD25R,1.900000X1.400000*%
%ADD26O,2.600000X2.600000*%
%ADD27R,2.600000X2.600000*%
G04 APERTURE END LIST*
D10*
G04 #@! TO.C,Q8*
X185166000Y-101981000D03*
D11*
X182626000Y-101981000D03*
G04 #@! TD*
D12*
G04 #@! TO.C,MH2*
X186436000Y-92329000D03*
G04 #@! TD*
D13*
G04 #@! TO.C,C1*
X178308000Y-91774000D03*
X178308000Y-96774000D03*
G04 #@! TD*
G04 #@! TO.C,C2*
X158496000Y-92234000D03*
D14*
X158496000Y-94234000D03*
G04 #@! TD*
D13*
G04 #@! TO.C,C4*
X163322000Y-95948500D03*
X163322000Y-90948500D03*
G04 #@! TD*
D10*
G04 #@! TO.C,D1*
X114046000Y-108585000D03*
D11*
X111506000Y-108585000D03*
G04 #@! TD*
G04 #@! TO.C,D2*
X152146000Y-108585000D03*
D10*
X154686000Y-108585000D03*
G04 #@! TD*
G04 #@! TO.C,D3*
X124206000Y-108585000D03*
D11*
X121666000Y-108585000D03*
G04 #@! TD*
G04 #@! TO.C,D4*
X162306000Y-108585000D03*
D10*
X164846000Y-108585000D03*
G04 #@! TD*
D11*
G04 #@! TO.C,D5*
X131826000Y-108585000D03*
D10*
X134366000Y-108585000D03*
G04 #@! TD*
G04 #@! TO.C,D6*
X175006000Y-108585000D03*
D11*
X172466000Y-108585000D03*
G04 #@! TD*
G04 #@! TO.C,D7*
X141986000Y-108585000D03*
D10*
X144526000Y-108585000D03*
G04 #@! TD*
D11*
G04 #@! TO.C,D8*
X182626000Y-108585000D03*
D10*
X185166000Y-108585000D03*
G04 #@! TD*
D15*
G04 #@! TO.C,J1*
X181610000Y-91694000D03*
G04 #@! TD*
D11*
G04 #@! TO.C,Q1*
X111506000Y-101981000D03*
D10*
X114046000Y-101981000D03*
G04 #@! TD*
D11*
G04 #@! TO.C,Q2*
X152146000Y-101981000D03*
D10*
X154686000Y-101981000D03*
G04 #@! TD*
D11*
G04 #@! TO.C,Q3*
X121666000Y-101981000D03*
D10*
X124206000Y-101981000D03*
G04 #@! TD*
G04 #@! TO.C,Q5*
X134366000Y-101981000D03*
D11*
X131826000Y-101981000D03*
G04 #@! TD*
D10*
G04 #@! TO.C,Q6*
X175006000Y-101981000D03*
D11*
X172466000Y-101981000D03*
G04 #@! TD*
D10*
G04 #@! TO.C,Q7*
X144526000Y-101981000D03*
D11*
X141986000Y-101981000D03*
G04 #@! TD*
D13*
G04 #@! TO.C,R1*
X153924000Y-94234000D03*
D16*
X153924000Y-91694000D03*
G04 #@! TD*
D13*
G04 #@! TO.C,R2*
X150622000Y-94234000D03*
D16*
X150622000Y-91694000D03*
G04 #@! TD*
D13*
G04 #@! TO.C,R3*
X117856000Y-109093000D03*
D16*
X117856000Y-106553000D03*
G04 #@! TD*
G04 #@! TO.C,R4*
X117856000Y-104013000D03*
D13*
X117856000Y-101473000D03*
G04 #@! TD*
D16*
G04 #@! TO.C,R5*
X158496000Y-106553000D03*
D13*
X158496000Y-109093000D03*
G04 #@! TD*
D16*
G04 #@! TO.C,R6*
X158496000Y-104013000D03*
D13*
X158496000Y-101473000D03*
G04 #@! TD*
G04 #@! TO.C,R7*
X128016000Y-109093000D03*
D16*
X128016000Y-106553000D03*
G04 #@! TD*
G04 #@! TO.C,R8*
X128016000Y-104013000D03*
D13*
X128016000Y-101473000D03*
G04 #@! TD*
G04 #@! TO.C,R9*
X168656000Y-109093000D03*
D16*
X168656000Y-106553000D03*
G04 #@! TD*
G04 #@! TO.C,R10*
X168656000Y-104013000D03*
D13*
X168656000Y-101473000D03*
G04 #@! TD*
G04 #@! TO.C,R11*
X138176000Y-109093000D03*
D16*
X138176000Y-106553000D03*
G04 #@! TD*
G04 #@! TO.C,R12*
X138176000Y-104013000D03*
D13*
X138176000Y-101473000D03*
G04 #@! TD*
G04 #@! TO.C,R13*
X178816000Y-109093000D03*
D16*
X178816000Y-106553000D03*
G04 #@! TD*
G04 #@! TO.C,R14*
X178816000Y-104013000D03*
D13*
X178816000Y-101473000D03*
G04 #@! TD*
G04 #@! TO.C,R15*
X148336000Y-109093000D03*
D16*
X148336000Y-106553000D03*
G04 #@! TD*
G04 #@! TO.C,R16*
X148336000Y-104013000D03*
D13*
X148336000Y-101473000D03*
G04 #@! TD*
G04 #@! TO.C,R17*
X188976000Y-109093000D03*
D16*
X188976000Y-106553000D03*
G04 #@! TD*
D13*
G04 #@! TO.C,R18*
X188976000Y-101473000D03*
D16*
X188976000Y-104013000D03*
G04 #@! TD*
D17*
G04 #@! TO.C,U1*
X171207000Y-90966500D03*
X171857000Y-90966500D03*
X172507000Y-90966500D03*
X173157000Y-90966500D03*
X173807000Y-90966500D03*
X174457000Y-90966500D03*
X175107000Y-90966500D03*
X175757000Y-90966500D03*
X175757000Y-96866500D03*
X175107000Y-96866500D03*
X174457000Y-96866500D03*
X173807000Y-96866500D03*
X173157000Y-96866500D03*
X172507000Y-96866500D03*
X171857000Y-96866500D03*
X171207000Y-96866500D03*
G04 #@! TD*
D18*
G04 #@! TO.C,J2*
X133858000Y-93853000D03*
D19*
X136358000Y-93853000D03*
X138858000Y-93853000D03*
X141358000Y-93853000D03*
G04 #@! TD*
G04 #@! TO.C,J3*
X127896000Y-93853000D03*
X125396000Y-93853000D03*
X122896000Y-93853000D03*
D18*
X120396000Y-93853000D03*
G04 #@! TD*
D20*
G04 #@! TO.C,JP1*
G36*
X166678613Y-94493871D02*
X166746564Y-94503950D01*
X166813200Y-94520642D01*
X166877879Y-94543784D01*
X166939979Y-94573155D01*
X166998900Y-94608471D01*
X167054076Y-94649393D01*
X167104976Y-94695525D01*
X167151108Y-94746425D01*
X167192030Y-94801601D01*
X167227346Y-94860522D01*
X167256717Y-94922622D01*
X167279859Y-94987301D01*
X167296551Y-95053937D01*
X167306630Y-95121888D01*
X167310001Y-95190500D01*
X167310001Y-95690500D01*
X167306630Y-95759112D01*
X167296551Y-95827063D01*
X167279859Y-95893699D01*
X167256717Y-95958378D01*
X167227346Y-96020478D01*
X167192030Y-96079399D01*
X167151108Y-96134575D01*
X167104976Y-96185475D01*
X167054076Y-96231607D01*
X166998900Y-96272529D01*
X166939979Y-96307845D01*
X166877879Y-96337216D01*
X166813200Y-96360358D01*
X166746564Y-96377050D01*
X166678613Y-96387129D01*
X166610001Y-96390500D01*
X166609999Y-96390500D01*
X166541387Y-96387129D01*
X166473436Y-96377050D01*
X166406800Y-96360358D01*
X166342121Y-96337216D01*
X166280021Y-96307845D01*
X166221100Y-96272529D01*
X166165924Y-96231607D01*
X166115024Y-96185475D01*
X166068892Y-96134575D01*
X166027970Y-96079399D01*
X165992654Y-96020478D01*
X165963283Y-95958378D01*
X165940141Y-95893699D01*
X165923449Y-95827063D01*
X165913370Y-95759112D01*
X165909999Y-95690500D01*
X165909999Y-95190500D01*
X165913370Y-95121888D01*
X165923449Y-95053937D01*
X165940141Y-94987301D01*
X165963283Y-94922622D01*
X165992654Y-94860522D01*
X166027970Y-94801601D01*
X166068892Y-94746425D01*
X166115024Y-94695525D01*
X166165924Y-94649393D01*
X166221100Y-94608471D01*
X166280021Y-94573155D01*
X166342121Y-94543784D01*
X166406800Y-94520642D01*
X166473436Y-94503950D01*
X166541387Y-94493871D01*
X166609999Y-94490500D01*
X166610001Y-94490500D01*
X166678613Y-94493871D01*
X166678613Y-94493871D01*
G37*
D21*
X166610000Y-95440500D03*
D22*
X166910000Y-95440500D03*
D23*
X167910000Y-95440500D03*
D20*
G36*
X169278613Y-94493871D02*
X169346564Y-94503950D01*
X169413200Y-94520642D01*
X169477879Y-94543784D01*
X169539979Y-94573155D01*
X169598900Y-94608471D01*
X169654076Y-94649393D01*
X169704976Y-94695525D01*
X169751108Y-94746425D01*
X169792030Y-94801601D01*
X169827346Y-94860522D01*
X169856717Y-94922622D01*
X169879859Y-94987301D01*
X169896551Y-95053937D01*
X169906630Y-95121888D01*
X169910001Y-95190500D01*
X169910001Y-95690500D01*
X169906630Y-95759112D01*
X169896551Y-95827063D01*
X169879859Y-95893699D01*
X169856717Y-95958378D01*
X169827346Y-96020478D01*
X169792030Y-96079399D01*
X169751108Y-96134575D01*
X169704976Y-96185475D01*
X169654076Y-96231607D01*
X169598900Y-96272529D01*
X169539979Y-96307845D01*
X169477879Y-96337216D01*
X169413200Y-96360358D01*
X169346564Y-96377050D01*
X169278613Y-96387129D01*
X169210001Y-96390500D01*
X169209999Y-96390500D01*
X169141387Y-96387129D01*
X169073436Y-96377050D01*
X169006800Y-96360358D01*
X168942121Y-96337216D01*
X168880021Y-96307845D01*
X168821100Y-96272529D01*
X168765924Y-96231607D01*
X168715024Y-96185475D01*
X168668892Y-96134575D01*
X168627970Y-96079399D01*
X168592654Y-96020478D01*
X168563283Y-95958378D01*
X168540141Y-95893699D01*
X168523449Y-95827063D01*
X168513370Y-95759112D01*
X168509999Y-95690500D01*
X168509999Y-95190500D01*
X168513370Y-95121888D01*
X168523449Y-95053937D01*
X168540141Y-94987301D01*
X168563283Y-94922622D01*
X168592654Y-94860522D01*
X168627970Y-94801601D01*
X168668892Y-94746425D01*
X168715024Y-94695525D01*
X168765924Y-94649393D01*
X168821100Y-94608471D01*
X168880021Y-94573155D01*
X168942121Y-94543784D01*
X169006800Y-94520642D01*
X169073436Y-94503950D01*
X169141387Y-94493871D01*
X169209999Y-94490500D01*
X169210001Y-94490500D01*
X169278613Y-94493871D01*
X169278613Y-94493871D01*
G37*
D21*
X169210000Y-95440500D03*
D22*
X168910000Y-95440500D03*
G04 #@! TD*
D20*
G04 #@! TO.C,JP2*
G36*
X181928612Y-96107370D02*
X181996563Y-96117449D01*
X182063199Y-96134141D01*
X182127878Y-96157283D01*
X182189978Y-96186654D01*
X182248899Y-96221970D01*
X182304075Y-96262892D01*
X182354975Y-96309024D01*
X182401107Y-96359924D01*
X182442029Y-96415100D01*
X182477345Y-96474021D01*
X182506716Y-96536121D01*
X182529858Y-96600800D01*
X182546550Y-96667436D01*
X182556629Y-96735387D01*
X182560000Y-96803999D01*
X182560000Y-96804001D01*
X182556629Y-96872613D01*
X182546550Y-96940564D01*
X182529858Y-97007200D01*
X182506716Y-97071879D01*
X182477345Y-97133979D01*
X182442029Y-97192900D01*
X182401107Y-97248076D01*
X182354975Y-97298976D01*
X182304075Y-97345108D01*
X182248899Y-97386030D01*
X182189978Y-97421346D01*
X182127878Y-97450717D01*
X182063199Y-97473859D01*
X181996563Y-97490551D01*
X181928612Y-97500630D01*
X181860000Y-97504001D01*
X181360000Y-97504001D01*
X181291388Y-97500630D01*
X181223437Y-97490551D01*
X181156801Y-97473859D01*
X181092122Y-97450717D01*
X181030022Y-97421346D01*
X180971101Y-97386030D01*
X180915925Y-97345108D01*
X180865025Y-97298976D01*
X180818893Y-97248076D01*
X180777971Y-97192900D01*
X180742655Y-97133979D01*
X180713284Y-97071879D01*
X180690142Y-97007200D01*
X180673450Y-96940564D01*
X180663371Y-96872613D01*
X180660000Y-96804001D01*
X180660000Y-96803999D01*
X180663371Y-96735387D01*
X180673450Y-96667436D01*
X180690142Y-96600800D01*
X180713284Y-96536121D01*
X180742655Y-96474021D01*
X180777971Y-96415100D01*
X180818893Y-96359924D01*
X180865025Y-96309024D01*
X180915925Y-96262892D01*
X180971101Y-96221970D01*
X181030022Y-96186654D01*
X181092122Y-96157283D01*
X181156801Y-96134141D01*
X181223437Y-96117449D01*
X181291388Y-96107370D01*
X181360000Y-96103999D01*
X181860000Y-96103999D01*
X181928612Y-96107370D01*
X181928612Y-96107370D01*
G37*
D21*
X181610000Y-96804000D03*
D24*
X181610000Y-96504000D03*
D25*
X181610000Y-95504000D03*
D20*
G36*
X181928612Y-93507370D02*
X181996563Y-93517449D01*
X182063199Y-93534141D01*
X182127878Y-93557283D01*
X182189978Y-93586654D01*
X182248899Y-93621970D01*
X182304075Y-93662892D01*
X182354975Y-93709024D01*
X182401107Y-93759924D01*
X182442029Y-93815100D01*
X182477345Y-93874021D01*
X182506716Y-93936121D01*
X182529858Y-94000800D01*
X182546550Y-94067436D01*
X182556629Y-94135387D01*
X182560000Y-94203999D01*
X182560000Y-94204001D01*
X182556629Y-94272613D01*
X182546550Y-94340564D01*
X182529858Y-94407200D01*
X182506716Y-94471879D01*
X182477345Y-94533979D01*
X182442029Y-94592900D01*
X182401107Y-94648076D01*
X182354975Y-94698976D01*
X182304075Y-94745108D01*
X182248899Y-94786030D01*
X182189978Y-94821346D01*
X182127878Y-94850717D01*
X182063199Y-94873859D01*
X181996563Y-94890551D01*
X181928612Y-94900630D01*
X181860000Y-94904001D01*
X181360000Y-94904001D01*
X181291388Y-94900630D01*
X181223437Y-94890551D01*
X181156801Y-94873859D01*
X181092122Y-94850717D01*
X181030022Y-94821346D01*
X180971101Y-94786030D01*
X180915925Y-94745108D01*
X180865025Y-94698976D01*
X180818893Y-94648076D01*
X180777971Y-94592900D01*
X180742655Y-94533979D01*
X180713284Y-94471879D01*
X180690142Y-94407200D01*
X180673450Y-94340564D01*
X180663371Y-94272613D01*
X180660000Y-94204001D01*
X180660000Y-94203999D01*
X180663371Y-94135387D01*
X180673450Y-94067436D01*
X180690142Y-94000800D01*
X180713284Y-93936121D01*
X180742655Y-93874021D01*
X180777971Y-93815100D01*
X180818893Y-93759924D01*
X180865025Y-93709024D01*
X180915925Y-93662892D01*
X180971101Y-93621970D01*
X181030022Y-93586654D01*
X181092122Y-93557283D01*
X181156801Y-93534141D01*
X181223437Y-93517449D01*
X181291388Y-93507370D01*
X181360000Y-93503999D01*
X181860000Y-93503999D01*
X181928612Y-93507370D01*
X181928612Y-93507370D01*
G37*
D21*
X181610000Y-94204000D03*
D24*
X181610000Y-94504000D03*
G04 #@! TD*
D22*
G04 #@! TO.C,JP3*
X168894000Y-92138500D03*
D20*
G36*
X169262613Y-91191871D02*
X169330564Y-91201950D01*
X169397200Y-91218642D01*
X169461879Y-91241784D01*
X169523979Y-91271155D01*
X169582900Y-91306471D01*
X169638076Y-91347393D01*
X169688976Y-91393525D01*
X169735108Y-91444425D01*
X169776030Y-91499601D01*
X169811346Y-91558522D01*
X169840717Y-91620622D01*
X169863859Y-91685301D01*
X169880551Y-91751937D01*
X169890630Y-91819888D01*
X169894001Y-91888500D01*
X169894001Y-92388500D01*
X169890630Y-92457112D01*
X169880551Y-92525063D01*
X169863859Y-92591699D01*
X169840717Y-92656378D01*
X169811346Y-92718478D01*
X169776030Y-92777399D01*
X169735108Y-92832575D01*
X169688976Y-92883475D01*
X169638076Y-92929607D01*
X169582900Y-92970529D01*
X169523979Y-93005845D01*
X169461879Y-93035216D01*
X169397200Y-93058358D01*
X169330564Y-93075050D01*
X169262613Y-93085129D01*
X169194001Y-93088500D01*
X169193999Y-93088500D01*
X169125387Y-93085129D01*
X169057436Y-93075050D01*
X168990800Y-93058358D01*
X168926121Y-93035216D01*
X168864021Y-93005845D01*
X168805100Y-92970529D01*
X168749924Y-92929607D01*
X168699024Y-92883475D01*
X168652892Y-92832575D01*
X168611970Y-92777399D01*
X168576654Y-92718478D01*
X168547283Y-92656378D01*
X168524141Y-92591699D01*
X168507449Y-92525063D01*
X168497370Y-92457112D01*
X168493999Y-92388500D01*
X168493999Y-91888500D01*
X168497370Y-91819888D01*
X168507449Y-91751937D01*
X168524141Y-91685301D01*
X168547283Y-91620622D01*
X168576654Y-91558522D01*
X168611970Y-91499601D01*
X168652892Y-91444425D01*
X168699024Y-91393525D01*
X168749924Y-91347393D01*
X168805100Y-91306471D01*
X168864021Y-91271155D01*
X168926121Y-91241784D01*
X168990800Y-91218642D01*
X169057436Y-91201950D01*
X169125387Y-91191871D01*
X169193999Y-91188500D01*
X169194001Y-91188500D01*
X169262613Y-91191871D01*
X169262613Y-91191871D01*
G37*
D21*
X169194000Y-92138500D03*
D23*
X167894000Y-92138500D03*
D22*
X166894000Y-92138500D03*
D20*
G36*
X166662613Y-91191871D02*
X166730564Y-91201950D01*
X166797200Y-91218642D01*
X166861879Y-91241784D01*
X166923979Y-91271155D01*
X166982900Y-91306471D01*
X167038076Y-91347393D01*
X167088976Y-91393525D01*
X167135108Y-91444425D01*
X167176030Y-91499601D01*
X167211346Y-91558522D01*
X167240717Y-91620622D01*
X167263859Y-91685301D01*
X167280551Y-91751937D01*
X167290630Y-91819888D01*
X167294001Y-91888500D01*
X167294001Y-92388500D01*
X167290630Y-92457112D01*
X167280551Y-92525063D01*
X167263859Y-92591699D01*
X167240717Y-92656378D01*
X167211346Y-92718478D01*
X167176030Y-92777399D01*
X167135108Y-92832575D01*
X167088976Y-92883475D01*
X167038076Y-92929607D01*
X166982900Y-92970529D01*
X166923979Y-93005845D01*
X166861879Y-93035216D01*
X166797200Y-93058358D01*
X166730564Y-93075050D01*
X166662613Y-93085129D01*
X166594001Y-93088500D01*
X166593999Y-93088500D01*
X166525387Y-93085129D01*
X166457436Y-93075050D01*
X166390800Y-93058358D01*
X166326121Y-93035216D01*
X166264021Y-93005845D01*
X166205100Y-92970529D01*
X166149924Y-92929607D01*
X166099024Y-92883475D01*
X166052892Y-92832575D01*
X166011970Y-92777399D01*
X165976654Y-92718478D01*
X165947283Y-92656378D01*
X165924141Y-92591699D01*
X165907449Y-92525063D01*
X165897370Y-92457112D01*
X165893999Y-92388500D01*
X165893999Y-91888500D01*
X165897370Y-91819888D01*
X165907449Y-91751937D01*
X165924141Y-91685301D01*
X165947283Y-91620622D01*
X165976654Y-91558522D01*
X166011970Y-91499601D01*
X166052892Y-91444425D01*
X166099024Y-91393525D01*
X166149924Y-91347393D01*
X166205100Y-91306471D01*
X166264021Y-91271155D01*
X166326121Y-91241784D01*
X166390800Y-91218642D01*
X166457436Y-91201950D01*
X166525387Y-91191871D01*
X166593999Y-91188500D01*
X166594001Y-91188500D01*
X166662613Y-91191871D01*
X166662613Y-91191871D01*
G37*
D21*
X166594000Y-92138500D03*
G04 #@! TD*
D12*
G04 #@! TO.C,MH1*
X113792000Y-92329000D03*
G04 #@! TD*
D10*
G04 #@! TO.C,Q4*
X164846000Y-101981000D03*
D11*
X162306000Y-101981000D03*
G04 #@! TD*
D26*
G04 #@! TO.C,D9*
X146710400Y-91846400D03*
D27*
X146710400Y-94386400D03*
G04 #@! TD*
M02*
