M48
;DRILL file {KiCad (5.0.0-rc2-63-gd4393b281)} date 06/20/18 11:48:07
;FORMAT={-:-/ absolute / inch / decimal}
FMAT,2
INCH,TZ
T1C0.0157
T2C0.0315
T3C0.0354
T4C0.0394
T5C0.0433
T6C0.1260
%
G90
G05
M72
T1
X6.71Y-3.64
X6.71Y-3.75
X6.77Y-3.65
X6.8323Y-3.9423
X6.86Y-3.52
X6.93Y-3.52
X7.15Y-3.87
T2
X5.44Y-4.195
X5.44Y-4.295
X7.44Y-3.995
X7.44Y-4.095
X5.84Y-4.195
X5.84Y-4.295
X7.02Y-3.6131
X7.02Y-3.81
X4.64Y-4.195
X4.64Y-4.295
X7.15Y-3.61
X6.24Y-3.995
X6.24Y-4.095
X6.06Y-3.61
X6.06Y-3.71
X6.64Y-4.195
X6.64Y-4.295
X6.43Y-3.5806
X6.43Y-3.7775
X5.04Y-4.195
X5.04Y-4.295
X6.64Y-3.995
X6.64Y-4.095
X5.93Y-3.61
X5.93Y-3.71
X4.64Y-3.995
X4.64Y-4.095
X5.84Y-3.995
X5.84Y-4.095
X6.24Y-4.195
X6.24Y-4.295
X7.04Y-4.195
X7.04Y-4.295
X5.04Y-3.995
X5.04Y-4.095
X7.44Y-4.195
X7.44Y-4.295
X5.44Y-3.995
X5.44Y-4.095
X7.04Y-3.995
X7.04Y-4.095
X6.24Y-3.6313
X6.24Y-3.71
T3
X6.39Y-4.015
X6.49Y-4.015
X5.99Y-4.015
X6.09Y-4.015
X5.59Y-4.015
X5.69Y-4.015
X5.19Y-4.275
X5.29Y-4.275
X5.99Y-4.275
X6.09Y-4.275
X6.79Y-4.015
X6.89Y-4.015
X5.19Y-4.015
X5.29Y-4.015
X4.39Y-4.275
X4.49Y-4.275
X7.19Y-4.275
X7.29Y-4.275
X4.39Y-4.015
X4.49Y-4.015
X4.79Y-4.275
X4.89Y-4.275
X4.79Y-4.015
X4.89Y-4.015
X5.59Y-4.275
X5.69Y-4.275
X6.39Y-4.275
X6.49Y-4.275
X6.79Y-4.275
X6.89Y-4.275
X7.19Y-4.015
X7.29Y-4.015
T4
X5.27Y-3.695
X5.3684Y-3.695
X5.4669Y-3.695
X5.5653Y-3.695
X4.74Y-3.695
X4.8384Y-3.695
X4.9369Y-3.695
X5.0353Y-3.695
T5
X5.776Y-3.616
X5.776Y-3.716
T6
X7.34Y-3.635
X4.48Y-3.635
T0
M30
