G04 #@! TF.GenerationSoftware,KiCad,Pcbnew,(5.0.0-rc2-63-gd4393b281)*
G04 #@! TF.CreationDate,2018-06-20T09:41:06-07:00*
G04 #@! TF.ProjectId,IRSensorArray,495253656E736F7241727261792E6B69,rev?*
G04 #@! TF.SameCoordinates,Original*
G04 #@! TF.FileFunction,Legend,Top*
G04 #@! TF.FilePolarity,Positive*
%FSLAX46Y46*%
G04 Gerber Fmt 4.6, Leading zero omitted, Abs format (unit mm)*
G04 Created by KiCad (PCBNEW (5.0.0-rc2-63-gd4393b281)) date 06/20/18 09:41:06*
%MOMM*%
%LPD*%
G01*
G04 APERTURE LIST*
%ADD10C,0.125000*%
%ADD11C,0.300000*%
%ADD12C,0.120000*%
%ADD13C,0.150000*%
G04 APERTURE END LIST*
D10*
X165556380Y-98039952D02*
X165580190Y-97968523D01*
X165580190Y-97849476D01*
X165556380Y-97801857D01*
X165532571Y-97778047D01*
X165484952Y-97754238D01*
X165437333Y-97754238D01*
X165389714Y-97778047D01*
X165365904Y-97801857D01*
X165342095Y-97849476D01*
X165318285Y-97944714D01*
X165294476Y-97992333D01*
X165270666Y-98016142D01*
X165223047Y-98039952D01*
X165175428Y-98039952D01*
X165127809Y-98016142D01*
X165104000Y-97992333D01*
X165080190Y-97944714D01*
X165080190Y-97825666D01*
X165104000Y-97754238D01*
X165318285Y-97373285D02*
X165342095Y-97301857D01*
X165365904Y-97278047D01*
X165413523Y-97254238D01*
X165484952Y-97254238D01*
X165532571Y-97278047D01*
X165556380Y-97301857D01*
X165580190Y-97349476D01*
X165580190Y-97539952D01*
X165080190Y-97539952D01*
X165080190Y-97373285D01*
X165104000Y-97325666D01*
X165127809Y-97301857D01*
X165175428Y-97278047D01*
X165223047Y-97278047D01*
X165270666Y-97301857D01*
X165294476Y-97325666D01*
X165318285Y-97373285D01*
X165318285Y-97539952D01*
X165080190Y-96944714D02*
X165080190Y-96897095D01*
X165104000Y-96849476D01*
X165127809Y-96825666D01*
X165175428Y-96801857D01*
X165270666Y-96778047D01*
X165389714Y-96778047D01*
X165484952Y-96801857D01*
X165532571Y-96825666D01*
X165556380Y-96849476D01*
X165580190Y-96897095D01*
X165580190Y-96944714D01*
X165556380Y-96992333D01*
X165532571Y-97016142D01*
X165484952Y-97039952D01*
X165389714Y-97063761D01*
X165270666Y-97063761D01*
X165175428Y-97039952D01*
X165127809Y-97016142D01*
X165104000Y-96992333D01*
X165080190Y-96944714D01*
X165556380Y-90673952D02*
X165580190Y-90602523D01*
X165580190Y-90483476D01*
X165556380Y-90435857D01*
X165532571Y-90412047D01*
X165484952Y-90388238D01*
X165437333Y-90388238D01*
X165389714Y-90412047D01*
X165365904Y-90435857D01*
X165342095Y-90483476D01*
X165318285Y-90578714D01*
X165294476Y-90626333D01*
X165270666Y-90650142D01*
X165223047Y-90673952D01*
X165175428Y-90673952D01*
X165127809Y-90650142D01*
X165104000Y-90626333D01*
X165080190Y-90578714D01*
X165080190Y-90459666D01*
X165104000Y-90388238D01*
X165318285Y-90007285D02*
X165342095Y-89935857D01*
X165365904Y-89912047D01*
X165413523Y-89888238D01*
X165484952Y-89888238D01*
X165532571Y-89912047D01*
X165556380Y-89935857D01*
X165580190Y-89983476D01*
X165580190Y-90173952D01*
X165080190Y-90173952D01*
X165080190Y-90007285D01*
X165104000Y-89959666D01*
X165127809Y-89935857D01*
X165175428Y-89912047D01*
X165223047Y-89912047D01*
X165270666Y-89935857D01*
X165294476Y-89959666D01*
X165318285Y-90007285D01*
X165318285Y-90173952D01*
X165580190Y-89412047D02*
X165580190Y-89697761D01*
X165580190Y-89554904D02*
X165080190Y-89554904D01*
X165151619Y-89602523D01*
X165199238Y-89650142D01*
X165223047Y-89697761D01*
X178653428Y-89499285D02*
X178820095Y-89499285D01*
X178891523Y-89761190D02*
X178653428Y-89761190D01*
X178653428Y-89261190D01*
X178891523Y-89261190D01*
X179058190Y-89261190D02*
X179391523Y-89761190D01*
X179391523Y-89261190D02*
X179058190Y-89761190D01*
X179510571Y-89261190D02*
X179796285Y-89261190D01*
X179653428Y-89761190D02*
X179653428Y-89261190D01*
X179843904Y-89808809D02*
X180224857Y-89808809D01*
X180582000Y-89261190D02*
X180343904Y-89261190D01*
X180320095Y-89499285D01*
X180343904Y-89475476D01*
X180391523Y-89451666D01*
X180510571Y-89451666D01*
X180558190Y-89475476D01*
X180582000Y-89499285D01*
X180605809Y-89546904D01*
X180605809Y-89665952D01*
X180582000Y-89713571D01*
X180558190Y-89737380D01*
X180510571Y-89761190D01*
X180391523Y-89761190D01*
X180343904Y-89737380D01*
X180320095Y-89713571D01*
X180748666Y-89261190D02*
X180915333Y-89761190D01*
X181082000Y-89261190D01*
X181427523Y-95857190D02*
X181427523Y-95357190D01*
X181951333Y-95857190D02*
X181784666Y-95619095D01*
X181665619Y-95857190D02*
X181665619Y-95357190D01*
X181856095Y-95357190D01*
X181903714Y-95381000D01*
X181927523Y-95404809D01*
X181951333Y-95452428D01*
X181951333Y-95523857D01*
X181927523Y-95571476D01*
X181903714Y-95595285D01*
X181856095Y-95619095D01*
X181665619Y-95619095D01*
X182165619Y-95595285D02*
X182332285Y-95595285D01*
X182403714Y-95857190D02*
X182165619Y-95857190D01*
X182165619Y-95357190D01*
X182403714Y-95357190D01*
X182784666Y-95595285D02*
X182618000Y-95595285D01*
X182618000Y-95857190D02*
X182618000Y-95357190D01*
X182856095Y-95357190D01*
D11*
X117603714Y-91229571D02*
X117603714Y-89729571D01*
X119175142Y-91229571D02*
X118675142Y-90515285D01*
X118318000Y-91229571D02*
X118318000Y-89729571D01*
X118889428Y-89729571D01*
X119032285Y-89801000D01*
X119103714Y-89872428D01*
X119175142Y-90015285D01*
X119175142Y-90229571D01*
X119103714Y-90372428D01*
X119032285Y-90443857D01*
X118889428Y-90515285D01*
X118318000Y-90515285D01*
X120889428Y-91158142D02*
X121103714Y-91229571D01*
X121460857Y-91229571D01*
X121603714Y-91158142D01*
X121675142Y-91086714D01*
X121746571Y-90943857D01*
X121746571Y-90801000D01*
X121675142Y-90658142D01*
X121603714Y-90586714D01*
X121460857Y-90515285D01*
X121175142Y-90443857D01*
X121032285Y-90372428D01*
X120960857Y-90301000D01*
X120889428Y-90158142D01*
X120889428Y-90015285D01*
X120960857Y-89872428D01*
X121032285Y-89801000D01*
X121175142Y-89729571D01*
X121532285Y-89729571D01*
X121746571Y-89801000D01*
X122960857Y-91158142D02*
X122818000Y-91229571D01*
X122532285Y-91229571D01*
X122389428Y-91158142D01*
X122318000Y-91015285D01*
X122318000Y-90443857D01*
X122389428Y-90301000D01*
X122532285Y-90229571D01*
X122818000Y-90229571D01*
X122960857Y-90301000D01*
X123032285Y-90443857D01*
X123032285Y-90586714D01*
X122318000Y-90729571D01*
X123675142Y-90229571D02*
X123675142Y-91229571D01*
X123675142Y-90372428D02*
X123746571Y-90301000D01*
X123889428Y-90229571D01*
X124103714Y-90229571D01*
X124246571Y-90301000D01*
X124318000Y-90443857D01*
X124318000Y-91229571D01*
X124960857Y-91158142D02*
X125103714Y-91229571D01*
X125389428Y-91229571D01*
X125532285Y-91158142D01*
X125603714Y-91015285D01*
X125603714Y-90943857D01*
X125532285Y-90801000D01*
X125389428Y-90729571D01*
X125175142Y-90729571D01*
X125032285Y-90658142D01*
X124960857Y-90515285D01*
X124960857Y-90443857D01*
X125032285Y-90301000D01*
X125175142Y-90229571D01*
X125389428Y-90229571D01*
X125532285Y-90301000D01*
X126460857Y-91229571D02*
X126318000Y-91158142D01*
X126246571Y-91086714D01*
X126175142Y-90943857D01*
X126175142Y-90515285D01*
X126246571Y-90372428D01*
X126318000Y-90301000D01*
X126460857Y-90229571D01*
X126675142Y-90229571D01*
X126818000Y-90301000D01*
X126889428Y-90372428D01*
X126960857Y-90515285D01*
X126960857Y-90943857D01*
X126889428Y-91086714D01*
X126818000Y-91158142D01*
X126675142Y-91229571D01*
X126460857Y-91229571D01*
X127603714Y-91229571D02*
X127603714Y-90229571D01*
X127603714Y-90515285D02*
X127675142Y-90372428D01*
X127746571Y-90301000D01*
X127889428Y-90229571D01*
X128032285Y-90229571D01*
X129603714Y-90801000D02*
X130318000Y-90801000D01*
X129460857Y-91229571D02*
X129960857Y-89729571D01*
X130460857Y-91229571D01*
X130960857Y-91229571D02*
X130960857Y-90229571D01*
X130960857Y-90515285D02*
X131032285Y-90372428D01*
X131103714Y-90301000D01*
X131246571Y-90229571D01*
X131389428Y-90229571D01*
X131889428Y-91229571D02*
X131889428Y-90229571D01*
X131889428Y-90515285D02*
X131960857Y-90372428D01*
X132032285Y-90301000D01*
X132175142Y-90229571D01*
X132318000Y-90229571D01*
X133460857Y-91229571D02*
X133460857Y-90443857D01*
X133389428Y-90301000D01*
X133246571Y-90229571D01*
X132960857Y-90229571D01*
X132818000Y-90301000D01*
X133460857Y-91158142D02*
X133318000Y-91229571D01*
X132960857Y-91229571D01*
X132818000Y-91158142D01*
X132746571Y-91015285D01*
X132746571Y-90872428D01*
X132818000Y-90729571D01*
X132960857Y-90658142D01*
X133318000Y-90658142D01*
X133460857Y-90586714D01*
X134032285Y-90229571D02*
X134389428Y-91229571D01*
X134746571Y-90229571D02*
X134389428Y-91229571D01*
X134246571Y-91586714D01*
X134175142Y-91658142D01*
X134032285Y-91729571D01*
X136960857Y-90443857D02*
X137175142Y-90515285D01*
X137246571Y-90586714D01*
X137318000Y-90729571D01*
X137318000Y-90943857D01*
X137246571Y-91086714D01*
X137175142Y-91158142D01*
X137032285Y-91229571D01*
X136460857Y-91229571D01*
X136460857Y-89729571D01*
X136960857Y-89729571D01*
X137103714Y-89801000D01*
X137175142Y-89872428D01*
X137246571Y-90015285D01*
X137246571Y-90158142D01*
X137175142Y-90301000D01*
X137103714Y-90372428D01*
X136960857Y-90443857D01*
X136460857Y-90443857D01*
X137818000Y-90229571D02*
X138175142Y-91229571D01*
X138532285Y-90229571D02*
X138175142Y-91229571D01*
X138032285Y-91586714D01*
X137960857Y-91658142D01*
X137818000Y-91729571D01*
X140032285Y-89729571D02*
X140532285Y-91229571D01*
X141032285Y-89729571D01*
X141460857Y-89872428D02*
X141532285Y-89801000D01*
X141675142Y-89729571D01*
X142032285Y-89729571D01*
X142175142Y-89801000D01*
X142246571Y-89872428D01*
X142318000Y-90015285D01*
X142318000Y-90158142D01*
X142246571Y-90372428D01*
X141389428Y-91229571D01*
X142318000Y-91229571D01*
X143460857Y-90443857D02*
X142960857Y-90443857D01*
X142960857Y-91229571D02*
X142960857Y-89729571D01*
X143675142Y-89729571D01*
X145103714Y-91086714D02*
X145032285Y-91158142D01*
X144818000Y-91229571D01*
X144675142Y-91229571D01*
X144460857Y-91158142D01*
X144318000Y-91015285D01*
X144246571Y-90872428D01*
X144175142Y-90586714D01*
X144175142Y-90372428D01*
X144246571Y-90086714D01*
X144318000Y-89943857D01*
X144460857Y-89801000D01*
X144675142Y-89729571D01*
X144818000Y-89729571D01*
X145032285Y-89801000D01*
X145103714Y-89872428D01*
D12*
G04 #@! TO.C,C1*
X177272000Y-91537000D02*
X177936000Y-91537000D01*
X174616000Y-91537000D02*
X175280000Y-91537000D01*
X177272000Y-96757000D02*
X177936000Y-96757000D01*
X174616000Y-96757000D02*
X175280000Y-96757000D01*
X177936000Y-96757000D02*
X177936000Y-91537000D01*
X174616000Y-96757000D02*
X174616000Y-91537000D01*
G04 #@! TO.C,C2*
X155052000Y-95929000D02*
X156352000Y-95929000D01*
X155702000Y-96529000D02*
X155702000Y-95329000D01*
X155348000Y-90768000D02*
X156056000Y-90768000D01*
X155143000Y-90808000D02*
X156261000Y-90808000D01*
X154995000Y-90848000D02*
X156409000Y-90848000D01*
X154873000Y-90888000D02*
X156531000Y-90888000D01*
X154768000Y-90928000D02*
X156636000Y-90928000D01*
X154674000Y-90968000D02*
X156730000Y-90968000D01*
X154590000Y-91008000D02*
X156814000Y-91008000D01*
X154513000Y-91048000D02*
X156891000Y-91048000D01*
X154441000Y-91088000D02*
X156963000Y-91088000D01*
X154375000Y-91128000D02*
X157029000Y-91128000D01*
X154312000Y-91168000D02*
X157092000Y-91168000D01*
X154254000Y-91208000D02*
X157150000Y-91208000D01*
X154198000Y-91248000D02*
X157206000Y-91248000D01*
X154146000Y-91288000D02*
X157258000Y-91288000D01*
X154096000Y-91328000D02*
X157308000Y-91328000D01*
X156682000Y-91368000D02*
X157356000Y-91368000D01*
X154048000Y-91368000D02*
X154722000Y-91368000D01*
X156682000Y-91408000D02*
X157401000Y-91408000D01*
X154003000Y-91408000D02*
X154722000Y-91408000D01*
X156682000Y-91448000D02*
X157444000Y-91448000D01*
X153960000Y-91448000D02*
X154722000Y-91448000D01*
X156682000Y-91488000D02*
X157485000Y-91488000D01*
X153919000Y-91488000D02*
X154722000Y-91488000D01*
X156682000Y-91528000D02*
X157525000Y-91528000D01*
X153879000Y-91528000D02*
X154722000Y-91528000D01*
X156682000Y-91568000D02*
X157563000Y-91568000D01*
X153841000Y-91568000D02*
X154722000Y-91568000D01*
X156682000Y-91608000D02*
X157599000Y-91608000D01*
X153805000Y-91608000D02*
X154722000Y-91608000D01*
X156682000Y-91648000D02*
X157634000Y-91648000D01*
X153770000Y-91648000D02*
X154722000Y-91648000D01*
X156682000Y-91688000D02*
X157667000Y-91688000D01*
X153737000Y-91688000D02*
X154722000Y-91688000D01*
X156682000Y-91728000D02*
X157699000Y-91728000D01*
X153705000Y-91728000D02*
X154722000Y-91728000D01*
X156682000Y-91768000D02*
X157730000Y-91768000D01*
X153674000Y-91768000D02*
X154722000Y-91768000D01*
X156682000Y-91808000D02*
X157760000Y-91808000D01*
X153644000Y-91808000D02*
X154722000Y-91808000D01*
X156682000Y-91848000D02*
X157788000Y-91848000D01*
X153616000Y-91848000D02*
X154722000Y-91848000D01*
X156682000Y-91888000D02*
X157815000Y-91888000D01*
X153589000Y-91888000D02*
X154722000Y-91888000D01*
X156682000Y-91928000D02*
X157842000Y-91928000D01*
X153562000Y-91928000D02*
X154722000Y-91928000D01*
X156682000Y-91968000D02*
X157867000Y-91968000D01*
X153537000Y-91968000D02*
X154722000Y-91968000D01*
X156682000Y-92008000D02*
X157891000Y-92008000D01*
X153513000Y-92008000D02*
X154722000Y-92008000D01*
X156682000Y-92048000D02*
X157914000Y-92048000D01*
X153490000Y-92048000D02*
X154722000Y-92048000D01*
X156682000Y-92088000D02*
X157936000Y-92088000D01*
X153468000Y-92088000D02*
X154722000Y-92088000D01*
X156682000Y-92128000D02*
X157958000Y-92128000D01*
X153446000Y-92128000D02*
X154722000Y-92128000D01*
X156682000Y-92168000D02*
X157978000Y-92168000D01*
X153426000Y-92168000D02*
X154722000Y-92168000D01*
X156682000Y-92208000D02*
X157998000Y-92208000D01*
X153406000Y-92208000D02*
X154722000Y-92208000D01*
X156682000Y-92248000D02*
X158017000Y-92248000D01*
X153387000Y-92248000D02*
X154722000Y-92248000D01*
X156682000Y-92288000D02*
X158035000Y-92288000D01*
X153369000Y-92288000D02*
X154722000Y-92288000D01*
X156682000Y-92328000D02*
X158052000Y-92328000D01*
X153352000Y-92328000D02*
X154722000Y-92328000D01*
X156682000Y-92368000D02*
X158068000Y-92368000D01*
X153336000Y-92368000D02*
X154722000Y-92368000D01*
X156682000Y-92408000D02*
X158084000Y-92408000D01*
X153320000Y-92408000D02*
X154722000Y-92408000D01*
X156682000Y-92448000D02*
X158098000Y-92448000D01*
X153306000Y-92448000D02*
X154722000Y-92448000D01*
X156682000Y-92488000D02*
X158112000Y-92488000D01*
X153292000Y-92488000D02*
X154722000Y-92488000D01*
X156682000Y-92528000D02*
X158126000Y-92528000D01*
X153278000Y-92528000D02*
X154722000Y-92528000D01*
X156682000Y-92568000D02*
X158138000Y-92568000D01*
X153266000Y-92568000D02*
X154722000Y-92568000D01*
X156682000Y-92608000D02*
X158150000Y-92608000D01*
X153254000Y-92608000D02*
X154722000Y-92608000D01*
X156682000Y-92649000D02*
X158162000Y-92649000D01*
X153242000Y-92649000D02*
X154722000Y-92649000D01*
X156682000Y-92689000D02*
X158172000Y-92689000D01*
X153232000Y-92689000D02*
X154722000Y-92689000D01*
X156682000Y-92729000D02*
X158182000Y-92729000D01*
X153222000Y-92729000D02*
X154722000Y-92729000D01*
X156682000Y-92769000D02*
X158191000Y-92769000D01*
X153213000Y-92769000D02*
X154722000Y-92769000D01*
X156682000Y-92809000D02*
X158200000Y-92809000D01*
X153204000Y-92809000D02*
X154722000Y-92809000D01*
X156682000Y-92849000D02*
X158208000Y-92849000D01*
X153196000Y-92849000D02*
X154722000Y-92849000D01*
X156682000Y-92889000D02*
X158215000Y-92889000D01*
X153189000Y-92889000D02*
X154722000Y-92889000D01*
X156682000Y-92929000D02*
X158221000Y-92929000D01*
X153183000Y-92929000D02*
X154722000Y-92929000D01*
X156682000Y-92969000D02*
X158227000Y-92969000D01*
X153177000Y-92969000D02*
X154722000Y-92969000D01*
X156682000Y-93009000D02*
X158233000Y-93009000D01*
X153171000Y-93009000D02*
X154722000Y-93009000D01*
X156682000Y-93049000D02*
X158237000Y-93049000D01*
X153167000Y-93049000D02*
X154722000Y-93049000D01*
X156682000Y-93089000D02*
X158241000Y-93089000D01*
X153163000Y-93089000D02*
X154722000Y-93089000D01*
X156682000Y-93129000D02*
X158245000Y-93129000D01*
X153159000Y-93129000D02*
X154722000Y-93129000D01*
X156682000Y-93169000D02*
X158248000Y-93169000D01*
X153156000Y-93169000D02*
X154722000Y-93169000D01*
X156682000Y-93209000D02*
X158250000Y-93209000D01*
X153154000Y-93209000D02*
X154722000Y-93209000D01*
X156682000Y-93249000D02*
X158251000Y-93249000D01*
X153153000Y-93249000D02*
X154722000Y-93249000D01*
X156682000Y-93289000D02*
X158252000Y-93289000D01*
X153152000Y-93289000D02*
X154722000Y-93289000D01*
X153152000Y-93329000D02*
X158252000Y-93329000D01*
X156881723Y-91023278D02*
G75*
G03X154522000Y-91023420I-1179723J-2305722D01*
G01*
X156881723Y-91023278D02*
G75*
G02X156882000Y-95634580I-1179723J-2305722D01*
G01*
X154522277Y-91023278D02*
G75*
G03X154522000Y-95634580I1179723J-2305722D01*
G01*
G04 #@! TO.C,C4*
X159122000Y-95995000D02*
X159122000Y-90775000D01*
X162442000Y-95995000D02*
X162442000Y-90775000D01*
X159122000Y-95995000D02*
X159786000Y-95995000D01*
X161778000Y-95995000D02*
X162442000Y-95995000D01*
X159122000Y-90775000D02*
X159786000Y-90775000D01*
X161778000Y-90775000D02*
X162442000Y-90775000D01*
G04 #@! TO.C,D1*
X110216000Y-107040000D02*
X110216000Y-110130000D01*
X115276000Y-108585000D02*
G75*
G03X115276000Y-108585000I-2500000J0D01*
G01*
X115766000Y-108584538D02*
G75*
G02X110216000Y-110129830I-2990000J-462D01*
G01*
X115766000Y-108585462D02*
G75*
G03X110216000Y-107040170I-2990000J462D01*
G01*
G04 #@! TO.C,D2*
X156406000Y-108585462D02*
G75*
G03X150856000Y-107040170I-2990000J462D01*
G01*
X156406000Y-108584538D02*
G75*
G02X150856000Y-110129830I-2990000J-462D01*
G01*
X155916000Y-108585000D02*
G75*
G03X155916000Y-108585000I-2500000J0D01*
G01*
X150856000Y-107040000D02*
X150856000Y-110130000D01*
G04 #@! TO.C,D3*
X120376000Y-107040000D02*
X120376000Y-110130000D01*
X125436000Y-108585000D02*
G75*
G03X125436000Y-108585000I-2500000J0D01*
G01*
X125926000Y-108584538D02*
G75*
G02X120376000Y-110129830I-2990000J-462D01*
G01*
X125926000Y-108585462D02*
G75*
G03X120376000Y-107040170I-2990000J462D01*
G01*
G04 #@! TO.C,D4*
X166566000Y-108585462D02*
G75*
G03X161016000Y-107040170I-2990000J462D01*
G01*
X166566000Y-108584538D02*
G75*
G02X161016000Y-110129830I-2990000J-462D01*
G01*
X166076000Y-108585000D02*
G75*
G03X166076000Y-108585000I-2500000J0D01*
G01*
X161016000Y-107040000D02*
X161016000Y-110130000D01*
G04 #@! TO.C,D5*
X136086000Y-108585462D02*
G75*
G03X130536000Y-107040170I-2990000J462D01*
G01*
X136086000Y-108584538D02*
G75*
G02X130536000Y-110129830I-2990000J-462D01*
G01*
X135596000Y-108585000D02*
G75*
G03X135596000Y-108585000I-2500000J0D01*
G01*
X130536000Y-107040000D02*
X130536000Y-110130000D01*
G04 #@! TO.C,D6*
X171176000Y-107040000D02*
X171176000Y-110130000D01*
X176236000Y-108585000D02*
G75*
G03X176236000Y-108585000I-2500000J0D01*
G01*
X176726000Y-108584538D02*
G75*
G02X171176000Y-110129830I-2990000J-462D01*
G01*
X176726000Y-108585462D02*
G75*
G03X171176000Y-107040170I-2990000J462D01*
G01*
G04 #@! TO.C,D7*
X146246000Y-108585462D02*
G75*
G03X140696000Y-107040170I-2990000J462D01*
G01*
X146246000Y-108584538D02*
G75*
G02X140696000Y-110129830I-2990000J-462D01*
G01*
X145756000Y-108585000D02*
G75*
G03X145756000Y-108585000I-2500000J0D01*
G01*
X140696000Y-107040000D02*
X140696000Y-110130000D01*
G04 #@! TO.C,D8*
X186886000Y-108585462D02*
G75*
G03X181336000Y-107040170I-2990000J462D01*
G01*
X186886000Y-108584538D02*
G75*
G02X181336000Y-110129830I-2990000J-462D01*
G01*
X186396000Y-108585000D02*
G75*
G03X186396000Y-108585000I-2500000J0D01*
G01*
X181336000Y-107040000D02*
X181336000Y-110130000D01*
G04 #@! TO.C,Q1*
X115766000Y-101981462D02*
G75*
G03X110216000Y-100436170I-2990000J462D01*
G01*
X115766000Y-101980538D02*
G75*
G02X110216000Y-103525830I-2990000J-462D01*
G01*
X115276000Y-101981000D02*
G75*
G03X115276000Y-101981000I-2500000J0D01*
G01*
X110216000Y-100436000D02*
X110216000Y-103526000D01*
G04 #@! TO.C,Q2*
X156406000Y-101981462D02*
G75*
G03X150856000Y-100436170I-2990000J462D01*
G01*
X156406000Y-101980538D02*
G75*
G02X150856000Y-103525830I-2990000J-462D01*
G01*
X155916000Y-101981000D02*
G75*
G03X155916000Y-101981000I-2500000J0D01*
G01*
X150856000Y-100436000D02*
X150856000Y-103526000D01*
G04 #@! TO.C,Q3*
X125926000Y-101981462D02*
G75*
G03X120376000Y-100436170I-2990000J462D01*
G01*
X125926000Y-101980538D02*
G75*
G02X120376000Y-103525830I-2990000J-462D01*
G01*
X125436000Y-101981000D02*
G75*
G03X125436000Y-101981000I-2500000J0D01*
G01*
X120376000Y-100436000D02*
X120376000Y-103526000D01*
G04 #@! TO.C,Q5*
X130536000Y-100436000D02*
X130536000Y-103526000D01*
X135596000Y-101981000D02*
G75*
G03X135596000Y-101981000I-2500000J0D01*
G01*
X136086000Y-101980538D02*
G75*
G02X130536000Y-103525830I-2990000J-462D01*
G01*
X136086000Y-101981462D02*
G75*
G03X130536000Y-100436170I-2990000J462D01*
G01*
G04 #@! TO.C,Q6*
X171176000Y-100436000D02*
X171176000Y-103526000D01*
X176236000Y-101981000D02*
G75*
G03X176236000Y-101981000I-2500000J0D01*
G01*
X176726000Y-101980538D02*
G75*
G02X171176000Y-103525830I-2990000J-462D01*
G01*
X176726000Y-101981462D02*
G75*
G03X171176000Y-100436170I-2990000J462D01*
G01*
G04 #@! TO.C,Q7*
X140696000Y-100436000D02*
X140696000Y-103526000D01*
X145756000Y-101981000D02*
G75*
G03X145756000Y-101981000I-2500000J0D01*
G01*
X146246000Y-101980538D02*
G75*
G02X140696000Y-103525830I-2990000J-462D01*
G01*
X146246000Y-101981462D02*
G75*
G03X140696000Y-100436170I-2990000J462D01*
G01*
G04 #@! TO.C,Q8*
X181336000Y-100436000D02*
X181336000Y-103526000D01*
X186396000Y-101981000D02*
G75*
G03X186396000Y-101981000I-2500000J0D01*
G01*
X186886000Y-101980538D02*
G75*
G02X181336000Y-103525830I-2990000J-462D01*
G01*
X186886000Y-101981462D02*
G75*
G03X181336000Y-100436170I-2990000J462D01*
G01*
G04 #@! TO.C,R1*
X148376000Y-94107000D02*
G75*
G03X148376000Y-94107000I-1310000J0D01*
G01*
X147066000Y-92797000D02*
X147066000Y-92667000D01*
G04 #@! TO.C,R2*
X151932000Y-94107000D02*
G75*
G03X151932000Y-94107000I-1310000J0D01*
G01*
X150622000Y-92797000D02*
X150622000Y-92667000D01*
G04 #@! TO.C,R3*
X119166000Y-109093000D02*
G75*
G03X119166000Y-109093000I-1310000J0D01*
G01*
X117856000Y-107783000D02*
X117856000Y-107653000D01*
G04 #@! TO.C,R4*
X117856000Y-102783000D02*
X117856000Y-102913000D01*
X119166000Y-101473000D02*
G75*
G03X119166000Y-101473000I-1310000J0D01*
G01*
G04 #@! TO.C,R5*
X158496000Y-107783000D02*
X158496000Y-107653000D01*
X159806000Y-109093000D02*
G75*
G03X159806000Y-109093000I-1310000J0D01*
G01*
G04 #@! TO.C,R6*
X158496000Y-102783000D02*
X158496000Y-102913000D01*
X159806000Y-101473000D02*
G75*
G03X159806000Y-101473000I-1310000J0D01*
G01*
G04 #@! TO.C,R7*
X129326000Y-109093000D02*
G75*
G03X129326000Y-109093000I-1310000J0D01*
G01*
X128016000Y-107783000D02*
X128016000Y-107653000D01*
G04 #@! TO.C,R8*
X128016000Y-102783000D02*
X128016000Y-102913000D01*
X129326000Y-101473000D02*
G75*
G03X129326000Y-101473000I-1310000J0D01*
G01*
G04 #@! TO.C,R9*
X169966000Y-109093000D02*
G75*
G03X169966000Y-109093000I-1310000J0D01*
G01*
X168656000Y-107783000D02*
X168656000Y-107653000D01*
G04 #@! TO.C,R10*
X168656000Y-102783000D02*
X168656000Y-102913000D01*
X169966000Y-101473000D02*
G75*
G03X169966000Y-101473000I-1310000J0D01*
G01*
G04 #@! TO.C,R11*
X139486000Y-109093000D02*
G75*
G03X139486000Y-109093000I-1310000J0D01*
G01*
X138176000Y-107783000D02*
X138176000Y-107653000D01*
G04 #@! TO.C,R12*
X138176000Y-102783000D02*
X138176000Y-102913000D01*
X139486000Y-101473000D02*
G75*
G03X139486000Y-101473000I-1310000J0D01*
G01*
G04 #@! TO.C,R13*
X180126000Y-109093000D02*
G75*
G03X180126000Y-109093000I-1310000J0D01*
G01*
X178816000Y-107783000D02*
X178816000Y-107653000D01*
G04 #@! TO.C,R14*
X178816000Y-102783000D02*
X178816000Y-102913000D01*
X180126000Y-101473000D02*
G75*
G03X180126000Y-101473000I-1310000J0D01*
G01*
G04 #@! TO.C,R15*
X149646000Y-109093000D02*
G75*
G03X149646000Y-109093000I-1310000J0D01*
G01*
X148336000Y-107783000D02*
X148336000Y-107653000D01*
G04 #@! TO.C,R16*
X148336000Y-102783000D02*
X148336000Y-102913000D01*
X149646000Y-101473000D02*
G75*
G03X149646000Y-101473000I-1310000J0D01*
G01*
G04 #@! TO.C,R17*
X190286000Y-109093000D02*
G75*
G03X190286000Y-109093000I-1310000J0D01*
G01*
X188976000Y-107783000D02*
X188976000Y-107653000D01*
G04 #@! TO.C,R18*
X190286000Y-101473000D02*
G75*
G03X190286000Y-101473000I-1310000J0D01*
G01*
X188976000Y-102783000D02*
X188976000Y-102913000D01*
D13*
G04 #@! TO.C,U1*
X168142000Y-97628000D02*
X168142000Y-91653000D01*
X173667000Y-96053000D02*
X173667000Y-91653000D01*
D12*
G04 #@! TO.C,JP1*
X163304000Y-95677000D02*
X163304000Y-95077000D01*
X166754000Y-96377000D02*
X163954000Y-96377000D01*
X167404000Y-95077000D02*
X167404000Y-95677000D01*
X163954000Y-94377000D02*
X166754000Y-94377000D01*
X166704000Y-94377000D02*
G75*
G02X167404000Y-95077000I0J-700000D01*
G01*
X167404000Y-95677000D02*
G75*
G02X166704000Y-96377000I-700000J0D01*
G01*
X164004000Y-96377000D02*
G75*
G02X163304000Y-95677000I0J700000D01*
G01*
X163304000Y-95077000D02*
G75*
G02X164004000Y-94377000I700000J0D01*
G01*
G04 #@! TO.C,JP2*
X180132000Y-97681000D02*
X179532000Y-97681000D01*
X180832000Y-94231000D02*
X180832000Y-97031000D01*
X179532000Y-93581000D02*
X180132000Y-93581000D01*
X178832000Y-97031000D02*
X178832000Y-94231000D01*
X178832000Y-94281000D02*
G75*
G02X179532000Y-93581000I700000J0D01*
G01*
X180132000Y-93581000D02*
G75*
G02X180832000Y-94281000I0J-700000D01*
G01*
X180832000Y-96981000D02*
G75*
G02X180132000Y-97681000I-700000J0D01*
G01*
X179532000Y-97681000D02*
G75*
G02X178832000Y-96981000I0J700000D01*
G01*
G04 #@! TO.C,JP3*
X163304000Y-91775000D02*
G75*
G02X164004000Y-91075000I700000J0D01*
G01*
X164004000Y-93075000D02*
G75*
G02X163304000Y-92375000I0J700000D01*
G01*
X167404000Y-92375000D02*
G75*
G02X166704000Y-93075000I-700000J0D01*
G01*
X166704000Y-91075000D02*
G75*
G02X167404000Y-91775000I0J-700000D01*
G01*
X163954000Y-91075000D02*
X166754000Y-91075000D01*
X167404000Y-91775000D02*
X167404000Y-92375000D01*
X166754000Y-93075000D02*
X163954000Y-93075000D01*
X163304000Y-92375000D02*
X163304000Y-91775000D01*
G04 #@! TO.C,Q4*
X161016000Y-100436000D02*
X161016000Y-103526000D01*
X166076000Y-101981000D02*
G75*
G03X166076000Y-101981000I-2500000J0D01*
G01*
X166566000Y-101980538D02*
G75*
G02X161016000Y-103525830I-2990000J-462D01*
G01*
X166566000Y-101981462D02*
G75*
G03X161016000Y-100436170I-2990000J462D01*
G01*
G04 #@! TO.C,C1*
D13*
X176109333Y-89892142D02*
X176061714Y-89939761D01*
X175918857Y-89987380D01*
X175823619Y-89987380D01*
X175680761Y-89939761D01*
X175585523Y-89844523D01*
X175537904Y-89749285D01*
X175490285Y-89558809D01*
X175490285Y-89415952D01*
X175537904Y-89225476D01*
X175585523Y-89130238D01*
X175680761Y-89035000D01*
X175823619Y-88987380D01*
X175918857Y-88987380D01*
X176061714Y-89035000D01*
X176109333Y-89082619D01*
X177061714Y-89987380D02*
X176490285Y-89987380D01*
X176776000Y-89987380D02*
X176776000Y-88987380D01*
X176680761Y-89130238D01*
X176585523Y-89225476D01*
X176490285Y-89273095D01*
G04 #@! TO.C,C2*
X155535333Y-89892142D02*
X155487714Y-89939761D01*
X155344857Y-89987380D01*
X155249619Y-89987380D01*
X155106761Y-89939761D01*
X155011523Y-89844523D01*
X154963904Y-89749285D01*
X154916285Y-89558809D01*
X154916285Y-89415952D01*
X154963904Y-89225476D01*
X155011523Y-89130238D01*
X155106761Y-89035000D01*
X155249619Y-88987380D01*
X155344857Y-88987380D01*
X155487714Y-89035000D01*
X155535333Y-89082619D01*
X155916285Y-89082619D02*
X155963904Y-89035000D01*
X156059142Y-88987380D01*
X156297238Y-88987380D01*
X156392476Y-89035000D01*
X156440095Y-89082619D01*
X156487714Y-89177857D01*
X156487714Y-89273095D01*
X156440095Y-89415952D01*
X155868666Y-89987380D01*
X156487714Y-89987380D01*
G04 #@! TO.C,C4*
X160615333Y-89130142D02*
X160567714Y-89177761D01*
X160424857Y-89225380D01*
X160329619Y-89225380D01*
X160186761Y-89177761D01*
X160091523Y-89082523D01*
X160043904Y-88987285D01*
X159996285Y-88796809D01*
X159996285Y-88653952D01*
X160043904Y-88463476D01*
X160091523Y-88368238D01*
X160186761Y-88273000D01*
X160329619Y-88225380D01*
X160424857Y-88225380D01*
X160567714Y-88273000D01*
X160615333Y-88320619D01*
X161472476Y-88558714D02*
X161472476Y-89225380D01*
X161234380Y-88177761D02*
X160996285Y-88892047D01*
X161615333Y-88892047D01*
G04 #@! TO.C,D1*
X112037904Y-110815380D02*
X112037904Y-109815380D01*
X112276000Y-109815380D01*
X112418857Y-109863000D01*
X112514095Y-109958238D01*
X112561714Y-110053476D01*
X112609333Y-110243952D01*
X112609333Y-110386809D01*
X112561714Y-110577285D01*
X112514095Y-110672523D01*
X112418857Y-110767761D01*
X112276000Y-110815380D01*
X112037904Y-110815380D01*
X113561714Y-110815380D02*
X112990285Y-110815380D01*
X113276000Y-110815380D02*
X113276000Y-109815380D01*
X113180761Y-109958238D01*
X113085523Y-110053476D01*
X112990285Y-110101095D01*
G04 #@! TO.C,D2*
X152677904Y-110815380D02*
X152677904Y-109815380D01*
X152916000Y-109815380D01*
X153058857Y-109863000D01*
X153154095Y-109958238D01*
X153201714Y-110053476D01*
X153249333Y-110243952D01*
X153249333Y-110386809D01*
X153201714Y-110577285D01*
X153154095Y-110672523D01*
X153058857Y-110767761D01*
X152916000Y-110815380D01*
X152677904Y-110815380D01*
X153630285Y-109910619D02*
X153677904Y-109863000D01*
X153773142Y-109815380D01*
X154011238Y-109815380D01*
X154106476Y-109863000D01*
X154154095Y-109910619D01*
X154201714Y-110005857D01*
X154201714Y-110101095D01*
X154154095Y-110243952D01*
X153582666Y-110815380D01*
X154201714Y-110815380D01*
G04 #@! TO.C,D3*
X122197904Y-110815380D02*
X122197904Y-109815380D01*
X122436000Y-109815380D01*
X122578857Y-109863000D01*
X122674095Y-109958238D01*
X122721714Y-110053476D01*
X122769333Y-110243952D01*
X122769333Y-110386809D01*
X122721714Y-110577285D01*
X122674095Y-110672523D01*
X122578857Y-110767761D01*
X122436000Y-110815380D01*
X122197904Y-110815380D01*
X123102666Y-109815380D02*
X123721714Y-109815380D01*
X123388380Y-110196333D01*
X123531238Y-110196333D01*
X123626476Y-110243952D01*
X123674095Y-110291571D01*
X123721714Y-110386809D01*
X123721714Y-110624904D01*
X123674095Y-110720142D01*
X123626476Y-110767761D01*
X123531238Y-110815380D01*
X123245523Y-110815380D01*
X123150285Y-110767761D01*
X123102666Y-110720142D01*
G04 #@! TO.C,D4*
X162837904Y-110815380D02*
X162837904Y-109815380D01*
X163076000Y-109815380D01*
X163218857Y-109863000D01*
X163314095Y-109958238D01*
X163361714Y-110053476D01*
X163409333Y-110243952D01*
X163409333Y-110386809D01*
X163361714Y-110577285D01*
X163314095Y-110672523D01*
X163218857Y-110767761D01*
X163076000Y-110815380D01*
X162837904Y-110815380D01*
X164266476Y-110148714D02*
X164266476Y-110815380D01*
X164028380Y-109767761D02*
X163790285Y-110482047D01*
X164409333Y-110482047D01*
G04 #@! TO.C,D5*
X132357904Y-110815380D02*
X132357904Y-109815380D01*
X132596000Y-109815380D01*
X132738857Y-109863000D01*
X132834095Y-109958238D01*
X132881714Y-110053476D01*
X132929333Y-110243952D01*
X132929333Y-110386809D01*
X132881714Y-110577285D01*
X132834095Y-110672523D01*
X132738857Y-110767761D01*
X132596000Y-110815380D01*
X132357904Y-110815380D01*
X133834095Y-109815380D02*
X133357904Y-109815380D01*
X133310285Y-110291571D01*
X133357904Y-110243952D01*
X133453142Y-110196333D01*
X133691238Y-110196333D01*
X133786476Y-110243952D01*
X133834095Y-110291571D01*
X133881714Y-110386809D01*
X133881714Y-110624904D01*
X133834095Y-110720142D01*
X133786476Y-110767761D01*
X133691238Y-110815380D01*
X133453142Y-110815380D01*
X133357904Y-110767761D01*
X133310285Y-110720142D01*
G04 #@! TO.C,D6*
X172997904Y-110815380D02*
X172997904Y-109815380D01*
X173236000Y-109815380D01*
X173378857Y-109863000D01*
X173474095Y-109958238D01*
X173521714Y-110053476D01*
X173569333Y-110243952D01*
X173569333Y-110386809D01*
X173521714Y-110577285D01*
X173474095Y-110672523D01*
X173378857Y-110767761D01*
X173236000Y-110815380D01*
X172997904Y-110815380D01*
X174426476Y-109815380D02*
X174236000Y-109815380D01*
X174140761Y-109863000D01*
X174093142Y-109910619D01*
X173997904Y-110053476D01*
X173950285Y-110243952D01*
X173950285Y-110624904D01*
X173997904Y-110720142D01*
X174045523Y-110767761D01*
X174140761Y-110815380D01*
X174331238Y-110815380D01*
X174426476Y-110767761D01*
X174474095Y-110720142D01*
X174521714Y-110624904D01*
X174521714Y-110386809D01*
X174474095Y-110291571D01*
X174426476Y-110243952D01*
X174331238Y-110196333D01*
X174140761Y-110196333D01*
X174045523Y-110243952D01*
X173997904Y-110291571D01*
X173950285Y-110386809D01*
G04 #@! TO.C,D7*
X142517904Y-110815380D02*
X142517904Y-109815380D01*
X142756000Y-109815380D01*
X142898857Y-109863000D01*
X142994095Y-109958238D01*
X143041714Y-110053476D01*
X143089333Y-110243952D01*
X143089333Y-110386809D01*
X143041714Y-110577285D01*
X142994095Y-110672523D01*
X142898857Y-110767761D01*
X142756000Y-110815380D01*
X142517904Y-110815380D01*
X143422666Y-109815380D02*
X144089333Y-109815380D01*
X143660761Y-110815380D01*
G04 #@! TO.C,D8*
X183157904Y-111069380D02*
X183157904Y-110069380D01*
X183396000Y-110069380D01*
X183538857Y-110117000D01*
X183634095Y-110212238D01*
X183681714Y-110307476D01*
X183729333Y-110497952D01*
X183729333Y-110640809D01*
X183681714Y-110831285D01*
X183634095Y-110926523D01*
X183538857Y-111021761D01*
X183396000Y-111069380D01*
X183157904Y-111069380D01*
X184300761Y-110497952D02*
X184205523Y-110450333D01*
X184157904Y-110402714D01*
X184110285Y-110307476D01*
X184110285Y-110259857D01*
X184157904Y-110164619D01*
X184205523Y-110117000D01*
X184300761Y-110069380D01*
X184491238Y-110069380D01*
X184586476Y-110117000D01*
X184634095Y-110164619D01*
X184681714Y-110259857D01*
X184681714Y-110307476D01*
X184634095Y-110402714D01*
X184586476Y-110450333D01*
X184491238Y-110497952D01*
X184300761Y-110497952D01*
X184205523Y-110545571D01*
X184157904Y-110593190D01*
X184110285Y-110688428D01*
X184110285Y-110878904D01*
X184157904Y-110974142D01*
X184205523Y-111021761D01*
X184300761Y-111069380D01*
X184491238Y-111069380D01*
X184586476Y-111021761D01*
X184634095Y-110974142D01*
X184681714Y-110878904D01*
X184681714Y-110688428D01*
X184634095Y-110593190D01*
X184586476Y-110545571D01*
X184491238Y-110497952D01*
G04 #@! TO.C,Q1*
X112680761Y-98568619D02*
X112585523Y-98521000D01*
X112490285Y-98425761D01*
X112347428Y-98282904D01*
X112252190Y-98235285D01*
X112156952Y-98235285D01*
X112204571Y-98473380D02*
X112109333Y-98425761D01*
X112014095Y-98330523D01*
X111966476Y-98140047D01*
X111966476Y-97806714D01*
X112014095Y-97616238D01*
X112109333Y-97521000D01*
X112204571Y-97473380D01*
X112395047Y-97473380D01*
X112490285Y-97521000D01*
X112585523Y-97616238D01*
X112633142Y-97806714D01*
X112633142Y-98140047D01*
X112585523Y-98330523D01*
X112490285Y-98425761D01*
X112395047Y-98473380D01*
X112204571Y-98473380D01*
X113585523Y-98473380D02*
X113014095Y-98473380D01*
X113299809Y-98473380D02*
X113299809Y-97473380D01*
X113204571Y-97616238D01*
X113109333Y-97711476D01*
X113014095Y-97759095D01*
G04 #@! TO.C,Q2*
X153320761Y-98568619D02*
X153225523Y-98521000D01*
X153130285Y-98425761D01*
X152987428Y-98282904D01*
X152892190Y-98235285D01*
X152796952Y-98235285D01*
X152844571Y-98473380D02*
X152749333Y-98425761D01*
X152654095Y-98330523D01*
X152606476Y-98140047D01*
X152606476Y-97806714D01*
X152654095Y-97616238D01*
X152749333Y-97521000D01*
X152844571Y-97473380D01*
X153035047Y-97473380D01*
X153130285Y-97521000D01*
X153225523Y-97616238D01*
X153273142Y-97806714D01*
X153273142Y-98140047D01*
X153225523Y-98330523D01*
X153130285Y-98425761D01*
X153035047Y-98473380D01*
X152844571Y-98473380D01*
X153654095Y-97568619D02*
X153701714Y-97521000D01*
X153796952Y-97473380D01*
X154035047Y-97473380D01*
X154130285Y-97521000D01*
X154177904Y-97568619D01*
X154225523Y-97663857D01*
X154225523Y-97759095D01*
X154177904Y-97901952D01*
X153606476Y-98473380D01*
X154225523Y-98473380D01*
G04 #@! TO.C,Q3*
X122840761Y-98568619D02*
X122745523Y-98521000D01*
X122650285Y-98425761D01*
X122507428Y-98282904D01*
X122412190Y-98235285D01*
X122316952Y-98235285D01*
X122364571Y-98473380D02*
X122269333Y-98425761D01*
X122174095Y-98330523D01*
X122126476Y-98140047D01*
X122126476Y-97806714D01*
X122174095Y-97616238D01*
X122269333Y-97521000D01*
X122364571Y-97473380D01*
X122555047Y-97473380D01*
X122650285Y-97521000D01*
X122745523Y-97616238D01*
X122793142Y-97806714D01*
X122793142Y-98140047D01*
X122745523Y-98330523D01*
X122650285Y-98425761D01*
X122555047Y-98473380D01*
X122364571Y-98473380D01*
X123126476Y-97473380D02*
X123745523Y-97473380D01*
X123412190Y-97854333D01*
X123555047Y-97854333D01*
X123650285Y-97901952D01*
X123697904Y-97949571D01*
X123745523Y-98044809D01*
X123745523Y-98282904D01*
X123697904Y-98378142D01*
X123650285Y-98425761D01*
X123555047Y-98473380D01*
X123269333Y-98473380D01*
X123174095Y-98425761D01*
X123126476Y-98378142D01*
G04 #@! TO.C,Q5*
X133000761Y-98568619D02*
X132905523Y-98521000D01*
X132810285Y-98425761D01*
X132667428Y-98282904D01*
X132572190Y-98235285D01*
X132476952Y-98235285D01*
X132524571Y-98473380D02*
X132429333Y-98425761D01*
X132334095Y-98330523D01*
X132286476Y-98140047D01*
X132286476Y-97806714D01*
X132334095Y-97616238D01*
X132429333Y-97521000D01*
X132524571Y-97473380D01*
X132715047Y-97473380D01*
X132810285Y-97521000D01*
X132905523Y-97616238D01*
X132953142Y-97806714D01*
X132953142Y-98140047D01*
X132905523Y-98330523D01*
X132810285Y-98425761D01*
X132715047Y-98473380D01*
X132524571Y-98473380D01*
X133857904Y-97473380D02*
X133381714Y-97473380D01*
X133334095Y-97949571D01*
X133381714Y-97901952D01*
X133476952Y-97854333D01*
X133715047Y-97854333D01*
X133810285Y-97901952D01*
X133857904Y-97949571D01*
X133905523Y-98044809D01*
X133905523Y-98282904D01*
X133857904Y-98378142D01*
X133810285Y-98425761D01*
X133715047Y-98473380D01*
X133476952Y-98473380D01*
X133381714Y-98425761D01*
X133334095Y-98378142D01*
G04 #@! TO.C,Q6*
X174656761Y-98718619D02*
X174561523Y-98671000D01*
X174466285Y-98575761D01*
X174323428Y-98432904D01*
X174228190Y-98385285D01*
X174132952Y-98385285D01*
X174180571Y-98623380D02*
X174085333Y-98575761D01*
X173990095Y-98480523D01*
X173942476Y-98290047D01*
X173942476Y-97956714D01*
X173990095Y-97766238D01*
X174085333Y-97671000D01*
X174180571Y-97623380D01*
X174371047Y-97623380D01*
X174466285Y-97671000D01*
X174561523Y-97766238D01*
X174609142Y-97956714D01*
X174609142Y-98290047D01*
X174561523Y-98480523D01*
X174466285Y-98575761D01*
X174371047Y-98623380D01*
X174180571Y-98623380D01*
X175466285Y-97623380D02*
X175275809Y-97623380D01*
X175180571Y-97671000D01*
X175132952Y-97718619D01*
X175037714Y-97861476D01*
X174990095Y-98051952D01*
X174990095Y-98432904D01*
X175037714Y-98528142D01*
X175085333Y-98575761D01*
X175180571Y-98623380D01*
X175371047Y-98623380D01*
X175466285Y-98575761D01*
X175513904Y-98528142D01*
X175561523Y-98432904D01*
X175561523Y-98194809D01*
X175513904Y-98099571D01*
X175466285Y-98051952D01*
X175371047Y-98004333D01*
X175180571Y-98004333D01*
X175085333Y-98051952D01*
X175037714Y-98099571D01*
X174990095Y-98194809D01*
G04 #@! TO.C,Q7*
X143160761Y-98568619D02*
X143065523Y-98521000D01*
X142970285Y-98425761D01*
X142827428Y-98282904D01*
X142732190Y-98235285D01*
X142636952Y-98235285D01*
X142684571Y-98473380D02*
X142589333Y-98425761D01*
X142494095Y-98330523D01*
X142446476Y-98140047D01*
X142446476Y-97806714D01*
X142494095Y-97616238D01*
X142589333Y-97521000D01*
X142684571Y-97473380D01*
X142875047Y-97473380D01*
X142970285Y-97521000D01*
X143065523Y-97616238D01*
X143113142Y-97806714D01*
X143113142Y-98140047D01*
X143065523Y-98330523D01*
X142970285Y-98425761D01*
X142875047Y-98473380D01*
X142684571Y-98473380D01*
X143446476Y-97473380D02*
X144113142Y-97473380D01*
X143684571Y-98473380D01*
G04 #@! TO.C,Q8*
X183800761Y-98568619D02*
X183705523Y-98521000D01*
X183610285Y-98425761D01*
X183467428Y-98282904D01*
X183372190Y-98235285D01*
X183276952Y-98235285D01*
X183324571Y-98473380D02*
X183229333Y-98425761D01*
X183134095Y-98330523D01*
X183086476Y-98140047D01*
X183086476Y-97806714D01*
X183134095Y-97616238D01*
X183229333Y-97521000D01*
X183324571Y-97473380D01*
X183515047Y-97473380D01*
X183610285Y-97521000D01*
X183705523Y-97616238D01*
X183753142Y-97806714D01*
X183753142Y-98140047D01*
X183705523Y-98330523D01*
X183610285Y-98425761D01*
X183515047Y-98473380D01*
X183324571Y-98473380D01*
X184324571Y-97901952D02*
X184229333Y-97854333D01*
X184181714Y-97806714D01*
X184134095Y-97711476D01*
X184134095Y-97663857D01*
X184181714Y-97568619D01*
X184229333Y-97521000D01*
X184324571Y-97473380D01*
X184515047Y-97473380D01*
X184610285Y-97521000D01*
X184657904Y-97568619D01*
X184705523Y-97663857D01*
X184705523Y-97711476D01*
X184657904Y-97806714D01*
X184610285Y-97854333D01*
X184515047Y-97901952D01*
X184324571Y-97901952D01*
X184229333Y-97949571D01*
X184181714Y-97997190D01*
X184134095Y-98092428D01*
X184134095Y-98282904D01*
X184181714Y-98378142D01*
X184229333Y-98425761D01*
X184324571Y-98473380D01*
X184515047Y-98473380D01*
X184610285Y-98425761D01*
X184657904Y-98378142D01*
X184705523Y-98282904D01*
X184705523Y-98092428D01*
X184657904Y-97997190D01*
X184610285Y-97949571D01*
X184515047Y-97901952D01*
G04 #@! TO.C,R1*
X146899333Y-96845380D02*
X146566000Y-96369190D01*
X146327904Y-96845380D02*
X146327904Y-95845380D01*
X146708857Y-95845380D01*
X146804095Y-95893000D01*
X146851714Y-95940619D01*
X146899333Y-96035857D01*
X146899333Y-96178714D01*
X146851714Y-96273952D01*
X146804095Y-96321571D01*
X146708857Y-96369190D01*
X146327904Y-96369190D01*
X147851714Y-96845380D02*
X147280285Y-96845380D01*
X147566000Y-96845380D02*
X147566000Y-95845380D01*
X147470761Y-95988238D01*
X147375523Y-96083476D01*
X147280285Y-96131095D01*
G04 #@! TO.C,R2*
X150455333Y-96845380D02*
X150122000Y-96369190D01*
X149883904Y-96845380D02*
X149883904Y-95845380D01*
X150264857Y-95845380D01*
X150360095Y-95893000D01*
X150407714Y-95940619D01*
X150455333Y-96035857D01*
X150455333Y-96178714D01*
X150407714Y-96273952D01*
X150360095Y-96321571D01*
X150264857Y-96369190D01*
X149883904Y-96369190D01*
X150836285Y-95940619D02*
X150883904Y-95893000D01*
X150979142Y-95845380D01*
X151217238Y-95845380D01*
X151312476Y-95893000D01*
X151360095Y-95940619D01*
X151407714Y-96035857D01*
X151407714Y-96131095D01*
X151360095Y-96273952D01*
X150788666Y-96845380D01*
X151407714Y-96845380D01*
G04 #@! TO.C,R3*
X117689333Y-111831380D02*
X117356000Y-111355190D01*
X117117904Y-111831380D02*
X117117904Y-110831380D01*
X117498857Y-110831380D01*
X117594095Y-110879000D01*
X117641714Y-110926619D01*
X117689333Y-111021857D01*
X117689333Y-111164714D01*
X117641714Y-111259952D01*
X117594095Y-111307571D01*
X117498857Y-111355190D01*
X117117904Y-111355190D01*
X118022666Y-110831380D02*
X118641714Y-110831380D01*
X118308380Y-111212333D01*
X118451238Y-111212333D01*
X118546476Y-111259952D01*
X118594095Y-111307571D01*
X118641714Y-111402809D01*
X118641714Y-111640904D01*
X118594095Y-111736142D01*
X118546476Y-111783761D01*
X118451238Y-111831380D01*
X118165523Y-111831380D01*
X118070285Y-111783761D01*
X118022666Y-111736142D01*
G04 #@! TO.C,R4*
X117689333Y-99639380D02*
X117356000Y-99163190D01*
X117117904Y-99639380D02*
X117117904Y-98639380D01*
X117498857Y-98639380D01*
X117594095Y-98687000D01*
X117641714Y-98734619D01*
X117689333Y-98829857D01*
X117689333Y-98972714D01*
X117641714Y-99067952D01*
X117594095Y-99115571D01*
X117498857Y-99163190D01*
X117117904Y-99163190D01*
X118546476Y-98972714D02*
X118546476Y-99639380D01*
X118308380Y-98591761D02*
X118070285Y-99306047D01*
X118689333Y-99306047D01*
G04 #@! TO.C,R5*
X158329333Y-111831380D02*
X157996000Y-111355190D01*
X157757904Y-111831380D02*
X157757904Y-110831380D01*
X158138857Y-110831380D01*
X158234095Y-110879000D01*
X158281714Y-110926619D01*
X158329333Y-111021857D01*
X158329333Y-111164714D01*
X158281714Y-111259952D01*
X158234095Y-111307571D01*
X158138857Y-111355190D01*
X157757904Y-111355190D01*
X159234095Y-110831380D02*
X158757904Y-110831380D01*
X158710285Y-111307571D01*
X158757904Y-111259952D01*
X158853142Y-111212333D01*
X159091238Y-111212333D01*
X159186476Y-111259952D01*
X159234095Y-111307571D01*
X159281714Y-111402809D01*
X159281714Y-111640904D01*
X159234095Y-111736142D01*
X159186476Y-111783761D01*
X159091238Y-111831380D01*
X158853142Y-111831380D01*
X158757904Y-111783761D01*
X158710285Y-111736142D01*
G04 #@! TO.C,R6*
X158329333Y-99385380D02*
X157996000Y-98909190D01*
X157757904Y-99385380D02*
X157757904Y-98385380D01*
X158138857Y-98385380D01*
X158234095Y-98433000D01*
X158281714Y-98480619D01*
X158329333Y-98575857D01*
X158329333Y-98718714D01*
X158281714Y-98813952D01*
X158234095Y-98861571D01*
X158138857Y-98909190D01*
X157757904Y-98909190D01*
X159186476Y-98385380D02*
X158996000Y-98385380D01*
X158900761Y-98433000D01*
X158853142Y-98480619D01*
X158757904Y-98623476D01*
X158710285Y-98813952D01*
X158710285Y-99194904D01*
X158757904Y-99290142D01*
X158805523Y-99337761D01*
X158900761Y-99385380D01*
X159091238Y-99385380D01*
X159186476Y-99337761D01*
X159234095Y-99290142D01*
X159281714Y-99194904D01*
X159281714Y-98956809D01*
X159234095Y-98861571D01*
X159186476Y-98813952D01*
X159091238Y-98766333D01*
X158900761Y-98766333D01*
X158805523Y-98813952D01*
X158757904Y-98861571D01*
X158710285Y-98956809D01*
G04 #@! TO.C,R7*
X127849333Y-111831380D02*
X127516000Y-111355190D01*
X127277904Y-111831380D02*
X127277904Y-110831380D01*
X127658857Y-110831380D01*
X127754095Y-110879000D01*
X127801714Y-110926619D01*
X127849333Y-111021857D01*
X127849333Y-111164714D01*
X127801714Y-111259952D01*
X127754095Y-111307571D01*
X127658857Y-111355190D01*
X127277904Y-111355190D01*
X128182666Y-110831380D02*
X128849333Y-110831380D01*
X128420761Y-111831380D01*
G04 #@! TO.C,R8*
X127849333Y-99639380D02*
X127516000Y-99163190D01*
X127277904Y-99639380D02*
X127277904Y-98639380D01*
X127658857Y-98639380D01*
X127754095Y-98687000D01*
X127801714Y-98734619D01*
X127849333Y-98829857D01*
X127849333Y-98972714D01*
X127801714Y-99067952D01*
X127754095Y-99115571D01*
X127658857Y-99163190D01*
X127277904Y-99163190D01*
X128420761Y-99067952D02*
X128325523Y-99020333D01*
X128277904Y-98972714D01*
X128230285Y-98877476D01*
X128230285Y-98829857D01*
X128277904Y-98734619D01*
X128325523Y-98687000D01*
X128420761Y-98639380D01*
X128611238Y-98639380D01*
X128706476Y-98687000D01*
X128754095Y-98734619D01*
X128801714Y-98829857D01*
X128801714Y-98877476D01*
X128754095Y-98972714D01*
X128706476Y-99020333D01*
X128611238Y-99067952D01*
X128420761Y-99067952D01*
X128325523Y-99115571D01*
X128277904Y-99163190D01*
X128230285Y-99258428D01*
X128230285Y-99448904D01*
X128277904Y-99544142D01*
X128325523Y-99591761D01*
X128420761Y-99639380D01*
X128611238Y-99639380D01*
X128706476Y-99591761D01*
X128754095Y-99544142D01*
X128801714Y-99448904D01*
X128801714Y-99258428D01*
X128754095Y-99163190D01*
X128706476Y-99115571D01*
X128611238Y-99067952D01*
G04 #@! TO.C,R9*
X168489333Y-111831380D02*
X168156000Y-111355190D01*
X167917904Y-111831380D02*
X167917904Y-110831380D01*
X168298857Y-110831380D01*
X168394095Y-110879000D01*
X168441714Y-110926619D01*
X168489333Y-111021857D01*
X168489333Y-111164714D01*
X168441714Y-111259952D01*
X168394095Y-111307571D01*
X168298857Y-111355190D01*
X167917904Y-111355190D01*
X168965523Y-111831380D02*
X169156000Y-111831380D01*
X169251238Y-111783761D01*
X169298857Y-111736142D01*
X169394095Y-111593285D01*
X169441714Y-111402809D01*
X169441714Y-111021857D01*
X169394095Y-110926619D01*
X169346476Y-110879000D01*
X169251238Y-110831380D01*
X169060761Y-110831380D01*
X168965523Y-110879000D01*
X168917904Y-110926619D01*
X168870285Y-111021857D01*
X168870285Y-111259952D01*
X168917904Y-111355190D01*
X168965523Y-111402809D01*
X169060761Y-111450428D01*
X169251238Y-111450428D01*
X169346476Y-111402809D01*
X169394095Y-111355190D01*
X169441714Y-111259952D01*
G04 #@! TO.C,R10*
X168013142Y-99639380D02*
X167679809Y-99163190D01*
X167441714Y-99639380D02*
X167441714Y-98639380D01*
X167822666Y-98639380D01*
X167917904Y-98687000D01*
X167965523Y-98734619D01*
X168013142Y-98829857D01*
X168013142Y-98972714D01*
X167965523Y-99067952D01*
X167917904Y-99115571D01*
X167822666Y-99163190D01*
X167441714Y-99163190D01*
X168965523Y-99639380D02*
X168394095Y-99639380D01*
X168679809Y-99639380D02*
X168679809Y-98639380D01*
X168584571Y-98782238D01*
X168489333Y-98877476D01*
X168394095Y-98925095D01*
X169584571Y-98639380D02*
X169679809Y-98639380D01*
X169775047Y-98687000D01*
X169822666Y-98734619D01*
X169870285Y-98829857D01*
X169917904Y-99020333D01*
X169917904Y-99258428D01*
X169870285Y-99448904D01*
X169822666Y-99544142D01*
X169775047Y-99591761D01*
X169679809Y-99639380D01*
X169584571Y-99639380D01*
X169489333Y-99591761D01*
X169441714Y-99544142D01*
X169394095Y-99448904D01*
X169346476Y-99258428D01*
X169346476Y-99020333D01*
X169394095Y-98829857D01*
X169441714Y-98734619D01*
X169489333Y-98687000D01*
X169584571Y-98639380D01*
G04 #@! TO.C,R11*
X137533142Y-111831380D02*
X137199809Y-111355190D01*
X136961714Y-111831380D02*
X136961714Y-110831380D01*
X137342666Y-110831380D01*
X137437904Y-110879000D01*
X137485523Y-110926619D01*
X137533142Y-111021857D01*
X137533142Y-111164714D01*
X137485523Y-111259952D01*
X137437904Y-111307571D01*
X137342666Y-111355190D01*
X136961714Y-111355190D01*
X138485523Y-111831380D02*
X137914095Y-111831380D01*
X138199809Y-111831380D02*
X138199809Y-110831380D01*
X138104571Y-110974238D01*
X138009333Y-111069476D01*
X137914095Y-111117095D01*
X139437904Y-111831380D02*
X138866476Y-111831380D01*
X139152190Y-111831380D02*
X139152190Y-110831380D01*
X139056952Y-110974238D01*
X138961714Y-111069476D01*
X138866476Y-111117095D01*
G04 #@! TO.C,R12*
X137533142Y-99639380D02*
X137199809Y-99163190D01*
X136961714Y-99639380D02*
X136961714Y-98639380D01*
X137342666Y-98639380D01*
X137437904Y-98687000D01*
X137485523Y-98734619D01*
X137533142Y-98829857D01*
X137533142Y-98972714D01*
X137485523Y-99067952D01*
X137437904Y-99115571D01*
X137342666Y-99163190D01*
X136961714Y-99163190D01*
X138485523Y-99639380D02*
X137914095Y-99639380D01*
X138199809Y-99639380D02*
X138199809Y-98639380D01*
X138104571Y-98782238D01*
X138009333Y-98877476D01*
X137914095Y-98925095D01*
X138866476Y-98734619D02*
X138914095Y-98687000D01*
X139009333Y-98639380D01*
X139247428Y-98639380D01*
X139342666Y-98687000D01*
X139390285Y-98734619D01*
X139437904Y-98829857D01*
X139437904Y-98925095D01*
X139390285Y-99067952D01*
X138818857Y-99639380D01*
X139437904Y-99639380D01*
G04 #@! TO.C,R13*
X178173142Y-111831380D02*
X177839809Y-111355190D01*
X177601714Y-111831380D02*
X177601714Y-110831380D01*
X177982666Y-110831380D01*
X178077904Y-110879000D01*
X178125523Y-110926619D01*
X178173142Y-111021857D01*
X178173142Y-111164714D01*
X178125523Y-111259952D01*
X178077904Y-111307571D01*
X177982666Y-111355190D01*
X177601714Y-111355190D01*
X179125523Y-111831380D02*
X178554095Y-111831380D01*
X178839809Y-111831380D02*
X178839809Y-110831380D01*
X178744571Y-110974238D01*
X178649333Y-111069476D01*
X178554095Y-111117095D01*
X179458857Y-110831380D02*
X180077904Y-110831380D01*
X179744571Y-111212333D01*
X179887428Y-111212333D01*
X179982666Y-111259952D01*
X180030285Y-111307571D01*
X180077904Y-111402809D01*
X180077904Y-111640904D01*
X180030285Y-111736142D01*
X179982666Y-111783761D01*
X179887428Y-111831380D01*
X179601714Y-111831380D01*
X179506476Y-111783761D01*
X179458857Y-111736142D01*
G04 #@! TO.C,R14*
X178173142Y-99639380D02*
X177839809Y-99163190D01*
X177601714Y-99639380D02*
X177601714Y-98639380D01*
X177982666Y-98639380D01*
X178077904Y-98687000D01*
X178125523Y-98734619D01*
X178173142Y-98829857D01*
X178173142Y-98972714D01*
X178125523Y-99067952D01*
X178077904Y-99115571D01*
X177982666Y-99163190D01*
X177601714Y-99163190D01*
X179125523Y-99639380D02*
X178554095Y-99639380D01*
X178839809Y-99639380D02*
X178839809Y-98639380D01*
X178744571Y-98782238D01*
X178649333Y-98877476D01*
X178554095Y-98925095D01*
X179982666Y-98972714D02*
X179982666Y-99639380D01*
X179744571Y-98591761D02*
X179506476Y-99306047D01*
X180125523Y-99306047D01*
G04 #@! TO.C,R15*
X147693142Y-111831380D02*
X147359809Y-111355190D01*
X147121714Y-111831380D02*
X147121714Y-110831380D01*
X147502666Y-110831380D01*
X147597904Y-110879000D01*
X147645523Y-110926619D01*
X147693142Y-111021857D01*
X147693142Y-111164714D01*
X147645523Y-111259952D01*
X147597904Y-111307571D01*
X147502666Y-111355190D01*
X147121714Y-111355190D01*
X148645523Y-111831380D02*
X148074095Y-111831380D01*
X148359809Y-111831380D02*
X148359809Y-110831380D01*
X148264571Y-110974238D01*
X148169333Y-111069476D01*
X148074095Y-111117095D01*
X149550285Y-110831380D02*
X149074095Y-110831380D01*
X149026476Y-111307571D01*
X149074095Y-111259952D01*
X149169333Y-111212333D01*
X149407428Y-111212333D01*
X149502666Y-111259952D01*
X149550285Y-111307571D01*
X149597904Y-111402809D01*
X149597904Y-111640904D01*
X149550285Y-111736142D01*
X149502666Y-111783761D01*
X149407428Y-111831380D01*
X149169333Y-111831380D01*
X149074095Y-111783761D01*
X149026476Y-111736142D01*
G04 #@! TO.C,R16*
X147693142Y-99639380D02*
X147359809Y-99163190D01*
X147121714Y-99639380D02*
X147121714Y-98639380D01*
X147502666Y-98639380D01*
X147597904Y-98687000D01*
X147645523Y-98734619D01*
X147693142Y-98829857D01*
X147693142Y-98972714D01*
X147645523Y-99067952D01*
X147597904Y-99115571D01*
X147502666Y-99163190D01*
X147121714Y-99163190D01*
X148645523Y-99639380D02*
X148074095Y-99639380D01*
X148359809Y-99639380D02*
X148359809Y-98639380D01*
X148264571Y-98782238D01*
X148169333Y-98877476D01*
X148074095Y-98925095D01*
X149502666Y-98639380D02*
X149312190Y-98639380D01*
X149216952Y-98687000D01*
X149169333Y-98734619D01*
X149074095Y-98877476D01*
X149026476Y-99067952D01*
X149026476Y-99448904D01*
X149074095Y-99544142D01*
X149121714Y-99591761D01*
X149216952Y-99639380D01*
X149407428Y-99639380D01*
X149502666Y-99591761D01*
X149550285Y-99544142D01*
X149597904Y-99448904D01*
X149597904Y-99210809D01*
X149550285Y-99115571D01*
X149502666Y-99067952D01*
X149407428Y-99020333D01*
X149216952Y-99020333D01*
X149121714Y-99067952D01*
X149074095Y-99115571D01*
X149026476Y-99210809D01*
G04 #@! TO.C,R17*
X188333142Y-111831380D02*
X187999809Y-111355190D01*
X187761714Y-111831380D02*
X187761714Y-110831380D01*
X188142666Y-110831380D01*
X188237904Y-110879000D01*
X188285523Y-110926619D01*
X188333142Y-111021857D01*
X188333142Y-111164714D01*
X188285523Y-111259952D01*
X188237904Y-111307571D01*
X188142666Y-111355190D01*
X187761714Y-111355190D01*
X189285523Y-111831380D02*
X188714095Y-111831380D01*
X188999809Y-111831380D02*
X188999809Y-110831380D01*
X188904571Y-110974238D01*
X188809333Y-111069476D01*
X188714095Y-111117095D01*
X189618857Y-110831380D02*
X190285523Y-110831380D01*
X189856952Y-111831380D01*
G04 #@! TO.C,R18*
X188333142Y-99639380D02*
X187999809Y-99163190D01*
X187761714Y-99639380D02*
X187761714Y-98639380D01*
X188142666Y-98639380D01*
X188237904Y-98687000D01*
X188285523Y-98734619D01*
X188333142Y-98829857D01*
X188333142Y-98972714D01*
X188285523Y-99067952D01*
X188237904Y-99115571D01*
X188142666Y-99163190D01*
X187761714Y-99163190D01*
X189285523Y-99639380D02*
X188714095Y-99639380D01*
X188999809Y-99639380D02*
X188999809Y-98639380D01*
X188904571Y-98782238D01*
X188809333Y-98877476D01*
X188714095Y-98925095D01*
X189856952Y-99067952D02*
X189761714Y-99020333D01*
X189714095Y-98972714D01*
X189666476Y-98877476D01*
X189666476Y-98829857D01*
X189714095Y-98734619D01*
X189761714Y-98687000D01*
X189856952Y-98639380D01*
X190047428Y-98639380D01*
X190142666Y-98687000D01*
X190190285Y-98734619D01*
X190237904Y-98829857D01*
X190237904Y-98877476D01*
X190190285Y-98972714D01*
X190142666Y-99020333D01*
X190047428Y-99067952D01*
X189856952Y-99067952D01*
X189761714Y-99115571D01*
X189714095Y-99163190D01*
X189666476Y-99258428D01*
X189666476Y-99448904D01*
X189714095Y-99544142D01*
X189761714Y-99591761D01*
X189856952Y-99639380D01*
X190047428Y-99639380D01*
X190142666Y-99591761D01*
X190190285Y-99544142D01*
X190237904Y-99448904D01*
X190237904Y-99258428D01*
X190190285Y-99163190D01*
X190142666Y-99115571D01*
X190047428Y-99067952D01*
G04 #@! TO.C,U1*
X170180095Y-88225380D02*
X170180095Y-89034904D01*
X170227714Y-89130142D01*
X170275333Y-89177761D01*
X170370571Y-89225380D01*
X170561047Y-89225380D01*
X170656285Y-89177761D01*
X170703904Y-89130142D01*
X170751523Y-89034904D01*
X170751523Y-88225380D01*
X171751523Y-89225380D02*
X171180095Y-89225380D01*
X171465809Y-89225380D02*
X171465809Y-88225380D01*
X171370571Y-88368238D01*
X171275333Y-88463476D01*
X171180095Y-88511095D01*
G04 #@! TO.C,JP1*
X166576380Y-96861380D02*
X166671619Y-96861380D01*
X166766857Y-96909000D01*
X166814476Y-96956619D01*
X166862095Y-97051857D01*
X166909714Y-97242333D01*
X166909714Y-97480428D01*
X166862095Y-97670904D01*
X166814476Y-97766142D01*
X166766857Y-97813761D01*
X166671619Y-97861380D01*
X166576380Y-97861380D01*
X166481142Y-97813761D01*
X166433523Y-97766142D01*
X166385904Y-97670904D01*
X166338285Y-97480428D01*
X166338285Y-97242333D01*
X166385904Y-97051857D01*
X166433523Y-96956619D01*
X166481142Y-96909000D01*
X166576380Y-96861380D01*
X164369714Y-97861380D02*
X163798285Y-97861380D01*
X164084000Y-97861380D02*
X164084000Y-96861380D01*
X163988761Y-97004238D01*
X163893523Y-97099476D01*
X163798285Y-97147095D01*
G04 #@! TO.C,JP2*
D10*
X181582285Y-94325285D02*
X181748952Y-94325285D01*
X181820380Y-94587190D02*
X181582285Y-94587190D01*
X181582285Y-94087190D01*
X181820380Y-94087190D01*
X181987047Y-94087190D02*
X182320380Y-94587190D01*
X182320380Y-94087190D02*
X181987047Y-94587190D01*
X182439428Y-94087190D02*
X182725142Y-94087190D01*
X182582285Y-94587190D02*
X182582285Y-94087190D01*
X181737047Y-97127190D02*
X181570380Y-96889095D01*
X181451333Y-97127190D02*
X181451333Y-96627190D01*
X181641809Y-96627190D01*
X181689428Y-96651000D01*
X181713238Y-96674809D01*
X181737047Y-96722428D01*
X181737047Y-96793857D01*
X181713238Y-96841476D01*
X181689428Y-96865285D01*
X181641809Y-96889095D01*
X181451333Y-96889095D01*
X181927523Y-96984333D02*
X182165619Y-96984333D01*
X181879904Y-97127190D02*
X182046571Y-96627190D01*
X182213238Y-97127190D01*
X182379904Y-97127190D02*
X182379904Y-96627190D01*
X182856095Y-97127190D02*
X182618000Y-97127190D01*
X182618000Y-96627190D01*
G04 #@! TO.C,JP3*
D13*
X164369714Y-90495380D02*
X163798285Y-90495380D01*
X164084000Y-90495380D02*
X164084000Y-89495380D01*
X163988761Y-89638238D01*
X163893523Y-89733476D01*
X163798285Y-89781095D01*
X166576380Y-89495380D02*
X166671619Y-89495380D01*
X166766857Y-89543000D01*
X166814476Y-89590619D01*
X166862095Y-89685857D01*
X166909714Y-89876333D01*
X166909714Y-90114428D01*
X166862095Y-90304904D01*
X166814476Y-90400142D01*
X166766857Y-90447761D01*
X166671619Y-90495380D01*
X166576380Y-90495380D01*
X166481142Y-90447761D01*
X166433523Y-90400142D01*
X166385904Y-90304904D01*
X166338285Y-90114428D01*
X166338285Y-89876333D01*
X166385904Y-89685857D01*
X166433523Y-89590619D01*
X166481142Y-89543000D01*
X166576380Y-89495380D01*
G04 #@! TO.C,Q4*
X162210761Y-98568619D02*
X162115523Y-98521000D01*
X162020285Y-98425761D01*
X161877428Y-98282904D01*
X161782190Y-98235285D01*
X161686952Y-98235285D01*
X161734571Y-98473380D02*
X161639333Y-98425761D01*
X161544095Y-98330523D01*
X161496476Y-98140047D01*
X161496476Y-97806714D01*
X161544095Y-97616238D01*
X161639333Y-97521000D01*
X161734571Y-97473380D01*
X161925047Y-97473380D01*
X162020285Y-97521000D01*
X162115523Y-97616238D01*
X162163142Y-97806714D01*
X162163142Y-98140047D01*
X162115523Y-98330523D01*
X162020285Y-98425761D01*
X161925047Y-98473380D01*
X161734571Y-98473380D01*
X163020285Y-97806714D02*
X163020285Y-98473380D01*
X162782190Y-97425761D02*
X162544095Y-98140047D01*
X163163142Y-98140047D01*
G04 #@! TD*
M02*
