G04 #@! TF.GenerationSoftware,KiCad,Pcbnew,(5.0.0-rc2-63-gd4393b281)*
G04 #@! TF.CreationDate,2018-06-20T09:41:06-07:00*
G04 #@! TF.ProjectId,IRSensorArray,495253656E736F7241727261792E6B69,rev?*
G04 #@! TF.SameCoordinates,Original*
G04 #@! TF.FileFunction,Soldermask,Top*
G04 #@! TF.FilePolarity,Negative*
%FSLAX46Y46*%
G04 Gerber Fmt 4.6, Leading zero omitted, Abs format (unit mm)*
G04 Created by KiCad (PCBNEW (5.0.0-rc2-63-gd4393b281)) date 06/20/18 09:41:06*
%MOMM*%
%LPD*%
G01*
G04 APERTURE LIST*
%ADD10C,3.600000*%
%ADD11C,2.000000*%
%ADD12R,2.000000X2.000000*%
%ADD13C,2.200000*%
%ADD14R,2.200000X2.200000*%
%ADD15C,1.900000*%
%ADD16O,2.000000X2.000000*%
%ADD17R,0.850000X1.900000*%
%ADD18R,2.150000X2.150000*%
%ADD19C,2.150000*%
%ADD20C,0.100000*%
%ADD21C,1.400000*%
%ADD22R,0.900000X1.900000*%
%ADD23R,1.400000X1.900000*%
%ADD24R,1.900000X0.900000*%
%ADD25R,1.900000X1.400000*%
G04 APERTURE END LIST*
D10*
G04 #@! TO.C,MH2*
X186436000Y-92329000D03*
G04 #@! TD*
D11*
G04 #@! TO.C,C1*
X176276000Y-91647000D03*
X176276000Y-96647000D03*
G04 #@! TD*
G04 #@! TO.C,C2*
X155702000Y-92329000D03*
D12*
X155702000Y-94329000D03*
G04 #@! TD*
D11*
G04 #@! TO.C,C4*
X160782000Y-95885000D03*
X160782000Y-90885000D03*
G04 #@! TD*
D13*
G04 #@! TO.C,D1*
X114046000Y-108585000D03*
D14*
X111506000Y-108585000D03*
G04 #@! TD*
G04 #@! TO.C,D2*
X152146000Y-108585000D03*
D13*
X154686000Y-108585000D03*
G04 #@! TD*
G04 #@! TO.C,D3*
X124206000Y-108585000D03*
D14*
X121666000Y-108585000D03*
G04 #@! TD*
G04 #@! TO.C,D4*
X162306000Y-108585000D03*
D13*
X164846000Y-108585000D03*
G04 #@! TD*
D14*
G04 #@! TO.C,D5*
X131826000Y-108585000D03*
D13*
X134366000Y-108585000D03*
G04 #@! TD*
G04 #@! TO.C,D6*
X175006000Y-108585000D03*
D14*
X172466000Y-108585000D03*
G04 #@! TD*
G04 #@! TO.C,D7*
X141986000Y-108585000D03*
D13*
X144526000Y-108585000D03*
G04 #@! TD*
D14*
G04 #@! TO.C,D8*
X182626000Y-108585000D03*
D13*
X185166000Y-108585000D03*
G04 #@! TD*
D15*
G04 #@! TO.C,J1*
X179832000Y-91567000D03*
G04 #@! TD*
D14*
G04 #@! TO.C,Q1*
X111506000Y-101981000D03*
D13*
X114046000Y-101981000D03*
G04 #@! TD*
D14*
G04 #@! TO.C,Q2*
X152146000Y-101981000D03*
D13*
X154686000Y-101981000D03*
G04 #@! TD*
D14*
G04 #@! TO.C,Q3*
X121666000Y-101981000D03*
D13*
X124206000Y-101981000D03*
G04 #@! TD*
G04 #@! TO.C,Q5*
X134366000Y-101981000D03*
D14*
X131826000Y-101981000D03*
G04 #@! TD*
D13*
G04 #@! TO.C,Q6*
X175006000Y-101981000D03*
D14*
X172466000Y-101981000D03*
G04 #@! TD*
D13*
G04 #@! TO.C,Q7*
X144526000Y-101981000D03*
D14*
X141986000Y-101981000D03*
G04 #@! TD*
D13*
G04 #@! TO.C,Q8*
X185166000Y-101981000D03*
D14*
X182626000Y-101981000D03*
G04 #@! TD*
D11*
G04 #@! TO.C,R1*
X147066000Y-94107000D03*
D16*
X147066000Y-91567000D03*
G04 #@! TD*
D11*
G04 #@! TO.C,R2*
X150622000Y-94107000D03*
D16*
X150622000Y-91567000D03*
G04 #@! TD*
D11*
G04 #@! TO.C,R3*
X117856000Y-109093000D03*
D16*
X117856000Y-106553000D03*
G04 #@! TD*
G04 #@! TO.C,R4*
X117856000Y-104013000D03*
D11*
X117856000Y-101473000D03*
G04 #@! TD*
D16*
G04 #@! TO.C,R5*
X158496000Y-106553000D03*
D11*
X158496000Y-109093000D03*
G04 #@! TD*
D16*
G04 #@! TO.C,R6*
X158496000Y-104013000D03*
D11*
X158496000Y-101473000D03*
G04 #@! TD*
G04 #@! TO.C,R7*
X128016000Y-109093000D03*
D16*
X128016000Y-106553000D03*
G04 #@! TD*
G04 #@! TO.C,R8*
X128016000Y-104013000D03*
D11*
X128016000Y-101473000D03*
G04 #@! TD*
G04 #@! TO.C,R9*
X168656000Y-109093000D03*
D16*
X168656000Y-106553000D03*
G04 #@! TD*
G04 #@! TO.C,R10*
X168656000Y-104013000D03*
D11*
X168656000Y-101473000D03*
G04 #@! TD*
G04 #@! TO.C,R11*
X138176000Y-109093000D03*
D16*
X138176000Y-106553000D03*
G04 #@! TD*
G04 #@! TO.C,R12*
X138176000Y-104013000D03*
D11*
X138176000Y-101473000D03*
G04 #@! TD*
G04 #@! TO.C,R13*
X178816000Y-109093000D03*
D16*
X178816000Y-106553000D03*
G04 #@! TD*
G04 #@! TO.C,R14*
X178816000Y-104013000D03*
D11*
X178816000Y-101473000D03*
G04 #@! TD*
G04 #@! TO.C,R15*
X148336000Y-109093000D03*
D16*
X148336000Y-106553000D03*
G04 #@! TD*
G04 #@! TO.C,R16*
X148336000Y-104013000D03*
D11*
X148336000Y-101473000D03*
G04 #@! TD*
G04 #@! TO.C,R17*
X188976000Y-109093000D03*
D16*
X188976000Y-106553000D03*
G04 #@! TD*
D11*
G04 #@! TO.C,R18*
X188976000Y-101473000D03*
D16*
X188976000Y-104013000D03*
G04 #@! TD*
D17*
G04 #@! TO.C,U1*
X168667000Y-90903000D03*
X169317000Y-90903000D03*
X169967000Y-90903000D03*
X170617000Y-90903000D03*
X171267000Y-90903000D03*
X171917000Y-90903000D03*
X172567000Y-90903000D03*
X173217000Y-90903000D03*
X173217000Y-96803000D03*
X172567000Y-96803000D03*
X171917000Y-96803000D03*
X171267000Y-96803000D03*
X170617000Y-96803000D03*
X169967000Y-96803000D03*
X169317000Y-96803000D03*
X168667000Y-96803000D03*
G04 #@! TD*
D18*
G04 #@! TO.C,J2*
X134620000Y-93853000D03*
D19*
X137120000Y-93853000D03*
X139620000Y-93853000D03*
X142120000Y-93853000D03*
G04 #@! TD*
G04 #@! TO.C,J3*
X128404000Y-93853000D03*
X125904000Y-93853000D03*
X123404000Y-93853000D03*
D18*
X120904000Y-93853000D03*
G04 #@! TD*
D20*
G04 #@! TO.C,JP1*
G36*
X164122613Y-94430371D02*
X164190564Y-94440450D01*
X164257200Y-94457142D01*
X164321879Y-94480284D01*
X164383979Y-94509655D01*
X164442900Y-94544971D01*
X164498076Y-94585893D01*
X164548976Y-94632025D01*
X164595108Y-94682925D01*
X164636030Y-94738101D01*
X164671346Y-94797022D01*
X164700717Y-94859122D01*
X164723859Y-94923801D01*
X164740551Y-94990437D01*
X164750630Y-95058388D01*
X164754001Y-95127000D01*
X164754001Y-95627000D01*
X164750630Y-95695612D01*
X164740551Y-95763563D01*
X164723859Y-95830199D01*
X164700717Y-95894878D01*
X164671346Y-95956978D01*
X164636030Y-96015899D01*
X164595108Y-96071075D01*
X164548976Y-96121975D01*
X164498076Y-96168107D01*
X164442900Y-96209029D01*
X164383979Y-96244345D01*
X164321879Y-96273716D01*
X164257200Y-96296858D01*
X164190564Y-96313550D01*
X164122613Y-96323629D01*
X164054001Y-96327000D01*
X164053999Y-96327000D01*
X163985387Y-96323629D01*
X163917436Y-96313550D01*
X163850800Y-96296858D01*
X163786121Y-96273716D01*
X163724021Y-96244345D01*
X163665100Y-96209029D01*
X163609924Y-96168107D01*
X163559024Y-96121975D01*
X163512892Y-96071075D01*
X163471970Y-96015899D01*
X163436654Y-95956978D01*
X163407283Y-95894878D01*
X163384141Y-95830199D01*
X163367449Y-95763563D01*
X163357370Y-95695612D01*
X163353999Y-95627000D01*
X163353999Y-95127000D01*
X163357370Y-95058388D01*
X163367449Y-94990437D01*
X163384141Y-94923801D01*
X163407283Y-94859122D01*
X163436654Y-94797022D01*
X163471970Y-94738101D01*
X163512892Y-94682925D01*
X163559024Y-94632025D01*
X163609924Y-94585893D01*
X163665100Y-94544971D01*
X163724021Y-94509655D01*
X163786121Y-94480284D01*
X163850800Y-94457142D01*
X163917436Y-94440450D01*
X163985387Y-94430371D01*
X164053999Y-94427000D01*
X164054001Y-94427000D01*
X164122613Y-94430371D01*
X164122613Y-94430371D01*
G37*
D21*
X164054000Y-95377000D03*
D22*
X164354000Y-95377000D03*
D23*
X165354000Y-95377000D03*
D20*
G36*
X166722613Y-94430371D02*
X166790564Y-94440450D01*
X166857200Y-94457142D01*
X166921879Y-94480284D01*
X166983979Y-94509655D01*
X167042900Y-94544971D01*
X167098076Y-94585893D01*
X167148976Y-94632025D01*
X167195108Y-94682925D01*
X167236030Y-94738101D01*
X167271346Y-94797022D01*
X167300717Y-94859122D01*
X167323859Y-94923801D01*
X167340551Y-94990437D01*
X167350630Y-95058388D01*
X167354001Y-95127000D01*
X167354001Y-95627000D01*
X167350630Y-95695612D01*
X167340551Y-95763563D01*
X167323859Y-95830199D01*
X167300717Y-95894878D01*
X167271346Y-95956978D01*
X167236030Y-96015899D01*
X167195108Y-96071075D01*
X167148976Y-96121975D01*
X167098076Y-96168107D01*
X167042900Y-96209029D01*
X166983979Y-96244345D01*
X166921879Y-96273716D01*
X166857200Y-96296858D01*
X166790564Y-96313550D01*
X166722613Y-96323629D01*
X166654001Y-96327000D01*
X166653999Y-96327000D01*
X166585387Y-96323629D01*
X166517436Y-96313550D01*
X166450800Y-96296858D01*
X166386121Y-96273716D01*
X166324021Y-96244345D01*
X166265100Y-96209029D01*
X166209924Y-96168107D01*
X166159024Y-96121975D01*
X166112892Y-96071075D01*
X166071970Y-96015899D01*
X166036654Y-95956978D01*
X166007283Y-95894878D01*
X165984141Y-95830199D01*
X165967449Y-95763563D01*
X165957370Y-95695612D01*
X165953999Y-95627000D01*
X165953999Y-95127000D01*
X165957370Y-95058388D01*
X165967449Y-94990437D01*
X165984141Y-94923801D01*
X166007283Y-94859122D01*
X166036654Y-94797022D01*
X166071970Y-94738101D01*
X166112892Y-94682925D01*
X166159024Y-94632025D01*
X166209924Y-94585893D01*
X166265100Y-94544971D01*
X166324021Y-94509655D01*
X166386121Y-94480284D01*
X166450800Y-94457142D01*
X166517436Y-94440450D01*
X166585387Y-94430371D01*
X166653999Y-94427000D01*
X166654001Y-94427000D01*
X166722613Y-94430371D01*
X166722613Y-94430371D01*
G37*
D21*
X166654000Y-95377000D03*
D22*
X166354000Y-95377000D03*
G04 #@! TD*
D20*
G04 #@! TO.C,JP2*
G36*
X180150612Y-96234370D02*
X180218563Y-96244449D01*
X180285199Y-96261141D01*
X180349878Y-96284283D01*
X180411978Y-96313654D01*
X180470899Y-96348970D01*
X180526075Y-96389892D01*
X180576975Y-96436024D01*
X180623107Y-96486924D01*
X180664029Y-96542100D01*
X180699345Y-96601021D01*
X180728716Y-96663121D01*
X180751858Y-96727800D01*
X180768550Y-96794436D01*
X180778629Y-96862387D01*
X180782000Y-96930999D01*
X180782000Y-96931001D01*
X180778629Y-96999613D01*
X180768550Y-97067564D01*
X180751858Y-97134200D01*
X180728716Y-97198879D01*
X180699345Y-97260979D01*
X180664029Y-97319900D01*
X180623107Y-97375076D01*
X180576975Y-97425976D01*
X180526075Y-97472108D01*
X180470899Y-97513030D01*
X180411978Y-97548346D01*
X180349878Y-97577717D01*
X180285199Y-97600859D01*
X180218563Y-97617551D01*
X180150612Y-97627630D01*
X180082000Y-97631001D01*
X179582000Y-97631001D01*
X179513388Y-97627630D01*
X179445437Y-97617551D01*
X179378801Y-97600859D01*
X179314122Y-97577717D01*
X179252022Y-97548346D01*
X179193101Y-97513030D01*
X179137925Y-97472108D01*
X179087025Y-97425976D01*
X179040893Y-97375076D01*
X178999971Y-97319900D01*
X178964655Y-97260979D01*
X178935284Y-97198879D01*
X178912142Y-97134200D01*
X178895450Y-97067564D01*
X178885371Y-96999613D01*
X178882000Y-96931001D01*
X178882000Y-96930999D01*
X178885371Y-96862387D01*
X178895450Y-96794436D01*
X178912142Y-96727800D01*
X178935284Y-96663121D01*
X178964655Y-96601021D01*
X178999971Y-96542100D01*
X179040893Y-96486924D01*
X179087025Y-96436024D01*
X179137925Y-96389892D01*
X179193101Y-96348970D01*
X179252022Y-96313654D01*
X179314122Y-96284283D01*
X179378801Y-96261141D01*
X179445437Y-96244449D01*
X179513388Y-96234370D01*
X179582000Y-96230999D01*
X180082000Y-96230999D01*
X180150612Y-96234370D01*
X180150612Y-96234370D01*
G37*
D21*
X179832000Y-96931000D03*
D24*
X179832000Y-96631000D03*
D25*
X179832000Y-95631000D03*
D20*
G36*
X180150612Y-93634370D02*
X180218563Y-93644449D01*
X180285199Y-93661141D01*
X180349878Y-93684283D01*
X180411978Y-93713654D01*
X180470899Y-93748970D01*
X180526075Y-93789892D01*
X180576975Y-93836024D01*
X180623107Y-93886924D01*
X180664029Y-93942100D01*
X180699345Y-94001021D01*
X180728716Y-94063121D01*
X180751858Y-94127800D01*
X180768550Y-94194436D01*
X180778629Y-94262387D01*
X180782000Y-94330999D01*
X180782000Y-94331001D01*
X180778629Y-94399613D01*
X180768550Y-94467564D01*
X180751858Y-94534200D01*
X180728716Y-94598879D01*
X180699345Y-94660979D01*
X180664029Y-94719900D01*
X180623107Y-94775076D01*
X180576975Y-94825976D01*
X180526075Y-94872108D01*
X180470899Y-94913030D01*
X180411978Y-94948346D01*
X180349878Y-94977717D01*
X180285199Y-95000859D01*
X180218563Y-95017551D01*
X180150612Y-95027630D01*
X180082000Y-95031001D01*
X179582000Y-95031001D01*
X179513388Y-95027630D01*
X179445437Y-95017551D01*
X179378801Y-95000859D01*
X179314122Y-94977717D01*
X179252022Y-94948346D01*
X179193101Y-94913030D01*
X179137925Y-94872108D01*
X179087025Y-94825976D01*
X179040893Y-94775076D01*
X178999971Y-94719900D01*
X178964655Y-94660979D01*
X178935284Y-94598879D01*
X178912142Y-94534200D01*
X178895450Y-94467564D01*
X178885371Y-94399613D01*
X178882000Y-94331001D01*
X178882000Y-94330999D01*
X178885371Y-94262387D01*
X178895450Y-94194436D01*
X178912142Y-94127800D01*
X178935284Y-94063121D01*
X178964655Y-94001021D01*
X178999971Y-93942100D01*
X179040893Y-93886924D01*
X179087025Y-93836024D01*
X179137925Y-93789892D01*
X179193101Y-93748970D01*
X179252022Y-93713654D01*
X179314122Y-93684283D01*
X179378801Y-93661141D01*
X179445437Y-93644449D01*
X179513388Y-93634370D01*
X179582000Y-93630999D01*
X180082000Y-93630999D01*
X180150612Y-93634370D01*
X180150612Y-93634370D01*
G37*
D21*
X179832000Y-94331000D03*
D24*
X179832000Y-94631000D03*
G04 #@! TD*
D22*
G04 #@! TO.C,JP3*
X166354000Y-92075000D03*
D20*
G36*
X166722613Y-91128371D02*
X166790564Y-91138450D01*
X166857200Y-91155142D01*
X166921879Y-91178284D01*
X166983979Y-91207655D01*
X167042900Y-91242971D01*
X167098076Y-91283893D01*
X167148976Y-91330025D01*
X167195108Y-91380925D01*
X167236030Y-91436101D01*
X167271346Y-91495022D01*
X167300717Y-91557122D01*
X167323859Y-91621801D01*
X167340551Y-91688437D01*
X167350630Y-91756388D01*
X167354001Y-91825000D01*
X167354001Y-92325000D01*
X167350630Y-92393612D01*
X167340551Y-92461563D01*
X167323859Y-92528199D01*
X167300717Y-92592878D01*
X167271346Y-92654978D01*
X167236030Y-92713899D01*
X167195108Y-92769075D01*
X167148976Y-92819975D01*
X167098076Y-92866107D01*
X167042900Y-92907029D01*
X166983979Y-92942345D01*
X166921879Y-92971716D01*
X166857200Y-92994858D01*
X166790564Y-93011550D01*
X166722613Y-93021629D01*
X166654001Y-93025000D01*
X166653999Y-93025000D01*
X166585387Y-93021629D01*
X166517436Y-93011550D01*
X166450800Y-92994858D01*
X166386121Y-92971716D01*
X166324021Y-92942345D01*
X166265100Y-92907029D01*
X166209924Y-92866107D01*
X166159024Y-92819975D01*
X166112892Y-92769075D01*
X166071970Y-92713899D01*
X166036654Y-92654978D01*
X166007283Y-92592878D01*
X165984141Y-92528199D01*
X165967449Y-92461563D01*
X165957370Y-92393612D01*
X165953999Y-92325000D01*
X165953999Y-91825000D01*
X165957370Y-91756388D01*
X165967449Y-91688437D01*
X165984141Y-91621801D01*
X166007283Y-91557122D01*
X166036654Y-91495022D01*
X166071970Y-91436101D01*
X166112892Y-91380925D01*
X166159024Y-91330025D01*
X166209924Y-91283893D01*
X166265100Y-91242971D01*
X166324021Y-91207655D01*
X166386121Y-91178284D01*
X166450800Y-91155142D01*
X166517436Y-91138450D01*
X166585387Y-91128371D01*
X166653999Y-91125000D01*
X166654001Y-91125000D01*
X166722613Y-91128371D01*
X166722613Y-91128371D01*
G37*
D21*
X166654000Y-92075000D03*
D23*
X165354000Y-92075000D03*
D22*
X164354000Y-92075000D03*
D20*
G36*
X164122613Y-91128371D02*
X164190564Y-91138450D01*
X164257200Y-91155142D01*
X164321879Y-91178284D01*
X164383979Y-91207655D01*
X164442900Y-91242971D01*
X164498076Y-91283893D01*
X164548976Y-91330025D01*
X164595108Y-91380925D01*
X164636030Y-91436101D01*
X164671346Y-91495022D01*
X164700717Y-91557122D01*
X164723859Y-91621801D01*
X164740551Y-91688437D01*
X164750630Y-91756388D01*
X164754001Y-91825000D01*
X164754001Y-92325000D01*
X164750630Y-92393612D01*
X164740551Y-92461563D01*
X164723859Y-92528199D01*
X164700717Y-92592878D01*
X164671346Y-92654978D01*
X164636030Y-92713899D01*
X164595108Y-92769075D01*
X164548976Y-92819975D01*
X164498076Y-92866107D01*
X164442900Y-92907029D01*
X164383979Y-92942345D01*
X164321879Y-92971716D01*
X164257200Y-92994858D01*
X164190564Y-93011550D01*
X164122613Y-93021629D01*
X164054001Y-93025000D01*
X164053999Y-93025000D01*
X163985387Y-93021629D01*
X163917436Y-93011550D01*
X163850800Y-92994858D01*
X163786121Y-92971716D01*
X163724021Y-92942345D01*
X163665100Y-92907029D01*
X163609924Y-92866107D01*
X163559024Y-92819975D01*
X163512892Y-92769075D01*
X163471970Y-92713899D01*
X163436654Y-92654978D01*
X163407283Y-92592878D01*
X163384141Y-92528199D01*
X163367449Y-92461563D01*
X163357370Y-92393612D01*
X163353999Y-92325000D01*
X163353999Y-91825000D01*
X163357370Y-91756388D01*
X163367449Y-91688437D01*
X163384141Y-91621801D01*
X163407283Y-91557122D01*
X163436654Y-91495022D01*
X163471970Y-91436101D01*
X163512892Y-91380925D01*
X163559024Y-91330025D01*
X163609924Y-91283893D01*
X163665100Y-91242971D01*
X163724021Y-91207655D01*
X163786121Y-91178284D01*
X163850800Y-91155142D01*
X163917436Y-91138450D01*
X163985387Y-91128371D01*
X164053999Y-91125000D01*
X164054001Y-91125000D01*
X164122613Y-91128371D01*
X164122613Y-91128371D01*
G37*
D21*
X164054000Y-92075000D03*
G04 #@! TD*
D10*
G04 #@! TO.C,MH1*
X113792000Y-92329000D03*
G04 #@! TD*
D13*
G04 #@! TO.C,Q4*
X164846000Y-101981000D03*
D14*
X162306000Y-101981000D03*
G04 #@! TD*
M02*
