G04 #@! TF.GenerationSoftware,KiCad,Pcbnew,(5.0.0-rc2-63-gd4393b281)*
G04 #@! TF.CreationDate,2018-06-20T16:53:16-07:00*
G04 #@! TF.ProjectId,IRSensorArray,495253656E736F7241727261792E6B69,rev?*
G04 #@! TF.SameCoordinates,Original*
G04 #@! TF.FileFunction,Legend,Top*
G04 #@! TF.FilePolarity,Positive*
%FSLAX46Y46*%
G04 Gerber Fmt 4.6, Leading zero omitted, Abs format (unit mm)*
G04 Created by KiCad (PCBNEW (5.0.0-rc2-63-gd4393b281)) date 06/20/18 16:53:16*
%MOMM*%
%LPD*%
G01*
G04 APERTURE LIST*
%ADD10C,0.125000*%
%ADD11C,0.250000*%
%ADD12C,0.120000*%
%ADD13C,0.150000*%
G04 APERTURE END LIST*
D10*
X168096380Y-90546952D02*
X168120190Y-90475523D01*
X168120190Y-90356476D01*
X168096380Y-90308857D01*
X168072571Y-90285047D01*
X168024952Y-90261238D01*
X167977333Y-90261238D01*
X167929714Y-90285047D01*
X167905904Y-90308857D01*
X167882095Y-90356476D01*
X167858285Y-90451714D01*
X167834476Y-90499333D01*
X167810666Y-90523142D01*
X167763047Y-90546952D01*
X167715428Y-90546952D01*
X167667809Y-90523142D01*
X167644000Y-90499333D01*
X167620190Y-90451714D01*
X167620190Y-90332666D01*
X167644000Y-90261238D01*
X167858285Y-89880285D02*
X167882095Y-89808857D01*
X167905904Y-89785047D01*
X167953523Y-89761238D01*
X168024952Y-89761238D01*
X168072571Y-89785047D01*
X168096380Y-89808857D01*
X168120190Y-89856476D01*
X168120190Y-90046952D01*
X167620190Y-90046952D01*
X167620190Y-89880285D01*
X167644000Y-89832666D01*
X167667809Y-89808857D01*
X167715428Y-89785047D01*
X167763047Y-89785047D01*
X167810666Y-89808857D01*
X167834476Y-89832666D01*
X167858285Y-89880285D01*
X167858285Y-90046952D01*
X168120190Y-89285047D02*
X168120190Y-89570761D01*
X168120190Y-89427904D02*
X167620190Y-89427904D01*
X167691619Y-89475523D01*
X167739238Y-89523142D01*
X167763047Y-89570761D01*
X168096380Y-98166952D02*
X168120190Y-98095523D01*
X168120190Y-97976476D01*
X168096380Y-97928857D01*
X168072571Y-97905047D01*
X168024952Y-97881238D01*
X167977333Y-97881238D01*
X167929714Y-97905047D01*
X167905904Y-97928857D01*
X167882095Y-97976476D01*
X167858285Y-98071714D01*
X167834476Y-98119333D01*
X167810666Y-98143142D01*
X167763047Y-98166952D01*
X167715428Y-98166952D01*
X167667809Y-98143142D01*
X167644000Y-98119333D01*
X167620190Y-98071714D01*
X167620190Y-97952666D01*
X167644000Y-97881238D01*
X167858285Y-97500285D02*
X167882095Y-97428857D01*
X167905904Y-97405047D01*
X167953523Y-97381238D01*
X168024952Y-97381238D01*
X168072571Y-97405047D01*
X168096380Y-97428857D01*
X168120190Y-97476476D01*
X168120190Y-97666952D01*
X167620190Y-97666952D01*
X167620190Y-97500285D01*
X167644000Y-97452666D01*
X167667809Y-97428857D01*
X167715428Y-97405047D01*
X167763047Y-97405047D01*
X167810666Y-97428857D01*
X167834476Y-97452666D01*
X167858285Y-97500285D01*
X167858285Y-97666952D01*
X167620190Y-97071714D02*
X167620190Y-97024095D01*
X167644000Y-96976476D01*
X167667809Y-96952666D01*
X167715428Y-96928857D01*
X167810666Y-96905047D01*
X167929714Y-96905047D01*
X168024952Y-96928857D01*
X168072571Y-96952666D01*
X168096380Y-96976476D01*
X168120190Y-97024095D01*
X168120190Y-97071714D01*
X168096380Y-97119333D01*
X168072571Y-97143142D01*
X168024952Y-97166952D01*
X167929714Y-97190761D01*
X167810666Y-97190761D01*
X167715428Y-97166952D01*
X167667809Y-97143142D01*
X167644000Y-97119333D01*
X167620190Y-97071714D01*
X183443619Y-95730190D02*
X183443619Y-95230190D01*
X183681714Y-95730190D02*
X183681714Y-95230190D01*
X183967428Y-95730190D01*
X183967428Y-95230190D01*
X184134095Y-95230190D02*
X184419809Y-95230190D01*
X184276952Y-95730190D02*
X184276952Y-95230190D01*
D11*
X121667142Y-90876380D02*
X121667142Y-89876380D01*
X122714761Y-90876380D02*
X122381428Y-90400190D01*
X122143333Y-90876380D02*
X122143333Y-89876380D01*
X122524285Y-89876380D01*
X122619523Y-89924000D01*
X122667142Y-89971619D01*
X122714761Y-90066857D01*
X122714761Y-90209714D01*
X122667142Y-90304952D01*
X122619523Y-90352571D01*
X122524285Y-90400190D01*
X122143333Y-90400190D01*
X123857619Y-90828761D02*
X124000476Y-90876380D01*
X124238571Y-90876380D01*
X124333809Y-90828761D01*
X124381428Y-90781142D01*
X124429047Y-90685904D01*
X124429047Y-90590666D01*
X124381428Y-90495428D01*
X124333809Y-90447809D01*
X124238571Y-90400190D01*
X124048095Y-90352571D01*
X123952857Y-90304952D01*
X123905238Y-90257333D01*
X123857619Y-90162095D01*
X123857619Y-90066857D01*
X123905238Y-89971619D01*
X123952857Y-89924000D01*
X124048095Y-89876380D01*
X124286190Y-89876380D01*
X124429047Y-89924000D01*
X125238571Y-90828761D02*
X125143333Y-90876380D01*
X124952857Y-90876380D01*
X124857619Y-90828761D01*
X124810000Y-90733523D01*
X124810000Y-90352571D01*
X124857619Y-90257333D01*
X124952857Y-90209714D01*
X125143333Y-90209714D01*
X125238571Y-90257333D01*
X125286190Y-90352571D01*
X125286190Y-90447809D01*
X124810000Y-90543047D01*
X125714761Y-90209714D02*
X125714761Y-90876380D01*
X125714761Y-90304952D02*
X125762380Y-90257333D01*
X125857619Y-90209714D01*
X126000476Y-90209714D01*
X126095714Y-90257333D01*
X126143333Y-90352571D01*
X126143333Y-90876380D01*
X126571904Y-90828761D02*
X126667142Y-90876380D01*
X126857619Y-90876380D01*
X126952857Y-90828761D01*
X127000476Y-90733523D01*
X127000476Y-90685904D01*
X126952857Y-90590666D01*
X126857619Y-90543047D01*
X126714761Y-90543047D01*
X126619523Y-90495428D01*
X126571904Y-90400190D01*
X126571904Y-90352571D01*
X126619523Y-90257333D01*
X126714761Y-90209714D01*
X126857619Y-90209714D01*
X126952857Y-90257333D01*
X127571904Y-90876380D02*
X127476666Y-90828761D01*
X127429047Y-90781142D01*
X127381428Y-90685904D01*
X127381428Y-90400190D01*
X127429047Y-90304952D01*
X127476666Y-90257333D01*
X127571904Y-90209714D01*
X127714761Y-90209714D01*
X127810000Y-90257333D01*
X127857619Y-90304952D01*
X127905238Y-90400190D01*
X127905238Y-90685904D01*
X127857619Y-90781142D01*
X127810000Y-90828761D01*
X127714761Y-90876380D01*
X127571904Y-90876380D01*
X128333809Y-90876380D02*
X128333809Y-90209714D01*
X128333809Y-90400190D02*
X128381428Y-90304952D01*
X128429047Y-90257333D01*
X128524285Y-90209714D01*
X128619523Y-90209714D01*
X129667142Y-90590666D02*
X130143333Y-90590666D01*
X129571904Y-90876380D02*
X129905238Y-89876380D01*
X130238571Y-90876380D01*
X130571904Y-90876380D02*
X130571904Y-90209714D01*
X130571904Y-90400190D02*
X130619523Y-90304952D01*
X130667142Y-90257333D01*
X130762380Y-90209714D01*
X130857619Y-90209714D01*
X131190952Y-90876380D02*
X131190952Y-90209714D01*
X131190952Y-90400190D02*
X131238571Y-90304952D01*
X131286190Y-90257333D01*
X131381428Y-90209714D01*
X131476666Y-90209714D01*
X132238571Y-90876380D02*
X132238571Y-90352571D01*
X132190952Y-90257333D01*
X132095714Y-90209714D01*
X131905238Y-90209714D01*
X131810000Y-90257333D01*
X132238571Y-90828761D02*
X132143333Y-90876380D01*
X131905238Y-90876380D01*
X131810000Y-90828761D01*
X131762380Y-90733523D01*
X131762380Y-90638285D01*
X131810000Y-90543047D01*
X131905238Y-90495428D01*
X132143333Y-90495428D01*
X132238571Y-90447809D01*
X132619523Y-90209714D02*
X132857619Y-90876380D01*
X133095714Y-90209714D02*
X132857619Y-90876380D01*
X132762380Y-91114476D01*
X132714761Y-91162095D01*
X132619523Y-91209714D01*
X134571904Y-90352571D02*
X134714761Y-90400190D01*
X134762380Y-90447809D01*
X134810000Y-90543047D01*
X134810000Y-90685904D01*
X134762380Y-90781142D01*
X134714761Y-90828761D01*
X134619523Y-90876380D01*
X134238571Y-90876380D01*
X134238571Y-89876380D01*
X134571904Y-89876380D01*
X134667142Y-89924000D01*
X134714761Y-89971619D01*
X134762380Y-90066857D01*
X134762380Y-90162095D01*
X134714761Y-90257333D01*
X134667142Y-90304952D01*
X134571904Y-90352571D01*
X134238571Y-90352571D01*
X135143333Y-90209714D02*
X135381428Y-90876380D01*
X135619523Y-90209714D02*
X135381428Y-90876380D01*
X135286190Y-91114476D01*
X135238571Y-91162095D01*
X135143333Y-91209714D01*
X136619523Y-89876380D02*
X136952857Y-90876380D01*
X137286190Y-89876380D01*
X137571904Y-89971619D02*
X137619523Y-89924000D01*
X137714761Y-89876380D01*
X137952857Y-89876380D01*
X138048095Y-89924000D01*
X138095714Y-89971619D01*
X138143333Y-90066857D01*
X138143333Y-90162095D01*
X138095714Y-90304952D01*
X137524285Y-90876380D01*
X138143333Y-90876380D01*
X138905238Y-90352571D02*
X138571904Y-90352571D01*
X138571904Y-90876380D02*
X138571904Y-89876380D01*
X139048095Y-89876380D01*
X140000476Y-90781142D02*
X139952857Y-90828761D01*
X139810000Y-90876380D01*
X139714761Y-90876380D01*
X139571904Y-90828761D01*
X139476666Y-90733523D01*
X139429047Y-90638285D01*
X139381428Y-90447809D01*
X139381428Y-90304952D01*
X139429047Y-90114476D01*
X139476666Y-90019238D01*
X139571904Y-89924000D01*
X139714761Y-89876380D01*
X139810000Y-89876380D01*
X139952857Y-89924000D01*
X140000476Y-89971619D01*
D12*
G04 #@! TO.C,Q8*
X181336000Y-100436000D02*
X181336000Y-103526000D01*
X186396000Y-101981000D02*
G75*
G03X186396000Y-101981000I-2500000J0D01*
G01*
X186886000Y-101980538D02*
G75*
G02X181336000Y-103525830I-2990000J-462D01*
G01*
X186886000Y-101981462D02*
G75*
G03X181336000Y-100436170I-2990000J462D01*
G01*
G04 #@! TO.C,C1*
X179304000Y-91664000D02*
X179968000Y-91664000D01*
X176648000Y-91664000D02*
X177312000Y-91664000D01*
X179304000Y-96884000D02*
X179968000Y-96884000D01*
X176648000Y-96884000D02*
X177312000Y-96884000D01*
X179968000Y-96884000D02*
X179968000Y-91664000D01*
X176648000Y-96884000D02*
X176648000Y-91664000D01*
G04 #@! TO.C,C2*
X157846000Y-95834000D02*
X159146000Y-95834000D01*
X158496000Y-96434000D02*
X158496000Y-95234000D01*
X158142000Y-90673000D02*
X158850000Y-90673000D01*
X157937000Y-90713000D02*
X159055000Y-90713000D01*
X157789000Y-90753000D02*
X159203000Y-90753000D01*
X157667000Y-90793000D02*
X159325000Y-90793000D01*
X157562000Y-90833000D02*
X159430000Y-90833000D01*
X157468000Y-90873000D02*
X159524000Y-90873000D01*
X157384000Y-90913000D02*
X159608000Y-90913000D01*
X157307000Y-90953000D02*
X159685000Y-90953000D01*
X157235000Y-90993000D02*
X159757000Y-90993000D01*
X157169000Y-91033000D02*
X159823000Y-91033000D01*
X157106000Y-91073000D02*
X159886000Y-91073000D01*
X157048000Y-91113000D02*
X159944000Y-91113000D01*
X156992000Y-91153000D02*
X160000000Y-91153000D01*
X156940000Y-91193000D02*
X160052000Y-91193000D01*
X156890000Y-91233000D02*
X160102000Y-91233000D01*
X159476000Y-91273000D02*
X160150000Y-91273000D01*
X156842000Y-91273000D02*
X157516000Y-91273000D01*
X159476000Y-91313000D02*
X160195000Y-91313000D01*
X156797000Y-91313000D02*
X157516000Y-91313000D01*
X159476000Y-91353000D02*
X160238000Y-91353000D01*
X156754000Y-91353000D02*
X157516000Y-91353000D01*
X159476000Y-91393000D02*
X160279000Y-91393000D01*
X156713000Y-91393000D02*
X157516000Y-91393000D01*
X159476000Y-91433000D02*
X160319000Y-91433000D01*
X156673000Y-91433000D02*
X157516000Y-91433000D01*
X159476000Y-91473000D02*
X160357000Y-91473000D01*
X156635000Y-91473000D02*
X157516000Y-91473000D01*
X159476000Y-91513000D02*
X160393000Y-91513000D01*
X156599000Y-91513000D02*
X157516000Y-91513000D01*
X159476000Y-91553000D02*
X160428000Y-91553000D01*
X156564000Y-91553000D02*
X157516000Y-91553000D01*
X159476000Y-91593000D02*
X160461000Y-91593000D01*
X156531000Y-91593000D02*
X157516000Y-91593000D01*
X159476000Y-91633000D02*
X160493000Y-91633000D01*
X156499000Y-91633000D02*
X157516000Y-91633000D01*
X159476000Y-91673000D02*
X160524000Y-91673000D01*
X156468000Y-91673000D02*
X157516000Y-91673000D01*
X159476000Y-91713000D02*
X160554000Y-91713000D01*
X156438000Y-91713000D02*
X157516000Y-91713000D01*
X159476000Y-91753000D02*
X160582000Y-91753000D01*
X156410000Y-91753000D02*
X157516000Y-91753000D01*
X159476000Y-91793000D02*
X160609000Y-91793000D01*
X156383000Y-91793000D02*
X157516000Y-91793000D01*
X159476000Y-91833000D02*
X160636000Y-91833000D01*
X156356000Y-91833000D02*
X157516000Y-91833000D01*
X159476000Y-91873000D02*
X160661000Y-91873000D01*
X156331000Y-91873000D02*
X157516000Y-91873000D01*
X159476000Y-91913000D02*
X160685000Y-91913000D01*
X156307000Y-91913000D02*
X157516000Y-91913000D01*
X159476000Y-91953000D02*
X160708000Y-91953000D01*
X156284000Y-91953000D02*
X157516000Y-91953000D01*
X159476000Y-91993000D02*
X160730000Y-91993000D01*
X156262000Y-91993000D02*
X157516000Y-91993000D01*
X159476000Y-92033000D02*
X160752000Y-92033000D01*
X156240000Y-92033000D02*
X157516000Y-92033000D01*
X159476000Y-92073000D02*
X160772000Y-92073000D01*
X156220000Y-92073000D02*
X157516000Y-92073000D01*
X159476000Y-92113000D02*
X160792000Y-92113000D01*
X156200000Y-92113000D02*
X157516000Y-92113000D01*
X159476000Y-92153000D02*
X160811000Y-92153000D01*
X156181000Y-92153000D02*
X157516000Y-92153000D01*
X159476000Y-92193000D02*
X160829000Y-92193000D01*
X156163000Y-92193000D02*
X157516000Y-92193000D01*
X159476000Y-92233000D02*
X160846000Y-92233000D01*
X156146000Y-92233000D02*
X157516000Y-92233000D01*
X159476000Y-92273000D02*
X160862000Y-92273000D01*
X156130000Y-92273000D02*
X157516000Y-92273000D01*
X159476000Y-92313000D02*
X160878000Y-92313000D01*
X156114000Y-92313000D02*
X157516000Y-92313000D01*
X159476000Y-92353000D02*
X160892000Y-92353000D01*
X156100000Y-92353000D02*
X157516000Y-92353000D01*
X159476000Y-92393000D02*
X160906000Y-92393000D01*
X156086000Y-92393000D02*
X157516000Y-92393000D01*
X159476000Y-92433000D02*
X160920000Y-92433000D01*
X156072000Y-92433000D02*
X157516000Y-92433000D01*
X159476000Y-92473000D02*
X160932000Y-92473000D01*
X156060000Y-92473000D02*
X157516000Y-92473000D01*
X159476000Y-92513000D02*
X160944000Y-92513000D01*
X156048000Y-92513000D02*
X157516000Y-92513000D01*
X159476000Y-92554000D02*
X160956000Y-92554000D01*
X156036000Y-92554000D02*
X157516000Y-92554000D01*
X159476000Y-92594000D02*
X160966000Y-92594000D01*
X156026000Y-92594000D02*
X157516000Y-92594000D01*
X159476000Y-92634000D02*
X160976000Y-92634000D01*
X156016000Y-92634000D02*
X157516000Y-92634000D01*
X159476000Y-92674000D02*
X160985000Y-92674000D01*
X156007000Y-92674000D02*
X157516000Y-92674000D01*
X159476000Y-92714000D02*
X160994000Y-92714000D01*
X155998000Y-92714000D02*
X157516000Y-92714000D01*
X159476000Y-92754000D02*
X161002000Y-92754000D01*
X155990000Y-92754000D02*
X157516000Y-92754000D01*
X159476000Y-92794000D02*
X161009000Y-92794000D01*
X155983000Y-92794000D02*
X157516000Y-92794000D01*
X159476000Y-92834000D02*
X161015000Y-92834000D01*
X155977000Y-92834000D02*
X157516000Y-92834000D01*
X159476000Y-92874000D02*
X161021000Y-92874000D01*
X155971000Y-92874000D02*
X157516000Y-92874000D01*
X159476000Y-92914000D02*
X161027000Y-92914000D01*
X155965000Y-92914000D02*
X157516000Y-92914000D01*
X159476000Y-92954000D02*
X161031000Y-92954000D01*
X155961000Y-92954000D02*
X157516000Y-92954000D01*
X159476000Y-92994000D02*
X161035000Y-92994000D01*
X155957000Y-92994000D02*
X157516000Y-92994000D01*
X159476000Y-93034000D02*
X161039000Y-93034000D01*
X155953000Y-93034000D02*
X157516000Y-93034000D01*
X159476000Y-93074000D02*
X161042000Y-93074000D01*
X155950000Y-93074000D02*
X157516000Y-93074000D01*
X159476000Y-93114000D02*
X161044000Y-93114000D01*
X155948000Y-93114000D02*
X157516000Y-93114000D01*
X159476000Y-93154000D02*
X161045000Y-93154000D01*
X155947000Y-93154000D02*
X157516000Y-93154000D01*
X159476000Y-93194000D02*
X161046000Y-93194000D01*
X155946000Y-93194000D02*
X157516000Y-93194000D01*
X155946000Y-93234000D02*
X161046000Y-93234000D01*
X159675723Y-90928278D02*
G75*
G03X157316000Y-90928420I-1179723J-2305722D01*
G01*
X159675723Y-90928278D02*
G75*
G02X159676000Y-95539580I-1179723J-2305722D01*
G01*
X157316277Y-90928278D02*
G75*
G03X157316000Y-95539580I1179723J-2305722D01*
G01*
G04 #@! TO.C,C4*
X161662000Y-96058500D02*
X161662000Y-90838500D01*
X164982000Y-96058500D02*
X164982000Y-90838500D01*
X161662000Y-96058500D02*
X162326000Y-96058500D01*
X164318000Y-96058500D02*
X164982000Y-96058500D01*
X161662000Y-90838500D02*
X162326000Y-90838500D01*
X164318000Y-90838500D02*
X164982000Y-90838500D01*
G04 #@! TO.C,D1*
X110216000Y-107040000D02*
X110216000Y-110130000D01*
X115276000Y-108585000D02*
G75*
G03X115276000Y-108585000I-2500000J0D01*
G01*
X115766000Y-108584538D02*
G75*
G02X110216000Y-110129830I-2990000J-462D01*
G01*
X115766000Y-108585462D02*
G75*
G03X110216000Y-107040170I-2990000J462D01*
G01*
G04 #@! TO.C,D2*
X156406000Y-108585462D02*
G75*
G03X150856000Y-107040170I-2990000J462D01*
G01*
X156406000Y-108584538D02*
G75*
G02X150856000Y-110129830I-2990000J-462D01*
G01*
X155916000Y-108585000D02*
G75*
G03X155916000Y-108585000I-2500000J0D01*
G01*
X150856000Y-107040000D02*
X150856000Y-110130000D01*
G04 #@! TO.C,D3*
X120376000Y-107040000D02*
X120376000Y-110130000D01*
X125436000Y-108585000D02*
G75*
G03X125436000Y-108585000I-2500000J0D01*
G01*
X125926000Y-108584538D02*
G75*
G02X120376000Y-110129830I-2990000J-462D01*
G01*
X125926000Y-108585462D02*
G75*
G03X120376000Y-107040170I-2990000J462D01*
G01*
G04 #@! TO.C,D4*
X166566000Y-108585462D02*
G75*
G03X161016000Y-107040170I-2990000J462D01*
G01*
X166566000Y-108584538D02*
G75*
G02X161016000Y-110129830I-2990000J-462D01*
G01*
X166076000Y-108585000D02*
G75*
G03X166076000Y-108585000I-2500000J0D01*
G01*
X161016000Y-107040000D02*
X161016000Y-110130000D01*
G04 #@! TO.C,D5*
X136086000Y-108585462D02*
G75*
G03X130536000Y-107040170I-2990000J462D01*
G01*
X136086000Y-108584538D02*
G75*
G02X130536000Y-110129830I-2990000J-462D01*
G01*
X135596000Y-108585000D02*
G75*
G03X135596000Y-108585000I-2500000J0D01*
G01*
X130536000Y-107040000D02*
X130536000Y-110130000D01*
G04 #@! TO.C,D6*
X171176000Y-107040000D02*
X171176000Y-110130000D01*
X176236000Y-108585000D02*
G75*
G03X176236000Y-108585000I-2500000J0D01*
G01*
X176726000Y-108584538D02*
G75*
G02X171176000Y-110129830I-2990000J-462D01*
G01*
X176726000Y-108585462D02*
G75*
G03X171176000Y-107040170I-2990000J462D01*
G01*
G04 #@! TO.C,D7*
X146246000Y-108585462D02*
G75*
G03X140696000Y-107040170I-2990000J462D01*
G01*
X146246000Y-108584538D02*
G75*
G02X140696000Y-110129830I-2990000J-462D01*
G01*
X145756000Y-108585000D02*
G75*
G03X145756000Y-108585000I-2500000J0D01*
G01*
X140696000Y-107040000D02*
X140696000Y-110130000D01*
G04 #@! TO.C,D8*
X186886000Y-108585462D02*
G75*
G03X181336000Y-107040170I-2990000J462D01*
G01*
X186886000Y-108584538D02*
G75*
G02X181336000Y-110129830I-2990000J-462D01*
G01*
X186396000Y-108585000D02*
G75*
G03X186396000Y-108585000I-2500000J0D01*
G01*
X181336000Y-107040000D02*
X181336000Y-110130000D01*
G04 #@! TO.C,Q1*
X115766000Y-101981462D02*
G75*
G03X110216000Y-100436170I-2990000J462D01*
G01*
X115766000Y-101980538D02*
G75*
G02X110216000Y-103525830I-2990000J-462D01*
G01*
X115276000Y-101981000D02*
G75*
G03X115276000Y-101981000I-2500000J0D01*
G01*
X110216000Y-100436000D02*
X110216000Y-103526000D01*
G04 #@! TO.C,Q2*
X156406000Y-101981462D02*
G75*
G03X150856000Y-100436170I-2990000J462D01*
G01*
X156406000Y-101980538D02*
G75*
G02X150856000Y-103525830I-2990000J-462D01*
G01*
X155916000Y-101981000D02*
G75*
G03X155916000Y-101981000I-2500000J0D01*
G01*
X150856000Y-100436000D02*
X150856000Y-103526000D01*
G04 #@! TO.C,Q3*
X125926000Y-101981462D02*
G75*
G03X120376000Y-100436170I-2990000J462D01*
G01*
X125926000Y-101980538D02*
G75*
G02X120376000Y-103525830I-2990000J-462D01*
G01*
X125436000Y-101981000D02*
G75*
G03X125436000Y-101981000I-2500000J0D01*
G01*
X120376000Y-100436000D02*
X120376000Y-103526000D01*
G04 #@! TO.C,Q5*
X130536000Y-100436000D02*
X130536000Y-103526000D01*
X135596000Y-101981000D02*
G75*
G03X135596000Y-101981000I-2500000J0D01*
G01*
X136086000Y-101980538D02*
G75*
G02X130536000Y-103525830I-2990000J-462D01*
G01*
X136086000Y-101981462D02*
G75*
G03X130536000Y-100436170I-2990000J462D01*
G01*
G04 #@! TO.C,Q6*
X171176000Y-100436000D02*
X171176000Y-103526000D01*
X176236000Y-101981000D02*
G75*
G03X176236000Y-101981000I-2500000J0D01*
G01*
X176726000Y-101980538D02*
G75*
G02X171176000Y-103525830I-2990000J-462D01*
G01*
X176726000Y-101981462D02*
G75*
G03X171176000Y-100436170I-2990000J462D01*
G01*
G04 #@! TO.C,Q7*
X140696000Y-100436000D02*
X140696000Y-103526000D01*
X145756000Y-101981000D02*
G75*
G03X145756000Y-101981000I-2500000J0D01*
G01*
X146246000Y-101980538D02*
G75*
G02X140696000Y-103525830I-2990000J-462D01*
G01*
X146246000Y-101981462D02*
G75*
G03X140696000Y-100436170I-2990000J462D01*
G01*
G04 #@! TO.C,R1*
X155234000Y-94234000D02*
G75*
G03X155234000Y-94234000I-1310000J0D01*
G01*
X153924000Y-92924000D02*
X153924000Y-92794000D01*
G04 #@! TO.C,R2*
X151932000Y-94234000D02*
G75*
G03X151932000Y-94234000I-1310000J0D01*
G01*
X150622000Y-92924000D02*
X150622000Y-92794000D01*
G04 #@! TO.C,R3*
X119166000Y-109093000D02*
G75*
G03X119166000Y-109093000I-1310000J0D01*
G01*
X117856000Y-107783000D02*
X117856000Y-107653000D01*
G04 #@! TO.C,R4*
X117856000Y-102783000D02*
X117856000Y-102913000D01*
X119166000Y-101473000D02*
G75*
G03X119166000Y-101473000I-1310000J0D01*
G01*
G04 #@! TO.C,R5*
X158496000Y-107783000D02*
X158496000Y-107653000D01*
X159806000Y-109093000D02*
G75*
G03X159806000Y-109093000I-1310000J0D01*
G01*
G04 #@! TO.C,R6*
X158496000Y-102783000D02*
X158496000Y-102913000D01*
X159806000Y-101473000D02*
G75*
G03X159806000Y-101473000I-1310000J0D01*
G01*
G04 #@! TO.C,R7*
X129326000Y-109093000D02*
G75*
G03X129326000Y-109093000I-1310000J0D01*
G01*
X128016000Y-107783000D02*
X128016000Y-107653000D01*
G04 #@! TO.C,R8*
X128016000Y-102783000D02*
X128016000Y-102913000D01*
X129326000Y-101473000D02*
G75*
G03X129326000Y-101473000I-1310000J0D01*
G01*
G04 #@! TO.C,R9*
X169966000Y-109093000D02*
G75*
G03X169966000Y-109093000I-1310000J0D01*
G01*
X168656000Y-107783000D02*
X168656000Y-107653000D01*
G04 #@! TO.C,R10*
X168656000Y-102783000D02*
X168656000Y-102913000D01*
X169966000Y-101473000D02*
G75*
G03X169966000Y-101473000I-1310000J0D01*
G01*
G04 #@! TO.C,R11*
X139486000Y-109093000D02*
G75*
G03X139486000Y-109093000I-1310000J0D01*
G01*
X138176000Y-107783000D02*
X138176000Y-107653000D01*
G04 #@! TO.C,R12*
X138176000Y-102783000D02*
X138176000Y-102913000D01*
X139486000Y-101473000D02*
G75*
G03X139486000Y-101473000I-1310000J0D01*
G01*
G04 #@! TO.C,R13*
X180126000Y-109093000D02*
G75*
G03X180126000Y-109093000I-1310000J0D01*
G01*
X178816000Y-107783000D02*
X178816000Y-107653000D01*
G04 #@! TO.C,R14*
X178816000Y-102783000D02*
X178816000Y-102913000D01*
X180126000Y-101473000D02*
G75*
G03X180126000Y-101473000I-1310000J0D01*
G01*
G04 #@! TO.C,R15*
X149646000Y-109093000D02*
G75*
G03X149646000Y-109093000I-1310000J0D01*
G01*
X148336000Y-107783000D02*
X148336000Y-107653000D01*
G04 #@! TO.C,R16*
X148336000Y-102783000D02*
X148336000Y-102913000D01*
X149646000Y-101473000D02*
G75*
G03X149646000Y-101473000I-1310000J0D01*
G01*
G04 #@! TO.C,R17*
X190286000Y-109093000D02*
G75*
G03X190286000Y-109093000I-1310000J0D01*
G01*
X188976000Y-107783000D02*
X188976000Y-107653000D01*
G04 #@! TO.C,R18*
X190286000Y-101473000D02*
G75*
G03X190286000Y-101473000I-1310000J0D01*
G01*
X188976000Y-102783000D02*
X188976000Y-102913000D01*
D13*
G04 #@! TO.C,U1*
X170682000Y-97691500D02*
X170682000Y-91716500D01*
X176207000Y-96116500D02*
X176207000Y-91716500D01*
D12*
G04 #@! TO.C,JP1*
X165860000Y-95740500D02*
X165860000Y-95140500D01*
X169310000Y-96440500D02*
X166510000Y-96440500D01*
X169960000Y-95140500D02*
X169960000Y-95740500D01*
X166510000Y-94440500D02*
X169310000Y-94440500D01*
X169260000Y-94440500D02*
G75*
G02X169960000Y-95140500I0J-700000D01*
G01*
X169960000Y-95740500D02*
G75*
G02X169260000Y-96440500I-700000J0D01*
G01*
X166560000Y-96440500D02*
G75*
G02X165860000Y-95740500I0J700000D01*
G01*
X165860000Y-95140500D02*
G75*
G02X166560000Y-94440500I700000J0D01*
G01*
G04 #@! TO.C,JP2*
X181910000Y-97554000D02*
X181310000Y-97554000D01*
X182610000Y-94104000D02*
X182610000Y-96904000D01*
X181310000Y-93454000D02*
X181910000Y-93454000D01*
X180610000Y-96904000D02*
X180610000Y-94104000D01*
X180610000Y-94154000D02*
G75*
G02X181310000Y-93454000I700000J0D01*
G01*
X181910000Y-93454000D02*
G75*
G02X182610000Y-94154000I0J-700000D01*
G01*
X182610000Y-96854000D02*
G75*
G02X181910000Y-97554000I-700000J0D01*
G01*
X181310000Y-97554000D02*
G75*
G02X180610000Y-96854000I0J700000D01*
G01*
G04 #@! TO.C,JP3*
X165844000Y-91838500D02*
G75*
G02X166544000Y-91138500I700000J0D01*
G01*
X166544000Y-93138500D02*
G75*
G02X165844000Y-92438500I0J700000D01*
G01*
X169944000Y-92438500D02*
G75*
G02X169244000Y-93138500I-700000J0D01*
G01*
X169244000Y-91138500D02*
G75*
G02X169944000Y-91838500I0J-700000D01*
G01*
X166494000Y-91138500D02*
X169294000Y-91138500D01*
X169944000Y-91838500D02*
X169944000Y-92438500D01*
X169294000Y-93138500D02*
X166494000Y-93138500D01*
X165844000Y-92438500D02*
X165844000Y-91838500D01*
G04 #@! TO.C,Q4*
X161016000Y-100436000D02*
X161016000Y-103526000D01*
X166076000Y-101981000D02*
G75*
G03X166076000Y-101981000I-2500000J0D01*
G01*
X166566000Y-101980538D02*
G75*
G02X161016000Y-103525830I-2990000J-462D01*
G01*
X166566000Y-101981462D02*
G75*
G03X161016000Y-100436170I-2990000J462D01*
G01*
G04 #@! TO.C,D9*
X147843905Y-93159000D02*
G75*
G02X145610400Y-93128884I-1133505J-1227400D01*
G01*
X148879400Y-92396733D02*
X148434900Y-92989400D01*
X147990400Y-92396733D02*
X148879400Y-92396733D01*
X148434900Y-92989400D02*
X147990400Y-92396733D01*
X147990400Y-92989400D02*
X148879400Y-92989400D01*
G04 #@! TO.C,Q8*
D13*
X183800761Y-98568619D02*
X183705523Y-98521000D01*
X183610285Y-98425761D01*
X183467428Y-98282904D01*
X183372190Y-98235285D01*
X183276952Y-98235285D01*
X183324571Y-98473380D02*
X183229333Y-98425761D01*
X183134095Y-98330523D01*
X183086476Y-98140047D01*
X183086476Y-97806714D01*
X183134095Y-97616238D01*
X183229333Y-97521000D01*
X183324571Y-97473380D01*
X183515047Y-97473380D01*
X183610285Y-97521000D01*
X183705523Y-97616238D01*
X183753142Y-97806714D01*
X183753142Y-98140047D01*
X183705523Y-98330523D01*
X183610285Y-98425761D01*
X183515047Y-98473380D01*
X183324571Y-98473380D01*
X184324571Y-97901952D02*
X184229333Y-97854333D01*
X184181714Y-97806714D01*
X184134095Y-97711476D01*
X184134095Y-97663857D01*
X184181714Y-97568619D01*
X184229333Y-97521000D01*
X184324571Y-97473380D01*
X184515047Y-97473380D01*
X184610285Y-97521000D01*
X184657904Y-97568619D01*
X184705523Y-97663857D01*
X184705523Y-97711476D01*
X184657904Y-97806714D01*
X184610285Y-97854333D01*
X184515047Y-97901952D01*
X184324571Y-97901952D01*
X184229333Y-97949571D01*
X184181714Y-97997190D01*
X184134095Y-98092428D01*
X184134095Y-98282904D01*
X184181714Y-98378142D01*
X184229333Y-98425761D01*
X184324571Y-98473380D01*
X184515047Y-98473380D01*
X184610285Y-98425761D01*
X184657904Y-98378142D01*
X184705523Y-98282904D01*
X184705523Y-98092428D01*
X184657904Y-97997190D01*
X184610285Y-97949571D01*
X184515047Y-97901952D01*
G04 #@! TO.C,C1*
X178141333Y-90019142D02*
X178093714Y-90066761D01*
X177950857Y-90114380D01*
X177855619Y-90114380D01*
X177712761Y-90066761D01*
X177617523Y-89971523D01*
X177569904Y-89876285D01*
X177522285Y-89685809D01*
X177522285Y-89542952D01*
X177569904Y-89352476D01*
X177617523Y-89257238D01*
X177712761Y-89162000D01*
X177855619Y-89114380D01*
X177950857Y-89114380D01*
X178093714Y-89162000D01*
X178141333Y-89209619D01*
X179093714Y-90114380D02*
X178522285Y-90114380D01*
X178808000Y-90114380D02*
X178808000Y-89114380D01*
X178712761Y-89257238D01*
X178617523Y-89352476D01*
X178522285Y-89400095D01*
G04 #@! TO.C,C2*
X158329333Y-89797142D02*
X158281714Y-89844761D01*
X158138857Y-89892380D01*
X158043619Y-89892380D01*
X157900761Y-89844761D01*
X157805523Y-89749523D01*
X157757904Y-89654285D01*
X157710285Y-89463809D01*
X157710285Y-89320952D01*
X157757904Y-89130476D01*
X157805523Y-89035238D01*
X157900761Y-88940000D01*
X158043619Y-88892380D01*
X158138857Y-88892380D01*
X158281714Y-88940000D01*
X158329333Y-88987619D01*
X158710285Y-88987619D02*
X158757904Y-88940000D01*
X158853142Y-88892380D01*
X159091238Y-88892380D01*
X159186476Y-88940000D01*
X159234095Y-88987619D01*
X159281714Y-89082857D01*
X159281714Y-89178095D01*
X159234095Y-89320952D01*
X158662666Y-89892380D01*
X159281714Y-89892380D01*
G04 #@! TO.C,C4*
X163155333Y-89511142D02*
X163107714Y-89558761D01*
X162964857Y-89606380D01*
X162869619Y-89606380D01*
X162726761Y-89558761D01*
X162631523Y-89463523D01*
X162583904Y-89368285D01*
X162536285Y-89177809D01*
X162536285Y-89034952D01*
X162583904Y-88844476D01*
X162631523Y-88749238D01*
X162726761Y-88654000D01*
X162869619Y-88606380D01*
X162964857Y-88606380D01*
X163107714Y-88654000D01*
X163155333Y-88701619D01*
X164012476Y-88939714D02*
X164012476Y-89606380D01*
X163774380Y-88558761D02*
X163536285Y-89273047D01*
X164155333Y-89273047D01*
G04 #@! TO.C,D1*
X112037904Y-110815380D02*
X112037904Y-109815380D01*
X112276000Y-109815380D01*
X112418857Y-109863000D01*
X112514095Y-109958238D01*
X112561714Y-110053476D01*
X112609333Y-110243952D01*
X112609333Y-110386809D01*
X112561714Y-110577285D01*
X112514095Y-110672523D01*
X112418857Y-110767761D01*
X112276000Y-110815380D01*
X112037904Y-110815380D01*
X113561714Y-110815380D02*
X112990285Y-110815380D01*
X113276000Y-110815380D02*
X113276000Y-109815380D01*
X113180761Y-109958238D01*
X113085523Y-110053476D01*
X112990285Y-110101095D01*
G04 #@! TO.C,D2*
X152677904Y-110815380D02*
X152677904Y-109815380D01*
X152916000Y-109815380D01*
X153058857Y-109863000D01*
X153154095Y-109958238D01*
X153201714Y-110053476D01*
X153249333Y-110243952D01*
X153249333Y-110386809D01*
X153201714Y-110577285D01*
X153154095Y-110672523D01*
X153058857Y-110767761D01*
X152916000Y-110815380D01*
X152677904Y-110815380D01*
X153630285Y-109910619D02*
X153677904Y-109863000D01*
X153773142Y-109815380D01*
X154011238Y-109815380D01*
X154106476Y-109863000D01*
X154154095Y-109910619D01*
X154201714Y-110005857D01*
X154201714Y-110101095D01*
X154154095Y-110243952D01*
X153582666Y-110815380D01*
X154201714Y-110815380D01*
G04 #@! TO.C,D3*
X122197904Y-110815380D02*
X122197904Y-109815380D01*
X122436000Y-109815380D01*
X122578857Y-109863000D01*
X122674095Y-109958238D01*
X122721714Y-110053476D01*
X122769333Y-110243952D01*
X122769333Y-110386809D01*
X122721714Y-110577285D01*
X122674095Y-110672523D01*
X122578857Y-110767761D01*
X122436000Y-110815380D01*
X122197904Y-110815380D01*
X123102666Y-109815380D02*
X123721714Y-109815380D01*
X123388380Y-110196333D01*
X123531238Y-110196333D01*
X123626476Y-110243952D01*
X123674095Y-110291571D01*
X123721714Y-110386809D01*
X123721714Y-110624904D01*
X123674095Y-110720142D01*
X123626476Y-110767761D01*
X123531238Y-110815380D01*
X123245523Y-110815380D01*
X123150285Y-110767761D01*
X123102666Y-110720142D01*
G04 #@! TO.C,D4*
X162837904Y-110815380D02*
X162837904Y-109815380D01*
X163076000Y-109815380D01*
X163218857Y-109863000D01*
X163314095Y-109958238D01*
X163361714Y-110053476D01*
X163409333Y-110243952D01*
X163409333Y-110386809D01*
X163361714Y-110577285D01*
X163314095Y-110672523D01*
X163218857Y-110767761D01*
X163076000Y-110815380D01*
X162837904Y-110815380D01*
X164266476Y-110148714D02*
X164266476Y-110815380D01*
X164028380Y-109767761D02*
X163790285Y-110482047D01*
X164409333Y-110482047D01*
G04 #@! TO.C,D5*
X132357904Y-110815380D02*
X132357904Y-109815380D01*
X132596000Y-109815380D01*
X132738857Y-109863000D01*
X132834095Y-109958238D01*
X132881714Y-110053476D01*
X132929333Y-110243952D01*
X132929333Y-110386809D01*
X132881714Y-110577285D01*
X132834095Y-110672523D01*
X132738857Y-110767761D01*
X132596000Y-110815380D01*
X132357904Y-110815380D01*
X133834095Y-109815380D02*
X133357904Y-109815380D01*
X133310285Y-110291571D01*
X133357904Y-110243952D01*
X133453142Y-110196333D01*
X133691238Y-110196333D01*
X133786476Y-110243952D01*
X133834095Y-110291571D01*
X133881714Y-110386809D01*
X133881714Y-110624904D01*
X133834095Y-110720142D01*
X133786476Y-110767761D01*
X133691238Y-110815380D01*
X133453142Y-110815380D01*
X133357904Y-110767761D01*
X133310285Y-110720142D01*
G04 #@! TO.C,D6*
X172997904Y-110815380D02*
X172997904Y-109815380D01*
X173236000Y-109815380D01*
X173378857Y-109863000D01*
X173474095Y-109958238D01*
X173521714Y-110053476D01*
X173569333Y-110243952D01*
X173569333Y-110386809D01*
X173521714Y-110577285D01*
X173474095Y-110672523D01*
X173378857Y-110767761D01*
X173236000Y-110815380D01*
X172997904Y-110815380D01*
X174426476Y-109815380D02*
X174236000Y-109815380D01*
X174140761Y-109863000D01*
X174093142Y-109910619D01*
X173997904Y-110053476D01*
X173950285Y-110243952D01*
X173950285Y-110624904D01*
X173997904Y-110720142D01*
X174045523Y-110767761D01*
X174140761Y-110815380D01*
X174331238Y-110815380D01*
X174426476Y-110767761D01*
X174474095Y-110720142D01*
X174521714Y-110624904D01*
X174521714Y-110386809D01*
X174474095Y-110291571D01*
X174426476Y-110243952D01*
X174331238Y-110196333D01*
X174140761Y-110196333D01*
X174045523Y-110243952D01*
X173997904Y-110291571D01*
X173950285Y-110386809D01*
G04 #@! TO.C,D7*
X142517904Y-110815380D02*
X142517904Y-109815380D01*
X142756000Y-109815380D01*
X142898857Y-109863000D01*
X142994095Y-109958238D01*
X143041714Y-110053476D01*
X143089333Y-110243952D01*
X143089333Y-110386809D01*
X143041714Y-110577285D01*
X142994095Y-110672523D01*
X142898857Y-110767761D01*
X142756000Y-110815380D01*
X142517904Y-110815380D01*
X143422666Y-109815380D02*
X144089333Y-109815380D01*
X143660761Y-110815380D01*
G04 #@! TO.C,D8*
X183157904Y-111069380D02*
X183157904Y-110069380D01*
X183396000Y-110069380D01*
X183538857Y-110117000D01*
X183634095Y-110212238D01*
X183681714Y-110307476D01*
X183729333Y-110497952D01*
X183729333Y-110640809D01*
X183681714Y-110831285D01*
X183634095Y-110926523D01*
X183538857Y-111021761D01*
X183396000Y-111069380D01*
X183157904Y-111069380D01*
X184300761Y-110497952D02*
X184205523Y-110450333D01*
X184157904Y-110402714D01*
X184110285Y-110307476D01*
X184110285Y-110259857D01*
X184157904Y-110164619D01*
X184205523Y-110117000D01*
X184300761Y-110069380D01*
X184491238Y-110069380D01*
X184586476Y-110117000D01*
X184634095Y-110164619D01*
X184681714Y-110259857D01*
X184681714Y-110307476D01*
X184634095Y-110402714D01*
X184586476Y-110450333D01*
X184491238Y-110497952D01*
X184300761Y-110497952D01*
X184205523Y-110545571D01*
X184157904Y-110593190D01*
X184110285Y-110688428D01*
X184110285Y-110878904D01*
X184157904Y-110974142D01*
X184205523Y-111021761D01*
X184300761Y-111069380D01*
X184491238Y-111069380D01*
X184586476Y-111021761D01*
X184634095Y-110974142D01*
X184681714Y-110878904D01*
X184681714Y-110688428D01*
X184634095Y-110593190D01*
X184586476Y-110545571D01*
X184491238Y-110497952D01*
G04 #@! TO.C,Q1*
X112680761Y-98568619D02*
X112585523Y-98521000D01*
X112490285Y-98425761D01*
X112347428Y-98282904D01*
X112252190Y-98235285D01*
X112156952Y-98235285D01*
X112204571Y-98473380D02*
X112109333Y-98425761D01*
X112014095Y-98330523D01*
X111966476Y-98140047D01*
X111966476Y-97806714D01*
X112014095Y-97616238D01*
X112109333Y-97521000D01*
X112204571Y-97473380D01*
X112395047Y-97473380D01*
X112490285Y-97521000D01*
X112585523Y-97616238D01*
X112633142Y-97806714D01*
X112633142Y-98140047D01*
X112585523Y-98330523D01*
X112490285Y-98425761D01*
X112395047Y-98473380D01*
X112204571Y-98473380D01*
X113585523Y-98473380D02*
X113014095Y-98473380D01*
X113299809Y-98473380D02*
X113299809Y-97473380D01*
X113204571Y-97616238D01*
X113109333Y-97711476D01*
X113014095Y-97759095D01*
G04 #@! TO.C,Q2*
X153320761Y-98568619D02*
X153225523Y-98521000D01*
X153130285Y-98425761D01*
X152987428Y-98282904D01*
X152892190Y-98235285D01*
X152796952Y-98235285D01*
X152844571Y-98473380D02*
X152749333Y-98425761D01*
X152654095Y-98330523D01*
X152606476Y-98140047D01*
X152606476Y-97806714D01*
X152654095Y-97616238D01*
X152749333Y-97521000D01*
X152844571Y-97473380D01*
X153035047Y-97473380D01*
X153130285Y-97521000D01*
X153225523Y-97616238D01*
X153273142Y-97806714D01*
X153273142Y-98140047D01*
X153225523Y-98330523D01*
X153130285Y-98425761D01*
X153035047Y-98473380D01*
X152844571Y-98473380D01*
X153654095Y-97568619D02*
X153701714Y-97521000D01*
X153796952Y-97473380D01*
X154035047Y-97473380D01*
X154130285Y-97521000D01*
X154177904Y-97568619D01*
X154225523Y-97663857D01*
X154225523Y-97759095D01*
X154177904Y-97901952D01*
X153606476Y-98473380D01*
X154225523Y-98473380D01*
G04 #@! TO.C,Q3*
X122840761Y-98568619D02*
X122745523Y-98521000D01*
X122650285Y-98425761D01*
X122507428Y-98282904D01*
X122412190Y-98235285D01*
X122316952Y-98235285D01*
X122364571Y-98473380D02*
X122269333Y-98425761D01*
X122174095Y-98330523D01*
X122126476Y-98140047D01*
X122126476Y-97806714D01*
X122174095Y-97616238D01*
X122269333Y-97521000D01*
X122364571Y-97473380D01*
X122555047Y-97473380D01*
X122650285Y-97521000D01*
X122745523Y-97616238D01*
X122793142Y-97806714D01*
X122793142Y-98140047D01*
X122745523Y-98330523D01*
X122650285Y-98425761D01*
X122555047Y-98473380D01*
X122364571Y-98473380D01*
X123126476Y-97473380D02*
X123745523Y-97473380D01*
X123412190Y-97854333D01*
X123555047Y-97854333D01*
X123650285Y-97901952D01*
X123697904Y-97949571D01*
X123745523Y-98044809D01*
X123745523Y-98282904D01*
X123697904Y-98378142D01*
X123650285Y-98425761D01*
X123555047Y-98473380D01*
X123269333Y-98473380D01*
X123174095Y-98425761D01*
X123126476Y-98378142D01*
G04 #@! TO.C,Q5*
X133000761Y-98568619D02*
X132905523Y-98521000D01*
X132810285Y-98425761D01*
X132667428Y-98282904D01*
X132572190Y-98235285D01*
X132476952Y-98235285D01*
X132524571Y-98473380D02*
X132429333Y-98425761D01*
X132334095Y-98330523D01*
X132286476Y-98140047D01*
X132286476Y-97806714D01*
X132334095Y-97616238D01*
X132429333Y-97521000D01*
X132524571Y-97473380D01*
X132715047Y-97473380D01*
X132810285Y-97521000D01*
X132905523Y-97616238D01*
X132953142Y-97806714D01*
X132953142Y-98140047D01*
X132905523Y-98330523D01*
X132810285Y-98425761D01*
X132715047Y-98473380D01*
X132524571Y-98473380D01*
X133857904Y-97473380D02*
X133381714Y-97473380D01*
X133334095Y-97949571D01*
X133381714Y-97901952D01*
X133476952Y-97854333D01*
X133715047Y-97854333D01*
X133810285Y-97901952D01*
X133857904Y-97949571D01*
X133905523Y-98044809D01*
X133905523Y-98282904D01*
X133857904Y-98378142D01*
X133810285Y-98425761D01*
X133715047Y-98473380D01*
X133476952Y-98473380D01*
X133381714Y-98425761D01*
X133334095Y-98378142D01*
G04 #@! TO.C,Q6*
X175926761Y-99353619D02*
X175831523Y-99306000D01*
X175736285Y-99210761D01*
X175593428Y-99067904D01*
X175498190Y-99020285D01*
X175402952Y-99020285D01*
X175450571Y-99258380D02*
X175355333Y-99210761D01*
X175260095Y-99115523D01*
X175212476Y-98925047D01*
X175212476Y-98591714D01*
X175260095Y-98401238D01*
X175355333Y-98306000D01*
X175450571Y-98258380D01*
X175641047Y-98258380D01*
X175736285Y-98306000D01*
X175831523Y-98401238D01*
X175879142Y-98591714D01*
X175879142Y-98925047D01*
X175831523Y-99115523D01*
X175736285Y-99210761D01*
X175641047Y-99258380D01*
X175450571Y-99258380D01*
X176736285Y-98258380D02*
X176545809Y-98258380D01*
X176450571Y-98306000D01*
X176402952Y-98353619D01*
X176307714Y-98496476D01*
X176260095Y-98686952D01*
X176260095Y-99067904D01*
X176307714Y-99163142D01*
X176355333Y-99210761D01*
X176450571Y-99258380D01*
X176641047Y-99258380D01*
X176736285Y-99210761D01*
X176783904Y-99163142D01*
X176831523Y-99067904D01*
X176831523Y-98829809D01*
X176783904Y-98734571D01*
X176736285Y-98686952D01*
X176641047Y-98639333D01*
X176450571Y-98639333D01*
X176355333Y-98686952D01*
X176307714Y-98734571D01*
X176260095Y-98829809D01*
G04 #@! TO.C,Q7*
X143160761Y-98568619D02*
X143065523Y-98521000D01*
X142970285Y-98425761D01*
X142827428Y-98282904D01*
X142732190Y-98235285D01*
X142636952Y-98235285D01*
X142684571Y-98473380D02*
X142589333Y-98425761D01*
X142494095Y-98330523D01*
X142446476Y-98140047D01*
X142446476Y-97806714D01*
X142494095Y-97616238D01*
X142589333Y-97521000D01*
X142684571Y-97473380D01*
X142875047Y-97473380D01*
X142970285Y-97521000D01*
X143065523Y-97616238D01*
X143113142Y-97806714D01*
X143113142Y-98140047D01*
X143065523Y-98330523D01*
X142970285Y-98425761D01*
X142875047Y-98473380D01*
X142684571Y-98473380D01*
X143446476Y-97473380D02*
X144113142Y-97473380D01*
X143684571Y-98473380D01*
G04 #@! TO.C,R1*
X153757333Y-96972380D02*
X153424000Y-96496190D01*
X153185904Y-96972380D02*
X153185904Y-95972380D01*
X153566857Y-95972380D01*
X153662095Y-96020000D01*
X153709714Y-96067619D01*
X153757333Y-96162857D01*
X153757333Y-96305714D01*
X153709714Y-96400952D01*
X153662095Y-96448571D01*
X153566857Y-96496190D01*
X153185904Y-96496190D01*
X154709714Y-96972380D02*
X154138285Y-96972380D01*
X154424000Y-96972380D02*
X154424000Y-95972380D01*
X154328761Y-96115238D01*
X154233523Y-96210476D01*
X154138285Y-96258095D01*
G04 #@! TO.C,R2*
X150455333Y-96972380D02*
X150122000Y-96496190D01*
X149883904Y-96972380D02*
X149883904Y-95972380D01*
X150264857Y-95972380D01*
X150360095Y-96020000D01*
X150407714Y-96067619D01*
X150455333Y-96162857D01*
X150455333Y-96305714D01*
X150407714Y-96400952D01*
X150360095Y-96448571D01*
X150264857Y-96496190D01*
X149883904Y-96496190D01*
X150836285Y-96067619D02*
X150883904Y-96020000D01*
X150979142Y-95972380D01*
X151217238Y-95972380D01*
X151312476Y-96020000D01*
X151360095Y-96067619D01*
X151407714Y-96162857D01*
X151407714Y-96258095D01*
X151360095Y-96400952D01*
X150788666Y-96972380D01*
X151407714Y-96972380D01*
G04 #@! TO.C,R3*
X117689333Y-111831380D02*
X117356000Y-111355190D01*
X117117904Y-111831380D02*
X117117904Y-110831380D01*
X117498857Y-110831380D01*
X117594095Y-110879000D01*
X117641714Y-110926619D01*
X117689333Y-111021857D01*
X117689333Y-111164714D01*
X117641714Y-111259952D01*
X117594095Y-111307571D01*
X117498857Y-111355190D01*
X117117904Y-111355190D01*
X118022666Y-110831380D02*
X118641714Y-110831380D01*
X118308380Y-111212333D01*
X118451238Y-111212333D01*
X118546476Y-111259952D01*
X118594095Y-111307571D01*
X118641714Y-111402809D01*
X118641714Y-111640904D01*
X118594095Y-111736142D01*
X118546476Y-111783761D01*
X118451238Y-111831380D01*
X118165523Y-111831380D01*
X118070285Y-111783761D01*
X118022666Y-111736142D01*
G04 #@! TO.C,R4*
X117689333Y-99639380D02*
X117356000Y-99163190D01*
X117117904Y-99639380D02*
X117117904Y-98639380D01*
X117498857Y-98639380D01*
X117594095Y-98687000D01*
X117641714Y-98734619D01*
X117689333Y-98829857D01*
X117689333Y-98972714D01*
X117641714Y-99067952D01*
X117594095Y-99115571D01*
X117498857Y-99163190D01*
X117117904Y-99163190D01*
X118546476Y-98972714D02*
X118546476Y-99639380D01*
X118308380Y-98591761D02*
X118070285Y-99306047D01*
X118689333Y-99306047D01*
G04 #@! TO.C,R5*
X158329333Y-111831380D02*
X157996000Y-111355190D01*
X157757904Y-111831380D02*
X157757904Y-110831380D01*
X158138857Y-110831380D01*
X158234095Y-110879000D01*
X158281714Y-110926619D01*
X158329333Y-111021857D01*
X158329333Y-111164714D01*
X158281714Y-111259952D01*
X158234095Y-111307571D01*
X158138857Y-111355190D01*
X157757904Y-111355190D01*
X159234095Y-110831380D02*
X158757904Y-110831380D01*
X158710285Y-111307571D01*
X158757904Y-111259952D01*
X158853142Y-111212333D01*
X159091238Y-111212333D01*
X159186476Y-111259952D01*
X159234095Y-111307571D01*
X159281714Y-111402809D01*
X159281714Y-111640904D01*
X159234095Y-111736142D01*
X159186476Y-111783761D01*
X159091238Y-111831380D01*
X158853142Y-111831380D01*
X158757904Y-111783761D01*
X158710285Y-111736142D01*
G04 #@! TO.C,R6*
X158329333Y-99385380D02*
X157996000Y-98909190D01*
X157757904Y-99385380D02*
X157757904Y-98385380D01*
X158138857Y-98385380D01*
X158234095Y-98433000D01*
X158281714Y-98480619D01*
X158329333Y-98575857D01*
X158329333Y-98718714D01*
X158281714Y-98813952D01*
X158234095Y-98861571D01*
X158138857Y-98909190D01*
X157757904Y-98909190D01*
X159186476Y-98385380D02*
X158996000Y-98385380D01*
X158900761Y-98433000D01*
X158853142Y-98480619D01*
X158757904Y-98623476D01*
X158710285Y-98813952D01*
X158710285Y-99194904D01*
X158757904Y-99290142D01*
X158805523Y-99337761D01*
X158900761Y-99385380D01*
X159091238Y-99385380D01*
X159186476Y-99337761D01*
X159234095Y-99290142D01*
X159281714Y-99194904D01*
X159281714Y-98956809D01*
X159234095Y-98861571D01*
X159186476Y-98813952D01*
X159091238Y-98766333D01*
X158900761Y-98766333D01*
X158805523Y-98813952D01*
X158757904Y-98861571D01*
X158710285Y-98956809D01*
G04 #@! TO.C,R7*
X127849333Y-111831380D02*
X127516000Y-111355190D01*
X127277904Y-111831380D02*
X127277904Y-110831380D01*
X127658857Y-110831380D01*
X127754095Y-110879000D01*
X127801714Y-110926619D01*
X127849333Y-111021857D01*
X127849333Y-111164714D01*
X127801714Y-111259952D01*
X127754095Y-111307571D01*
X127658857Y-111355190D01*
X127277904Y-111355190D01*
X128182666Y-110831380D02*
X128849333Y-110831380D01*
X128420761Y-111831380D01*
G04 #@! TO.C,R8*
X127849333Y-99639380D02*
X127516000Y-99163190D01*
X127277904Y-99639380D02*
X127277904Y-98639380D01*
X127658857Y-98639380D01*
X127754095Y-98687000D01*
X127801714Y-98734619D01*
X127849333Y-98829857D01*
X127849333Y-98972714D01*
X127801714Y-99067952D01*
X127754095Y-99115571D01*
X127658857Y-99163190D01*
X127277904Y-99163190D01*
X128420761Y-99067952D02*
X128325523Y-99020333D01*
X128277904Y-98972714D01*
X128230285Y-98877476D01*
X128230285Y-98829857D01*
X128277904Y-98734619D01*
X128325523Y-98687000D01*
X128420761Y-98639380D01*
X128611238Y-98639380D01*
X128706476Y-98687000D01*
X128754095Y-98734619D01*
X128801714Y-98829857D01*
X128801714Y-98877476D01*
X128754095Y-98972714D01*
X128706476Y-99020333D01*
X128611238Y-99067952D01*
X128420761Y-99067952D01*
X128325523Y-99115571D01*
X128277904Y-99163190D01*
X128230285Y-99258428D01*
X128230285Y-99448904D01*
X128277904Y-99544142D01*
X128325523Y-99591761D01*
X128420761Y-99639380D01*
X128611238Y-99639380D01*
X128706476Y-99591761D01*
X128754095Y-99544142D01*
X128801714Y-99448904D01*
X128801714Y-99258428D01*
X128754095Y-99163190D01*
X128706476Y-99115571D01*
X128611238Y-99067952D01*
G04 #@! TO.C,R9*
X168489333Y-111831380D02*
X168156000Y-111355190D01*
X167917904Y-111831380D02*
X167917904Y-110831380D01*
X168298857Y-110831380D01*
X168394095Y-110879000D01*
X168441714Y-110926619D01*
X168489333Y-111021857D01*
X168489333Y-111164714D01*
X168441714Y-111259952D01*
X168394095Y-111307571D01*
X168298857Y-111355190D01*
X167917904Y-111355190D01*
X168965523Y-111831380D02*
X169156000Y-111831380D01*
X169251238Y-111783761D01*
X169298857Y-111736142D01*
X169394095Y-111593285D01*
X169441714Y-111402809D01*
X169441714Y-111021857D01*
X169394095Y-110926619D01*
X169346476Y-110879000D01*
X169251238Y-110831380D01*
X169060761Y-110831380D01*
X168965523Y-110879000D01*
X168917904Y-110926619D01*
X168870285Y-111021857D01*
X168870285Y-111259952D01*
X168917904Y-111355190D01*
X168965523Y-111402809D01*
X169060761Y-111450428D01*
X169251238Y-111450428D01*
X169346476Y-111402809D01*
X169394095Y-111355190D01*
X169441714Y-111259952D01*
G04 #@! TO.C,R10*
X168013142Y-99639380D02*
X167679809Y-99163190D01*
X167441714Y-99639380D02*
X167441714Y-98639380D01*
X167822666Y-98639380D01*
X167917904Y-98687000D01*
X167965523Y-98734619D01*
X168013142Y-98829857D01*
X168013142Y-98972714D01*
X167965523Y-99067952D01*
X167917904Y-99115571D01*
X167822666Y-99163190D01*
X167441714Y-99163190D01*
X168965523Y-99639380D02*
X168394095Y-99639380D01*
X168679809Y-99639380D02*
X168679809Y-98639380D01*
X168584571Y-98782238D01*
X168489333Y-98877476D01*
X168394095Y-98925095D01*
X169584571Y-98639380D02*
X169679809Y-98639380D01*
X169775047Y-98687000D01*
X169822666Y-98734619D01*
X169870285Y-98829857D01*
X169917904Y-99020333D01*
X169917904Y-99258428D01*
X169870285Y-99448904D01*
X169822666Y-99544142D01*
X169775047Y-99591761D01*
X169679809Y-99639380D01*
X169584571Y-99639380D01*
X169489333Y-99591761D01*
X169441714Y-99544142D01*
X169394095Y-99448904D01*
X169346476Y-99258428D01*
X169346476Y-99020333D01*
X169394095Y-98829857D01*
X169441714Y-98734619D01*
X169489333Y-98687000D01*
X169584571Y-98639380D01*
G04 #@! TO.C,R11*
X137533142Y-111831380D02*
X137199809Y-111355190D01*
X136961714Y-111831380D02*
X136961714Y-110831380D01*
X137342666Y-110831380D01*
X137437904Y-110879000D01*
X137485523Y-110926619D01*
X137533142Y-111021857D01*
X137533142Y-111164714D01*
X137485523Y-111259952D01*
X137437904Y-111307571D01*
X137342666Y-111355190D01*
X136961714Y-111355190D01*
X138485523Y-111831380D02*
X137914095Y-111831380D01*
X138199809Y-111831380D02*
X138199809Y-110831380D01*
X138104571Y-110974238D01*
X138009333Y-111069476D01*
X137914095Y-111117095D01*
X139437904Y-111831380D02*
X138866476Y-111831380D01*
X139152190Y-111831380D02*
X139152190Y-110831380D01*
X139056952Y-110974238D01*
X138961714Y-111069476D01*
X138866476Y-111117095D01*
G04 #@! TO.C,R12*
X137533142Y-99639380D02*
X137199809Y-99163190D01*
X136961714Y-99639380D02*
X136961714Y-98639380D01*
X137342666Y-98639380D01*
X137437904Y-98687000D01*
X137485523Y-98734619D01*
X137533142Y-98829857D01*
X137533142Y-98972714D01*
X137485523Y-99067952D01*
X137437904Y-99115571D01*
X137342666Y-99163190D01*
X136961714Y-99163190D01*
X138485523Y-99639380D02*
X137914095Y-99639380D01*
X138199809Y-99639380D02*
X138199809Y-98639380D01*
X138104571Y-98782238D01*
X138009333Y-98877476D01*
X137914095Y-98925095D01*
X138866476Y-98734619D02*
X138914095Y-98687000D01*
X139009333Y-98639380D01*
X139247428Y-98639380D01*
X139342666Y-98687000D01*
X139390285Y-98734619D01*
X139437904Y-98829857D01*
X139437904Y-98925095D01*
X139390285Y-99067952D01*
X138818857Y-99639380D01*
X139437904Y-99639380D01*
G04 #@! TO.C,R13*
X178173142Y-111831380D02*
X177839809Y-111355190D01*
X177601714Y-111831380D02*
X177601714Y-110831380D01*
X177982666Y-110831380D01*
X178077904Y-110879000D01*
X178125523Y-110926619D01*
X178173142Y-111021857D01*
X178173142Y-111164714D01*
X178125523Y-111259952D01*
X178077904Y-111307571D01*
X177982666Y-111355190D01*
X177601714Y-111355190D01*
X179125523Y-111831380D02*
X178554095Y-111831380D01*
X178839809Y-111831380D02*
X178839809Y-110831380D01*
X178744571Y-110974238D01*
X178649333Y-111069476D01*
X178554095Y-111117095D01*
X179458857Y-110831380D02*
X180077904Y-110831380D01*
X179744571Y-111212333D01*
X179887428Y-111212333D01*
X179982666Y-111259952D01*
X180030285Y-111307571D01*
X180077904Y-111402809D01*
X180077904Y-111640904D01*
X180030285Y-111736142D01*
X179982666Y-111783761D01*
X179887428Y-111831380D01*
X179601714Y-111831380D01*
X179506476Y-111783761D01*
X179458857Y-111736142D01*
G04 #@! TO.C,R14*
X178173142Y-99639380D02*
X177839809Y-99163190D01*
X177601714Y-99639380D02*
X177601714Y-98639380D01*
X177982666Y-98639380D01*
X178077904Y-98687000D01*
X178125523Y-98734619D01*
X178173142Y-98829857D01*
X178173142Y-98972714D01*
X178125523Y-99067952D01*
X178077904Y-99115571D01*
X177982666Y-99163190D01*
X177601714Y-99163190D01*
X179125523Y-99639380D02*
X178554095Y-99639380D01*
X178839809Y-99639380D02*
X178839809Y-98639380D01*
X178744571Y-98782238D01*
X178649333Y-98877476D01*
X178554095Y-98925095D01*
X179982666Y-98972714D02*
X179982666Y-99639380D01*
X179744571Y-98591761D02*
X179506476Y-99306047D01*
X180125523Y-99306047D01*
G04 #@! TO.C,R15*
X147693142Y-111831380D02*
X147359809Y-111355190D01*
X147121714Y-111831380D02*
X147121714Y-110831380D01*
X147502666Y-110831380D01*
X147597904Y-110879000D01*
X147645523Y-110926619D01*
X147693142Y-111021857D01*
X147693142Y-111164714D01*
X147645523Y-111259952D01*
X147597904Y-111307571D01*
X147502666Y-111355190D01*
X147121714Y-111355190D01*
X148645523Y-111831380D02*
X148074095Y-111831380D01*
X148359809Y-111831380D02*
X148359809Y-110831380D01*
X148264571Y-110974238D01*
X148169333Y-111069476D01*
X148074095Y-111117095D01*
X149550285Y-110831380D02*
X149074095Y-110831380D01*
X149026476Y-111307571D01*
X149074095Y-111259952D01*
X149169333Y-111212333D01*
X149407428Y-111212333D01*
X149502666Y-111259952D01*
X149550285Y-111307571D01*
X149597904Y-111402809D01*
X149597904Y-111640904D01*
X149550285Y-111736142D01*
X149502666Y-111783761D01*
X149407428Y-111831380D01*
X149169333Y-111831380D01*
X149074095Y-111783761D01*
X149026476Y-111736142D01*
G04 #@! TO.C,R16*
X147693142Y-99639380D02*
X147359809Y-99163190D01*
X147121714Y-99639380D02*
X147121714Y-98639380D01*
X147502666Y-98639380D01*
X147597904Y-98687000D01*
X147645523Y-98734619D01*
X147693142Y-98829857D01*
X147693142Y-98972714D01*
X147645523Y-99067952D01*
X147597904Y-99115571D01*
X147502666Y-99163190D01*
X147121714Y-99163190D01*
X148645523Y-99639380D02*
X148074095Y-99639380D01*
X148359809Y-99639380D02*
X148359809Y-98639380D01*
X148264571Y-98782238D01*
X148169333Y-98877476D01*
X148074095Y-98925095D01*
X149502666Y-98639380D02*
X149312190Y-98639380D01*
X149216952Y-98687000D01*
X149169333Y-98734619D01*
X149074095Y-98877476D01*
X149026476Y-99067952D01*
X149026476Y-99448904D01*
X149074095Y-99544142D01*
X149121714Y-99591761D01*
X149216952Y-99639380D01*
X149407428Y-99639380D01*
X149502666Y-99591761D01*
X149550285Y-99544142D01*
X149597904Y-99448904D01*
X149597904Y-99210809D01*
X149550285Y-99115571D01*
X149502666Y-99067952D01*
X149407428Y-99020333D01*
X149216952Y-99020333D01*
X149121714Y-99067952D01*
X149074095Y-99115571D01*
X149026476Y-99210809D01*
G04 #@! TO.C,R17*
X188333142Y-111831380D02*
X187999809Y-111355190D01*
X187761714Y-111831380D02*
X187761714Y-110831380D01*
X188142666Y-110831380D01*
X188237904Y-110879000D01*
X188285523Y-110926619D01*
X188333142Y-111021857D01*
X188333142Y-111164714D01*
X188285523Y-111259952D01*
X188237904Y-111307571D01*
X188142666Y-111355190D01*
X187761714Y-111355190D01*
X189285523Y-111831380D02*
X188714095Y-111831380D01*
X188999809Y-111831380D02*
X188999809Y-110831380D01*
X188904571Y-110974238D01*
X188809333Y-111069476D01*
X188714095Y-111117095D01*
X189618857Y-110831380D02*
X190285523Y-110831380D01*
X189856952Y-111831380D01*
G04 #@! TO.C,R18*
X188333142Y-99639380D02*
X187999809Y-99163190D01*
X187761714Y-99639380D02*
X187761714Y-98639380D01*
X188142666Y-98639380D01*
X188237904Y-98687000D01*
X188285523Y-98734619D01*
X188333142Y-98829857D01*
X188333142Y-98972714D01*
X188285523Y-99067952D01*
X188237904Y-99115571D01*
X188142666Y-99163190D01*
X187761714Y-99163190D01*
X189285523Y-99639380D02*
X188714095Y-99639380D01*
X188999809Y-99639380D02*
X188999809Y-98639380D01*
X188904571Y-98782238D01*
X188809333Y-98877476D01*
X188714095Y-98925095D01*
X189856952Y-99067952D02*
X189761714Y-99020333D01*
X189714095Y-98972714D01*
X189666476Y-98877476D01*
X189666476Y-98829857D01*
X189714095Y-98734619D01*
X189761714Y-98687000D01*
X189856952Y-98639380D01*
X190047428Y-98639380D01*
X190142666Y-98687000D01*
X190190285Y-98734619D01*
X190237904Y-98829857D01*
X190237904Y-98877476D01*
X190190285Y-98972714D01*
X190142666Y-99020333D01*
X190047428Y-99067952D01*
X189856952Y-99067952D01*
X189761714Y-99115571D01*
X189714095Y-99163190D01*
X189666476Y-99258428D01*
X189666476Y-99448904D01*
X189714095Y-99544142D01*
X189761714Y-99591761D01*
X189856952Y-99639380D01*
X190047428Y-99639380D01*
X190142666Y-99591761D01*
X190190285Y-99544142D01*
X190237904Y-99448904D01*
X190237904Y-99258428D01*
X190190285Y-99163190D01*
X190142666Y-99115571D01*
X190047428Y-99067952D01*
G04 #@! TO.C,U1*
X172720095Y-88288880D02*
X172720095Y-89098404D01*
X172767714Y-89193642D01*
X172815333Y-89241261D01*
X172910571Y-89288880D01*
X173101047Y-89288880D01*
X173196285Y-89241261D01*
X173243904Y-89193642D01*
X173291523Y-89098404D01*
X173291523Y-88288880D01*
X174291523Y-89288880D02*
X173720095Y-89288880D01*
X174005809Y-89288880D02*
X174005809Y-88288880D01*
X173910571Y-88431738D01*
X173815333Y-88526976D01*
X173720095Y-88574595D01*
G04 #@! TO.C,JP1*
X169132380Y-96924880D02*
X169227619Y-96924880D01*
X169322857Y-96972500D01*
X169370476Y-97020119D01*
X169418095Y-97115357D01*
X169465714Y-97305833D01*
X169465714Y-97543928D01*
X169418095Y-97734404D01*
X169370476Y-97829642D01*
X169322857Y-97877261D01*
X169227619Y-97924880D01*
X169132380Y-97924880D01*
X169037142Y-97877261D01*
X168989523Y-97829642D01*
X168941904Y-97734404D01*
X168894285Y-97543928D01*
X168894285Y-97305833D01*
X168941904Y-97115357D01*
X168989523Y-97020119D01*
X169037142Y-96972500D01*
X169132380Y-96924880D01*
X166925714Y-97924880D02*
X166354285Y-97924880D01*
X166640000Y-97924880D02*
X166640000Y-96924880D01*
X166544761Y-97067738D01*
X166449523Y-97162976D01*
X166354285Y-97210595D01*
G04 #@! TO.C,JP2*
D10*
X183360285Y-94198285D02*
X183526952Y-94198285D01*
X183598380Y-94460190D02*
X183360285Y-94460190D01*
X183360285Y-93960190D01*
X183598380Y-93960190D01*
X183765047Y-93960190D02*
X184098380Y-94460190D01*
X184098380Y-93960190D02*
X183765047Y-94460190D01*
X184217428Y-93960190D02*
X184503142Y-93960190D01*
X184360285Y-94460190D02*
X184360285Y-93960190D01*
X183515047Y-97000190D02*
X183348380Y-96762095D01*
X183229333Y-97000190D02*
X183229333Y-96500190D01*
X183419809Y-96500190D01*
X183467428Y-96524000D01*
X183491238Y-96547809D01*
X183515047Y-96595428D01*
X183515047Y-96666857D01*
X183491238Y-96714476D01*
X183467428Y-96738285D01*
X183419809Y-96762095D01*
X183229333Y-96762095D01*
X183705523Y-96857333D02*
X183943619Y-96857333D01*
X183657904Y-97000190D02*
X183824571Y-96500190D01*
X183991238Y-97000190D01*
X184157904Y-97000190D02*
X184157904Y-96500190D01*
X184634095Y-97000190D02*
X184396000Y-97000190D01*
X184396000Y-96500190D01*
G04 #@! TO.C,JP3*
D13*
X166909714Y-90558880D02*
X166338285Y-90558880D01*
X166624000Y-90558880D02*
X166624000Y-89558880D01*
X166528761Y-89701738D01*
X166433523Y-89796976D01*
X166338285Y-89844595D01*
X169116380Y-89558880D02*
X169211619Y-89558880D01*
X169306857Y-89606500D01*
X169354476Y-89654119D01*
X169402095Y-89749357D01*
X169449714Y-89939833D01*
X169449714Y-90177928D01*
X169402095Y-90368404D01*
X169354476Y-90463642D01*
X169306857Y-90511261D01*
X169211619Y-90558880D01*
X169116380Y-90558880D01*
X169021142Y-90511261D01*
X168973523Y-90463642D01*
X168925904Y-90368404D01*
X168878285Y-90177928D01*
X168878285Y-89939833D01*
X168925904Y-89749357D01*
X168973523Y-89654119D01*
X169021142Y-89606500D01*
X169116380Y-89558880D01*
G04 #@! TO.C,Q4*
X162210761Y-98568619D02*
X162115523Y-98521000D01*
X162020285Y-98425761D01*
X161877428Y-98282904D01*
X161782190Y-98235285D01*
X161686952Y-98235285D01*
X161734571Y-98473380D02*
X161639333Y-98425761D01*
X161544095Y-98330523D01*
X161496476Y-98140047D01*
X161496476Y-97806714D01*
X161544095Y-97616238D01*
X161639333Y-97521000D01*
X161734571Y-97473380D01*
X161925047Y-97473380D01*
X162020285Y-97521000D01*
X162115523Y-97616238D01*
X162163142Y-97806714D01*
X162163142Y-98140047D01*
X162115523Y-98330523D01*
X162020285Y-98425761D01*
X161925047Y-98473380D01*
X161734571Y-98473380D01*
X163020285Y-97806714D02*
X163020285Y-98473380D01*
X162782190Y-97425761D02*
X162544095Y-98140047D01*
X163163142Y-98140047D01*
G04 #@! TO.C,D9*
X146073904Y-97226380D02*
X146073904Y-96226380D01*
X146312000Y-96226380D01*
X146454857Y-96274000D01*
X146550095Y-96369238D01*
X146597714Y-96464476D01*
X146645333Y-96654952D01*
X146645333Y-96797809D01*
X146597714Y-96988285D01*
X146550095Y-97083523D01*
X146454857Y-97178761D01*
X146312000Y-97226380D01*
X146073904Y-97226380D01*
X147121523Y-97226380D02*
X147312000Y-97226380D01*
X147407238Y-97178761D01*
X147454857Y-97131142D01*
X147550095Y-96988285D01*
X147597714Y-96797809D01*
X147597714Y-96416857D01*
X147550095Y-96321619D01*
X147502476Y-96274000D01*
X147407238Y-96226380D01*
X147216761Y-96226380D01*
X147121523Y-96274000D01*
X147073904Y-96321619D01*
X147026285Y-96416857D01*
X147026285Y-96654952D01*
X147073904Y-96750190D01*
X147121523Y-96797809D01*
X147216761Y-96845428D01*
X147407238Y-96845428D01*
X147502476Y-96797809D01*
X147550095Y-96750190D01*
X147597714Y-96654952D01*
G04 #@! TD*
M02*
