G04 #@! TF.GenerationSoftware,KiCad,Pcbnew,(5.0.0-rc2-63-gd4393b281)*
G04 #@! TF.CreationDate,2018-06-20T09:41:05-07:00*
G04 #@! TF.ProjectId,IRSensorArray,495253656E736F7241727261792E6B69,rev?*
G04 #@! TF.SameCoordinates,Original*
G04 #@! TF.FileFunction,Copper,L2,Bot,Signal*
G04 #@! TF.FilePolarity,Positive*
%FSLAX46Y46*%
G04 Gerber Fmt 4.6, Leading zero omitted, Abs format (unit mm)*
G04 Created by KiCad (PCBNEW (5.0.0-rc2-63-gd4393b281)) date 06/20/18 09:41:05*
%MOMM*%
%LPD*%
G01*
G04 APERTURE LIST*
G04 #@! TA.AperFunction,ComponentPad*
%ADD10C,1.600000*%
G04 #@! TD*
G04 #@! TA.AperFunction,ComponentPad*
%ADD11R,1.600000X1.600000*%
G04 #@! TD*
G04 #@! TA.AperFunction,ComponentPad*
%ADD12C,1.800000*%
G04 #@! TD*
G04 #@! TA.AperFunction,ComponentPad*
%ADD13R,1.800000X1.800000*%
G04 #@! TD*
G04 #@! TA.AperFunction,ComponentPad*
%ADD14C,1.500000*%
G04 #@! TD*
G04 #@! TA.AperFunction,ComponentPad*
%ADD15O,1.600000X1.600000*%
G04 #@! TD*
G04 #@! TA.AperFunction,ComponentPad*
%ADD16R,1.750000X1.750000*%
G04 #@! TD*
G04 #@! TA.AperFunction,ComponentPad*
%ADD17C,1.750000*%
G04 #@! TD*
G04 #@! TA.AperFunction,ViaPad*
%ADD18C,0.800000*%
G04 #@! TD*
G04 #@! TA.AperFunction,Conductor*
%ADD19C,1.000000*%
G04 #@! TD*
G04 #@! TA.AperFunction,Conductor*
%ADD20C,0.400000*%
G04 #@! TD*
G04 #@! TA.AperFunction,Conductor*
%ADD21C,0.254000*%
G04 #@! TD*
G04 APERTURE END LIST*
D10*
G04 #@! TO.P,C1,2*
G04 #@! TO.N,GND*
X176276000Y-91647000D03*
G04 #@! TO.P,C1,1*
G04 #@! TO.N,/REF*
X176276000Y-96647000D03*
G04 #@! TD*
G04 #@! TO.P,C2,2*
G04 #@! TO.N,GND*
X155702000Y-92329000D03*
D11*
G04 #@! TO.P,C2,1*
G04 #@! TO.N,+5V*
X155702000Y-94329000D03*
G04 #@! TD*
D10*
G04 #@! TO.P,C4,1*
G04 #@! TO.N,+5V*
X160782000Y-95885000D03*
G04 #@! TO.P,C4,2*
G04 #@! TO.N,GND*
X160782000Y-90885000D03*
G04 #@! TD*
D12*
G04 #@! TO.P,D1,2*
G04 #@! TO.N,Net-(D1-Pad2)*
X114046000Y-108585000D03*
D13*
G04 #@! TO.P,D1,1*
G04 #@! TO.N,GND*
X111506000Y-108585000D03*
G04 #@! TD*
G04 #@! TO.P,D2,1*
G04 #@! TO.N,GND*
X152146000Y-108585000D03*
D12*
G04 #@! TO.P,D2,2*
G04 #@! TO.N,Net-(D2-Pad2)*
X154686000Y-108585000D03*
G04 #@! TD*
G04 #@! TO.P,D3,2*
G04 #@! TO.N,Net-(D3-Pad2)*
X124206000Y-108585000D03*
D13*
G04 #@! TO.P,D3,1*
G04 #@! TO.N,GND*
X121666000Y-108585000D03*
G04 #@! TD*
G04 #@! TO.P,D4,1*
G04 #@! TO.N,GND*
X162306000Y-108585000D03*
D12*
G04 #@! TO.P,D4,2*
G04 #@! TO.N,Net-(D4-Pad2)*
X164846000Y-108585000D03*
G04 #@! TD*
D13*
G04 #@! TO.P,D5,1*
G04 #@! TO.N,GND*
X131826000Y-108585000D03*
D12*
G04 #@! TO.P,D5,2*
G04 #@! TO.N,Net-(D5-Pad2)*
X134366000Y-108585000D03*
G04 #@! TD*
G04 #@! TO.P,D6,2*
G04 #@! TO.N,Net-(D6-Pad2)*
X175006000Y-108585000D03*
D13*
G04 #@! TO.P,D6,1*
G04 #@! TO.N,GND*
X172466000Y-108585000D03*
G04 #@! TD*
G04 #@! TO.P,D7,1*
G04 #@! TO.N,GND*
X141986000Y-108585000D03*
D12*
G04 #@! TO.P,D7,2*
G04 #@! TO.N,Net-(D7-Pad2)*
X144526000Y-108585000D03*
G04 #@! TD*
D13*
G04 #@! TO.P,D8,1*
G04 #@! TO.N,GND*
X182626000Y-108585000D03*
D12*
G04 #@! TO.P,D8,2*
G04 #@! TO.N,Net-(D8-Pad2)*
X185166000Y-108585000D03*
G04 #@! TD*
D14*
G04 #@! TO.P,J1,1*
G04 #@! TO.N,Net-(J1-Pad1)*
X179832000Y-91567000D03*
G04 #@! TD*
D13*
G04 #@! TO.P,Q1,1*
G04 #@! TO.N,GND*
X111506000Y-101981000D03*
D12*
G04 #@! TO.P,Q1,2*
G04 #@! TO.N,/CH0*
X114046000Y-101981000D03*
G04 #@! TD*
D13*
G04 #@! TO.P,Q2,1*
G04 #@! TO.N,GND*
X152146000Y-101981000D03*
D12*
G04 #@! TO.P,Q2,2*
G04 #@! TO.N,/CH4*
X154686000Y-101981000D03*
G04 #@! TD*
D13*
G04 #@! TO.P,Q3,1*
G04 #@! TO.N,GND*
X121666000Y-101981000D03*
D12*
G04 #@! TO.P,Q3,2*
G04 #@! TO.N,/CH1*
X124206000Y-101981000D03*
G04 #@! TD*
G04 #@! TO.P,Q5,2*
G04 #@! TO.N,/CH2*
X134366000Y-101981000D03*
D13*
G04 #@! TO.P,Q5,1*
G04 #@! TO.N,GND*
X131826000Y-101981000D03*
G04 #@! TD*
D12*
G04 #@! TO.P,Q6,2*
G04 #@! TO.N,/CH6*
X175006000Y-101981000D03*
D13*
G04 #@! TO.P,Q6,1*
G04 #@! TO.N,GND*
X172466000Y-101981000D03*
G04 #@! TD*
D12*
G04 #@! TO.P,Q7,2*
G04 #@! TO.N,/CH3*
X144526000Y-101981000D03*
D13*
G04 #@! TO.P,Q7,1*
G04 #@! TO.N,GND*
X141986000Y-101981000D03*
G04 #@! TD*
D12*
G04 #@! TO.P,Q8,2*
G04 #@! TO.N,/CH7*
X185166000Y-101981000D03*
D13*
G04 #@! TO.P,Q8,1*
G04 #@! TO.N,GND*
X182626000Y-101981000D03*
G04 #@! TD*
D10*
G04 #@! TO.P,R1,1*
G04 #@! TO.N,+5V*
X147066000Y-94107000D03*
D15*
G04 #@! TO.P,R1,2*
G04 #@! TO.N,/SDA*
X147066000Y-91567000D03*
G04 #@! TD*
D10*
G04 #@! TO.P,R2,1*
G04 #@! TO.N,+5V*
X150622000Y-94107000D03*
D15*
G04 #@! TO.P,R2,2*
G04 #@! TO.N,/SCL*
X150622000Y-91567000D03*
G04 #@! TD*
D10*
G04 #@! TO.P,R3,1*
G04 #@! TO.N,Net-(D1-Pad2)*
X117856000Y-109093000D03*
D15*
G04 #@! TO.P,R3,2*
G04 #@! TO.N,+5V*
X117856000Y-106553000D03*
G04 #@! TD*
G04 #@! TO.P,R4,2*
G04 #@! TO.N,+5V*
X117856000Y-104013000D03*
D10*
G04 #@! TO.P,R4,1*
G04 #@! TO.N,/CH0*
X117856000Y-101473000D03*
G04 #@! TD*
D15*
G04 #@! TO.P,R5,2*
G04 #@! TO.N,+5V*
X158496000Y-106553000D03*
D10*
G04 #@! TO.P,R5,1*
G04 #@! TO.N,Net-(D2-Pad2)*
X158496000Y-109093000D03*
G04 #@! TD*
D15*
G04 #@! TO.P,R6,2*
G04 #@! TO.N,+5V*
X158496000Y-104013000D03*
D10*
G04 #@! TO.P,R6,1*
G04 #@! TO.N,/CH4*
X158496000Y-101473000D03*
G04 #@! TD*
G04 #@! TO.P,R7,1*
G04 #@! TO.N,Net-(D3-Pad2)*
X128016000Y-109093000D03*
D15*
G04 #@! TO.P,R7,2*
G04 #@! TO.N,+5V*
X128016000Y-106553000D03*
G04 #@! TD*
G04 #@! TO.P,R8,2*
G04 #@! TO.N,+5V*
X128016000Y-104013000D03*
D10*
G04 #@! TO.P,R8,1*
G04 #@! TO.N,/CH1*
X128016000Y-101473000D03*
G04 #@! TD*
G04 #@! TO.P,R9,1*
G04 #@! TO.N,Net-(D4-Pad2)*
X168656000Y-109093000D03*
D15*
G04 #@! TO.P,R9,2*
G04 #@! TO.N,+5V*
X168656000Y-106553000D03*
G04 #@! TD*
G04 #@! TO.P,R10,2*
G04 #@! TO.N,+5V*
X168656000Y-104013000D03*
D10*
G04 #@! TO.P,R10,1*
G04 #@! TO.N,/CH5*
X168656000Y-101473000D03*
G04 #@! TD*
G04 #@! TO.P,R11,1*
G04 #@! TO.N,Net-(D5-Pad2)*
X138176000Y-109093000D03*
D15*
G04 #@! TO.P,R11,2*
G04 #@! TO.N,+5V*
X138176000Y-106553000D03*
G04 #@! TD*
G04 #@! TO.P,R12,2*
G04 #@! TO.N,+5V*
X138176000Y-104013000D03*
D10*
G04 #@! TO.P,R12,1*
G04 #@! TO.N,/CH2*
X138176000Y-101473000D03*
G04 #@! TD*
G04 #@! TO.P,R13,1*
G04 #@! TO.N,Net-(D6-Pad2)*
X178816000Y-109093000D03*
D15*
G04 #@! TO.P,R13,2*
G04 #@! TO.N,+5V*
X178816000Y-106553000D03*
G04 #@! TD*
G04 #@! TO.P,R14,2*
G04 #@! TO.N,+5V*
X178816000Y-104013000D03*
D10*
G04 #@! TO.P,R14,1*
G04 #@! TO.N,/CH6*
X178816000Y-101473000D03*
G04 #@! TD*
G04 #@! TO.P,R15,1*
G04 #@! TO.N,Net-(D7-Pad2)*
X148336000Y-109093000D03*
D15*
G04 #@! TO.P,R15,2*
G04 #@! TO.N,+5V*
X148336000Y-106553000D03*
G04 #@! TD*
G04 #@! TO.P,R16,2*
G04 #@! TO.N,+5V*
X148336000Y-104013000D03*
D10*
G04 #@! TO.P,R16,1*
G04 #@! TO.N,/CH3*
X148336000Y-101473000D03*
G04 #@! TD*
G04 #@! TO.P,R17,1*
G04 #@! TO.N,Net-(D8-Pad2)*
X188976000Y-109093000D03*
D15*
G04 #@! TO.P,R17,2*
G04 #@! TO.N,+5V*
X188976000Y-106553000D03*
G04 #@! TD*
D10*
G04 #@! TO.P,R18,1*
G04 #@! TO.N,/CH7*
X188976000Y-101473000D03*
D15*
G04 #@! TO.P,R18,2*
G04 #@! TO.N,+5V*
X188976000Y-104013000D03*
G04 #@! TD*
D16*
G04 #@! TO.P,J2,1*
G04 #@! TO.N,+5V*
X134620000Y-93853000D03*
D17*
G04 #@! TO.P,J2,2*
G04 #@! TO.N,/SCL*
X137120000Y-93853000D03*
G04 #@! TO.P,J2,3*
G04 #@! TO.N,/SDA*
X139620000Y-93853000D03*
G04 #@! TO.P,J2,4*
G04 #@! TO.N,GND*
X142120000Y-93853000D03*
G04 #@! TD*
G04 #@! TO.P,J3,4*
G04 #@! TO.N,GND*
X128404000Y-93853000D03*
G04 #@! TO.P,J3,3*
G04 #@! TO.N,/SDA*
X125904000Y-93853000D03*
G04 #@! TO.P,J3,2*
G04 #@! TO.N,/SCL*
X123404000Y-93853000D03*
D16*
G04 #@! TO.P,J3,1*
G04 #@! TO.N,+5V*
X120904000Y-93853000D03*
G04 #@! TD*
D12*
G04 #@! TO.P,Q4,2*
G04 #@! TO.N,/CH5*
X164846000Y-101981000D03*
D13*
G04 #@! TO.P,Q4,1*
G04 #@! TO.N,GND*
X162306000Y-101981000D03*
G04 #@! TD*
D18*
G04 #@! TO.N,GND*
X172212000Y-93853000D03*
X167894000Y-92545000D03*
X167894000Y-95123000D03*
G04 #@! TO.N,+5V*
X181356000Y-97916998D03*
G04 #@! TD*
D19*
G04 #@! TO.N,+5V*
X119888000Y-101981000D02*
X117856000Y-104013000D01*
X119888000Y-96744000D02*
X119888000Y-101981000D01*
X120904000Y-93853000D02*
X120904000Y-95728000D01*
X132745000Y-93853000D02*
X134620000Y-93853000D01*
X130362000Y-96236000D02*
X132745000Y-93853000D01*
X120396000Y-96236000D02*
X130362000Y-96236000D01*
X120396000Y-96236000D02*
X119888000Y-96744000D01*
X120904000Y-95728000D02*
X120396000Y-96236000D01*
X144937000Y-96236000D02*
X147066000Y-94107000D01*
X130362000Y-96236000D02*
X144937000Y-96236000D01*
X147066000Y-94107000D02*
X150622000Y-94107000D01*
X150844000Y-94329000D02*
X150622000Y-94107000D01*
X155702000Y-94329000D02*
X150844000Y-94329000D01*
X157258000Y-95885000D02*
X155702000Y-94329000D01*
X160782000Y-95885000D02*
X157258000Y-95885000D01*
D20*
X180956001Y-98316997D02*
X181356000Y-97916998D01*
X180848000Y-98424998D02*
X180956001Y-98316997D01*
X178816000Y-104013000D02*
X180848000Y-101981000D01*
X180848000Y-101981000D02*
X180848000Y-98424998D01*
G04 #@! TO.N,/SCL*
X137994999Y-92978001D02*
X137120000Y-93853000D01*
X141438000Y-89535000D02*
X137994999Y-92978001D01*
X150622000Y-91567000D02*
X148590000Y-89535000D01*
X148590000Y-89535000D02*
X141438000Y-89535000D01*
G04 #@! TD*
D21*
G04 #@! TO.N,GND*
G36*
X190806000Y-111939000D02*
X109422000Y-111939000D01*
X109422000Y-108870750D01*
X109971000Y-108870750D01*
X109971000Y-109611310D01*
X110067673Y-109844699D01*
X110246302Y-110023327D01*
X110479691Y-110120000D01*
X111220250Y-110120000D01*
X111379000Y-109961250D01*
X111379000Y-108712000D01*
X110129750Y-108712000D01*
X109971000Y-108870750D01*
X109422000Y-108870750D01*
X109422000Y-107558690D01*
X109971000Y-107558690D01*
X109971000Y-108299250D01*
X110129750Y-108458000D01*
X111379000Y-108458000D01*
X111379000Y-107208750D01*
X111633000Y-107208750D01*
X111633000Y-108458000D01*
X111653000Y-108458000D01*
X111653000Y-108712000D01*
X111633000Y-108712000D01*
X111633000Y-109961250D01*
X111791750Y-110120000D01*
X112532309Y-110120000D01*
X112765698Y-110023327D01*
X112944327Y-109844699D01*
X113000139Y-109709956D01*
X113176493Y-109886310D01*
X113740670Y-110120000D01*
X114351330Y-110120000D01*
X114915507Y-109886310D01*
X115347310Y-109454507D01*
X115581000Y-108890330D01*
X115581000Y-108279670D01*
X115347310Y-107715493D01*
X114915507Y-107283690D01*
X114351330Y-107050000D01*
X113740670Y-107050000D01*
X113176493Y-107283690D01*
X113000139Y-107460044D01*
X112944327Y-107325301D01*
X112765698Y-107146673D01*
X112532309Y-107050000D01*
X111791750Y-107050000D01*
X111633000Y-107208750D01*
X111379000Y-107208750D01*
X111220250Y-107050000D01*
X110479691Y-107050000D01*
X110246302Y-107146673D01*
X110067673Y-107325301D01*
X109971000Y-107558690D01*
X109422000Y-107558690D01*
X109422000Y-104013000D01*
X116392887Y-104013000D01*
X116504260Y-104572909D01*
X116821423Y-105047577D01*
X117173758Y-105283000D01*
X116821423Y-105518423D01*
X116504260Y-105993091D01*
X116392887Y-106553000D01*
X116504260Y-107112909D01*
X116821423Y-107587577D01*
X117173168Y-107822606D01*
X117043138Y-107876466D01*
X116639466Y-108280138D01*
X116421000Y-108807561D01*
X116421000Y-109378439D01*
X116639466Y-109905862D01*
X117043138Y-110309534D01*
X117570561Y-110528000D01*
X118141439Y-110528000D01*
X118668862Y-110309534D01*
X119072534Y-109905862D01*
X119291000Y-109378439D01*
X119291000Y-108870750D01*
X120131000Y-108870750D01*
X120131000Y-109611310D01*
X120227673Y-109844699D01*
X120406302Y-110023327D01*
X120639691Y-110120000D01*
X121380250Y-110120000D01*
X121539000Y-109961250D01*
X121539000Y-108712000D01*
X120289750Y-108712000D01*
X120131000Y-108870750D01*
X119291000Y-108870750D01*
X119291000Y-108807561D01*
X119072534Y-108280138D01*
X118668862Y-107876466D01*
X118538832Y-107822606D01*
X118890577Y-107587577D01*
X118909878Y-107558690D01*
X120131000Y-107558690D01*
X120131000Y-108299250D01*
X120289750Y-108458000D01*
X121539000Y-108458000D01*
X121539000Y-107208750D01*
X121793000Y-107208750D01*
X121793000Y-108458000D01*
X121813000Y-108458000D01*
X121813000Y-108712000D01*
X121793000Y-108712000D01*
X121793000Y-109961250D01*
X121951750Y-110120000D01*
X122692309Y-110120000D01*
X122925698Y-110023327D01*
X123104327Y-109844699D01*
X123160139Y-109709956D01*
X123336493Y-109886310D01*
X123900670Y-110120000D01*
X124511330Y-110120000D01*
X125075507Y-109886310D01*
X125507310Y-109454507D01*
X125741000Y-108890330D01*
X125741000Y-108279670D01*
X125507310Y-107715493D01*
X125075507Y-107283690D01*
X124511330Y-107050000D01*
X123900670Y-107050000D01*
X123336493Y-107283690D01*
X123160139Y-107460044D01*
X123104327Y-107325301D01*
X122925698Y-107146673D01*
X122692309Y-107050000D01*
X121951750Y-107050000D01*
X121793000Y-107208750D01*
X121539000Y-107208750D01*
X121380250Y-107050000D01*
X120639691Y-107050000D01*
X120406302Y-107146673D01*
X120227673Y-107325301D01*
X120131000Y-107558690D01*
X118909878Y-107558690D01*
X119207740Y-107112909D01*
X119319113Y-106553000D01*
X119207740Y-105993091D01*
X118890577Y-105518423D01*
X118538242Y-105283000D01*
X118890577Y-105047577D01*
X119207740Y-104572909D01*
X119283849Y-104190282D01*
X119461131Y-104013000D01*
X126552887Y-104013000D01*
X126664260Y-104572909D01*
X126981423Y-105047577D01*
X127333758Y-105283000D01*
X126981423Y-105518423D01*
X126664260Y-105993091D01*
X126552887Y-106553000D01*
X126664260Y-107112909D01*
X126981423Y-107587577D01*
X127333168Y-107822606D01*
X127203138Y-107876466D01*
X126799466Y-108280138D01*
X126581000Y-108807561D01*
X126581000Y-109378439D01*
X126799466Y-109905862D01*
X127203138Y-110309534D01*
X127730561Y-110528000D01*
X128301439Y-110528000D01*
X128828862Y-110309534D01*
X129232534Y-109905862D01*
X129451000Y-109378439D01*
X129451000Y-108870750D01*
X130291000Y-108870750D01*
X130291000Y-109611310D01*
X130387673Y-109844699D01*
X130566302Y-110023327D01*
X130799691Y-110120000D01*
X131540250Y-110120000D01*
X131699000Y-109961250D01*
X131699000Y-108712000D01*
X130449750Y-108712000D01*
X130291000Y-108870750D01*
X129451000Y-108870750D01*
X129451000Y-108807561D01*
X129232534Y-108280138D01*
X128828862Y-107876466D01*
X128698832Y-107822606D01*
X129050577Y-107587577D01*
X129069878Y-107558690D01*
X130291000Y-107558690D01*
X130291000Y-108299250D01*
X130449750Y-108458000D01*
X131699000Y-108458000D01*
X131699000Y-107208750D01*
X131953000Y-107208750D01*
X131953000Y-108458000D01*
X131973000Y-108458000D01*
X131973000Y-108712000D01*
X131953000Y-108712000D01*
X131953000Y-109961250D01*
X132111750Y-110120000D01*
X132852309Y-110120000D01*
X133085698Y-110023327D01*
X133264327Y-109844699D01*
X133320139Y-109709956D01*
X133496493Y-109886310D01*
X134060670Y-110120000D01*
X134671330Y-110120000D01*
X135235507Y-109886310D01*
X135667310Y-109454507D01*
X135901000Y-108890330D01*
X135901000Y-108279670D01*
X135667310Y-107715493D01*
X135235507Y-107283690D01*
X134671330Y-107050000D01*
X134060670Y-107050000D01*
X133496493Y-107283690D01*
X133320139Y-107460044D01*
X133264327Y-107325301D01*
X133085698Y-107146673D01*
X132852309Y-107050000D01*
X132111750Y-107050000D01*
X131953000Y-107208750D01*
X131699000Y-107208750D01*
X131540250Y-107050000D01*
X130799691Y-107050000D01*
X130566302Y-107146673D01*
X130387673Y-107325301D01*
X130291000Y-107558690D01*
X129069878Y-107558690D01*
X129367740Y-107112909D01*
X129479113Y-106553000D01*
X129367740Y-105993091D01*
X129050577Y-105518423D01*
X128698242Y-105283000D01*
X129050577Y-105047577D01*
X129367740Y-104572909D01*
X129479113Y-104013000D01*
X136712887Y-104013000D01*
X136824260Y-104572909D01*
X137141423Y-105047577D01*
X137493758Y-105283000D01*
X137141423Y-105518423D01*
X136824260Y-105993091D01*
X136712887Y-106553000D01*
X136824260Y-107112909D01*
X137141423Y-107587577D01*
X137493168Y-107822606D01*
X137363138Y-107876466D01*
X136959466Y-108280138D01*
X136741000Y-108807561D01*
X136741000Y-109378439D01*
X136959466Y-109905862D01*
X137363138Y-110309534D01*
X137890561Y-110528000D01*
X138461439Y-110528000D01*
X138988862Y-110309534D01*
X139392534Y-109905862D01*
X139611000Y-109378439D01*
X139611000Y-108870750D01*
X140451000Y-108870750D01*
X140451000Y-109611310D01*
X140547673Y-109844699D01*
X140726302Y-110023327D01*
X140959691Y-110120000D01*
X141700250Y-110120000D01*
X141859000Y-109961250D01*
X141859000Y-108712000D01*
X140609750Y-108712000D01*
X140451000Y-108870750D01*
X139611000Y-108870750D01*
X139611000Y-108807561D01*
X139392534Y-108280138D01*
X138988862Y-107876466D01*
X138858832Y-107822606D01*
X139210577Y-107587577D01*
X139229878Y-107558690D01*
X140451000Y-107558690D01*
X140451000Y-108299250D01*
X140609750Y-108458000D01*
X141859000Y-108458000D01*
X141859000Y-107208750D01*
X142113000Y-107208750D01*
X142113000Y-108458000D01*
X142133000Y-108458000D01*
X142133000Y-108712000D01*
X142113000Y-108712000D01*
X142113000Y-109961250D01*
X142271750Y-110120000D01*
X143012309Y-110120000D01*
X143245698Y-110023327D01*
X143424327Y-109844699D01*
X143480139Y-109709956D01*
X143656493Y-109886310D01*
X144220670Y-110120000D01*
X144831330Y-110120000D01*
X145395507Y-109886310D01*
X145827310Y-109454507D01*
X146061000Y-108890330D01*
X146061000Y-108279670D01*
X145827310Y-107715493D01*
X145395507Y-107283690D01*
X144831330Y-107050000D01*
X144220670Y-107050000D01*
X143656493Y-107283690D01*
X143480139Y-107460044D01*
X143424327Y-107325301D01*
X143245698Y-107146673D01*
X143012309Y-107050000D01*
X142271750Y-107050000D01*
X142113000Y-107208750D01*
X141859000Y-107208750D01*
X141700250Y-107050000D01*
X140959691Y-107050000D01*
X140726302Y-107146673D01*
X140547673Y-107325301D01*
X140451000Y-107558690D01*
X139229878Y-107558690D01*
X139527740Y-107112909D01*
X139639113Y-106553000D01*
X139527740Y-105993091D01*
X139210577Y-105518423D01*
X138858242Y-105283000D01*
X139210577Y-105047577D01*
X139527740Y-104572909D01*
X139639113Y-104013000D01*
X146872887Y-104013000D01*
X146984260Y-104572909D01*
X147301423Y-105047577D01*
X147653758Y-105283000D01*
X147301423Y-105518423D01*
X146984260Y-105993091D01*
X146872887Y-106553000D01*
X146984260Y-107112909D01*
X147301423Y-107587577D01*
X147653168Y-107822606D01*
X147523138Y-107876466D01*
X147119466Y-108280138D01*
X146901000Y-108807561D01*
X146901000Y-109378439D01*
X147119466Y-109905862D01*
X147523138Y-110309534D01*
X148050561Y-110528000D01*
X148621439Y-110528000D01*
X149148862Y-110309534D01*
X149552534Y-109905862D01*
X149771000Y-109378439D01*
X149771000Y-108870750D01*
X150611000Y-108870750D01*
X150611000Y-109611310D01*
X150707673Y-109844699D01*
X150886302Y-110023327D01*
X151119691Y-110120000D01*
X151860250Y-110120000D01*
X152019000Y-109961250D01*
X152019000Y-108712000D01*
X150769750Y-108712000D01*
X150611000Y-108870750D01*
X149771000Y-108870750D01*
X149771000Y-108807561D01*
X149552534Y-108280138D01*
X149148862Y-107876466D01*
X149018832Y-107822606D01*
X149370577Y-107587577D01*
X149389878Y-107558690D01*
X150611000Y-107558690D01*
X150611000Y-108299250D01*
X150769750Y-108458000D01*
X152019000Y-108458000D01*
X152019000Y-107208750D01*
X152273000Y-107208750D01*
X152273000Y-108458000D01*
X152293000Y-108458000D01*
X152293000Y-108712000D01*
X152273000Y-108712000D01*
X152273000Y-109961250D01*
X152431750Y-110120000D01*
X153172309Y-110120000D01*
X153405698Y-110023327D01*
X153584327Y-109844699D01*
X153640139Y-109709956D01*
X153816493Y-109886310D01*
X154380670Y-110120000D01*
X154991330Y-110120000D01*
X155555507Y-109886310D01*
X155987310Y-109454507D01*
X156221000Y-108890330D01*
X156221000Y-108279670D01*
X155987310Y-107715493D01*
X155555507Y-107283690D01*
X154991330Y-107050000D01*
X154380670Y-107050000D01*
X153816493Y-107283690D01*
X153640139Y-107460044D01*
X153584327Y-107325301D01*
X153405698Y-107146673D01*
X153172309Y-107050000D01*
X152431750Y-107050000D01*
X152273000Y-107208750D01*
X152019000Y-107208750D01*
X151860250Y-107050000D01*
X151119691Y-107050000D01*
X150886302Y-107146673D01*
X150707673Y-107325301D01*
X150611000Y-107558690D01*
X149389878Y-107558690D01*
X149687740Y-107112909D01*
X149799113Y-106553000D01*
X149687740Y-105993091D01*
X149370577Y-105518423D01*
X149018242Y-105283000D01*
X149370577Y-105047577D01*
X149687740Y-104572909D01*
X149799113Y-104013000D01*
X157032887Y-104013000D01*
X157144260Y-104572909D01*
X157461423Y-105047577D01*
X157813758Y-105283000D01*
X157461423Y-105518423D01*
X157144260Y-105993091D01*
X157032887Y-106553000D01*
X157144260Y-107112909D01*
X157461423Y-107587577D01*
X157813168Y-107822606D01*
X157683138Y-107876466D01*
X157279466Y-108280138D01*
X157061000Y-108807561D01*
X157061000Y-109378439D01*
X157279466Y-109905862D01*
X157683138Y-110309534D01*
X158210561Y-110528000D01*
X158781439Y-110528000D01*
X159308862Y-110309534D01*
X159712534Y-109905862D01*
X159931000Y-109378439D01*
X159931000Y-108870750D01*
X160771000Y-108870750D01*
X160771000Y-109611310D01*
X160867673Y-109844699D01*
X161046302Y-110023327D01*
X161279691Y-110120000D01*
X162020250Y-110120000D01*
X162179000Y-109961250D01*
X162179000Y-108712000D01*
X160929750Y-108712000D01*
X160771000Y-108870750D01*
X159931000Y-108870750D01*
X159931000Y-108807561D01*
X159712534Y-108280138D01*
X159308862Y-107876466D01*
X159178832Y-107822606D01*
X159530577Y-107587577D01*
X159549878Y-107558690D01*
X160771000Y-107558690D01*
X160771000Y-108299250D01*
X160929750Y-108458000D01*
X162179000Y-108458000D01*
X162179000Y-107208750D01*
X162433000Y-107208750D01*
X162433000Y-108458000D01*
X162453000Y-108458000D01*
X162453000Y-108712000D01*
X162433000Y-108712000D01*
X162433000Y-109961250D01*
X162591750Y-110120000D01*
X163332309Y-110120000D01*
X163565698Y-110023327D01*
X163744327Y-109844699D01*
X163800139Y-109709956D01*
X163976493Y-109886310D01*
X164540670Y-110120000D01*
X165151330Y-110120000D01*
X165715507Y-109886310D01*
X166147310Y-109454507D01*
X166381000Y-108890330D01*
X166381000Y-108279670D01*
X166147310Y-107715493D01*
X165715507Y-107283690D01*
X165151330Y-107050000D01*
X164540670Y-107050000D01*
X163976493Y-107283690D01*
X163800139Y-107460044D01*
X163744327Y-107325301D01*
X163565698Y-107146673D01*
X163332309Y-107050000D01*
X162591750Y-107050000D01*
X162433000Y-107208750D01*
X162179000Y-107208750D01*
X162020250Y-107050000D01*
X161279691Y-107050000D01*
X161046302Y-107146673D01*
X160867673Y-107325301D01*
X160771000Y-107558690D01*
X159549878Y-107558690D01*
X159847740Y-107112909D01*
X159959113Y-106553000D01*
X159847740Y-105993091D01*
X159530577Y-105518423D01*
X159178242Y-105283000D01*
X159530577Y-105047577D01*
X159847740Y-104572909D01*
X159959113Y-104013000D01*
X167192887Y-104013000D01*
X167304260Y-104572909D01*
X167621423Y-105047577D01*
X167973758Y-105283000D01*
X167621423Y-105518423D01*
X167304260Y-105993091D01*
X167192887Y-106553000D01*
X167304260Y-107112909D01*
X167621423Y-107587577D01*
X167973168Y-107822606D01*
X167843138Y-107876466D01*
X167439466Y-108280138D01*
X167221000Y-108807561D01*
X167221000Y-109378439D01*
X167439466Y-109905862D01*
X167843138Y-110309534D01*
X168370561Y-110528000D01*
X168941439Y-110528000D01*
X169468862Y-110309534D01*
X169872534Y-109905862D01*
X170091000Y-109378439D01*
X170091000Y-108870750D01*
X170931000Y-108870750D01*
X170931000Y-109611310D01*
X171027673Y-109844699D01*
X171206302Y-110023327D01*
X171439691Y-110120000D01*
X172180250Y-110120000D01*
X172339000Y-109961250D01*
X172339000Y-108712000D01*
X171089750Y-108712000D01*
X170931000Y-108870750D01*
X170091000Y-108870750D01*
X170091000Y-108807561D01*
X169872534Y-108280138D01*
X169468862Y-107876466D01*
X169338832Y-107822606D01*
X169690577Y-107587577D01*
X169709878Y-107558690D01*
X170931000Y-107558690D01*
X170931000Y-108299250D01*
X171089750Y-108458000D01*
X172339000Y-108458000D01*
X172339000Y-107208750D01*
X172593000Y-107208750D01*
X172593000Y-108458000D01*
X172613000Y-108458000D01*
X172613000Y-108712000D01*
X172593000Y-108712000D01*
X172593000Y-109961250D01*
X172751750Y-110120000D01*
X173492309Y-110120000D01*
X173725698Y-110023327D01*
X173904327Y-109844699D01*
X173960139Y-109709956D01*
X174136493Y-109886310D01*
X174700670Y-110120000D01*
X175311330Y-110120000D01*
X175875507Y-109886310D01*
X176307310Y-109454507D01*
X176541000Y-108890330D01*
X176541000Y-108279670D01*
X176307310Y-107715493D01*
X175875507Y-107283690D01*
X175311330Y-107050000D01*
X174700670Y-107050000D01*
X174136493Y-107283690D01*
X173960139Y-107460044D01*
X173904327Y-107325301D01*
X173725698Y-107146673D01*
X173492309Y-107050000D01*
X172751750Y-107050000D01*
X172593000Y-107208750D01*
X172339000Y-107208750D01*
X172180250Y-107050000D01*
X171439691Y-107050000D01*
X171206302Y-107146673D01*
X171027673Y-107325301D01*
X170931000Y-107558690D01*
X169709878Y-107558690D01*
X170007740Y-107112909D01*
X170119113Y-106553000D01*
X170007740Y-105993091D01*
X169690577Y-105518423D01*
X169338242Y-105283000D01*
X169690577Y-105047577D01*
X170007740Y-104572909D01*
X170119113Y-104013000D01*
X177352887Y-104013000D01*
X177464260Y-104572909D01*
X177781423Y-105047577D01*
X178133758Y-105283000D01*
X177781423Y-105518423D01*
X177464260Y-105993091D01*
X177352887Y-106553000D01*
X177464260Y-107112909D01*
X177781423Y-107587577D01*
X178133168Y-107822606D01*
X178003138Y-107876466D01*
X177599466Y-108280138D01*
X177381000Y-108807561D01*
X177381000Y-109378439D01*
X177599466Y-109905862D01*
X178003138Y-110309534D01*
X178530561Y-110528000D01*
X179101439Y-110528000D01*
X179628862Y-110309534D01*
X180032534Y-109905862D01*
X180251000Y-109378439D01*
X180251000Y-108870750D01*
X181091000Y-108870750D01*
X181091000Y-109611310D01*
X181187673Y-109844699D01*
X181366302Y-110023327D01*
X181599691Y-110120000D01*
X182340250Y-110120000D01*
X182499000Y-109961250D01*
X182499000Y-108712000D01*
X181249750Y-108712000D01*
X181091000Y-108870750D01*
X180251000Y-108870750D01*
X180251000Y-108807561D01*
X180032534Y-108280138D01*
X179628862Y-107876466D01*
X179498832Y-107822606D01*
X179850577Y-107587577D01*
X179869878Y-107558690D01*
X181091000Y-107558690D01*
X181091000Y-108299250D01*
X181249750Y-108458000D01*
X182499000Y-108458000D01*
X182499000Y-107208750D01*
X182753000Y-107208750D01*
X182753000Y-108458000D01*
X182773000Y-108458000D01*
X182773000Y-108712000D01*
X182753000Y-108712000D01*
X182753000Y-109961250D01*
X182911750Y-110120000D01*
X183652309Y-110120000D01*
X183885698Y-110023327D01*
X184064327Y-109844699D01*
X184120139Y-109709956D01*
X184296493Y-109886310D01*
X184860670Y-110120000D01*
X185471330Y-110120000D01*
X186035507Y-109886310D01*
X186467310Y-109454507D01*
X186701000Y-108890330D01*
X186701000Y-108279670D01*
X186467310Y-107715493D01*
X186035507Y-107283690D01*
X185471330Y-107050000D01*
X184860670Y-107050000D01*
X184296493Y-107283690D01*
X184120139Y-107460044D01*
X184064327Y-107325301D01*
X183885698Y-107146673D01*
X183652309Y-107050000D01*
X182911750Y-107050000D01*
X182753000Y-107208750D01*
X182499000Y-107208750D01*
X182340250Y-107050000D01*
X181599691Y-107050000D01*
X181366302Y-107146673D01*
X181187673Y-107325301D01*
X181091000Y-107558690D01*
X179869878Y-107558690D01*
X180167740Y-107112909D01*
X180279113Y-106553000D01*
X180167740Y-105993091D01*
X179850577Y-105518423D01*
X179498242Y-105283000D01*
X179850577Y-105047577D01*
X180167740Y-104572909D01*
X180279113Y-104013000D01*
X187512887Y-104013000D01*
X187624260Y-104572909D01*
X187941423Y-105047577D01*
X188293758Y-105283000D01*
X187941423Y-105518423D01*
X187624260Y-105993091D01*
X187512887Y-106553000D01*
X187624260Y-107112909D01*
X187941423Y-107587577D01*
X188293168Y-107822606D01*
X188163138Y-107876466D01*
X187759466Y-108280138D01*
X187541000Y-108807561D01*
X187541000Y-109378439D01*
X187759466Y-109905862D01*
X188163138Y-110309534D01*
X188690561Y-110528000D01*
X189261439Y-110528000D01*
X189788862Y-110309534D01*
X190192534Y-109905862D01*
X190411000Y-109378439D01*
X190411000Y-108807561D01*
X190192534Y-108280138D01*
X189788862Y-107876466D01*
X189658832Y-107822606D01*
X190010577Y-107587577D01*
X190327740Y-107112909D01*
X190439113Y-106553000D01*
X190327740Y-105993091D01*
X190010577Y-105518423D01*
X189658242Y-105283000D01*
X190010577Y-105047577D01*
X190327740Y-104572909D01*
X190439113Y-104013000D01*
X190327740Y-103453091D01*
X190010577Y-102978423D01*
X189658832Y-102743394D01*
X189788862Y-102689534D01*
X190192534Y-102285862D01*
X190411000Y-101758439D01*
X190411000Y-101187561D01*
X190192534Y-100660138D01*
X189788862Y-100256466D01*
X189261439Y-100038000D01*
X188690561Y-100038000D01*
X188163138Y-100256466D01*
X187759466Y-100660138D01*
X187541000Y-101187561D01*
X187541000Y-101758439D01*
X187759466Y-102285862D01*
X188163138Y-102689534D01*
X188293168Y-102743394D01*
X187941423Y-102978423D01*
X187624260Y-103453091D01*
X187512887Y-104013000D01*
X180279113Y-104013000D01*
X180232285Y-103777582D01*
X181091000Y-102918868D01*
X181091000Y-103007310D01*
X181187673Y-103240699D01*
X181366302Y-103419327D01*
X181599691Y-103516000D01*
X182340250Y-103516000D01*
X182499000Y-103357250D01*
X182499000Y-102108000D01*
X182479000Y-102108000D01*
X182479000Y-101854000D01*
X182499000Y-101854000D01*
X182499000Y-100604750D01*
X182753000Y-100604750D01*
X182753000Y-101854000D01*
X182773000Y-101854000D01*
X182773000Y-102108000D01*
X182753000Y-102108000D01*
X182753000Y-103357250D01*
X182911750Y-103516000D01*
X183652309Y-103516000D01*
X183885698Y-103419327D01*
X184064327Y-103240699D01*
X184120139Y-103105956D01*
X184296493Y-103282310D01*
X184860670Y-103516000D01*
X185471330Y-103516000D01*
X186035507Y-103282310D01*
X186467310Y-102850507D01*
X186701000Y-102286330D01*
X186701000Y-101675670D01*
X186467310Y-101111493D01*
X186035507Y-100679690D01*
X185471330Y-100446000D01*
X184860670Y-100446000D01*
X184296493Y-100679690D01*
X184120139Y-100856044D01*
X184064327Y-100721301D01*
X183885698Y-100542673D01*
X183652309Y-100446000D01*
X182911750Y-100446000D01*
X182753000Y-100604750D01*
X182499000Y-100604750D01*
X182340250Y-100446000D01*
X181683000Y-100446000D01*
X181683000Y-98901826D01*
X181942280Y-98794429D01*
X182233431Y-98503278D01*
X182391000Y-98122872D01*
X182391000Y-97711124D01*
X182233431Y-97330718D01*
X181942280Y-97039567D01*
X181561874Y-96881998D01*
X181150126Y-96881998D01*
X180769720Y-97039567D01*
X180478569Y-97330718D01*
X180321000Y-97711124D01*
X180321000Y-97771130D01*
X180315717Y-97776414D01*
X180246000Y-97822997D01*
X180199416Y-97892715D01*
X180061448Y-98099198D01*
X179996643Y-98424998D01*
X180013001Y-98507236D01*
X180013000Y-100640604D01*
X179628862Y-100256466D01*
X179101439Y-100038000D01*
X178530561Y-100038000D01*
X178003138Y-100256466D01*
X177599466Y-100660138D01*
X177381000Y-101187561D01*
X177381000Y-101758439D01*
X177599466Y-102285862D01*
X178003138Y-102689534D01*
X178133168Y-102743394D01*
X177781423Y-102978423D01*
X177464260Y-103453091D01*
X177352887Y-104013000D01*
X170119113Y-104013000D01*
X170007740Y-103453091D01*
X169690577Y-102978423D01*
X169338832Y-102743394D01*
X169468862Y-102689534D01*
X169872534Y-102285862D01*
X169880450Y-102266750D01*
X170931000Y-102266750D01*
X170931000Y-103007310D01*
X171027673Y-103240699D01*
X171206302Y-103419327D01*
X171439691Y-103516000D01*
X172180250Y-103516000D01*
X172339000Y-103357250D01*
X172339000Y-102108000D01*
X171089750Y-102108000D01*
X170931000Y-102266750D01*
X169880450Y-102266750D01*
X170091000Y-101758439D01*
X170091000Y-101187561D01*
X169994542Y-100954690D01*
X170931000Y-100954690D01*
X170931000Y-101695250D01*
X171089750Y-101854000D01*
X172339000Y-101854000D01*
X172339000Y-100604750D01*
X172593000Y-100604750D01*
X172593000Y-101854000D01*
X172613000Y-101854000D01*
X172613000Y-102108000D01*
X172593000Y-102108000D01*
X172593000Y-103357250D01*
X172751750Y-103516000D01*
X173492309Y-103516000D01*
X173725698Y-103419327D01*
X173904327Y-103240699D01*
X173960139Y-103105956D01*
X174136493Y-103282310D01*
X174700670Y-103516000D01*
X175311330Y-103516000D01*
X175875507Y-103282310D01*
X176307310Y-102850507D01*
X176541000Y-102286330D01*
X176541000Y-101675670D01*
X176307310Y-101111493D01*
X175875507Y-100679690D01*
X175311330Y-100446000D01*
X174700670Y-100446000D01*
X174136493Y-100679690D01*
X173960139Y-100856044D01*
X173904327Y-100721301D01*
X173725698Y-100542673D01*
X173492309Y-100446000D01*
X172751750Y-100446000D01*
X172593000Y-100604750D01*
X172339000Y-100604750D01*
X172180250Y-100446000D01*
X171439691Y-100446000D01*
X171206302Y-100542673D01*
X171027673Y-100721301D01*
X170931000Y-100954690D01*
X169994542Y-100954690D01*
X169872534Y-100660138D01*
X169468862Y-100256466D01*
X168941439Y-100038000D01*
X168370561Y-100038000D01*
X167843138Y-100256466D01*
X167439466Y-100660138D01*
X167221000Y-101187561D01*
X167221000Y-101758439D01*
X167439466Y-102285862D01*
X167843138Y-102689534D01*
X167973168Y-102743394D01*
X167621423Y-102978423D01*
X167304260Y-103453091D01*
X167192887Y-104013000D01*
X159959113Y-104013000D01*
X159847740Y-103453091D01*
X159530577Y-102978423D01*
X159178832Y-102743394D01*
X159308862Y-102689534D01*
X159712534Y-102285862D01*
X159720450Y-102266750D01*
X160771000Y-102266750D01*
X160771000Y-103007310D01*
X160867673Y-103240699D01*
X161046302Y-103419327D01*
X161279691Y-103516000D01*
X162020250Y-103516000D01*
X162179000Y-103357250D01*
X162179000Y-102108000D01*
X160929750Y-102108000D01*
X160771000Y-102266750D01*
X159720450Y-102266750D01*
X159931000Y-101758439D01*
X159931000Y-101187561D01*
X159834542Y-100954690D01*
X160771000Y-100954690D01*
X160771000Y-101695250D01*
X160929750Y-101854000D01*
X162179000Y-101854000D01*
X162179000Y-100604750D01*
X162433000Y-100604750D01*
X162433000Y-101854000D01*
X162453000Y-101854000D01*
X162453000Y-102108000D01*
X162433000Y-102108000D01*
X162433000Y-103357250D01*
X162591750Y-103516000D01*
X163332309Y-103516000D01*
X163565698Y-103419327D01*
X163744327Y-103240699D01*
X163800139Y-103105956D01*
X163976493Y-103282310D01*
X164540670Y-103516000D01*
X165151330Y-103516000D01*
X165715507Y-103282310D01*
X166147310Y-102850507D01*
X166381000Y-102286330D01*
X166381000Y-101675670D01*
X166147310Y-101111493D01*
X165715507Y-100679690D01*
X165151330Y-100446000D01*
X164540670Y-100446000D01*
X163976493Y-100679690D01*
X163800139Y-100856044D01*
X163744327Y-100721301D01*
X163565698Y-100542673D01*
X163332309Y-100446000D01*
X162591750Y-100446000D01*
X162433000Y-100604750D01*
X162179000Y-100604750D01*
X162020250Y-100446000D01*
X161279691Y-100446000D01*
X161046302Y-100542673D01*
X160867673Y-100721301D01*
X160771000Y-100954690D01*
X159834542Y-100954690D01*
X159712534Y-100660138D01*
X159308862Y-100256466D01*
X158781439Y-100038000D01*
X158210561Y-100038000D01*
X157683138Y-100256466D01*
X157279466Y-100660138D01*
X157061000Y-101187561D01*
X157061000Y-101758439D01*
X157279466Y-102285862D01*
X157683138Y-102689534D01*
X157813168Y-102743394D01*
X157461423Y-102978423D01*
X157144260Y-103453091D01*
X157032887Y-104013000D01*
X149799113Y-104013000D01*
X149687740Y-103453091D01*
X149370577Y-102978423D01*
X149018832Y-102743394D01*
X149148862Y-102689534D01*
X149552534Y-102285862D01*
X149560450Y-102266750D01*
X150611000Y-102266750D01*
X150611000Y-103007310D01*
X150707673Y-103240699D01*
X150886302Y-103419327D01*
X151119691Y-103516000D01*
X151860250Y-103516000D01*
X152019000Y-103357250D01*
X152019000Y-102108000D01*
X150769750Y-102108000D01*
X150611000Y-102266750D01*
X149560450Y-102266750D01*
X149771000Y-101758439D01*
X149771000Y-101187561D01*
X149674542Y-100954690D01*
X150611000Y-100954690D01*
X150611000Y-101695250D01*
X150769750Y-101854000D01*
X152019000Y-101854000D01*
X152019000Y-100604750D01*
X152273000Y-100604750D01*
X152273000Y-101854000D01*
X152293000Y-101854000D01*
X152293000Y-102108000D01*
X152273000Y-102108000D01*
X152273000Y-103357250D01*
X152431750Y-103516000D01*
X153172309Y-103516000D01*
X153405698Y-103419327D01*
X153584327Y-103240699D01*
X153640139Y-103105956D01*
X153816493Y-103282310D01*
X154380670Y-103516000D01*
X154991330Y-103516000D01*
X155555507Y-103282310D01*
X155987310Y-102850507D01*
X156221000Y-102286330D01*
X156221000Y-101675670D01*
X155987310Y-101111493D01*
X155555507Y-100679690D01*
X154991330Y-100446000D01*
X154380670Y-100446000D01*
X153816493Y-100679690D01*
X153640139Y-100856044D01*
X153584327Y-100721301D01*
X153405698Y-100542673D01*
X153172309Y-100446000D01*
X152431750Y-100446000D01*
X152273000Y-100604750D01*
X152019000Y-100604750D01*
X151860250Y-100446000D01*
X151119691Y-100446000D01*
X150886302Y-100542673D01*
X150707673Y-100721301D01*
X150611000Y-100954690D01*
X149674542Y-100954690D01*
X149552534Y-100660138D01*
X149148862Y-100256466D01*
X148621439Y-100038000D01*
X148050561Y-100038000D01*
X147523138Y-100256466D01*
X147119466Y-100660138D01*
X146901000Y-101187561D01*
X146901000Y-101758439D01*
X147119466Y-102285862D01*
X147523138Y-102689534D01*
X147653168Y-102743394D01*
X147301423Y-102978423D01*
X146984260Y-103453091D01*
X146872887Y-104013000D01*
X139639113Y-104013000D01*
X139527740Y-103453091D01*
X139210577Y-102978423D01*
X138858832Y-102743394D01*
X138988862Y-102689534D01*
X139392534Y-102285862D01*
X139400450Y-102266750D01*
X140451000Y-102266750D01*
X140451000Y-103007310D01*
X140547673Y-103240699D01*
X140726302Y-103419327D01*
X140959691Y-103516000D01*
X141700250Y-103516000D01*
X141859000Y-103357250D01*
X141859000Y-102108000D01*
X140609750Y-102108000D01*
X140451000Y-102266750D01*
X139400450Y-102266750D01*
X139611000Y-101758439D01*
X139611000Y-101187561D01*
X139514542Y-100954690D01*
X140451000Y-100954690D01*
X140451000Y-101695250D01*
X140609750Y-101854000D01*
X141859000Y-101854000D01*
X141859000Y-100604750D01*
X142113000Y-100604750D01*
X142113000Y-101854000D01*
X142133000Y-101854000D01*
X142133000Y-102108000D01*
X142113000Y-102108000D01*
X142113000Y-103357250D01*
X142271750Y-103516000D01*
X143012309Y-103516000D01*
X143245698Y-103419327D01*
X143424327Y-103240699D01*
X143480139Y-103105956D01*
X143656493Y-103282310D01*
X144220670Y-103516000D01*
X144831330Y-103516000D01*
X145395507Y-103282310D01*
X145827310Y-102850507D01*
X146061000Y-102286330D01*
X146061000Y-101675670D01*
X145827310Y-101111493D01*
X145395507Y-100679690D01*
X144831330Y-100446000D01*
X144220670Y-100446000D01*
X143656493Y-100679690D01*
X143480139Y-100856044D01*
X143424327Y-100721301D01*
X143245698Y-100542673D01*
X143012309Y-100446000D01*
X142271750Y-100446000D01*
X142113000Y-100604750D01*
X141859000Y-100604750D01*
X141700250Y-100446000D01*
X140959691Y-100446000D01*
X140726302Y-100542673D01*
X140547673Y-100721301D01*
X140451000Y-100954690D01*
X139514542Y-100954690D01*
X139392534Y-100660138D01*
X138988862Y-100256466D01*
X138461439Y-100038000D01*
X137890561Y-100038000D01*
X137363138Y-100256466D01*
X136959466Y-100660138D01*
X136741000Y-101187561D01*
X136741000Y-101758439D01*
X136959466Y-102285862D01*
X137363138Y-102689534D01*
X137493168Y-102743394D01*
X137141423Y-102978423D01*
X136824260Y-103453091D01*
X136712887Y-104013000D01*
X129479113Y-104013000D01*
X129367740Y-103453091D01*
X129050577Y-102978423D01*
X128698832Y-102743394D01*
X128828862Y-102689534D01*
X129232534Y-102285862D01*
X129240450Y-102266750D01*
X130291000Y-102266750D01*
X130291000Y-103007310D01*
X130387673Y-103240699D01*
X130566302Y-103419327D01*
X130799691Y-103516000D01*
X131540250Y-103516000D01*
X131699000Y-103357250D01*
X131699000Y-102108000D01*
X130449750Y-102108000D01*
X130291000Y-102266750D01*
X129240450Y-102266750D01*
X129451000Y-101758439D01*
X129451000Y-101187561D01*
X129354542Y-100954690D01*
X130291000Y-100954690D01*
X130291000Y-101695250D01*
X130449750Y-101854000D01*
X131699000Y-101854000D01*
X131699000Y-100604750D01*
X131953000Y-100604750D01*
X131953000Y-101854000D01*
X131973000Y-101854000D01*
X131973000Y-102108000D01*
X131953000Y-102108000D01*
X131953000Y-103357250D01*
X132111750Y-103516000D01*
X132852309Y-103516000D01*
X133085698Y-103419327D01*
X133264327Y-103240699D01*
X133320139Y-103105956D01*
X133496493Y-103282310D01*
X134060670Y-103516000D01*
X134671330Y-103516000D01*
X135235507Y-103282310D01*
X135667310Y-102850507D01*
X135901000Y-102286330D01*
X135901000Y-101675670D01*
X135667310Y-101111493D01*
X135235507Y-100679690D01*
X134671330Y-100446000D01*
X134060670Y-100446000D01*
X133496493Y-100679690D01*
X133320139Y-100856044D01*
X133264327Y-100721301D01*
X133085698Y-100542673D01*
X132852309Y-100446000D01*
X132111750Y-100446000D01*
X131953000Y-100604750D01*
X131699000Y-100604750D01*
X131540250Y-100446000D01*
X130799691Y-100446000D01*
X130566302Y-100542673D01*
X130387673Y-100721301D01*
X130291000Y-100954690D01*
X129354542Y-100954690D01*
X129232534Y-100660138D01*
X128828862Y-100256466D01*
X128301439Y-100038000D01*
X127730561Y-100038000D01*
X127203138Y-100256466D01*
X126799466Y-100660138D01*
X126581000Y-101187561D01*
X126581000Y-101758439D01*
X126799466Y-102285862D01*
X127203138Y-102689534D01*
X127333168Y-102743394D01*
X126981423Y-102978423D01*
X126664260Y-103453091D01*
X126552887Y-104013000D01*
X119461131Y-104013000D01*
X120230553Y-103243579D01*
X120406302Y-103419327D01*
X120639691Y-103516000D01*
X121380250Y-103516000D01*
X121539000Y-103357250D01*
X121539000Y-102108000D01*
X121519000Y-102108000D01*
X121519000Y-101854000D01*
X121539000Y-101854000D01*
X121539000Y-100604750D01*
X121793000Y-100604750D01*
X121793000Y-101854000D01*
X121813000Y-101854000D01*
X121813000Y-102108000D01*
X121793000Y-102108000D01*
X121793000Y-103357250D01*
X121951750Y-103516000D01*
X122692309Y-103516000D01*
X122925698Y-103419327D01*
X123104327Y-103240699D01*
X123160139Y-103105956D01*
X123336493Y-103282310D01*
X123900670Y-103516000D01*
X124511330Y-103516000D01*
X125075507Y-103282310D01*
X125507310Y-102850507D01*
X125741000Y-102286330D01*
X125741000Y-101675670D01*
X125507310Y-101111493D01*
X125075507Y-100679690D01*
X124511330Y-100446000D01*
X123900670Y-100446000D01*
X123336493Y-100679690D01*
X123160139Y-100856044D01*
X123104327Y-100721301D01*
X122925698Y-100542673D01*
X122692309Y-100446000D01*
X121951750Y-100446000D01*
X121793000Y-100604750D01*
X121539000Y-100604750D01*
X121380250Y-100446000D01*
X121023000Y-100446000D01*
X121023000Y-97371000D01*
X130250217Y-97371000D01*
X130362000Y-97393235D01*
X130473783Y-97371000D01*
X144825217Y-97371000D01*
X144937000Y-97393235D01*
X145048783Y-97371000D01*
X145379855Y-97305146D01*
X145755289Y-97054289D01*
X145818613Y-96959518D01*
X147236132Y-95542000D01*
X147351439Y-95542000D01*
X147878862Y-95323534D01*
X147960396Y-95242000D01*
X149727604Y-95242000D01*
X149809138Y-95323534D01*
X150336561Y-95542000D01*
X150907439Y-95542000D01*
X151095747Y-95464000D01*
X154362132Y-95464000D01*
X154444191Y-95586809D01*
X154654235Y-95727157D01*
X154902000Y-95776440D01*
X155544309Y-95776440D01*
X156376389Y-96608521D01*
X156439711Y-96703289D01*
X156815145Y-96954146D01*
X157146217Y-97020000D01*
X157257999Y-97042235D01*
X157369781Y-97020000D01*
X159887604Y-97020000D01*
X159969138Y-97101534D01*
X160496561Y-97320000D01*
X161067439Y-97320000D01*
X161594862Y-97101534D01*
X161998534Y-96697862D01*
X162137834Y-96361561D01*
X174841000Y-96361561D01*
X174841000Y-96932439D01*
X175059466Y-97459862D01*
X175463138Y-97863534D01*
X175990561Y-98082000D01*
X176561439Y-98082000D01*
X177088862Y-97863534D01*
X177492534Y-97459862D01*
X177711000Y-96932439D01*
X177711000Y-96361561D01*
X177492534Y-95834138D01*
X177088862Y-95430466D01*
X176561439Y-95212000D01*
X175990561Y-95212000D01*
X175463138Y-95430466D01*
X175059466Y-95834138D01*
X174841000Y-96361561D01*
X162137834Y-96361561D01*
X162217000Y-96170439D01*
X162217000Y-95599561D01*
X161998534Y-95072138D01*
X161594862Y-94668466D01*
X161067439Y-94450000D01*
X160496561Y-94450000D01*
X159969138Y-94668466D01*
X159887604Y-94750000D01*
X157728132Y-94750000D01*
X157149440Y-94171309D01*
X157149440Y-93529000D01*
X157100157Y-93281235D01*
X156960005Y-93071484D01*
X157109797Y-92654745D01*
X175447861Y-92654745D01*
X175521995Y-92900864D01*
X176059223Y-93093965D01*
X176629454Y-93066778D01*
X177030005Y-92900864D01*
X177104139Y-92654745D01*
X176276000Y-91826605D01*
X175447861Y-92654745D01*
X157109797Y-92654745D01*
X157148965Y-92545777D01*
X157121778Y-91975546D01*
X157087481Y-91892745D01*
X159953861Y-91892745D01*
X160027995Y-92138864D01*
X160565223Y-92331965D01*
X161135454Y-92304778D01*
X161536005Y-92138864D01*
X161610139Y-91892745D01*
X160782000Y-91064605D01*
X159953861Y-91892745D01*
X157087481Y-91892745D01*
X156955864Y-91574995D01*
X156709745Y-91500861D01*
X155881605Y-92329000D01*
X155895748Y-92343142D01*
X155716143Y-92522748D01*
X155702000Y-92508605D01*
X155687858Y-92522748D01*
X155508252Y-92343142D01*
X155522395Y-92329000D01*
X154694255Y-91500861D01*
X154448136Y-91574995D01*
X154255035Y-92112223D01*
X154282222Y-92682454D01*
X154443605Y-93072067D01*
X154362132Y-93194000D01*
X151738396Y-93194000D01*
X151434862Y-92890466D01*
X151304832Y-92836606D01*
X151656577Y-92601577D01*
X151973740Y-92126909D01*
X152085113Y-91567000D01*
X152036232Y-91321255D01*
X154873861Y-91321255D01*
X155702000Y-92149395D01*
X156530139Y-91321255D01*
X156456005Y-91075136D01*
X155918777Y-90882035D01*
X155348546Y-90909222D01*
X154947995Y-91075136D01*
X154873861Y-91321255D01*
X152036232Y-91321255D01*
X151973740Y-91007091D01*
X151747316Y-90668223D01*
X159335035Y-90668223D01*
X159362222Y-91238454D01*
X159528136Y-91639005D01*
X159774255Y-91713139D01*
X160602395Y-90885000D01*
X160961605Y-90885000D01*
X161789745Y-91713139D01*
X162035864Y-91639005D01*
X162110908Y-91430223D01*
X174829035Y-91430223D01*
X174856222Y-92000454D01*
X175022136Y-92401005D01*
X175268255Y-92475139D01*
X176096395Y-91647000D01*
X176455605Y-91647000D01*
X177283745Y-92475139D01*
X177529864Y-92401005D01*
X177722965Y-91863777D01*
X177695778Y-91293546D01*
X177694934Y-91291506D01*
X178447000Y-91291506D01*
X178447000Y-91842494D01*
X178657853Y-92351540D01*
X179047460Y-92741147D01*
X179556506Y-92952000D01*
X180107494Y-92952000D01*
X180616540Y-92741147D01*
X181006147Y-92351540D01*
X181199629Y-91884431D01*
X184201000Y-91884431D01*
X184201000Y-92773569D01*
X184541259Y-93595026D01*
X185169974Y-94223741D01*
X185991431Y-94564000D01*
X186880569Y-94564000D01*
X187702026Y-94223741D01*
X188330741Y-93595026D01*
X188671000Y-92773569D01*
X188671000Y-91884431D01*
X188330741Y-91062974D01*
X187702026Y-90434259D01*
X186880569Y-90094000D01*
X185991431Y-90094000D01*
X185169974Y-90434259D01*
X184541259Y-91062974D01*
X184201000Y-91884431D01*
X181199629Y-91884431D01*
X181217000Y-91842494D01*
X181217000Y-91291506D01*
X181006147Y-90782460D01*
X180616540Y-90392853D01*
X180107494Y-90182000D01*
X179556506Y-90182000D01*
X179047460Y-90392853D01*
X178657853Y-90782460D01*
X178447000Y-91291506D01*
X177694934Y-91291506D01*
X177529864Y-90892995D01*
X177283745Y-90818861D01*
X176455605Y-91647000D01*
X176096395Y-91647000D01*
X175268255Y-90818861D01*
X175022136Y-90892995D01*
X174829035Y-91430223D01*
X162110908Y-91430223D01*
X162228965Y-91101777D01*
X162206914Y-90639255D01*
X175447861Y-90639255D01*
X176276000Y-91467395D01*
X177104139Y-90639255D01*
X177030005Y-90393136D01*
X176492777Y-90200035D01*
X175922546Y-90227222D01*
X175521995Y-90393136D01*
X175447861Y-90639255D01*
X162206914Y-90639255D01*
X162201778Y-90531546D01*
X162035864Y-90130995D01*
X161789745Y-90056861D01*
X160961605Y-90885000D01*
X160602395Y-90885000D01*
X159774255Y-90056861D01*
X159528136Y-90130995D01*
X159335035Y-90668223D01*
X151747316Y-90668223D01*
X151656577Y-90532423D01*
X151181909Y-90215260D01*
X150763333Y-90132000D01*
X150480667Y-90132000D01*
X150386582Y-90150715D01*
X150113122Y-89877255D01*
X159953861Y-89877255D01*
X160782000Y-90705395D01*
X161610139Y-89877255D01*
X161536005Y-89631136D01*
X160998777Y-89438035D01*
X160428546Y-89465222D01*
X160027995Y-89631136D01*
X159953861Y-89877255D01*
X150113122Y-89877255D01*
X149238587Y-89002720D01*
X149192001Y-88932999D01*
X148915801Y-88748448D01*
X148672237Y-88700000D01*
X148672233Y-88700000D01*
X148590000Y-88683643D01*
X148507767Y-88700000D01*
X141520237Y-88700000D01*
X141438000Y-88683642D01*
X141355763Y-88700000D01*
X141112199Y-88748448D01*
X140835999Y-88932999D01*
X140789415Y-89002717D01*
X137462720Y-92329413D01*
X137462714Y-92329417D01*
X137440704Y-92351427D01*
X137420358Y-92343000D01*
X136819642Y-92343000D01*
X136264654Y-92572884D01*
X136095504Y-92742034D01*
X136093157Y-92730235D01*
X135952809Y-92520191D01*
X135742765Y-92379843D01*
X135495000Y-92330560D01*
X133745000Y-92330560D01*
X133497235Y-92379843D01*
X133287191Y-92520191D01*
X133155018Y-92718000D01*
X132856783Y-92718000D01*
X132745000Y-92695765D01*
X132353851Y-92773569D01*
X132302145Y-92783854D01*
X131926711Y-93034711D01*
X131863389Y-93129479D01*
X129891869Y-95101000D01*
X129225421Y-95101000D01*
X129286455Y-94915060D01*
X128404000Y-94032605D01*
X127521545Y-94915060D01*
X127582579Y-95101000D01*
X126791462Y-95101000D01*
X127184116Y-94708346D01*
X127193121Y-94686606D01*
X127341940Y-94735455D01*
X128224395Y-93853000D01*
X128583605Y-93853000D01*
X129466060Y-94735455D01*
X129719953Y-94652116D01*
X129925590Y-94087694D01*
X129899579Y-93487542D01*
X129719953Y-93053884D01*
X129466060Y-92970545D01*
X128583605Y-93853000D01*
X128224395Y-93853000D01*
X127341940Y-92970545D01*
X127193121Y-93019394D01*
X127184116Y-92997654D01*
X126977402Y-92790940D01*
X127521545Y-92790940D01*
X128404000Y-93673395D01*
X129286455Y-92790940D01*
X129203116Y-92537047D01*
X128638694Y-92331410D01*
X128038542Y-92357421D01*
X127604884Y-92537047D01*
X127521545Y-92790940D01*
X126977402Y-92790940D01*
X126759346Y-92572884D01*
X126204358Y-92343000D01*
X125603642Y-92343000D01*
X125048654Y-92572884D01*
X124654000Y-92967538D01*
X124259346Y-92572884D01*
X123704358Y-92343000D01*
X123103642Y-92343000D01*
X122548654Y-92572884D01*
X122379504Y-92742034D01*
X122377157Y-92730235D01*
X122236809Y-92520191D01*
X122026765Y-92379843D01*
X121779000Y-92330560D01*
X120029000Y-92330560D01*
X119781235Y-92379843D01*
X119571191Y-92520191D01*
X119430843Y-92730235D01*
X119381560Y-92978000D01*
X119381560Y-94728000D01*
X119430843Y-94975765D01*
X119571191Y-95185809D01*
X119732965Y-95293904D01*
X119672481Y-95354388D01*
X119577711Y-95417711D01*
X119514389Y-95512480D01*
X119164481Y-95862388D01*
X119069711Y-95925711D01*
X118818855Y-96301145D01*
X118818854Y-96301146D01*
X118730765Y-96744000D01*
X118753000Y-96855783D01*
X118753001Y-100340605D01*
X118668862Y-100256466D01*
X118141439Y-100038000D01*
X117570561Y-100038000D01*
X117043138Y-100256466D01*
X116639466Y-100660138D01*
X116421000Y-101187561D01*
X116421000Y-101758439D01*
X116639466Y-102285862D01*
X117043138Y-102689534D01*
X117173168Y-102743394D01*
X116821423Y-102978423D01*
X116504260Y-103453091D01*
X116392887Y-104013000D01*
X109422000Y-104013000D01*
X109422000Y-102266750D01*
X109971000Y-102266750D01*
X109971000Y-103007310D01*
X110067673Y-103240699D01*
X110246302Y-103419327D01*
X110479691Y-103516000D01*
X111220250Y-103516000D01*
X111379000Y-103357250D01*
X111379000Y-102108000D01*
X110129750Y-102108000D01*
X109971000Y-102266750D01*
X109422000Y-102266750D01*
X109422000Y-100954690D01*
X109971000Y-100954690D01*
X109971000Y-101695250D01*
X110129750Y-101854000D01*
X111379000Y-101854000D01*
X111379000Y-100604750D01*
X111633000Y-100604750D01*
X111633000Y-101854000D01*
X111653000Y-101854000D01*
X111653000Y-102108000D01*
X111633000Y-102108000D01*
X111633000Y-103357250D01*
X111791750Y-103516000D01*
X112532309Y-103516000D01*
X112765698Y-103419327D01*
X112944327Y-103240699D01*
X113000139Y-103105956D01*
X113176493Y-103282310D01*
X113740670Y-103516000D01*
X114351330Y-103516000D01*
X114915507Y-103282310D01*
X115347310Y-102850507D01*
X115581000Y-102286330D01*
X115581000Y-101675670D01*
X115347310Y-101111493D01*
X114915507Y-100679690D01*
X114351330Y-100446000D01*
X113740670Y-100446000D01*
X113176493Y-100679690D01*
X113000139Y-100856044D01*
X112944327Y-100721301D01*
X112765698Y-100542673D01*
X112532309Y-100446000D01*
X111791750Y-100446000D01*
X111633000Y-100604750D01*
X111379000Y-100604750D01*
X111220250Y-100446000D01*
X110479691Y-100446000D01*
X110246302Y-100542673D01*
X110067673Y-100721301D01*
X109971000Y-100954690D01*
X109422000Y-100954690D01*
X109422000Y-91884431D01*
X111557000Y-91884431D01*
X111557000Y-92773569D01*
X111897259Y-93595026D01*
X112525974Y-94223741D01*
X113347431Y-94564000D01*
X114236569Y-94564000D01*
X115058026Y-94223741D01*
X115686741Y-93595026D01*
X116027000Y-92773569D01*
X116027000Y-91884431D01*
X115686741Y-91062974D01*
X115058026Y-90434259D01*
X114236569Y-90094000D01*
X113347431Y-90094000D01*
X112525974Y-90434259D01*
X111897259Y-91062974D01*
X111557000Y-91884431D01*
X109422000Y-91884431D01*
X109422000Y-87959000D01*
X190806001Y-87959000D01*
X190806000Y-111939000D01*
X190806000Y-111939000D01*
G37*
X190806000Y-111939000D02*
X109422000Y-111939000D01*
X109422000Y-108870750D01*
X109971000Y-108870750D01*
X109971000Y-109611310D01*
X110067673Y-109844699D01*
X110246302Y-110023327D01*
X110479691Y-110120000D01*
X111220250Y-110120000D01*
X111379000Y-109961250D01*
X111379000Y-108712000D01*
X110129750Y-108712000D01*
X109971000Y-108870750D01*
X109422000Y-108870750D01*
X109422000Y-107558690D01*
X109971000Y-107558690D01*
X109971000Y-108299250D01*
X110129750Y-108458000D01*
X111379000Y-108458000D01*
X111379000Y-107208750D01*
X111633000Y-107208750D01*
X111633000Y-108458000D01*
X111653000Y-108458000D01*
X111653000Y-108712000D01*
X111633000Y-108712000D01*
X111633000Y-109961250D01*
X111791750Y-110120000D01*
X112532309Y-110120000D01*
X112765698Y-110023327D01*
X112944327Y-109844699D01*
X113000139Y-109709956D01*
X113176493Y-109886310D01*
X113740670Y-110120000D01*
X114351330Y-110120000D01*
X114915507Y-109886310D01*
X115347310Y-109454507D01*
X115581000Y-108890330D01*
X115581000Y-108279670D01*
X115347310Y-107715493D01*
X114915507Y-107283690D01*
X114351330Y-107050000D01*
X113740670Y-107050000D01*
X113176493Y-107283690D01*
X113000139Y-107460044D01*
X112944327Y-107325301D01*
X112765698Y-107146673D01*
X112532309Y-107050000D01*
X111791750Y-107050000D01*
X111633000Y-107208750D01*
X111379000Y-107208750D01*
X111220250Y-107050000D01*
X110479691Y-107050000D01*
X110246302Y-107146673D01*
X110067673Y-107325301D01*
X109971000Y-107558690D01*
X109422000Y-107558690D01*
X109422000Y-104013000D01*
X116392887Y-104013000D01*
X116504260Y-104572909D01*
X116821423Y-105047577D01*
X117173758Y-105283000D01*
X116821423Y-105518423D01*
X116504260Y-105993091D01*
X116392887Y-106553000D01*
X116504260Y-107112909D01*
X116821423Y-107587577D01*
X117173168Y-107822606D01*
X117043138Y-107876466D01*
X116639466Y-108280138D01*
X116421000Y-108807561D01*
X116421000Y-109378439D01*
X116639466Y-109905862D01*
X117043138Y-110309534D01*
X117570561Y-110528000D01*
X118141439Y-110528000D01*
X118668862Y-110309534D01*
X119072534Y-109905862D01*
X119291000Y-109378439D01*
X119291000Y-108870750D01*
X120131000Y-108870750D01*
X120131000Y-109611310D01*
X120227673Y-109844699D01*
X120406302Y-110023327D01*
X120639691Y-110120000D01*
X121380250Y-110120000D01*
X121539000Y-109961250D01*
X121539000Y-108712000D01*
X120289750Y-108712000D01*
X120131000Y-108870750D01*
X119291000Y-108870750D01*
X119291000Y-108807561D01*
X119072534Y-108280138D01*
X118668862Y-107876466D01*
X118538832Y-107822606D01*
X118890577Y-107587577D01*
X118909878Y-107558690D01*
X120131000Y-107558690D01*
X120131000Y-108299250D01*
X120289750Y-108458000D01*
X121539000Y-108458000D01*
X121539000Y-107208750D01*
X121793000Y-107208750D01*
X121793000Y-108458000D01*
X121813000Y-108458000D01*
X121813000Y-108712000D01*
X121793000Y-108712000D01*
X121793000Y-109961250D01*
X121951750Y-110120000D01*
X122692309Y-110120000D01*
X122925698Y-110023327D01*
X123104327Y-109844699D01*
X123160139Y-109709956D01*
X123336493Y-109886310D01*
X123900670Y-110120000D01*
X124511330Y-110120000D01*
X125075507Y-109886310D01*
X125507310Y-109454507D01*
X125741000Y-108890330D01*
X125741000Y-108279670D01*
X125507310Y-107715493D01*
X125075507Y-107283690D01*
X124511330Y-107050000D01*
X123900670Y-107050000D01*
X123336493Y-107283690D01*
X123160139Y-107460044D01*
X123104327Y-107325301D01*
X122925698Y-107146673D01*
X122692309Y-107050000D01*
X121951750Y-107050000D01*
X121793000Y-107208750D01*
X121539000Y-107208750D01*
X121380250Y-107050000D01*
X120639691Y-107050000D01*
X120406302Y-107146673D01*
X120227673Y-107325301D01*
X120131000Y-107558690D01*
X118909878Y-107558690D01*
X119207740Y-107112909D01*
X119319113Y-106553000D01*
X119207740Y-105993091D01*
X118890577Y-105518423D01*
X118538242Y-105283000D01*
X118890577Y-105047577D01*
X119207740Y-104572909D01*
X119283849Y-104190282D01*
X119461131Y-104013000D01*
X126552887Y-104013000D01*
X126664260Y-104572909D01*
X126981423Y-105047577D01*
X127333758Y-105283000D01*
X126981423Y-105518423D01*
X126664260Y-105993091D01*
X126552887Y-106553000D01*
X126664260Y-107112909D01*
X126981423Y-107587577D01*
X127333168Y-107822606D01*
X127203138Y-107876466D01*
X126799466Y-108280138D01*
X126581000Y-108807561D01*
X126581000Y-109378439D01*
X126799466Y-109905862D01*
X127203138Y-110309534D01*
X127730561Y-110528000D01*
X128301439Y-110528000D01*
X128828862Y-110309534D01*
X129232534Y-109905862D01*
X129451000Y-109378439D01*
X129451000Y-108870750D01*
X130291000Y-108870750D01*
X130291000Y-109611310D01*
X130387673Y-109844699D01*
X130566302Y-110023327D01*
X130799691Y-110120000D01*
X131540250Y-110120000D01*
X131699000Y-109961250D01*
X131699000Y-108712000D01*
X130449750Y-108712000D01*
X130291000Y-108870750D01*
X129451000Y-108870750D01*
X129451000Y-108807561D01*
X129232534Y-108280138D01*
X128828862Y-107876466D01*
X128698832Y-107822606D01*
X129050577Y-107587577D01*
X129069878Y-107558690D01*
X130291000Y-107558690D01*
X130291000Y-108299250D01*
X130449750Y-108458000D01*
X131699000Y-108458000D01*
X131699000Y-107208750D01*
X131953000Y-107208750D01*
X131953000Y-108458000D01*
X131973000Y-108458000D01*
X131973000Y-108712000D01*
X131953000Y-108712000D01*
X131953000Y-109961250D01*
X132111750Y-110120000D01*
X132852309Y-110120000D01*
X133085698Y-110023327D01*
X133264327Y-109844699D01*
X133320139Y-109709956D01*
X133496493Y-109886310D01*
X134060670Y-110120000D01*
X134671330Y-110120000D01*
X135235507Y-109886310D01*
X135667310Y-109454507D01*
X135901000Y-108890330D01*
X135901000Y-108279670D01*
X135667310Y-107715493D01*
X135235507Y-107283690D01*
X134671330Y-107050000D01*
X134060670Y-107050000D01*
X133496493Y-107283690D01*
X133320139Y-107460044D01*
X133264327Y-107325301D01*
X133085698Y-107146673D01*
X132852309Y-107050000D01*
X132111750Y-107050000D01*
X131953000Y-107208750D01*
X131699000Y-107208750D01*
X131540250Y-107050000D01*
X130799691Y-107050000D01*
X130566302Y-107146673D01*
X130387673Y-107325301D01*
X130291000Y-107558690D01*
X129069878Y-107558690D01*
X129367740Y-107112909D01*
X129479113Y-106553000D01*
X129367740Y-105993091D01*
X129050577Y-105518423D01*
X128698242Y-105283000D01*
X129050577Y-105047577D01*
X129367740Y-104572909D01*
X129479113Y-104013000D01*
X136712887Y-104013000D01*
X136824260Y-104572909D01*
X137141423Y-105047577D01*
X137493758Y-105283000D01*
X137141423Y-105518423D01*
X136824260Y-105993091D01*
X136712887Y-106553000D01*
X136824260Y-107112909D01*
X137141423Y-107587577D01*
X137493168Y-107822606D01*
X137363138Y-107876466D01*
X136959466Y-108280138D01*
X136741000Y-108807561D01*
X136741000Y-109378439D01*
X136959466Y-109905862D01*
X137363138Y-110309534D01*
X137890561Y-110528000D01*
X138461439Y-110528000D01*
X138988862Y-110309534D01*
X139392534Y-109905862D01*
X139611000Y-109378439D01*
X139611000Y-108870750D01*
X140451000Y-108870750D01*
X140451000Y-109611310D01*
X140547673Y-109844699D01*
X140726302Y-110023327D01*
X140959691Y-110120000D01*
X141700250Y-110120000D01*
X141859000Y-109961250D01*
X141859000Y-108712000D01*
X140609750Y-108712000D01*
X140451000Y-108870750D01*
X139611000Y-108870750D01*
X139611000Y-108807561D01*
X139392534Y-108280138D01*
X138988862Y-107876466D01*
X138858832Y-107822606D01*
X139210577Y-107587577D01*
X139229878Y-107558690D01*
X140451000Y-107558690D01*
X140451000Y-108299250D01*
X140609750Y-108458000D01*
X141859000Y-108458000D01*
X141859000Y-107208750D01*
X142113000Y-107208750D01*
X142113000Y-108458000D01*
X142133000Y-108458000D01*
X142133000Y-108712000D01*
X142113000Y-108712000D01*
X142113000Y-109961250D01*
X142271750Y-110120000D01*
X143012309Y-110120000D01*
X143245698Y-110023327D01*
X143424327Y-109844699D01*
X143480139Y-109709956D01*
X143656493Y-109886310D01*
X144220670Y-110120000D01*
X144831330Y-110120000D01*
X145395507Y-109886310D01*
X145827310Y-109454507D01*
X146061000Y-108890330D01*
X146061000Y-108279670D01*
X145827310Y-107715493D01*
X145395507Y-107283690D01*
X144831330Y-107050000D01*
X144220670Y-107050000D01*
X143656493Y-107283690D01*
X143480139Y-107460044D01*
X143424327Y-107325301D01*
X143245698Y-107146673D01*
X143012309Y-107050000D01*
X142271750Y-107050000D01*
X142113000Y-107208750D01*
X141859000Y-107208750D01*
X141700250Y-107050000D01*
X140959691Y-107050000D01*
X140726302Y-107146673D01*
X140547673Y-107325301D01*
X140451000Y-107558690D01*
X139229878Y-107558690D01*
X139527740Y-107112909D01*
X139639113Y-106553000D01*
X139527740Y-105993091D01*
X139210577Y-105518423D01*
X138858242Y-105283000D01*
X139210577Y-105047577D01*
X139527740Y-104572909D01*
X139639113Y-104013000D01*
X146872887Y-104013000D01*
X146984260Y-104572909D01*
X147301423Y-105047577D01*
X147653758Y-105283000D01*
X147301423Y-105518423D01*
X146984260Y-105993091D01*
X146872887Y-106553000D01*
X146984260Y-107112909D01*
X147301423Y-107587577D01*
X147653168Y-107822606D01*
X147523138Y-107876466D01*
X147119466Y-108280138D01*
X146901000Y-108807561D01*
X146901000Y-109378439D01*
X147119466Y-109905862D01*
X147523138Y-110309534D01*
X148050561Y-110528000D01*
X148621439Y-110528000D01*
X149148862Y-110309534D01*
X149552534Y-109905862D01*
X149771000Y-109378439D01*
X149771000Y-108870750D01*
X150611000Y-108870750D01*
X150611000Y-109611310D01*
X150707673Y-109844699D01*
X150886302Y-110023327D01*
X151119691Y-110120000D01*
X151860250Y-110120000D01*
X152019000Y-109961250D01*
X152019000Y-108712000D01*
X150769750Y-108712000D01*
X150611000Y-108870750D01*
X149771000Y-108870750D01*
X149771000Y-108807561D01*
X149552534Y-108280138D01*
X149148862Y-107876466D01*
X149018832Y-107822606D01*
X149370577Y-107587577D01*
X149389878Y-107558690D01*
X150611000Y-107558690D01*
X150611000Y-108299250D01*
X150769750Y-108458000D01*
X152019000Y-108458000D01*
X152019000Y-107208750D01*
X152273000Y-107208750D01*
X152273000Y-108458000D01*
X152293000Y-108458000D01*
X152293000Y-108712000D01*
X152273000Y-108712000D01*
X152273000Y-109961250D01*
X152431750Y-110120000D01*
X153172309Y-110120000D01*
X153405698Y-110023327D01*
X153584327Y-109844699D01*
X153640139Y-109709956D01*
X153816493Y-109886310D01*
X154380670Y-110120000D01*
X154991330Y-110120000D01*
X155555507Y-109886310D01*
X155987310Y-109454507D01*
X156221000Y-108890330D01*
X156221000Y-108279670D01*
X155987310Y-107715493D01*
X155555507Y-107283690D01*
X154991330Y-107050000D01*
X154380670Y-107050000D01*
X153816493Y-107283690D01*
X153640139Y-107460044D01*
X153584327Y-107325301D01*
X153405698Y-107146673D01*
X153172309Y-107050000D01*
X152431750Y-107050000D01*
X152273000Y-107208750D01*
X152019000Y-107208750D01*
X151860250Y-107050000D01*
X151119691Y-107050000D01*
X150886302Y-107146673D01*
X150707673Y-107325301D01*
X150611000Y-107558690D01*
X149389878Y-107558690D01*
X149687740Y-107112909D01*
X149799113Y-106553000D01*
X149687740Y-105993091D01*
X149370577Y-105518423D01*
X149018242Y-105283000D01*
X149370577Y-105047577D01*
X149687740Y-104572909D01*
X149799113Y-104013000D01*
X157032887Y-104013000D01*
X157144260Y-104572909D01*
X157461423Y-105047577D01*
X157813758Y-105283000D01*
X157461423Y-105518423D01*
X157144260Y-105993091D01*
X157032887Y-106553000D01*
X157144260Y-107112909D01*
X157461423Y-107587577D01*
X157813168Y-107822606D01*
X157683138Y-107876466D01*
X157279466Y-108280138D01*
X157061000Y-108807561D01*
X157061000Y-109378439D01*
X157279466Y-109905862D01*
X157683138Y-110309534D01*
X158210561Y-110528000D01*
X158781439Y-110528000D01*
X159308862Y-110309534D01*
X159712534Y-109905862D01*
X159931000Y-109378439D01*
X159931000Y-108870750D01*
X160771000Y-108870750D01*
X160771000Y-109611310D01*
X160867673Y-109844699D01*
X161046302Y-110023327D01*
X161279691Y-110120000D01*
X162020250Y-110120000D01*
X162179000Y-109961250D01*
X162179000Y-108712000D01*
X160929750Y-108712000D01*
X160771000Y-108870750D01*
X159931000Y-108870750D01*
X159931000Y-108807561D01*
X159712534Y-108280138D01*
X159308862Y-107876466D01*
X159178832Y-107822606D01*
X159530577Y-107587577D01*
X159549878Y-107558690D01*
X160771000Y-107558690D01*
X160771000Y-108299250D01*
X160929750Y-108458000D01*
X162179000Y-108458000D01*
X162179000Y-107208750D01*
X162433000Y-107208750D01*
X162433000Y-108458000D01*
X162453000Y-108458000D01*
X162453000Y-108712000D01*
X162433000Y-108712000D01*
X162433000Y-109961250D01*
X162591750Y-110120000D01*
X163332309Y-110120000D01*
X163565698Y-110023327D01*
X163744327Y-109844699D01*
X163800139Y-109709956D01*
X163976493Y-109886310D01*
X164540670Y-110120000D01*
X165151330Y-110120000D01*
X165715507Y-109886310D01*
X166147310Y-109454507D01*
X166381000Y-108890330D01*
X166381000Y-108279670D01*
X166147310Y-107715493D01*
X165715507Y-107283690D01*
X165151330Y-107050000D01*
X164540670Y-107050000D01*
X163976493Y-107283690D01*
X163800139Y-107460044D01*
X163744327Y-107325301D01*
X163565698Y-107146673D01*
X163332309Y-107050000D01*
X162591750Y-107050000D01*
X162433000Y-107208750D01*
X162179000Y-107208750D01*
X162020250Y-107050000D01*
X161279691Y-107050000D01*
X161046302Y-107146673D01*
X160867673Y-107325301D01*
X160771000Y-107558690D01*
X159549878Y-107558690D01*
X159847740Y-107112909D01*
X159959113Y-106553000D01*
X159847740Y-105993091D01*
X159530577Y-105518423D01*
X159178242Y-105283000D01*
X159530577Y-105047577D01*
X159847740Y-104572909D01*
X159959113Y-104013000D01*
X167192887Y-104013000D01*
X167304260Y-104572909D01*
X167621423Y-105047577D01*
X167973758Y-105283000D01*
X167621423Y-105518423D01*
X167304260Y-105993091D01*
X167192887Y-106553000D01*
X167304260Y-107112909D01*
X167621423Y-107587577D01*
X167973168Y-107822606D01*
X167843138Y-107876466D01*
X167439466Y-108280138D01*
X167221000Y-108807561D01*
X167221000Y-109378439D01*
X167439466Y-109905862D01*
X167843138Y-110309534D01*
X168370561Y-110528000D01*
X168941439Y-110528000D01*
X169468862Y-110309534D01*
X169872534Y-109905862D01*
X170091000Y-109378439D01*
X170091000Y-108870750D01*
X170931000Y-108870750D01*
X170931000Y-109611310D01*
X171027673Y-109844699D01*
X171206302Y-110023327D01*
X171439691Y-110120000D01*
X172180250Y-110120000D01*
X172339000Y-109961250D01*
X172339000Y-108712000D01*
X171089750Y-108712000D01*
X170931000Y-108870750D01*
X170091000Y-108870750D01*
X170091000Y-108807561D01*
X169872534Y-108280138D01*
X169468862Y-107876466D01*
X169338832Y-107822606D01*
X169690577Y-107587577D01*
X169709878Y-107558690D01*
X170931000Y-107558690D01*
X170931000Y-108299250D01*
X171089750Y-108458000D01*
X172339000Y-108458000D01*
X172339000Y-107208750D01*
X172593000Y-107208750D01*
X172593000Y-108458000D01*
X172613000Y-108458000D01*
X172613000Y-108712000D01*
X172593000Y-108712000D01*
X172593000Y-109961250D01*
X172751750Y-110120000D01*
X173492309Y-110120000D01*
X173725698Y-110023327D01*
X173904327Y-109844699D01*
X173960139Y-109709956D01*
X174136493Y-109886310D01*
X174700670Y-110120000D01*
X175311330Y-110120000D01*
X175875507Y-109886310D01*
X176307310Y-109454507D01*
X176541000Y-108890330D01*
X176541000Y-108279670D01*
X176307310Y-107715493D01*
X175875507Y-107283690D01*
X175311330Y-107050000D01*
X174700670Y-107050000D01*
X174136493Y-107283690D01*
X173960139Y-107460044D01*
X173904327Y-107325301D01*
X173725698Y-107146673D01*
X173492309Y-107050000D01*
X172751750Y-107050000D01*
X172593000Y-107208750D01*
X172339000Y-107208750D01*
X172180250Y-107050000D01*
X171439691Y-107050000D01*
X171206302Y-107146673D01*
X171027673Y-107325301D01*
X170931000Y-107558690D01*
X169709878Y-107558690D01*
X170007740Y-107112909D01*
X170119113Y-106553000D01*
X170007740Y-105993091D01*
X169690577Y-105518423D01*
X169338242Y-105283000D01*
X169690577Y-105047577D01*
X170007740Y-104572909D01*
X170119113Y-104013000D01*
X177352887Y-104013000D01*
X177464260Y-104572909D01*
X177781423Y-105047577D01*
X178133758Y-105283000D01*
X177781423Y-105518423D01*
X177464260Y-105993091D01*
X177352887Y-106553000D01*
X177464260Y-107112909D01*
X177781423Y-107587577D01*
X178133168Y-107822606D01*
X178003138Y-107876466D01*
X177599466Y-108280138D01*
X177381000Y-108807561D01*
X177381000Y-109378439D01*
X177599466Y-109905862D01*
X178003138Y-110309534D01*
X178530561Y-110528000D01*
X179101439Y-110528000D01*
X179628862Y-110309534D01*
X180032534Y-109905862D01*
X180251000Y-109378439D01*
X180251000Y-108870750D01*
X181091000Y-108870750D01*
X181091000Y-109611310D01*
X181187673Y-109844699D01*
X181366302Y-110023327D01*
X181599691Y-110120000D01*
X182340250Y-110120000D01*
X182499000Y-109961250D01*
X182499000Y-108712000D01*
X181249750Y-108712000D01*
X181091000Y-108870750D01*
X180251000Y-108870750D01*
X180251000Y-108807561D01*
X180032534Y-108280138D01*
X179628862Y-107876466D01*
X179498832Y-107822606D01*
X179850577Y-107587577D01*
X179869878Y-107558690D01*
X181091000Y-107558690D01*
X181091000Y-108299250D01*
X181249750Y-108458000D01*
X182499000Y-108458000D01*
X182499000Y-107208750D01*
X182753000Y-107208750D01*
X182753000Y-108458000D01*
X182773000Y-108458000D01*
X182773000Y-108712000D01*
X182753000Y-108712000D01*
X182753000Y-109961250D01*
X182911750Y-110120000D01*
X183652309Y-110120000D01*
X183885698Y-110023327D01*
X184064327Y-109844699D01*
X184120139Y-109709956D01*
X184296493Y-109886310D01*
X184860670Y-110120000D01*
X185471330Y-110120000D01*
X186035507Y-109886310D01*
X186467310Y-109454507D01*
X186701000Y-108890330D01*
X186701000Y-108279670D01*
X186467310Y-107715493D01*
X186035507Y-107283690D01*
X185471330Y-107050000D01*
X184860670Y-107050000D01*
X184296493Y-107283690D01*
X184120139Y-107460044D01*
X184064327Y-107325301D01*
X183885698Y-107146673D01*
X183652309Y-107050000D01*
X182911750Y-107050000D01*
X182753000Y-107208750D01*
X182499000Y-107208750D01*
X182340250Y-107050000D01*
X181599691Y-107050000D01*
X181366302Y-107146673D01*
X181187673Y-107325301D01*
X181091000Y-107558690D01*
X179869878Y-107558690D01*
X180167740Y-107112909D01*
X180279113Y-106553000D01*
X180167740Y-105993091D01*
X179850577Y-105518423D01*
X179498242Y-105283000D01*
X179850577Y-105047577D01*
X180167740Y-104572909D01*
X180279113Y-104013000D01*
X187512887Y-104013000D01*
X187624260Y-104572909D01*
X187941423Y-105047577D01*
X188293758Y-105283000D01*
X187941423Y-105518423D01*
X187624260Y-105993091D01*
X187512887Y-106553000D01*
X187624260Y-107112909D01*
X187941423Y-107587577D01*
X188293168Y-107822606D01*
X188163138Y-107876466D01*
X187759466Y-108280138D01*
X187541000Y-108807561D01*
X187541000Y-109378439D01*
X187759466Y-109905862D01*
X188163138Y-110309534D01*
X188690561Y-110528000D01*
X189261439Y-110528000D01*
X189788862Y-110309534D01*
X190192534Y-109905862D01*
X190411000Y-109378439D01*
X190411000Y-108807561D01*
X190192534Y-108280138D01*
X189788862Y-107876466D01*
X189658832Y-107822606D01*
X190010577Y-107587577D01*
X190327740Y-107112909D01*
X190439113Y-106553000D01*
X190327740Y-105993091D01*
X190010577Y-105518423D01*
X189658242Y-105283000D01*
X190010577Y-105047577D01*
X190327740Y-104572909D01*
X190439113Y-104013000D01*
X190327740Y-103453091D01*
X190010577Y-102978423D01*
X189658832Y-102743394D01*
X189788862Y-102689534D01*
X190192534Y-102285862D01*
X190411000Y-101758439D01*
X190411000Y-101187561D01*
X190192534Y-100660138D01*
X189788862Y-100256466D01*
X189261439Y-100038000D01*
X188690561Y-100038000D01*
X188163138Y-100256466D01*
X187759466Y-100660138D01*
X187541000Y-101187561D01*
X187541000Y-101758439D01*
X187759466Y-102285862D01*
X188163138Y-102689534D01*
X188293168Y-102743394D01*
X187941423Y-102978423D01*
X187624260Y-103453091D01*
X187512887Y-104013000D01*
X180279113Y-104013000D01*
X180232285Y-103777582D01*
X181091000Y-102918868D01*
X181091000Y-103007310D01*
X181187673Y-103240699D01*
X181366302Y-103419327D01*
X181599691Y-103516000D01*
X182340250Y-103516000D01*
X182499000Y-103357250D01*
X182499000Y-102108000D01*
X182479000Y-102108000D01*
X182479000Y-101854000D01*
X182499000Y-101854000D01*
X182499000Y-100604750D01*
X182753000Y-100604750D01*
X182753000Y-101854000D01*
X182773000Y-101854000D01*
X182773000Y-102108000D01*
X182753000Y-102108000D01*
X182753000Y-103357250D01*
X182911750Y-103516000D01*
X183652309Y-103516000D01*
X183885698Y-103419327D01*
X184064327Y-103240699D01*
X184120139Y-103105956D01*
X184296493Y-103282310D01*
X184860670Y-103516000D01*
X185471330Y-103516000D01*
X186035507Y-103282310D01*
X186467310Y-102850507D01*
X186701000Y-102286330D01*
X186701000Y-101675670D01*
X186467310Y-101111493D01*
X186035507Y-100679690D01*
X185471330Y-100446000D01*
X184860670Y-100446000D01*
X184296493Y-100679690D01*
X184120139Y-100856044D01*
X184064327Y-100721301D01*
X183885698Y-100542673D01*
X183652309Y-100446000D01*
X182911750Y-100446000D01*
X182753000Y-100604750D01*
X182499000Y-100604750D01*
X182340250Y-100446000D01*
X181683000Y-100446000D01*
X181683000Y-98901826D01*
X181942280Y-98794429D01*
X182233431Y-98503278D01*
X182391000Y-98122872D01*
X182391000Y-97711124D01*
X182233431Y-97330718D01*
X181942280Y-97039567D01*
X181561874Y-96881998D01*
X181150126Y-96881998D01*
X180769720Y-97039567D01*
X180478569Y-97330718D01*
X180321000Y-97711124D01*
X180321000Y-97771130D01*
X180315717Y-97776414D01*
X180246000Y-97822997D01*
X180199416Y-97892715D01*
X180061448Y-98099198D01*
X179996643Y-98424998D01*
X180013001Y-98507236D01*
X180013000Y-100640604D01*
X179628862Y-100256466D01*
X179101439Y-100038000D01*
X178530561Y-100038000D01*
X178003138Y-100256466D01*
X177599466Y-100660138D01*
X177381000Y-101187561D01*
X177381000Y-101758439D01*
X177599466Y-102285862D01*
X178003138Y-102689534D01*
X178133168Y-102743394D01*
X177781423Y-102978423D01*
X177464260Y-103453091D01*
X177352887Y-104013000D01*
X170119113Y-104013000D01*
X170007740Y-103453091D01*
X169690577Y-102978423D01*
X169338832Y-102743394D01*
X169468862Y-102689534D01*
X169872534Y-102285862D01*
X169880450Y-102266750D01*
X170931000Y-102266750D01*
X170931000Y-103007310D01*
X171027673Y-103240699D01*
X171206302Y-103419327D01*
X171439691Y-103516000D01*
X172180250Y-103516000D01*
X172339000Y-103357250D01*
X172339000Y-102108000D01*
X171089750Y-102108000D01*
X170931000Y-102266750D01*
X169880450Y-102266750D01*
X170091000Y-101758439D01*
X170091000Y-101187561D01*
X169994542Y-100954690D01*
X170931000Y-100954690D01*
X170931000Y-101695250D01*
X171089750Y-101854000D01*
X172339000Y-101854000D01*
X172339000Y-100604750D01*
X172593000Y-100604750D01*
X172593000Y-101854000D01*
X172613000Y-101854000D01*
X172613000Y-102108000D01*
X172593000Y-102108000D01*
X172593000Y-103357250D01*
X172751750Y-103516000D01*
X173492309Y-103516000D01*
X173725698Y-103419327D01*
X173904327Y-103240699D01*
X173960139Y-103105956D01*
X174136493Y-103282310D01*
X174700670Y-103516000D01*
X175311330Y-103516000D01*
X175875507Y-103282310D01*
X176307310Y-102850507D01*
X176541000Y-102286330D01*
X176541000Y-101675670D01*
X176307310Y-101111493D01*
X175875507Y-100679690D01*
X175311330Y-100446000D01*
X174700670Y-100446000D01*
X174136493Y-100679690D01*
X173960139Y-100856044D01*
X173904327Y-100721301D01*
X173725698Y-100542673D01*
X173492309Y-100446000D01*
X172751750Y-100446000D01*
X172593000Y-100604750D01*
X172339000Y-100604750D01*
X172180250Y-100446000D01*
X171439691Y-100446000D01*
X171206302Y-100542673D01*
X171027673Y-100721301D01*
X170931000Y-100954690D01*
X169994542Y-100954690D01*
X169872534Y-100660138D01*
X169468862Y-100256466D01*
X168941439Y-100038000D01*
X168370561Y-100038000D01*
X167843138Y-100256466D01*
X167439466Y-100660138D01*
X167221000Y-101187561D01*
X167221000Y-101758439D01*
X167439466Y-102285862D01*
X167843138Y-102689534D01*
X167973168Y-102743394D01*
X167621423Y-102978423D01*
X167304260Y-103453091D01*
X167192887Y-104013000D01*
X159959113Y-104013000D01*
X159847740Y-103453091D01*
X159530577Y-102978423D01*
X159178832Y-102743394D01*
X159308862Y-102689534D01*
X159712534Y-102285862D01*
X159720450Y-102266750D01*
X160771000Y-102266750D01*
X160771000Y-103007310D01*
X160867673Y-103240699D01*
X161046302Y-103419327D01*
X161279691Y-103516000D01*
X162020250Y-103516000D01*
X162179000Y-103357250D01*
X162179000Y-102108000D01*
X160929750Y-102108000D01*
X160771000Y-102266750D01*
X159720450Y-102266750D01*
X159931000Y-101758439D01*
X159931000Y-101187561D01*
X159834542Y-100954690D01*
X160771000Y-100954690D01*
X160771000Y-101695250D01*
X160929750Y-101854000D01*
X162179000Y-101854000D01*
X162179000Y-100604750D01*
X162433000Y-100604750D01*
X162433000Y-101854000D01*
X162453000Y-101854000D01*
X162453000Y-102108000D01*
X162433000Y-102108000D01*
X162433000Y-103357250D01*
X162591750Y-103516000D01*
X163332309Y-103516000D01*
X163565698Y-103419327D01*
X163744327Y-103240699D01*
X163800139Y-103105956D01*
X163976493Y-103282310D01*
X164540670Y-103516000D01*
X165151330Y-103516000D01*
X165715507Y-103282310D01*
X166147310Y-102850507D01*
X166381000Y-102286330D01*
X166381000Y-101675670D01*
X166147310Y-101111493D01*
X165715507Y-100679690D01*
X165151330Y-100446000D01*
X164540670Y-100446000D01*
X163976493Y-100679690D01*
X163800139Y-100856044D01*
X163744327Y-100721301D01*
X163565698Y-100542673D01*
X163332309Y-100446000D01*
X162591750Y-100446000D01*
X162433000Y-100604750D01*
X162179000Y-100604750D01*
X162020250Y-100446000D01*
X161279691Y-100446000D01*
X161046302Y-100542673D01*
X160867673Y-100721301D01*
X160771000Y-100954690D01*
X159834542Y-100954690D01*
X159712534Y-100660138D01*
X159308862Y-100256466D01*
X158781439Y-100038000D01*
X158210561Y-100038000D01*
X157683138Y-100256466D01*
X157279466Y-100660138D01*
X157061000Y-101187561D01*
X157061000Y-101758439D01*
X157279466Y-102285862D01*
X157683138Y-102689534D01*
X157813168Y-102743394D01*
X157461423Y-102978423D01*
X157144260Y-103453091D01*
X157032887Y-104013000D01*
X149799113Y-104013000D01*
X149687740Y-103453091D01*
X149370577Y-102978423D01*
X149018832Y-102743394D01*
X149148862Y-102689534D01*
X149552534Y-102285862D01*
X149560450Y-102266750D01*
X150611000Y-102266750D01*
X150611000Y-103007310D01*
X150707673Y-103240699D01*
X150886302Y-103419327D01*
X151119691Y-103516000D01*
X151860250Y-103516000D01*
X152019000Y-103357250D01*
X152019000Y-102108000D01*
X150769750Y-102108000D01*
X150611000Y-102266750D01*
X149560450Y-102266750D01*
X149771000Y-101758439D01*
X149771000Y-101187561D01*
X149674542Y-100954690D01*
X150611000Y-100954690D01*
X150611000Y-101695250D01*
X150769750Y-101854000D01*
X152019000Y-101854000D01*
X152019000Y-100604750D01*
X152273000Y-100604750D01*
X152273000Y-101854000D01*
X152293000Y-101854000D01*
X152293000Y-102108000D01*
X152273000Y-102108000D01*
X152273000Y-103357250D01*
X152431750Y-103516000D01*
X153172309Y-103516000D01*
X153405698Y-103419327D01*
X153584327Y-103240699D01*
X153640139Y-103105956D01*
X153816493Y-103282310D01*
X154380670Y-103516000D01*
X154991330Y-103516000D01*
X155555507Y-103282310D01*
X155987310Y-102850507D01*
X156221000Y-102286330D01*
X156221000Y-101675670D01*
X155987310Y-101111493D01*
X155555507Y-100679690D01*
X154991330Y-100446000D01*
X154380670Y-100446000D01*
X153816493Y-100679690D01*
X153640139Y-100856044D01*
X153584327Y-100721301D01*
X153405698Y-100542673D01*
X153172309Y-100446000D01*
X152431750Y-100446000D01*
X152273000Y-100604750D01*
X152019000Y-100604750D01*
X151860250Y-100446000D01*
X151119691Y-100446000D01*
X150886302Y-100542673D01*
X150707673Y-100721301D01*
X150611000Y-100954690D01*
X149674542Y-100954690D01*
X149552534Y-100660138D01*
X149148862Y-100256466D01*
X148621439Y-100038000D01*
X148050561Y-100038000D01*
X147523138Y-100256466D01*
X147119466Y-100660138D01*
X146901000Y-101187561D01*
X146901000Y-101758439D01*
X147119466Y-102285862D01*
X147523138Y-102689534D01*
X147653168Y-102743394D01*
X147301423Y-102978423D01*
X146984260Y-103453091D01*
X146872887Y-104013000D01*
X139639113Y-104013000D01*
X139527740Y-103453091D01*
X139210577Y-102978423D01*
X138858832Y-102743394D01*
X138988862Y-102689534D01*
X139392534Y-102285862D01*
X139400450Y-102266750D01*
X140451000Y-102266750D01*
X140451000Y-103007310D01*
X140547673Y-103240699D01*
X140726302Y-103419327D01*
X140959691Y-103516000D01*
X141700250Y-103516000D01*
X141859000Y-103357250D01*
X141859000Y-102108000D01*
X140609750Y-102108000D01*
X140451000Y-102266750D01*
X139400450Y-102266750D01*
X139611000Y-101758439D01*
X139611000Y-101187561D01*
X139514542Y-100954690D01*
X140451000Y-100954690D01*
X140451000Y-101695250D01*
X140609750Y-101854000D01*
X141859000Y-101854000D01*
X141859000Y-100604750D01*
X142113000Y-100604750D01*
X142113000Y-101854000D01*
X142133000Y-101854000D01*
X142133000Y-102108000D01*
X142113000Y-102108000D01*
X142113000Y-103357250D01*
X142271750Y-103516000D01*
X143012309Y-103516000D01*
X143245698Y-103419327D01*
X143424327Y-103240699D01*
X143480139Y-103105956D01*
X143656493Y-103282310D01*
X144220670Y-103516000D01*
X144831330Y-103516000D01*
X145395507Y-103282310D01*
X145827310Y-102850507D01*
X146061000Y-102286330D01*
X146061000Y-101675670D01*
X145827310Y-101111493D01*
X145395507Y-100679690D01*
X144831330Y-100446000D01*
X144220670Y-100446000D01*
X143656493Y-100679690D01*
X143480139Y-100856044D01*
X143424327Y-100721301D01*
X143245698Y-100542673D01*
X143012309Y-100446000D01*
X142271750Y-100446000D01*
X142113000Y-100604750D01*
X141859000Y-100604750D01*
X141700250Y-100446000D01*
X140959691Y-100446000D01*
X140726302Y-100542673D01*
X140547673Y-100721301D01*
X140451000Y-100954690D01*
X139514542Y-100954690D01*
X139392534Y-100660138D01*
X138988862Y-100256466D01*
X138461439Y-100038000D01*
X137890561Y-100038000D01*
X137363138Y-100256466D01*
X136959466Y-100660138D01*
X136741000Y-101187561D01*
X136741000Y-101758439D01*
X136959466Y-102285862D01*
X137363138Y-102689534D01*
X137493168Y-102743394D01*
X137141423Y-102978423D01*
X136824260Y-103453091D01*
X136712887Y-104013000D01*
X129479113Y-104013000D01*
X129367740Y-103453091D01*
X129050577Y-102978423D01*
X128698832Y-102743394D01*
X128828862Y-102689534D01*
X129232534Y-102285862D01*
X129240450Y-102266750D01*
X130291000Y-102266750D01*
X130291000Y-103007310D01*
X130387673Y-103240699D01*
X130566302Y-103419327D01*
X130799691Y-103516000D01*
X131540250Y-103516000D01*
X131699000Y-103357250D01*
X131699000Y-102108000D01*
X130449750Y-102108000D01*
X130291000Y-102266750D01*
X129240450Y-102266750D01*
X129451000Y-101758439D01*
X129451000Y-101187561D01*
X129354542Y-100954690D01*
X130291000Y-100954690D01*
X130291000Y-101695250D01*
X130449750Y-101854000D01*
X131699000Y-101854000D01*
X131699000Y-100604750D01*
X131953000Y-100604750D01*
X131953000Y-101854000D01*
X131973000Y-101854000D01*
X131973000Y-102108000D01*
X131953000Y-102108000D01*
X131953000Y-103357250D01*
X132111750Y-103516000D01*
X132852309Y-103516000D01*
X133085698Y-103419327D01*
X133264327Y-103240699D01*
X133320139Y-103105956D01*
X133496493Y-103282310D01*
X134060670Y-103516000D01*
X134671330Y-103516000D01*
X135235507Y-103282310D01*
X135667310Y-102850507D01*
X135901000Y-102286330D01*
X135901000Y-101675670D01*
X135667310Y-101111493D01*
X135235507Y-100679690D01*
X134671330Y-100446000D01*
X134060670Y-100446000D01*
X133496493Y-100679690D01*
X133320139Y-100856044D01*
X133264327Y-100721301D01*
X133085698Y-100542673D01*
X132852309Y-100446000D01*
X132111750Y-100446000D01*
X131953000Y-100604750D01*
X131699000Y-100604750D01*
X131540250Y-100446000D01*
X130799691Y-100446000D01*
X130566302Y-100542673D01*
X130387673Y-100721301D01*
X130291000Y-100954690D01*
X129354542Y-100954690D01*
X129232534Y-100660138D01*
X128828862Y-100256466D01*
X128301439Y-100038000D01*
X127730561Y-100038000D01*
X127203138Y-100256466D01*
X126799466Y-100660138D01*
X126581000Y-101187561D01*
X126581000Y-101758439D01*
X126799466Y-102285862D01*
X127203138Y-102689534D01*
X127333168Y-102743394D01*
X126981423Y-102978423D01*
X126664260Y-103453091D01*
X126552887Y-104013000D01*
X119461131Y-104013000D01*
X120230553Y-103243579D01*
X120406302Y-103419327D01*
X120639691Y-103516000D01*
X121380250Y-103516000D01*
X121539000Y-103357250D01*
X121539000Y-102108000D01*
X121519000Y-102108000D01*
X121519000Y-101854000D01*
X121539000Y-101854000D01*
X121539000Y-100604750D01*
X121793000Y-100604750D01*
X121793000Y-101854000D01*
X121813000Y-101854000D01*
X121813000Y-102108000D01*
X121793000Y-102108000D01*
X121793000Y-103357250D01*
X121951750Y-103516000D01*
X122692309Y-103516000D01*
X122925698Y-103419327D01*
X123104327Y-103240699D01*
X123160139Y-103105956D01*
X123336493Y-103282310D01*
X123900670Y-103516000D01*
X124511330Y-103516000D01*
X125075507Y-103282310D01*
X125507310Y-102850507D01*
X125741000Y-102286330D01*
X125741000Y-101675670D01*
X125507310Y-101111493D01*
X125075507Y-100679690D01*
X124511330Y-100446000D01*
X123900670Y-100446000D01*
X123336493Y-100679690D01*
X123160139Y-100856044D01*
X123104327Y-100721301D01*
X122925698Y-100542673D01*
X122692309Y-100446000D01*
X121951750Y-100446000D01*
X121793000Y-100604750D01*
X121539000Y-100604750D01*
X121380250Y-100446000D01*
X121023000Y-100446000D01*
X121023000Y-97371000D01*
X130250217Y-97371000D01*
X130362000Y-97393235D01*
X130473783Y-97371000D01*
X144825217Y-97371000D01*
X144937000Y-97393235D01*
X145048783Y-97371000D01*
X145379855Y-97305146D01*
X145755289Y-97054289D01*
X145818613Y-96959518D01*
X147236132Y-95542000D01*
X147351439Y-95542000D01*
X147878862Y-95323534D01*
X147960396Y-95242000D01*
X149727604Y-95242000D01*
X149809138Y-95323534D01*
X150336561Y-95542000D01*
X150907439Y-95542000D01*
X151095747Y-95464000D01*
X154362132Y-95464000D01*
X154444191Y-95586809D01*
X154654235Y-95727157D01*
X154902000Y-95776440D01*
X155544309Y-95776440D01*
X156376389Y-96608521D01*
X156439711Y-96703289D01*
X156815145Y-96954146D01*
X157146217Y-97020000D01*
X157257999Y-97042235D01*
X157369781Y-97020000D01*
X159887604Y-97020000D01*
X159969138Y-97101534D01*
X160496561Y-97320000D01*
X161067439Y-97320000D01*
X161594862Y-97101534D01*
X161998534Y-96697862D01*
X162137834Y-96361561D01*
X174841000Y-96361561D01*
X174841000Y-96932439D01*
X175059466Y-97459862D01*
X175463138Y-97863534D01*
X175990561Y-98082000D01*
X176561439Y-98082000D01*
X177088862Y-97863534D01*
X177492534Y-97459862D01*
X177711000Y-96932439D01*
X177711000Y-96361561D01*
X177492534Y-95834138D01*
X177088862Y-95430466D01*
X176561439Y-95212000D01*
X175990561Y-95212000D01*
X175463138Y-95430466D01*
X175059466Y-95834138D01*
X174841000Y-96361561D01*
X162137834Y-96361561D01*
X162217000Y-96170439D01*
X162217000Y-95599561D01*
X161998534Y-95072138D01*
X161594862Y-94668466D01*
X161067439Y-94450000D01*
X160496561Y-94450000D01*
X159969138Y-94668466D01*
X159887604Y-94750000D01*
X157728132Y-94750000D01*
X157149440Y-94171309D01*
X157149440Y-93529000D01*
X157100157Y-93281235D01*
X156960005Y-93071484D01*
X157109797Y-92654745D01*
X175447861Y-92654745D01*
X175521995Y-92900864D01*
X176059223Y-93093965D01*
X176629454Y-93066778D01*
X177030005Y-92900864D01*
X177104139Y-92654745D01*
X176276000Y-91826605D01*
X175447861Y-92654745D01*
X157109797Y-92654745D01*
X157148965Y-92545777D01*
X157121778Y-91975546D01*
X157087481Y-91892745D01*
X159953861Y-91892745D01*
X160027995Y-92138864D01*
X160565223Y-92331965D01*
X161135454Y-92304778D01*
X161536005Y-92138864D01*
X161610139Y-91892745D01*
X160782000Y-91064605D01*
X159953861Y-91892745D01*
X157087481Y-91892745D01*
X156955864Y-91574995D01*
X156709745Y-91500861D01*
X155881605Y-92329000D01*
X155895748Y-92343142D01*
X155716143Y-92522748D01*
X155702000Y-92508605D01*
X155687858Y-92522748D01*
X155508252Y-92343142D01*
X155522395Y-92329000D01*
X154694255Y-91500861D01*
X154448136Y-91574995D01*
X154255035Y-92112223D01*
X154282222Y-92682454D01*
X154443605Y-93072067D01*
X154362132Y-93194000D01*
X151738396Y-93194000D01*
X151434862Y-92890466D01*
X151304832Y-92836606D01*
X151656577Y-92601577D01*
X151973740Y-92126909D01*
X152085113Y-91567000D01*
X152036232Y-91321255D01*
X154873861Y-91321255D01*
X155702000Y-92149395D01*
X156530139Y-91321255D01*
X156456005Y-91075136D01*
X155918777Y-90882035D01*
X155348546Y-90909222D01*
X154947995Y-91075136D01*
X154873861Y-91321255D01*
X152036232Y-91321255D01*
X151973740Y-91007091D01*
X151747316Y-90668223D01*
X159335035Y-90668223D01*
X159362222Y-91238454D01*
X159528136Y-91639005D01*
X159774255Y-91713139D01*
X160602395Y-90885000D01*
X160961605Y-90885000D01*
X161789745Y-91713139D01*
X162035864Y-91639005D01*
X162110908Y-91430223D01*
X174829035Y-91430223D01*
X174856222Y-92000454D01*
X175022136Y-92401005D01*
X175268255Y-92475139D01*
X176096395Y-91647000D01*
X176455605Y-91647000D01*
X177283745Y-92475139D01*
X177529864Y-92401005D01*
X177722965Y-91863777D01*
X177695778Y-91293546D01*
X177694934Y-91291506D01*
X178447000Y-91291506D01*
X178447000Y-91842494D01*
X178657853Y-92351540D01*
X179047460Y-92741147D01*
X179556506Y-92952000D01*
X180107494Y-92952000D01*
X180616540Y-92741147D01*
X181006147Y-92351540D01*
X181199629Y-91884431D01*
X184201000Y-91884431D01*
X184201000Y-92773569D01*
X184541259Y-93595026D01*
X185169974Y-94223741D01*
X185991431Y-94564000D01*
X186880569Y-94564000D01*
X187702026Y-94223741D01*
X188330741Y-93595026D01*
X188671000Y-92773569D01*
X188671000Y-91884431D01*
X188330741Y-91062974D01*
X187702026Y-90434259D01*
X186880569Y-90094000D01*
X185991431Y-90094000D01*
X185169974Y-90434259D01*
X184541259Y-91062974D01*
X184201000Y-91884431D01*
X181199629Y-91884431D01*
X181217000Y-91842494D01*
X181217000Y-91291506D01*
X181006147Y-90782460D01*
X180616540Y-90392853D01*
X180107494Y-90182000D01*
X179556506Y-90182000D01*
X179047460Y-90392853D01*
X178657853Y-90782460D01*
X178447000Y-91291506D01*
X177694934Y-91291506D01*
X177529864Y-90892995D01*
X177283745Y-90818861D01*
X176455605Y-91647000D01*
X176096395Y-91647000D01*
X175268255Y-90818861D01*
X175022136Y-90892995D01*
X174829035Y-91430223D01*
X162110908Y-91430223D01*
X162228965Y-91101777D01*
X162206914Y-90639255D01*
X175447861Y-90639255D01*
X176276000Y-91467395D01*
X177104139Y-90639255D01*
X177030005Y-90393136D01*
X176492777Y-90200035D01*
X175922546Y-90227222D01*
X175521995Y-90393136D01*
X175447861Y-90639255D01*
X162206914Y-90639255D01*
X162201778Y-90531546D01*
X162035864Y-90130995D01*
X161789745Y-90056861D01*
X160961605Y-90885000D01*
X160602395Y-90885000D01*
X159774255Y-90056861D01*
X159528136Y-90130995D01*
X159335035Y-90668223D01*
X151747316Y-90668223D01*
X151656577Y-90532423D01*
X151181909Y-90215260D01*
X150763333Y-90132000D01*
X150480667Y-90132000D01*
X150386582Y-90150715D01*
X150113122Y-89877255D01*
X159953861Y-89877255D01*
X160782000Y-90705395D01*
X161610139Y-89877255D01*
X161536005Y-89631136D01*
X160998777Y-89438035D01*
X160428546Y-89465222D01*
X160027995Y-89631136D01*
X159953861Y-89877255D01*
X150113122Y-89877255D01*
X149238587Y-89002720D01*
X149192001Y-88932999D01*
X148915801Y-88748448D01*
X148672237Y-88700000D01*
X148672233Y-88700000D01*
X148590000Y-88683643D01*
X148507767Y-88700000D01*
X141520237Y-88700000D01*
X141438000Y-88683642D01*
X141355763Y-88700000D01*
X141112199Y-88748448D01*
X140835999Y-88932999D01*
X140789415Y-89002717D01*
X137462720Y-92329413D01*
X137462714Y-92329417D01*
X137440704Y-92351427D01*
X137420358Y-92343000D01*
X136819642Y-92343000D01*
X136264654Y-92572884D01*
X136095504Y-92742034D01*
X136093157Y-92730235D01*
X135952809Y-92520191D01*
X135742765Y-92379843D01*
X135495000Y-92330560D01*
X133745000Y-92330560D01*
X133497235Y-92379843D01*
X133287191Y-92520191D01*
X133155018Y-92718000D01*
X132856783Y-92718000D01*
X132745000Y-92695765D01*
X132353851Y-92773569D01*
X132302145Y-92783854D01*
X131926711Y-93034711D01*
X131863389Y-93129479D01*
X129891869Y-95101000D01*
X129225421Y-95101000D01*
X129286455Y-94915060D01*
X128404000Y-94032605D01*
X127521545Y-94915060D01*
X127582579Y-95101000D01*
X126791462Y-95101000D01*
X127184116Y-94708346D01*
X127193121Y-94686606D01*
X127341940Y-94735455D01*
X128224395Y-93853000D01*
X128583605Y-93853000D01*
X129466060Y-94735455D01*
X129719953Y-94652116D01*
X129925590Y-94087694D01*
X129899579Y-93487542D01*
X129719953Y-93053884D01*
X129466060Y-92970545D01*
X128583605Y-93853000D01*
X128224395Y-93853000D01*
X127341940Y-92970545D01*
X127193121Y-93019394D01*
X127184116Y-92997654D01*
X126977402Y-92790940D01*
X127521545Y-92790940D01*
X128404000Y-93673395D01*
X129286455Y-92790940D01*
X129203116Y-92537047D01*
X128638694Y-92331410D01*
X128038542Y-92357421D01*
X127604884Y-92537047D01*
X127521545Y-92790940D01*
X126977402Y-92790940D01*
X126759346Y-92572884D01*
X126204358Y-92343000D01*
X125603642Y-92343000D01*
X125048654Y-92572884D01*
X124654000Y-92967538D01*
X124259346Y-92572884D01*
X123704358Y-92343000D01*
X123103642Y-92343000D01*
X122548654Y-92572884D01*
X122379504Y-92742034D01*
X122377157Y-92730235D01*
X122236809Y-92520191D01*
X122026765Y-92379843D01*
X121779000Y-92330560D01*
X120029000Y-92330560D01*
X119781235Y-92379843D01*
X119571191Y-92520191D01*
X119430843Y-92730235D01*
X119381560Y-92978000D01*
X119381560Y-94728000D01*
X119430843Y-94975765D01*
X119571191Y-95185809D01*
X119732965Y-95293904D01*
X119672481Y-95354388D01*
X119577711Y-95417711D01*
X119514389Y-95512480D01*
X119164481Y-95862388D01*
X119069711Y-95925711D01*
X118818855Y-96301145D01*
X118818854Y-96301146D01*
X118730765Y-96744000D01*
X118753000Y-96855783D01*
X118753001Y-100340605D01*
X118668862Y-100256466D01*
X118141439Y-100038000D01*
X117570561Y-100038000D01*
X117043138Y-100256466D01*
X116639466Y-100660138D01*
X116421000Y-101187561D01*
X116421000Y-101758439D01*
X116639466Y-102285862D01*
X117043138Y-102689534D01*
X117173168Y-102743394D01*
X116821423Y-102978423D01*
X116504260Y-103453091D01*
X116392887Y-104013000D01*
X109422000Y-104013000D01*
X109422000Y-102266750D01*
X109971000Y-102266750D01*
X109971000Y-103007310D01*
X110067673Y-103240699D01*
X110246302Y-103419327D01*
X110479691Y-103516000D01*
X111220250Y-103516000D01*
X111379000Y-103357250D01*
X111379000Y-102108000D01*
X110129750Y-102108000D01*
X109971000Y-102266750D01*
X109422000Y-102266750D01*
X109422000Y-100954690D01*
X109971000Y-100954690D01*
X109971000Y-101695250D01*
X110129750Y-101854000D01*
X111379000Y-101854000D01*
X111379000Y-100604750D01*
X111633000Y-100604750D01*
X111633000Y-101854000D01*
X111653000Y-101854000D01*
X111653000Y-102108000D01*
X111633000Y-102108000D01*
X111633000Y-103357250D01*
X111791750Y-103516000D01*
X112532309Y-103516000D01*
X112765698Y-103419327D01*
X112944327Y-103240699D01*
X113000139Y-103105956D01*
X113176493Y-103282310D01*
X113740670Y-103516000D01*
X114351330Y-103516000D01*
X114915507Y-103282310D01*
X115347310Y-102850507D01*
X115581000Y-102286330D01*
X115581000Y-101675670D01*
X115347310Y-101111493D01*
X114915507Y-100679690D01*
X114351330Y-100446000D01*
X113740670Y-100446000D01*
X113176493Y-100679690D01*
X113000139Y-100856044D01*
X112944327Y-100721301D01*
X112765698Y-100542673D01*
X112532309Y-100446000D01*
X111791750Y-100446000D01*
X111633000Y-100604750D01*
X111379000Y-100604750D01*
X111220250Y-100446000D01*
X110479691Y-100446000D01*
X110246302Y-100542673D01*
X110067673Y-100721301D01*
X109971000Y-100954690D01*
X109422000Y-100954690D01*
X109422000Y-91884431D01*
X111557000Y-91884431D01*
X111557000Y-92773569D01*
X111897259Y-93595026D01*
X112525974Y-94223741D01*
X113347431Y-94564000D01*
X114236569Y-94564000D01*
X115058026Y-94223741D01*
X115686741Y-93595026D01*
X116027000Y-92773569D01*
X116027000Y-91884431D01*
X115686741Y-91062974D01*
X115058026Y-90434259D01*
X114236569Y-90094000D01*
X113347431Y-90094000D01*
X112525974Y-90434259D01*
X111897259Y-91062974D01*
X111557000Y-91884431D01*
X109422000Y-91884431D01*
X109422000Y-87959000D01*
X190806001Y-87959000D01*
X190806000Y-111939000D01*
G36*
X146031423Y-90532423D02*
X145714260Y-91007091D01*
X145602887Y-91567000D01*
X145714260Y-92126909D01*
X146031423Y-92601577D01*
X146383168Y-92836606D01*
X146253138Y-92890466D01*
X145849466Y-93294138D01*
X145631000Y-93821561D01*
X145631000Y-93936868D01*
X144466869Y-95101000D01*
X142941421Y-95101000D01*
X143002455Y-94915060D01*
X142120000Y-94032605D01*
X141237545Y-94915060D01*
X141298579Y-95101000D01*
X140507462Y-95101000D01*
X140900116Y-94708346D01*
X140909121Y-94686606D01*
X141057940Y-94735455D01*
X141940395Y-93853000D01*
X142299605Y-93853000D01*
X143182060Y-94735455D01*
X143435953Y-94652116D01*
X143641590Y-94087694D01*
X143615579Y-93487542D01*
X143435953Y-93053884D01*
X143182060Y-92970545D01*
X142299605Y-93853000D01*
X141940395Y-93853000D01*
X141057940Y-92970545D01*
X140909121Y-93019394D01*
X140900116Y-92997654D01*
X140693402Y-92790940D01*
X141237545Y-92790940D01*
X142120000Y-93673395D01*
X143002455Y-92790940D01*
X142919116Y-92537047D01*
X142354694Y-92331410D01*
X141754542Y-92357421D01*
X141320884Y-92537047D01*
X141237545Y-92790940D01*
X140693402Y-92790940D01*
X140475346Y-92572884D01*
X139920358Y-92343000D01*
X139810867Y-92343000D01*
X141783868Y-90370000D01*
X146274506Y-90370000D01*
X146031423Y-90532423D01*
X146031423Y-90532423D01*
G37*
X146031423Y-90532423D02*
X145714260Y-91007091D01*
X145602887Y-91567000D01*
X145714260Y-92126909D01*
X146031423Y-92601577D01*
X146383168Y-92836606D01*
X146253138Y-92890466D01*
X145849466Y-93294138D01*
X145631000Y-93821561D01*
X145631000Y-93936868D01*
X144466869Y-95101000D01*
X142941421Y-95101000D01*
X143002455Y-94915060D01*
X142120000Y-94032605D01*
X141237545Y-94915060D01*
X141298579Y-95101000D01*
X140507462Y-95101000D01*
X140900116Y-94708346D01*
X140909121Y-94686606D01*
X141057940Y-94735455D01*
X141940395Y-93853000D01*
X142299605Y-93853000D01*
X143182060Y-94735455D01*
X143435953Y-94652116D01*
X143641590Y-94087694D01*
X143615579Y-93487542D01*
X143435953Y-93053884D01*
X143182060Y-92970545D01*
X142299605Y-93853000D01*
X141940395Y-93853000D01*
X141057940Y-92970545D01*
X140909121Y-93019394D01*
X140900116Y-92997654D01*
X140693402Y-92790940D01*
X141237545Y-92790940D01*
X142120000Y-93673395D01*
X143002455Y-92790940D01*
X142919116Y-92537047D01*
X142354694Y-92331410D01*
X141754542Y-92357421D01*
X141320884Y-92537047D01*
X141237545Y-92790940D01*
X140693402Y-92790940D01*
X140475346Y-92572884D01*
X139920358Y-92343000D01*
X139810867Y-92343000D01*
X141783868Y-90370000D01*
X146274506Y-90370000D01*
X146031423Y-90532423D01*
G04 #@! TD*
M02*
