M48
;DRILL file {KiCad (5.0.0-rc2-63-gd4393b281)} date 06/20/18 09:41:18
;FORMAT={-:-/ absolute / inch / decimal}
FMAT,2
INCH,TZ
T1C0.0157
T2C0.0315
T3C0.0354
T4C0.0394
T5C0.1260
%
G90
G05
M72
T1
X6.61Y-3.6435
X6.61Y-3.745
X6.78Y-3.695
X7.14Y-3.855
T2
X6.13Y-3.635
X6.13Y-3.7137
X6.24Y-3.995
X6.24Y-4.095
X7.44Y-4.195
X7.44Y-4.295
X4.64Y-4.195
X4.64Y-4.295
X6.94Y-3.6081
X6.94Y-3.805
X6.24Y-4.195
X6.24Y-4.295
X5.84Y-3.995
X5.84Y-4.095
X4.64Y-3.995
X4.64Y-4.095
X5.84Y-4.195
X5.84Y-4.295
X5.93Y-3.605
X5.93Y-3.705
X7.08Y-3.605
X7.04Y-3.995
X7.04Y-4.095
X6.64Y-4.195
X6.64Y-4.295
X5.44Y-3.995
X5.44Y-4.095
X5.79Y-3.605
X5.79Y-3.705
X7.04Y-4.195
X7.04Y-4.295
X5.04Y-4.195
X5.04Y-4.295
X5.44Y-4.195
X5.44Y-4.295
X6.64Y-3.995
X6.64Y-4.095
X6.33Y-3.5781
X6.33Y-3.775
X5.04Y-3.995
X5.04Y-4.095
X7.44Y-3.995
X7.44Y-4.095
T3
X7.19Y-4.015
X7.29Y-4.015
X6.79Y-4.275
X6.89Y-4.275
X4.39Y-4.015
X4.49Y-4.015
X6.39Y-4.275
X6.49Y-4.275
X4.79Y-4.015
X4.89Y-4.015
X6.79Y-4.015
X6.89Y-4.015
X5.59Y-4.275
X5.69Y-4.275
X4.79Y-4.275
X4.89Y-4.275
X6.39Y-4.015
X6.49Y-4.015
X5.19Y-4.015
X5.29Y-4.015
X5.99Y-4.275
X6.09Y-4.275
X7.19Y-4.275
X7.29Y-4.275
X5.59Y-4.015
X5.69Y-4.015
X5.19Y-4.275
X5.29Y-4.275
X4.39Y-4.275
X4.49Y-4.275
X5.99Y-4.015
X6.09Y-4.015
T4
X4.76Y-3.695
X4.8584Y-3.695
X4.9569Y-3.695
X5.0553Y-3.695
X5.3Y-3.695
X5.3984Y-3.695
X5.4969Y-3.695
X5.5953Y-3.695
T5
X4.48Y-3.635
X7.34Y-3.635
T0
M30
