G04 #@! TF.GenerationSoftware,KiCad,Pcbnew,(5.0.0-rc2-63-gd4393b281)*
G04 #@! TF.CreationDate,2018-06-20T09:41:05-07:00*
G04 #@! TF.ProjectId,IRSensorArray,495253656E736F7241727261792E6B69,rev?*
G04 #@! TF.SameCoordinates,Original*
G04 #@! TF.FileFunction,Copper,L1,Top,Signal*
G04 #@! TF.FilePolarity,Positive*
%FSLAX46Y46*%
G04 Gerber Fmt 4.6, Leading zero omitted, Abs format (unit mm)*
G04 Created by KiCad (PCBNEW (5.0.0-rc2-63-gd4393b281)) date 06/20/18 09:41:05*
%MOMM*%
%LPD*%
G01*
G04 APERTURE LIST*
G04 #@! TA.AperFunction,ComponentPad*
%ADD10C,1.600000*%
G04 #@! TD*
G04 #@! TA.AperFunction,ComponentPad*
%ADD11R,1.600000X1.600000*%
G04 #@! TD*
G04 #@! TA.AperFunction,ComponentPad*
%ADD12C,1.800000*%
G04 #@! TD*
G04 #@! TA.AperFunction,ComponentPad*
%ADD13R,1.800000X1.800000*%
G04 #@! TD*
G04 #@! TA.AperFunction,ComponentPad*
%ADD14C,1.500000*%
G04 #@! TD*
G04 #@! TA.AperFunction,ComponentPad*
%ADD15O,1.600000X1.600000*%
G04 #@! TD*
G04 #@! TA.AperFunction,SMDPad,CuDef*
%ADD16R,0.450000X1.500000*%
G04 #@! TD*
G04 #@! TA.AperFunction,ComponentPad*
%ADD17R,1.750000X1.750000*%
G04 #@! TD*
G04 #@! TA.AperFunction,ComponentPad*
%ADD18C,1.750000*%
G04 #@! TD*
G04 #@! TA.AperFunction,Conductor*
%ADD19C,0.100000*%
G04 #@! TD*
G04 #@! TA.AperFunction,SMDPad,CuDef*
%ADD20C,1.000000*%
G04 #@! TD*
G04 #@! TA.AperFunction,SMDPad,CuDef*
%ADD21R,0.500000X1.500000*%
G04 #@! TD*
G04 #@! TA.AperFunction,SMDPad,CuDef*
%ADD22R,1.000000X1.500000*%
G04 #@! TD*
G04 #@! TA.AperFunction,SMDPad,CuDef*
%ADD23R,1.500000X0.500000*%
G04 #@! TD*
G04 #@! TA.AperFunction,SMDPad,CuDef*
%ADD24R,1.500000X1.000000*%
G04 #@! TD*
G04 #@! TA.AperFunction,ViaPad*
%ADD25C,0.800000*%
G04 #@! TD*
G04 #@! TA.AperFunction,Conductor*
%ADD26C,0.400000*%
G04 #@! TD*
G04 #@! TA.AperFunction,Conductor*
%ADD27C,1.000000*%
G04 #@! TD*
G04 #@! TA.AperFunction,Conductor*
%ADD28C,0.254000*%
G04 #@! TD*
G04 APERTURE END LIST*
D10*
G04 #@! TO.P,C1,2*
G04 #@! TO.N,GND*
X176276000Y-91647000D03*
G04 #@! TO.P,C1,1*
G04 #@! TO.N,/REF*
X176276000Y-96647000D03*
G04 #@! TD*
G04 #@! TO.P,C2,2*
G04 #@! TO.N,GND*
X155702000Y-92329000D03*
D11*
G04 #@! TO.P,C2,1*
G04 #@! TO.N,+5V*
X155702000Y-94329000D03*
G04 #@! TD*
D10*
G04 #@! TO.P,C4,1*
G04 #@! TO.N,+5V*
X160782000Y-95885000D03*
G04 #@! TO.P,C4,2*
G04 #@! TO.N,GND*
X160782000Y-90885000D03*
G04 #@! TD*
D12*
G04 #@! TO.P,D1,2*
G04 #@! TO.N,Net-(D1-Pad2)*
X114046000Y-108585000D03*
D13*
G04 #@! TO.P,D1,1*
G04 #@! TO.N,GND*
X111506000Y-108585000D03*
G04 #@! TD*
G04 #@! TO.P,D2,1*
G04 #@! TO.N,GND*
X152146000Y-108585000D03*
D12*
G04 #@! TO.P,D2,2*
G04 #@! TO.N,Net-(D2-Pad2)*
X154686000Y-108585000D03*
G04 #@! TD*
G04 #@! TO.P,D3,2*
G04 #@! TO.N,Net-(D3-Pad2)*
X124206000Y-108585000D03*
D13*
G04 #@! TO.P,D3,1*
G04 #@! TO.N,GND*
X121666000Y-108585000D03*
G04 #@! TD*
G04 #@! TO.P,D4,1*
G04 #@! TO.N,GND*
X162306000Y-108585000D03*
D12*
G04 #@! TO.P,D4,2*
G04 #@! TO.N,Net-(D4-Pad2)*
X164846000Y-108585000D03*
G04 #@! TD*
D13*
G04 #@! TO.P,D5,1*
G04 #@! TO.N,GND*
X131826000Y-108585000D03*
D12*
G04 #@! TO.P,D5,2*
G04 #@! TO.N,Net-(D5-Pad2)*
X134366000Y-108585000D03*
G04 #@! TD*
G04 #@! TO.P,D6,2*
G04 #@! TO.N,Net-(D6-Pad2)*
X175006000Y-108585000D03*
D13*
G04 #@! TO.P,D6,1*
G04 #@! TO.N,GND*
X172466000Y-108585000D03*
G04 #@! TD*
G04 #@! TO.P,D7,1*
G04 #@! TO.N,GND*
X141986000Y-108585000D03*
D12*
G04 #@! TO.P,D7,2*
G04 #@! TO.N,Net-(D7-Pad2)*
X144526000Y-108585000D03*
G04 #@! TD*
D13*
G04 #@! TO.P,D8,1*
G04 #@! TO.N,GND*
X182626000Y-108585000D03*
D12*
G04 #@! TO.P,D8,2*
G04 #@! TO.N,Net-(D8-Pad2)*
X185166000Y-108585000D03*
G04 #@! TD*
D14*
G04 #@! TO.P,J1,1*
G04 #@! TO.N,Net-(J1-Pad1)*
X179832000Y-91567000D03*
G04 #@! TD*
D13*
G04 #@! TO.P,Q1,1*
G04 #@! TO.N,GND*
X111506000Y-101981000D03*
D12*
G04 #@! TO.P,Q1,2*
G04 #@! TO.N,/CH0*
X114046000Y-101981000D03*
G04 #@! TD*
D13*
G04 #@! TO.P,Q2,1*
G04 #@! TO.N,GND*
X152146000Y-101981000D03*
D12*
G04 #@! TO.P,Q2,2*
G04 #@! TO.N,/CH4*
X154686000Y-101981000D03*
G04 #@! TD*
D13*
G04 #@! TO.P,Q3,1*
G04 #@! TO.N,GND*
X121666000Y-101981000D03*
D12*
G04 #@! TO.P,Q3,2*
G04 #@! TO.N,/CH1*
X124206000Y-101981000D03*
G04 #@! TD*
G04 #@! TO.P,Q5,2*
G04 #@! TO.N,/CH2*
X134366000Y-101981000D03*
D13*
G04 #@! TO.P,Q5,1*
G04 #@! TO.N,GND*
X131826000Y-101981000D03*
G04 #@! TD*
D12*
G04 #@! TO.P,Q6,2*
G04 #@! TO.N,/CH6*
X175006000Y-101981000D03*
D13*
G04 #@! TO.P,Q6,1*
G04 #@! TO.N,GND*
X172466000Y-101981000D03*
G04 #@! TD*
D12*
G04 #@! TO.P,Q7,2*
G04 #@! TO.N,/CH3*
X144526000Y-101981000D03*
D13*
G04 #@! TO.P,Q7,1*
G04 #@! TO.N,GND*
X141986000Y-101981000D03*
G04 #@! TD*
D12*
G04 #@! TO.P,Q8,2*
G04 #@! TO.N,/CH7*
X185166000Y-101981000D03*
D13*
G04 #@! TO.P,Q8,1*
G04 #@! TO.N,GND*
X182626000Y-101981000D03*
G04 #@! TD*
D10*
G04 #@! TO.P,R1,1*
G04 #@! TO.N,+5V*
X147066000Y-94107000D03*
D15*
G04 #@! TO.P,R1,2*
G04 #@! TO.N,/SDA*
X147066000Y-91567000D03*
G04 #@! TD*
D10*
G04 #@! TO.P,R2,1*
G04 #@! TO.N,+5V*
X150622000Y-94107000D03*
D15*
G04 #@! TO.P,R2,2*
G04 #@! TO.N,/SCL*
X150622000Y-91567000D03*
G04 #@! TD*
D10*
G04 #@! TO.P,R3,1*
G04 #@! TO.N,Net-(D1-Pad2)*
X117856000Y-109093000D03*
D15*
G04 #@! TO.P,R3,2*
G04 #@! TO.N,+5V*
X117856000Y-106553000D03*
G04 #@! TD*
G04 #@! TO.P,R4,2*
G04 #@! TO.N,+5V*
X117856000Y-104013000D03*
D10*
G04 #@! TO.P,R4,1*
G04 #@! TO.N,/CH0*
X117856000Y-101473000D03*
G04 #@! TD*
D15*
G04 #@! TO.P,R5,2*
G04 #@! TO.N,+5V*
X158496000Y-106553000D03*
D10*
G04 #@! TO.P,R5,1*
G04 #@! TO.N,Net-(D2-Pad2)*
X158496000Y-109093000D03*
G04 #@! TD*
D15*
G04 #@! TO.P,R6,2*
G04 #@! TO.N,+5V*
X158496000Y-104013000D03*
D10*
G04 #@! TO.P,R6,1*
G04 #@! TO.N,/CH4*
X158496000Y-101473000D03*
G04 #@! TD*
G04 #@! TO.P,R7,1*
G04 #@! TO.N,Net-(D3-Pad2)*
X128016000Y-109093000D03*
D15*
G04 #@! TO.P,R7,2*
G04 #@! TO.N,+5V*
X128016000Y-106553000D03*
G04 #@! TD*
G04 #@! TO.P,R8,2*
G04 #@! TO.N,+5V*
X128016000Y-104013000D03*
D10*
G04 #@! TO.P,R8,1*
G04 #@! TO.N,/CH1*
X128016000Y-101473000D03*
G04 #@! TD*
G04 #@! TO.P,R9,1*
G04 #@! TO.N,Net-(D4-Pad2)*
X168656000Y-109093000D03*
D15*
G04 #@! TO.P,R9,2*
G04 #@! TO.N,+5V*
X168656000Y-106553000D03*
G04 #@! TD*
G04 #@! TO.P,R10,2*
G04 #@! TO.N,+5V*
X168656000Y-104013000D03*
D10*
G04 #@! TO.P,R10,1*
G04 #@! TO.N,/CH5*
X168656000Y-101473000D03*
G04 #@! TD*
G04 #@! TO.P,R11,1*
G04 #@! TO.N,Net-(D5-Pad2)*
X138176000Y-109093000D03*
D15*
G04 #@! TO.P,R11,2*
G04 #@! TO.N,+5V*
X138176000Y-106553000D03*
G04 #@! TD*
G04 #@! TO.P,R12,2*
G04 #@! TO.N,+5V*
X138176000Y-104013000D03*
D10*
G04 #@! TO.P,R12,1*
G04 #@! TO.N,/CH2*
X138176000Y-101473000D03*
G04 #@! TD*
G04 #@! TO.P,R13,1*
G04 #@! TO.N,Net-(D6-Pad2)*
X178816000Y-109093000D03*
D15*
G04 #@! TO.P,R13,2*
G04 #@! TO.N,+5V*
X178816000Y-106553000D03*
G04 #@! TD*
G04 #@! TO.P,R14,2*
G04 #@! TO.N,+5V*
X178816000Y-104013000D03*
D10*
G04 #@! TO.P,R14,1*
G04 #@! TO.N,/CH6*
X178816000Y-101473000D03*
G04 #@! TD*
G04 #@! TO.P,R15,1*
G04 #@! TO.N,Net-(D7-Pad2)*
X148336000Y-109093000D03*
D15*
G04 #@! TO.P,R15,2*
G04 #@! TO.N,+5V*
X148336000Y-106553000D03*
G04 #@! TD*
G04 #@! TO.P,R16,2*
G04 #@! TO.N,+5V*
X148336000Y-104013000D03*
D10*
G04 #@! TO.P,R16,1*
G04 #@! TO.N,/CH3*
X148336000Y-101473000D03*
G04 #@! TD*
G04 #@! TO.P,R17,1*
G04 #@! TO.N,Net-(D8-Pad2)*
X188976000Y-109093000D03*
D15*
G04 #@! TO.P,R17,2*
G04 #@! TO.N,+5V*
X188976000Y-106553000D03*
G04 #@! TD*
D10*
G04 #@! TO.P,R18,1*
G04 #@! TO.N,/CH7*
X188976000Y-101473000D03*
D15*
G04 #@! TO.P,R18,2*
G04 #@! TO.N,+5V*
X188976000Y-104013000D03*
G04 #@! TD*
D16*
G04 #@! TO.P,U1,16*
G04 #@! TO.N,+5V*
X168667000Y-90903000D03*
G04 #@! TO.P,U1,15*
G04 #@! TO.N,/SDA*
X169317000Y-90903000D03*
G04 #@! TO.P,U1,14*
G04 #@! TO.N,/SCL*
X169967000Y-90903000D03*
G04 #@! TO.P,U1,13*
G04 #@! TO.N,/SB_1*
X170617000Y-90903000D03*
G04 #@! TO.P,U1,12*
G04 #@! TO.N,/SB_0*
X171267000Y-90903000D03*
G04 #@! TO.P,U1,11*
G04 #@! TO.N,GND*
X171917000Y-90903000D03*
G04 #@! TO.P,U1,10*
G04 #@! TO.N,/REF*
X172567000Y-90903000D03*
G04 #@! TO.P,U1,9*
G04 #@! TO.N,GND*
X173217000Y-90903000D03*
G04 #@! TO.P,U1,8*
G04 #@! TO.N,/CH7*
X173217000Y-96803000D03*
G04 #@! TO.P,U1,7*
G04 #@! TO.N,/CH6*
X172567000Y-96803000D03*
G04 #@! TO.P,U1,6*
G04 #@! TO.N,/CH5*
X171917000Y-96803000D03*
G04 #@! TO.P,U1,5*
G04 #@! TO.N,/CH4*
X171267000Y-96803000D03*
G04 #@! TO.P,U1,4*
G04 #@! TO.N,/CH3*
X170617000Y-96803000D03*
G04 #@! TO.P,U1,3*
G04 #@! TO.N,/CH2*
X169967000Y-96803000D03*
G04 #@! TO.P,U1,2*
G04 #@! TO.N,/CH1*
X169317000Y-96803000D03*
G04 #@! TO.P,U1,1*
G04 #@! TO.N,/CH0*
X168667000Y-96803000D03*
G04 #@! TD*
D17*
G04 #@! TO.P,J2,1*
G04 #@! TO.N,+5V*
X134620000Y-93853000D03*
D18*
G04 #@! TO.P,J2,2*
G04 #@! TO.N,/SCL*
X137120000Y-93853000D03*
G04 #@! TO.P,J2,3*
G04 #@! TO.N,/SDA*
X139620000Y-93853000D03*
G04 #@! TO.P,J2,4*
G04 #@! TO.N,GND*
X142120000Y-93853000D03*
G04 #@! TD*
G04 #@! TO.P,J3,4*
G04 #@! TO.N,GND*
X128404000Y-93853000D03*
G04 #@! TO.P,J3,3*
G04 #@! TO.N,/SDA*
X125904000Y-93853000D03*
G04 #@! TO.P,J3,2*
G04 #@! TO.N,/SCL*
X123404000Y-93853000D03*
D17*
G04 #@! TO.P,J3,1*
G04 #@! TO.N,+5V*
X120904000Y-93853000D03*
G04 #@! TD*
D19*
G04 #@! TO.N,+5V*
G04 #@! TO.C,JP1*
G36*
X164103010Y-94629408D02*
X164151546Y-94636607D01*
X164199143Y-94648530D01*
X164245343Y-94665060D01*
X164289699Y-94686039D01*
X164331786Y-94711265D01*
X164371198Y-94740495D01*
X164407554Y-94773447D01*
X164440506Y-94809803D01*
X164469736Y-94849215D01*
X164494962Y-94891302D01*
X164515941Y-94935658D01*
X164532471Y-94981858D01*
X164544394Y-95029455D01*
X164551593Y-95077991D01*
X164554001Y-95127000D01*
X164554001Y-95627000D01*
X164551593Y-95676009D01*
X164544394Y-95724545D01*
X164532471Y-95772142D01*
X164515941Y-95818342D01*
X164494962Y-95862698D01*
X164469736Y-95904785D01*
X164440506Y-95944197D01*
X164407554Y-95980553D01*
X164371198Y-96013505D01*
X164331786Y-96042735D01*
X164289699Y-96067961D01*
X164245343Y-96088940D01*
X164199143Y-96105470D01*
X164151546Y-96117393D01*
X164103010Y-96124592D01*
X164054001Y-96127000D01*
X164053999Y-96127000D01*
X164004990Y-96124592D01*
X163956454Y-96117393D01*
X163908857Y-96105470D01*
X163862657Y-96088940D01*
X163818301Y-96067961D01*
X163776214Y-96042735D01*
X163736802Y-96013505D01*
X163700446Y-95980553D01*
X163667494Y-95944197D01*
X163638264Y-95904785D01*
X163613038Y-95862698D01*
X163592059Y-95818342D01*
X163575529Y-95772142D01*
X163563606Y-95724545D01*
X163556407Y-95676009D01*
X163553999Y-95627000D01*
X163553999Y-95127000D01*
X163556407Y-95077991D01*
X163563606Y-95029455D01*
X163575529Y-94981858D01*
X163592059Y-94935658D01*
X163613038Y-94891302D01*
X163638264Y-94849215D01*
X163667494Y-94809803D01*
X163700446Y-94773447D01*
X163736802Y-94740495D01*
X163776214Y-94711265D01*
X163818301Y-94686039D01*
X163862657Y-94665060D01*
X163908857Y-94648530D01*
X163956454Y-94636607D01*
X164004990Y-94629408D01*
X164053999Y-94627000D01*
X164054001Y-94627000D01*
X164103010Y-94629408D01*
X164103010Y-94629408D01*
G37*
D20*
G04 #@! TD*
G04 #@! TO.P,JP1,1*
G04 #@! TO.N,+5V*
X164054000Y-95377000D03*
D21*
G04 #@! TO.P,JP1,1*
G04 #@! TO.N,+5V*
X164354000Y-95377000D03*
D22*
G04 #@! TO.P,JP1,2*
G04 #@! TO.N,/SB_0*
X165354000Y-95377000D03*
D19*
G04 #@! TD*
G04 #@! TO.N,GND*
G04 #@! TO.C,JP1*
G36*
X166703010Y-94629408D02*
X166751546Y-94636607D01*
X166799143Y-94648530D01*
X166845343Y-94665060D01*
X166889699Y-94686039D01*
X166931786Y-94711265D01*
X166971198Y-94740495D01*
X167007554Y-94773447D01*
X167040506Y-94809803D01*
X167069736Y-94849215D01*
X167094962Y-94891302D01*
X167115941Y-94935658D01*
X167132471Y-94981858D01*
X167144394Y-95029455D01*
X167151593Y-95077991D01*
X167154001Y-95127000D01*
X167154001Y-95627000D01*
X167151593Y-95676009D01*
X167144394Y-95724545D01*
X167132471Y-95772142D01*
X167115941Y-95818342D01*
X167094962Y-95862698D01*
X167069736Y-95904785D01*
X167040506Y-95944197D01*
X167007554Y-95980553D01*
X166971198Y-96013505D01*
X166931786Y-96042735D01*
X166889699Y-96067961D01*
X166845343Y-96088940D01*
X166799143Y-96105470D01*
X166751546Y-96117393D01*
X166703010Y-96124592D01*
X166654001Y-96127000D01*
X166653999Y-96127000D01*
X166604990Y-96124592D01*
X166556454Y-96117393D01*
X166508857Y-96105470D01*
X166462657Y-96088940D01*
X166418301Y-96067961D01*
X166376214Y-96042735D01*
X166336802Y-96013505D01*
X166300446Y-95980553D01*
X166267494Y-95944197D01*
X166238264Y-95904785D01*
X166213038Y-95862698D01*
X166192059Y-95818342D01*
X166175529Y-95772142D01*
X166163606Y-95724545D01*
X166156407Y-95676009D01*
X166153999Y-95627000D01*
X166153999Y-95127000D01*
X166156407Y-95077991D01*
X166163606Y-95029455D01*
X166175529Y-94981858D01*
X166192059Y-94935658D01*
X166213038Y-94891302D01*
X166238264Y-94849215D01*
X166267494Y-94809803D01*
X166300446Y-94773447D01*
X166336802Y-94740495D01*
X166376214Y-94711265D01*
X166418301Y-94686039D01*
X166462657Y-94665060D01*
X166508857Y-94648530D01*
X166556454Y-94636607D01*
X166604990Y-94629408D01*
X166653999Y-94627000D01*
X166654001Y-94627000D01*
X166703010Y-94629408D01*
X166703010Y-94629408D01*
G37*
D20*
G04 #@! TO.P,JP1,3*
G04 #@! TO.N,GND*
X166654000Y-95377000D03*
D21*
X166354000Y-95377000D03*
G04 #@! TD*
D19*
G04 #@! TO.N,+5V*
G04 #@! TO.C,JP2*
G36*
X180131009Y-96433407D02*
X180179545Y-96440606D01*
X180227142Y-96452529D01*
X180273342Y-96469059D01*
X180317698Y-96490038D01*
X180359785Y-96515264D01*
X180399197Y-96544494D01*
X180435553Y-96577446D01*
X180468505Y-96613802D01*
X180497735Y-96653214D01*
X180522961Y-96695301D01*
X180543940Y-96739657D01*
X180560470Y-96785857D01*
X180572393Y-96833454D01*
X180579592Y-96881990D01*
X180582000Y-96930999D01*
X180582000Y-96931001D01*
X180579592Y-96980010D01*
X180572393Y-97028546D01*
X180560470Y-97076143D01*
X180543940Y-97122343D01*
X180522961Y-97166699D01*
X180497735Y-97208786D01*
X180468505Y-97248198D01*
X180435553Y-97284554D01*
X180399197Y-97317506D01*
X180359785Y-97346736D01*
X180317698Y-97371962D01*
X180273342Y-97392941D01*
X180227142Y-97409471D01*
X180179545Y-97421394D01*
X180131009Y-97428593D01*
X180082000Y-97431001D01*
X179582000Y-97431001D01*
X179532991Y-97428593D01*
X179484455Y-97421394D01*
X179436858Y-97409471D01*
X179390658Y-97392941D01*
X179346302Y-97371962D01*
X179304215Y-97346736D01*
X179264803Y-97317506D01*
X179228447Y-97284554D01*
X179195495Y-97248198D01*
X179166265Y-97208786D01*
X179141039Y-97166699D01*
X179120060Y-97122343D01*
X179103530Y-97076143D01*
X179091607Y-97028546D01*
X179084408Y-96980010D01*
X179082000Y-96931001D01*
X179082000Y-96930999D01*
X179084408Y-96881990D01*
X179091607Y-96833454D01*
X179103530Y-96785857D01*
X179120060Y-96739657D01*
X179141039Y-96695301D01*
X179166265Y-96653214D01*
X179195495Y-96613802D01*
X179228447Y-96577446D01*
X179264803Y-96544494D01*
X179304215Y-96515264D01*
X179346302Y-96490038D01*
X179390658Y-96469059D01*
X179436858Y-96452529D01*
X179484455Y-96440606D01*
X179532991Y-96433407D01*
X179582000Y-96430999D01*
X180082000Y-96430999D01*
X180131009Y-96433407D01*
X180131009Y-96433407D01*
G37*
D20*
G04 #@! TD*
G04 #@! TO.P,JP2,1*
G04 #@! TO.N,+5V*
X179832000Y-96931000D03*
D23*
G04 #@! TO.P,JP2,1*
G04 #@! TO.N,+5V*
X179832000Y-96631000D03*
D24*
G04 #@! TO.P,JP2,2*
G04 #@! TO.N,/REF*
X179832000Y-95631000D03*
D19*
G04 #@! TD*
G04 #@! TO.N,Net-(J1-Pad1)*
G04 #@! TO.C,JP2*
G36*
X180131009Y-93833407D02*
X180179545Y-93840606D01*
X180227142Y-93852529D01*
X180273342Y-93869059D01*
X180317698Y-93890038D01*
X180359785Y-93915264D01*
X180399197Y-93944494D01*
X180435553Y-93977446D01*
X180468505Y-94013802D01*
X180497735Y-94053214D01*
X180522961Y-94095301D01*
X180543940Y-94139657D01*
X180560470Y-94185857D01*
X180572393Y-94233454D01*
X180579592Y-94281990D01*
X180582000Y-94330999D01*
X180582000Y-94331001D01*
X180579592Y-94380010D01*
X180572393Y-94428546D01*
X180560470Y-94476143D01*
X180543940Y-94522343D01*
X180522961Y-94566699D01*
X180497735Y-94608786D01*
X180468505Y-94648198D01*
X180435553Y-94684554D01*
X180399197Y-94717506D01*
X180359785Y-94746736D01*
X180317698Y-94771962D01*
X180273342Y-94792941D01*
X180227142Y-94809471D01*
X180179545Y-94821394D01*
X180131009Y-94828593D01*
X180082000Y-94831001D01*
X179582000Y-94831001D01*
X179532991Y-94828593D01*
X179484455Y-94821394D01*
X179436858Y-94809471D01*
X179390658Y-94792941D01*
X179346302Y-94771962D01*
X179304215Y-94746736D01*
X179264803Y-94717506D01*
X179228447Y-94684554D01*
X179195495Y-94648198D01*
X179166265Y-94608786D01*
X179141039Y-94566699D01*
X179120060Y-94522343D01*
X179103530Y-94476143D01*
X179091607Y-94428546D01*
X179084408Y-94380010D01*
X179082000Y-94331001D01*
X179082000Y-94330999D01*
X179084408Y-94281990D01*
X179091607Y-94233454D01*
X179103530Y-94185857D01*
X179120060Y-94139657D01*
X179141039Y-94095301D01*
X179166265Y-94053214D01*
X179195495Y-94013802D01*
X179228447Y-93977446D01*
X179264803Y-93944494D01*
X179304215Y-93915264D01*
X179346302Y-93890038D01*
X179390658Y-93869059D01*
X179436858Y-93852529D01*
X179484455Y-93840606D01*
X179532991Y-93833407D01*
X179582000Y-93830999D01*
X180082000Y-93830999D01*
X180131009Y-93833407D01*
X180131009Y-93833407D01*
G37*
D20*
G04 #@! TO.P,JP2,3*
G04 #@! TO.N,Net-(J1-Pad1)*
X179832000Y-94331000D03*
D23*
X179832000Y-94631000D03*
G04 #@! TD*
D21*
G04 #@! TO.P,JP3,3*
G04 #@! TO.N,GND*
X166354000Y-92075000D03*
D19*
G04 #@! TD*
G04 #@! TO.N,GND*
G04 #@! TO.C,JP3*
G36*
X166703010Y-91327408D02*
X166751546Y-91334607D01*
X166799143Y-91346530D01*
X166845343Y-91363060D01*
X166889699Y-91384039D01*
X166931786Y-91409265D01*
X166971198Y-91438495D01*
X167007554Y-91471447D01*
X167040506Y-91507803D01*
X167069736Y-91547215D01*
X167094962Y-91589302D01*
X167115941Y-91633658D01*
X167132471Y-91679858D01*
X167144394Y-91727455D01*
X167151593Y-91775991D01*
X167154001Y-91825000D01*
X167154001Y-92325000D01*
X167151593Y-92374009D01*
X167144394Y-92422545D01*
X167132471Y-92470142D01*
X167115941Y-92516342D01*
X167094962Y-92560698D01*
X167069736Y-92602785D01*
X167040506Y-92642197D01*
X167007554Y-92678553D01*
X166971198Y-92711505D01*
X166931786Y-92740735D01*
X166889699Y-92765961D01*
X166845343Y-92786940D01*
X166799143Y-92803470D01*
X166751546Y-92815393D01*
X166703010Y-92822592D01*
X166654001Y-92825000D01*
X166653999Y-92825000D01*
X166604990Y-92822592D01*
X166556454Y-92815393D01*
X166508857Y-92803470D01*
X166462657Y-92786940D01*
X166418301Y-92765961D01*
X166376214Y-92740735D01*
X166336802Y-92711505D01*
X166300446Y-92678553D01*
X166267494Y-92642197D01*
X166238264Y-92602785D01*
X166213038Y-92560698D01*
X166192059Y-92516342D01*
X166175529Y-92470142D01*
X166163606Y-92422545D01*
X166156407Y-92374009D01*
X166153999Y-92325000D01*
X166153999Y-91825000D01*
X166156407Y-91775991D01*
X166163606Y-91727455D01*
X166175529Y-91679858D01*
X166192059Y-91633658D01*
X166213038Y-91589302D01*
X166238264Y-91547215D01*
X166267494Y-91507803D01*
X166300446Y-91471447D01*
X166336802Y-91438495D01*
X166376214Y-91409265D01*
X166418301Y-91384039D01*
X166462657Y-91363060D01*
X166508857Y-91346530D01*
X166556454Y-91334607D01*
X166604990Y-91327408D01*
X166653999Y-91325000D01*
X166654001Y-91325000D01*
X166703010Y-91327408D01*
X166703010Y-91327408D01*
G37*
D20*
G04 #@! TO.P,JP3,3*
G04 #@! TO.N,GND*
X166654000Y-92075000D03*
D22*
G04 #@! TO.P,JP3,2*
G04 #@! TO.N,/SB_1*
X165354000Y-92075000D03*
D21*
G04 #@! TO.P,JP3,1*
G04 #@! TO.N,+5V*
X164354000Y-92075000D03*
D19*
G04 #@! TD*
G04 #@! TO.N,+5V*
G04 #@! TO.C,JP3*
G36*
X164103010Y-91327408D02*
X164151546Y-91334607D01*
X164199143Y-91346530D01*
X164245343Y-91363060D01*
X164289699Y-91384039D01*
X164331786Y-91409265D01*
X164371198Y-91438495D01*
X164407554Y-91471447D01*
X164440506Y-91507803D01*
X164469736Y-91547215D01*
X164494962Y-91589302D01*
X164515941Y-91633658D01*
X164532471Y-91679858D01*
X164544394Y-91727455D01*
X164551593Y-91775991D01*
X164554001Y-91825000D01*
X164554001Y-92325000D01*
X164551593Y-92374009D01*
X164544394Y-92422545D01*
X164532471Y-92470142D01*
X164515941Y-92516342D01*
X164494962Y-92560698D01*
X164469736Y-92602785D01*
X164440506Y-92642197D01*
X164407554Y-92678553D01*
X164371198Y-92711505D01*
X164331786Y-92740735D01*
X164289699Y-92765961D01*
X164245343Y-92786940D01*
X164199143Y-92803470D01*
X164151546Y-92815393D01*
X164103010Y-92822592D01*
X164054001Y-92825000D01*
X164053999Y-92825000D01*
X164004990Y-92822592D01*
X163956454Y-92815393D01*
X163908857Y-92803470D01*
X163862657Y-92786940D01*
X163818301Y-92765961D01*
X163776214Y-92740735D01*
X163736802Y-92711505D01*
X163700446Y-92678553D01*
X163667494Y-92642197D01*
X163638264Y-92602785D01*
X163613038Y-92560698D01*
X163592059Y-92516342D01*
X163575529Y-92470142D01*
X163563606Y-92422545D01*
X163556407Y-92374009D01*
X163553999Y-92325000D01*
X163553999Y-91825000D01*
X163556407Y-91775991D01*
X163563606Y-91727455D01*
X163575529Y-91679858D01*
X163592059Y-91633658D01*
X163613038Y-91589302D01*
X163638264Y-91547215D01*
X163667494Y-91507803D01*
X163700446Y-91471447D01*
X163736802Y-91438495D01*
X163776214Y-91409265D01*
X163818301Y-91384039D01*
X163862657Y-91363060D01*
X163908857Y-91346530D01*
X163956454Y-91334607D01*
X164004990Y-91327408D01*
X164053999Y-91325000D01*
X164054001Y-91325000D01*
X164103010Y-91327408D01*
X164103010Y-91327408D01*
G37*
D20*
G04 #@! TO.P,JP3,1*
G04 #@! TO.N,+5V*
X164054000Y-92075000D03*
G04 #@! TD*
D12*
G04 #@! TO.P,Q4,2*
G04 #@! TO.N,/CH5*
X164846000Y-101981000D03*
D13*
G04 #@! TO.P,Q4,1*
G04 #@! TO.N,GND*
X162306000Y-101981000D03*
G04 #@! TD*
D25*
G04 #@! TO.N,GND*
X172212000Y-93853000D03*
X167894000Y-92545000D03*
X167894000Y-95123000D03*
G04 #@! TO.N,+5V*
X181356000Y-97916998D03*
G04 #@! TD*
D26*
G04 #@! TO.N,GND*
X173961000Y-91647000D02*
X173217000Y-90903000D01*
X176276000Y-91647000D02*
X173961000Y-91647000D01*
X171917000Y-90903000D02*
X171917000Y-93558000D01*
X171917000Y-93558000D02*
X172212000Y-93853000D01*
X166654000Y-92075000D02*
X167424000Y-92075000D01*
X167424000Y-92075000D02*
X167894000Y-92545000D01*
X166654000Y-95377000D02*
X167640000Y-95377000D01*
X167640000Y-95377000D02*
X167894000Y-95123000D01*
G04 #@! TO.N,/REF*
X172567000Y-92938000D02*
X176276000Y-96647000D01*
X172567000Y-90903000D02*
X172567000Y-92938000D01*
X177292000Y-95631000D02*
X179832000Y-95631000D01*
X176276000Y-96647000D02*
X177292000Y-95631000D01*
D27*
G04 #@! TO.N,+5V*
X117856000Y-105283000D02*
X128016000Y-105283000D01*
X128016000Y-105283000D02*
X128016000Y-104013000D01*
X128016000Y-106553000D02*
X128016000Y-105283000D01*
X117856000Y-105283000D02*
X117856000Y-106553000D01*
X117856000Y-104013000D02*
X117856000Y-105283000D01*
X136906000Y-105283000D02*
X138176000Y-105283000D01*
X128016000Y-105283000D02*
X136906000Y-105283000D01*
X138176000Y-106553000D02*
X138176000Y-105283000D01*
X138176000Y-105283000D02*
X138176000Y-104013000D01*
X138176000Y-105283000D02*
X148336000Y-105283000D01*
X148336000Y-106553000D02*
X148336000Y-105283000D01*
X148336000Y-105283000D02*
X148336000Y-104013000D01*
X148336000Y-105283000D02*
X158496000Y-105283000D01*
X158496000Y-106553000D02*
X158496000Y-105283000D01*
X158496000Y-105283000D02*
X158496000Y-104013000D01*
X168402000Y-105283000D02*
X168656000Y-105537000D01*
X158496000Y-105283000D02*
X168402000Y-105283000D01*
X168656000Y-106553000D02*
X168656000Y-105537000D01*
X168656000Y-105537000D02*
X168656000Y-104013000D01*
X188976000Y-105283000D02*
X178816000Y-105283000D01*
X178816000Y-105283000D02*
X178816000Y-104013000D01*
X178816000Y-106553000D02*
X178816000Y-105283000D01*
X188976000Y-105283000D02*
X188976000Y-104013000D01*
X188976000Y-106553000D02*
X188976000Y-105283000D01*
X168910000Y-105283000D02*
X168656000Y-105537000D01*
X178816000Y-105283000D02*
X168910000Y-105283000D01*
X164054000Y-95377000D02*
X164054000Y-92075000D01*
X163546000Y-95885000D02*
X164054000Y-95377000D01*
X160782000Y-95885000D02*
X163546000Y-95885000D01*
D26*
X164054000Y-91225000D02*
X164054000Y-92075000D01*
X164982000Y-90297000D02*
X164054000Y-91225000D01*
X167436000Y-90297000D02*
X164982000Y-90297000D01*
X168042000Y-90903000D02*
X167436000Y-90297000D01*
X168667000Y-90903000D02*
X168042000Y-90903000D01*
X180817998Y-97916998D02*
X181356000Y-97916998D01*
X179832000Y-96931000D02*
X180817998Y-97916998D01*
D27*
G04 #@! TO.N,Net-(D1-Pad2)*
X117348000Y-108585000D02*
X117856000Y-109093000D01*
X114046000Y-108585000D02*
X117348000Y-108585000D01*
G04 #@! TO.N,Net-(D2-Pad2)*
X157988000Y-108585000D02*
X158496000Y-109093000D01*
X154686000Y-108585000D02*
X157988000Y-108585000D01*
G04 #@! TO.N,Net-(D3-Pad2)*
X127508000Y-108585000D02*
X128016000Y-109093000D01*
X124206000Y-108585000D02*
X127508000Y-108585000D01*
G04 #@! TO.N,Net-(D4-Pad2)*
X168148000Y-108585000D02*
X168656000Y-109093000D01*
X164846000Y-108585000D02*
X168148000Y-108585000D01*
G04 #@! TO.N,Net-(D5-Pad2)*
X137668000Y-108585000D02*
X138176000Y-109093000D01*
X134366000Y-108585000D02*
X137668000Y-108585000D01*
G04 #@! TO.N,Net-(D6-Pad2)*
X178308000Y-108585000D02*
X178816000Y-109093000D01*
X175006000Y-108585000D02*
X178308000Y-108585000D01*
G04 #@! TO.N,Net-(D7-Pad2)*
X147828000Y-108585000D02*
X148336000Y-109093000D01*
X144526000Y-108585000D02*
X147828000Y-108585000D01*
G04 #@! TO.N,Net-(D8-Pad2)*
X188468000Y-108585000D02*
X188976000Y-109093000D01*
X185166000Y-108585000D02*
X188468000Y-108585000D01*
D26*
G04 #@! TO.N,Net-(J1-Pad1)*
X179832000Y-94331000D02*
X179832000Y-91567000D01*
G04 #@! TO.N,/SDA*
X144353989Y-89119011D02*
X140494999Y-92978001D01*
X169317000Y-89774542D02*
X168661469Y-89119011D01*
X169317000Y-90903000D02*
X169317000Y-89774542D01*
X140494999Y-92978001D02*
X139620000Y-93853000D01*
X147066000Y-90435630D02*
X147066000Y-89119011D01*
X147066000Y-91567000D02*
X147066000Y-90435630D01*
X168661469Y-89119011D02*
X147066000Y-89119011D01*
X147066000Y-89119011D02*
X144353989Y-89119011D01*
X125904000Y-95090436D02*
X126444564Y-95631000D01*
X125904000Y-93853000D02*
X125904000Y-95090436D01*
X138745001Y-94727999D02*
X139620000Y-93853000D01*
X137842000Y-95631000D02*
X138745001Y-94727999D01*
X126444564Y-95631000D02*
X137842000Y-95631000D01*
G04 #@! TO.N,/SB_0*
X165354000Y-94227000D02*
X165354000Y-95377000D01*
X165474000Y-94107000D02*
X165354000Y-94227000D01*
X170180000Y-94107000D02*
X165474000Y-94107000D01*
X171267000Y-90903000D02*
X171267000Y-93020000D01*
X171267000Y-93020000D02*
X170180000Y-94107000D01*
G04 #@! TO.N,/SB_1*
X170617000Y-92400000D02*
X170617000Y-90903000D01*
X169672000Y-93345000D02*
X170617000Y-92400000D01*
X165354000Y-92075000D02*
X165354000Y-93345000D01*
X165354000Y-93345000D02*
X169672000Y-93345000D01*
D27*
G04 #@! TO.N,/CH0*
X117348000Y-101981000D02*
X117856000Y-101473000D01*
X114046000Y-101981000D02*
X117348000Y-101981000D01*
D26*
X117856000Y-101473000D02*
X121920000Y-97409000D01*
X168042000Y-96803000D02*
X168667000Y-96803000D01*
X167436000Y-97409000D02*
X168042000Y-96803000D01*
X121920000Y-97409000D02*
X167436000Y-97409000D01*
D27*
G04 #@! TO.N,/CH4*
X157988000Y-101981000D02*
X158496000Y-101473000D01*
X154686000Y-101981000D02*
X157988000Y-101981000D01*
D26*
X171267000Y-99370000D02*
X171267000Y-96803000D01*
X170434000Y-100203000D02*
X171267000Y-99370000D01*
X158496000Y-101473000D02*
X159766000Y-100203000D01*
X159766000Y-100203000D02*
X170434000Y-100203000D01*
D27*
G04 #@! TO.N,/CH1*
X127508000Y-101981000D02*
X128016000Y-101473000D01*
X124206000Y-101981000D02*
X127508000Y-101981000D01*
D26*
X131318000Y-98171000D02*
X129032000Y-100457000D01*
X129032000Y-100457000D02*
X128016000Y-101473000D01*
X169099000Y-98171000D02*
X131318000Y-98171000D01*
X169316999Y-97953001D02*
X169099000Y-98171000D01*
X169317000Y-96803000D02*
X169316999Y-97953001D01*
D27*
G04 #@! TO.N,/CH5*
X168148000Y-101981000D02*
X168656000Y-101473000D01*
X164846000Y-101981000D02*
X168148000Y-101981000D01*
D26*
X168656000Y-101473000D02*
X168656000Y-101219000D01*
X171917000Y-99736000D02*
X171917000Y-96803000D01*
X170688000Y-100965000D02*
X171917000Y-99736000D01*
X168656000Y-101473000D02*
X169164000Y-100965000D01*
X169164000Y-100965000D02*
X170688000Y-100965000D01*
D27*
G04 #@! TO.N,/CH2*
X137668000Y-101981000D02*
X138176000Y-101473000D01*
X134366000Y-101981000D02*
X137668000Y-101981000D01*
D26*
X169967000Y-98384000D02*
X169967000Y-96803000D01*
X169418000Y-98933000D02*
X169967000Y-98384000D01*
X140716000Y-98933000D02*
X169418000Y-98933000D01*
X138176000Y-101473000D02*
X140716000Y-98933000D01*
D27*
G04 #@! TO.N,/CH6*
X178308000Y-101981000D02*
X178816000Y-101473000D01*
X175006000Y-101981000D02*
X178308000Y-101981000D01*
D26*
X175006000Y-101981000D02*
X173574011Y-100549011D01*
X173574011Y-98960011D02*
X173574011Y-100549011D01*
X172567000Y-97953000D02*
X173574011Y-98960011D01*
X172567000Y-96803000D02*
X172567000Y-97953000D01*
D27*
G04 #@! TO.N,/CH3*
X147828000Y-101981000D02*
X148336000Y-101473000D01*
X144526000Y-101981000D02*
X147828000Y-101981000D01*
D26*
X170617000Y-99004000D02*
X170617000Y-97953000D01*
X170617000Y-97953000D02*
X170617000Y-96803000D01*
X170087989Y-99533011D02*
X170617000Y-99004000D01*
X150275989Y-99533011D02*
X170087989Y-99533011D01*
X148336000Y-101473000D02*
X150275989Y-99533011D01*
D27*
G04 #@! TO.N,/CH7*
X188468000Y-101981000D02*
X188976000Y-101473000D01*
X185166000Y-101981000D02*
X188468000Y-101981000D01*
D26*
X182880000Y-99695000D02*
X185166000Y-101981000D01*
X176734000Y-99695000D02*
X182880000Y-99695000D01*
X173842000Y-96803000D02*
X176734000Y-99695000D01*
X173217000Y-96803000D02*
X173842000Y-96803000D01*
G04 #@! TO.N,/SCL*
X169942001Y-90878001D02*
X169967000Y-90903000D01*
X142708000Y-88265000D02*
X137120000Y-93853000D01*
X168910000Y-88265000D02*
X142708000Y-88265000D01*
X169967000Y-90903000D02*
X169967000Y-89322000D01*
X169967000Y-89322000D02*
X168910000Y-88265000D01*
X137120000Y-93305000D02*
X137120000Y-93853000D01*
X135636000Y-91821000D02*
X137120000Y-93305000D01*
X123404000Y-93853000D02*
X125436000Y-91821000D01*
X125436000Y-91821000D02*
X135636000Y-91821000D01*
G04 #@! TD*
D28*
G04 #@! TO.N,GND*
G36*
X137440705Y-92351428D02*
X137420358Y-92343000D01*
X137338868Y-92343000D01*
X136284587Y-91288720D01*
X136238001Y-91218999D01*
X135961801Y-91034448D01*
X135718237Y-90986000D01*
X135718233Y-90986000D01*
X135636000Y-90969643D01*
X135553767Y-90986000D01*
X125518237Y-90986000D01*
X125436000Y-90969642D01*
X125353763Y-90986000D01*
X125110199Y-91034448D01*
X124833999Y-91218999D01*
X124787415Y-91288717D01*
X123724705Y-92351428D01*
X123704358Y-92343000D01*
X123103642Y-92343000D01*
X122548654Y-92572884D01*
X122379504Y-92742034D01*
X122377157Y-92730235D01*
X122236809Y-92520191D01*
X122026765Y-92379843D01*
X121779000Y-92330560D01*
X120029000Y-92330560D01*
X119781235Y-92379843D01*
X119571191Y-92520191D01*
X119430843Y-92730235D01*
X119381560Y-92978000D01*
X119381560Y-94728000D01*
X119430843Y-94975765D01*
X119571191Y-95185809D01*
X119781235Y-95326157D01*
X120029000Y-95375440D01*
X121779000Y-95375440D01*
X122026765Y-95326157D01*
X122236809Y-95185809D01*
X122377157Y-94975765D01*
X122379504Y-94963966D01*
X122548654Y-95133116D01*
X123103642Y-95363000D01*
X123704358Y-95363000D01*
X124259346Y-95133116D01*
X124654000Y-94738462D01*
X125048654Y-95133116D01*
X125062253Y-95138749D01*
X125117448Y-95416236D01*
X125159012Y-95478441D01*
X125302000Y-95692437D01*
X125371718Y-95739021D01*
X125795978Y-96163282D01*
X125842563Y-96233001D01*
X126034967Y-96361561D01*
X126118763Y-96417552D01*
X126444564Y-96482358D01*
X126526801Y-96466000D01*
X137759767Y-96466000D01*
X137842000Y-96482357D01*
X137924233Y-96466000D01*
X137924237Y-96466000D01*
X138167801Y-96417552D01*
X138444001Y-96233001D01*
X138490587Y-96163280D01*
X139299296Y-95354573D01*
X139319642Y-95363000D01*
X139920358Y-95363000D01*
X140475346Y-95133116D01*
X140693402Y-94915060D01*
X141237545Y-94915060D01*
X141320884Y-95168953D01*
X141885306Y-95374590D01*
X142485458Y-95348579D01*
X142919116Y-95168953D01*
X143002455Y-94915060D01*
X142120000Y-94032605D01*
X141237545Y-94915060D01*
X140693402Y-94915060D01*
X140900116Y-94708346D01*
X140909121Y-94686606D01*
X141057940Y-94735455D01*
X141940395Y-93853000D01*
X142299605Y-93853000D01*
X143182060Y-94735455D01*
X143435953Y-94652116D01*
X143641590Y-94087694D01*
X143615579Y-93487542D01*
X143435953Y-93053884D01*
X143182060Y-92970545D01*
X142299605Y-93853000D01*
X141940395Y-93853000D01*
X141926253Y-93838858D01*
X142105858Y-93659253D01*
X142120000Y-93673395D01*
X143002455Y-92790940D01*
X142919116Y-92537047D01*
X142354694Y-92331410D01*
X142320997Y-92332870D01*
X144699857Y-89954011D01*
X146231000Y-89954011D01*
X146231000Y-90399070D01*
X146031423Y-90532423D01*
X145714260Y-91007091D01*
X145602887Y-91567000D01*
X145714260Y-92126909D01*
X146031423Y-92601577D01*
X146383168Y-92836606D01*
X146253138Y-92890466D01*
X145849466Y-93294138D01*
X145631000Y-93821561D01*
X145631000Y-94392439D01*
X145849466Y-94919862D01*
X146253138Y-95323534D01*
X146780561Y-95542000D01*
X147351439Y-95542000D01*
X147878862Y-95323534D01*
X148282534Y-94919862D01*
X148501000Y-94392439D01*
X148501000Y-93821561D01*
X148282534Y-93294138D01*
X147878862Y-92890466D01*
X147748832Y-92836606D01*
X148100577Y-92601577D01*
X148417740Y-92126909D01*
X148529113Y-91567000D01*
X149158887Y-91567000D01*
X149270260Y-92126909D01*
X149587423Y-92601577D01*
X149939168Y-92836606D01*
X149809138Y-92890466D01*
X149405466Y-93294138D01*
X149187000Y-93821561D01*
X149187000Y-94392439D01*
X149405466Y-94919862D01*
X149809138Y-95323534D01*
X150336561Y-95542000D01*
X150907439Y-95542000D01*
X151434862Y-95323534D01*
X151838534Y-94919862D01*
X152057000Y-94392439D01*
X152057000Y-93821561D01*
X151935818Y-93529000D01*
X154254560Y-93529000D01*
X154254560Y-95129000D01*
X154303843Y-95376765D01*
X154444191Y-95586809D01*
X154654235Y-95727157D01*
X154902000Y-95776440D01*
X156502000Y-95776440D01*
X156749765Y-95727157D01*
X156959809Y-95586809D01*
X157100157Y-95376765D01*
X157149440Y-95129000D01*
X157149440Y-93529000D01*
X157100157Y-93281235D01*
X156960005Y-93071484D01*
X157148965Y-92545777D01*
X157121778Y-91975546D01*
X157087481Y-91892745D01*
X159953861Y-91892745D01*
X160027995Y-92138864D01*
X160565223Y-92331965D01*
X161135454Y-92304778D01*
X161536005Y-92138864D01*
X161610139Y-91892745D01*
X160782000Y-91064605D01*
X159953861Y-91892745D01*
X157087481Y-91892745D01*
X156955864Y-91574995D01*
X156709745Y-91500861D01*
X155881605Y-92329000D01*
X155895748Y-92343142D01*
X155716143Y-92522748D01*
X155702000Y-92508605D01*
X155687858Y-92522748D01*
X155508252Y-92343142D01*
X155522395Y-92329000D01*
X154694255Y-91500861D01*
X154448136Y-91574995D01*
X154255035Y-92112223D01*
X154282222Y-92682454D01*
X154443605Y-93072067D01*
X154303843Y-93281235D01*
X154254560Y-93529000D01*
X151935818Y-93529000D01*
X151838534Y-93294138D01*
X151434862Y-92890466D01*
X151304832Y-92836606D01*
X151656577Y-92601577D01*
X151973740Y-92126909D01*
X152085113Y-91567000D01*
X152036232Y-91321255D01*
X154873861Y-91321255D01*
X155702000Y-92149395D01*
X156530139Y-91321255D01*
X156456005Y-91075136D01*
X155918777Y-90882035D01*
X155348546Y-90909222D01*
X154947995Y-91075136D01*
X154873861Y-91321255D01*
X152036232Y-91321255D01*
X151973740Y-91007091D01*
X151656577Y-90532423D01*
X151181909Y-90215260D01*
X150763333Y-90132000D01*
X150480667Y-90132000D01*
X150062091Y-90215260D01*
X149587423Y-90532423D01*
X149270260Y-91007091D01*
X149158887Y-91567000D01*
X148529113Y-91567000D01*
X148417740Y-91007091D01*
X148100577Y-90532423D01*
X147901000Y-90399070D01*
X147901000Y-89954011D01*
X159671403Y-89954011D01*
X159774253Y-90056861D01*
X159528136Y-90130995D01*
X159335035Y-90668223D01*
X159362222Y-91238454D01*
X159528136Y-91639005D01*
X159774255Y-91713139D01*
X160602395Y-90885000D01*
X160588252Y-90870858D01*
X160767858Y-90691252D01*
X160782000Y-90705395D01*
X160796142Y-90691252D01*
X160975748Y-90870858D01*
X160961605Y-90885000D01*
X161789745Y-91713139D01*
X162035864Y-91639005D01*
X162228965Y-91101777D01*
X162201778Y-90531546D01*
X162035864Y-90130995D01*
X161789747Y-90056861D01*
X161892597Y-89954011D01*
X164144121Y-89954011D01*
X163521720Y-90576413D01*
X163451999Y-90622999D01*
X163267448Y-90899200D01*
X163244999Y-91012058D01*
X163242636Y-91013637D01*
X162993903Y-91385894D01*
X162906559Y-91825000D01*
X162906559Y-92325000D01*
X162919001Y-92387549D01*
X162919000Y-94750000D01*
X161676396Y-94750000D01*
X161594862Y-94668466D01*
X161067439Y-94450000D01*
X160496561Y-94450000D01*
X159969138Y-94668466D01*
X159565466Y-95072138D01*
X159347000Y-95599561D01*
X159347000Y-96170439D01*
X159514161Y-96574000D01*
X122002237Y-96574000D01*
X121920000Y-96557642D01*
X121837763Y-96574000D01*
X121594199Y-96622448D01*
X121317999Y-96806999D01*
X121271415Y-96876717D01*
X118110133Y-100038000D01*
X117570561Y-100038000D01*
X117043138Y-100256466D01*
X116639466Y-100660138D01*
X116562479Y-100846000D01*
X115081817Y-100846000D01*
X114915507Y-100679690D01*
X114351330Y-100446000D01*
X113740670Y-100446000D01*
X113176493Y-100679690D01*
X113000139Y-100856044D01*
X112944327Y-100721301D01*
X112765698Y-100542673D01*
X112532309Y-100446000D01*
X111791750Y-100446000D01*
X111633000Y-100604750D01*
X111633000Y-101854000D01*
X111653000Y-101854000D01*
X111653000Y-102108000D01*
X111633000Y-102108000D01*
X111633000Y-103357250D01*
X111791750Y-103516000D01*
X112532309Y-103516000D01*
X112765698Y-103419327D01*
X112944327Y-103240699D01*
X113000139Y-103105956D01*
X113176493Y-103282310D01*
X113740670Y-103516000D01*
X114351330Y-103516000D01*
X114915507Y-103282310D01*
X115081817Y-103116000D01*
X116729497Y-103116000D01*
X116504260Y-103453091D01*
X116392887Y-104013000D01*
X116504260Y-104572909D01*
X116721000Y-104897283D01*
X116721000Y-105171217D01*
X116698765Y-105283000D01*
X116721000Y-105394782D01*
X116721000Y-105668717D01*
X116504260Y-105993091D01*
X116392887Y-106553000D01*
X116504260Y-107112909D01*
X116729497Y-107450000D01*
X115081817Y-107450000D01*
X114915507Y-107283690D01*
X114351330Y-107050000D01*
X113740670Y-107050000D01*
X113176493Y-107283690D01*
X113000139Y-107460044D01*
X112944327Y-107325301D01*
X112765698Y-107146673D01*
X112532309Y-107050000D01*
X111791750Y-107050000D01*
X111633000Y-107208750D01*
X111633000Y-108458000D01*
X111653000Y-108458000D01*
X111653000Y-108712000D01*
X111633000Y-108712000D01*
X111633000Y-109961250D01*
X111791750Y-110120000D01*
X112532309Y-110120000D01*
X112765698Y-110023327D01*
X112944327Y-109844699D01*
X113000139Y-109709956D01*
X113176493Y-109886310D01*
X113740670Y-110120000D01*
X114351330Y-110120000D01*
X114915507Y-109886310D01*
X115081817Y-109720000D01*
X116562479Y-109720000D01*
X116639466Y-109905862D01*
X117043138Y-110309534D01*
X117570561Y-110528000D01*
X118141439Y-110528000D01*
X118668862Y-110309534D01*
X119072534Y-109905862D01*
X119291000Y-109378439D01*
X119291000Y-108870750D01*
X120131000Y-108870750D01*
X120131000Y-109611310D01*
X120227673Y-109844699D01*
X120406302Y-110023327D01*
X120639691Y-110120000D01*
X121380250Y-110120000D01*
X121539000Y-109961250D01*
X121539000Y-108712000D01*
X120289750Y-108712000D01*
X120131000Y-108870750D01*
X119291000Y-108870750D01*
X119291000Y-108807561D01*
X119072534Y-108280138D01*
X118668862Y-107876466D01*
X118538832Y-107822606D01*
X118890577Y-107587577D01*
X118909878Y-107558690D01*
X120131000Y-107558690D01*
X120131000Y-108299250D01*
X120289750Y-108458000D01*
X121539000Y-108458000D01*
X121539000Y-107208750D01*
X121380250Y-107050000D01*
X120639691Y-107050000D01*
X120406302Y-107146673D01*
X120227673Y-107325301D01*
X120131000Y-107558690D01*
X118909878Y-107558690D01*
X119207740Y-107112909D01*
X119319113Y-106553000D01*
X119292260Y-106418000D01*
X126579740Y-106418000D01*
X126552887Y-106553000D01*
X126664260Y-107112909D01*
X126889497Y-107450000D01*
X125241817Y-107450000D01*
X125075507Y-107283690D01*
X124511330Y-107050000D01*
X123900670Y-107050000D01*
X123336493Y-107283690D01*
X123160139Y-107460044D01*
X123104327Y-107325301D01*
X122925698Y-107146673D01*
X122692309Y-107050000D01*
X121951750Y-107050000D01*
X121793000Y-107208750D01*
X121793000Y-108458000D01*
X121813000Y-108458000D01*
X121813000Y-108712000D01*
X121793000Y-108712000D01*
X121793000Y-109961250D01*
X121951750Y-110120000D01*
X122692309Y-110120000D01*
X122925698Y-110023327D01*
X123104327Y-109844699D01*
X123160139Y-109709956D01*
X123336493Y-109886310D01*
X123900670Y-110120000D01*
X124511330Y-110120000D01*
X125075507Y-109886310D01*
X125241817Y-109720000D01*
X126722479Y-109720000D01*
X126799466Y-109905862D01*
X127203138Y-110309534D01*
X127730561Y-110528000D01*
X128301439Y-110528000D01*
X128828862Y-110309534D01*
X129232534Y-109905862D01*
X129451000Y-109378439D01*
X129451000Y-108870750D01*
X130291000Y-108870750D01*
X130291000Y-109611310D01*
X130387673Y-109844699D01*
X130566302Y-110023327D01*
X130799691Y-110120000D01*
X131540250Y-110120000D01*
X131699000Y-109961250D01*
X131699000Y-108712000D01*
X130449750Y-108712000D01*
X130291000Y-108870750D01*
X129451000Y-108870750D01*
X129451000Y-108807561D01*
X129232534Y-108280138D01*
X128828862Y-107876466D01*
X128698832Y-107822606D01*
X129050577Y-107587577D01*
X129069878Y-107558690D01*
X130291000Y-107558690D01*
X130291000Y-108299250D01*
X130449750Y-108458000D01*
X131699000Y-108458000D01*
X131699000Y-107208750D01*
X131540250Y-107050000D01*
X130799691Y-107050000D01*
X130566302Y-107146673D01*
X130387673Y-107325301D01*
X130291000Y-107558690D01*
X129069878Y-107558690D01*
X129367740Y-107112909D01*
X129479113Y-106553000D01*
X129452260Y-106418000D01*
X136739740Y-106418000D01*
X136712887Y-106553000D01*
X136824260Y-107112909D01*
X137049497Y-107450000D01*
X135401817Y-107450000D01*
X135235507Y-107283690D01*
X134671330Y-107050000D01*
X134060670Y-107050000D01*
X133496493Y-107283690D01*
X133320139Y-107460044D01*
X133264327Y-107325301D01*
X133085698Y-107146673D01*
X132852309Y-107050000D01*
X132111750Y-107050000D01*
X131953000Y-107208750D01*
X131953000Y-108458000D01*
X131973000Y-108458000D01*
X131973000Y-108712000D01*
X131953000Y-108712000D01*
X131953000Y-109961250D01*
X132111750Y-110120000D01*
X132852309Y-110120000D01*
X133085698Y-110023327D01*
X133264327Y-109844699D01*
X133320139Y-109709956D01*
X133496493Y-109886310D01*
X134060670Y-110120000D01*
X134671330Y-110120000D01*
X135235507Y-109886310D01*
X135401817Y-109720000D01*
X136882479Y-109720000D01*
X136959466Y-109905862D01*
X137363138Y-110309534D01*
X137890561Y-110528000D01*
X138461439Y-110528000D01*
X138988862Y-110309534D01*
X139392534Y-109905862D01*
X139611000Y-109378439D01*
X139611000Y-108870750D01*
X140451000Y-108870750D01*
X140451000Y-109611310D01*
X140547673Y-109844699D01*
X140726302Y-110023327D01*
X140959691Y-110120000D01*
X141700250Y-110120000D01*
X141859000Y-109961250D01*
X141859000Y-108712000D01*
X140609750Y-108712000D01*
X140451000Y-108870750D01*
X139611000Y-108870750D01*
X139611000Y-108807561D01*
X139392534Y-108280138D01*
X138988862Y-107876466D01*
X138858832Y-107822606D01*
X139210577Y-107587577D01*
X139229878Y-107558690D01*
X140451000Y-107558690D01*
X140451000Y-108299250D01*
X140609750Y-108458000D01*
X141859000Y-108458000D01*
X141859000Y-107208750D01*
X141700250Y-107050000D01*
X140959691Y-107050000D01*
X140726302Y-107146673D01*
X140547673Y-107325301D01*
X140451000Y-107558690D01*
X139229878Y-107558690D01*
X139527740Y-107112909D01*
X139639113Y-106553000D01*
X139612260Y-106418000D01*
X146899740Y-106418000D01*
X146872887Y-106553000D01*
X146984260Y-107112909D01*
X147209497Y-107450000D01*
X145561817Y-107450000D01*
X145395507Y-107283690D01*
X144831330Y-107050000D01*
X144220670Y-107050000D01*
X143656493Y-107283690D01*
X143480139Y-107460044D01*
X143424327Y-107325301D01*
X143245698Y-107146673D01*
X143012309Y-107050000D01*
X142271750Y-107050000D01*
X142113000Y-107208750D01*
X142113000Y-108458000D01*
X142133000Y-108458000D01*
X142133000Y-108712000D01*
X142113000Y-108712000D01*
X142113000Y-109961250D01*
X142271750Y-110120000D01*
X143012309Y-110120000D01*
X143245698Y-110023327D01*
X143424327Y-109844699D01*
X143480139Y-109709956D01*
X143656493Y-109886310D01*
X144220670Y-110120000D01*
X144831330Y-110120000D01*
X145395507Y-109886310D01*
X145561817Y-109720000D01*
X147042479Y-109720000D01*
X147119466Y-109905862D01*
X147523138Y-110309534D01*
X148050561Y-110528000D01*
X148621439Y-110528000D01*
X149148862Y-110309534D01*
X149552534Y-109905862D01*
X149771000Y-109378439D01*
X149771000Y-108870750D01*
X150611000Y-108870750D01*
X150611000Y-109611310D01*
X150707673Y-109844699D01*
X150886302Y-110023327D01*
X151119691Y-110120000D01*
X151860250Y-110120000D01*
X152019000Y-109961250D01*
X152019000Y-108712000D01*
X150769750Y-108712000D01*
X150611000Y-108870750D01*
X149771000Y-108870750D01*
X149771000Y-108807561D01*
X149552534Y-108280138D01*
X149148862Y-107876466D01*
X149018832Y-107822606D01*
X149370577Y-107587577D01*
X149389878Y-107558690D01*
X150611000Y-107558690D01*
X150611000Y-108299250D01*
X150769750Y-108458000D01*
X152019000Y-108458000D01*
X152019000Y-107208750D01*
X151860250Y-107050000D01*
X151119691Y-107050000D01*
X150886302Y-107146673D01*
X150707673Y-107325301D01*
X150611000Y-107558690D01*
X149389878Y-107558690D01*
X149687740Y-107112909D01*
X149799113Y-106553000D01*
X149772260Y-106418000D01*
X157059740Y-106418000D01*
X157032887Y-106553000D01*
X157144260Y-107112909D01*
X157369497Y-107450000D01*
X155721817Y-107450000D01*
X155555507Y-107283690D01*
X154991330Y-107050000D01*
X154380670Y-107050000D01*
X153816493Y-107283690D01*
X153640139Y-107460044D01*
X153584327Y-107325301D01*
X153405698Y-107146673D01*
X153172309Y-107050000D01*
X152431750Y-107050000D01*
X152273000Y-107208750D01*
X152273000Y-108458000D01*
X152293000Y-108458000D01*
X152293000Y-108712000D01*
X152273000Y-108712000D01*
X152273000Y-109961250D01*
X152431750Y-110120000D01*
X153172309Y-110120000D01*
X153405698Y-110023327D01*
X153584327Y-109844699D01*
X153640139Y-109709956D01*
X153816493Y-109886310D01*
X154380670Y-110120000D01*
X154991330Y-110120000D01*
X155555507Y-109886310D01*
X155721817Y-109720000D01*
X157202479Y-109720000D01*
X157279466Y-109905862D01*
X157683138Y-110309534D01*
X158210561Y-110528000D01*
X158781439Y-110528000D01*
X159308862Y-110309534D01*
X159712534Y-109905862D01*
X159931000Y-109378439D01*
X159931000Y-108870750D01*
X160771000Y-108870750D01*
X160771000Y-109611310D01*
X160867673Y-109844699D01*
X161046302Y-110023327D01*
X161279691Y-110120000D01*
X162020250Y-110120000D01*
X162179000Y-109961250D01*
X162179000Y-108712000D01*
X160929750Y-108712000D01*
X160771000Y-108870750D01*
X159931000Y-108870750D01*
X159931000Y-108807561D01*
X159712534Y-108280138D01*
X159308862Y-107876466D01*
X159178832Y-107822606D01*
X159530577Y-107587577D01*
X159549878Y-107558690D01*
X160771000Y-107558690D01*
X160771000Y-108299250D01*
X160929750Y-108458000D01*
X162179000Y-108458000D01*
X162179000Y-107208750D01*
X162020250Y-107050000D01*
X161279691Y-107050000D01*
X161046302Y-107146673D01*
X160867673Y-107325301D01*
X160771000Y-107558690D01*
X159549878Y-107558690D01*
X159847740Y-107112909D01*
X159959113Y-106553000D01*
X159932260Y-106418000D01*
X167219740Y-106418000D01*
X167192887Y-106553000D01*
X167304260Y-107112909D01*
X167529497Y-107450000D01*
X165881817Y-107450000D01*
X165715507Y-107283690D01*
X165151330Y-107050000D01*
X164540670Y-107050000D01*
X163976493Y-107283690D01*
X163800139Y-107460044D01*
X163744327Y-107325301D01*
X163565698Y-107146673D01*
X163332309Y-107050000D01*
X162591750Y-107050000D01*
X162433000Y-107208750D01*
X162433000Y-108458000D01*
X162453000Y-108458000D01*
X162453000Y-108712000D01*
X162433000Y-108712000D01*
X162433000Y-109961250D01*
X162591750Y-110120000D01*
X163332309Y-110120000D01*
X163565698Y-110023327D01*
X163744327Y-109844699D01*
X163800139Y-109709956D01*
X163976493Y-109886310D01*
X164540670Y-110120000D01*
X165151330Y-110120000D01*
X165715507Y-109886310D01*
X165881817Y-109720000D01*
X167362479Y-109720000D01*
X167439466Y-109905862D01*
X167843138Y-110309534D01*
X168370561Y-110528000D01*
X168941439Y-110528000D01*
X169468862Y-110309534D01*
X169872534Y-109905862D01*
X170091000Y-109378439D01*
X170091000Y-108870750D01*
X170931000Y-108870750D01*
X170931000Y-109611310D01*
X171027673Y-109844699D01*
X171206302Y-110023327D01*
X171439691Y-110120000D01*
X172180250Y-110120000D01*
X172339000Y-109961250D01*
X172339000Y-108712000D01*
X171089750Y-108712000D01*
X170931000Y-108870750D01*
X170091000Y-108870750D01*
X170091000Y-108807561D01*
X169872534Y-108280138D01*
X169468862Y-107876466D01*
X169338832Y-107822606D01*
X169690577Y-107587577D01*
X169709878Y-107558690D01*
X170931000Y-107558690D01*
X170931000Y-108299250D01*
X171089750Y-108458000D01*
X172339000Y-108458000D01*
X172339000Y-107208750D01*
X172180250Y-107050000D01*
X171439691Y-107050000D01*
X171206302Y-107146673D01*
X171027673Y-107325301D01*
X170931000Y-107558690D01*
X169709878Y-107558690D01*
X170007740Y-107112909D01*
X170119113Y-106553000D01*
X170092260Y-106418000D01*
X177379740Y-106418000D01*
X177352887Y-106553000D01*
X177464260Y-107112909D01*
X177689497Y-107450000D01*
X176041817Y-107450000D01*
X175875507Y-107283690D01*
X175311330Y-107050000D01*
X174700670Y-107050000D01*
X174136493Y-107283690D01*
X173960139Y-107460044D01*
X173904327Y-107325301D01*
X173725698Y-107146673D01*
X173492309Y-107050000D01*
X172751750Y-107050000D01*
X172593000Y-107208750D01*
X172593000Y-108458000D01*
X172613000Y-108458000D01*
X172613000Y-108712000D01*
X172593000Y-108712000D01*
X172593000Y-109961250D01*
X172751750Y-110120000D01*
X173492309Y-110120000D01*
X173725698Y-110023327D01*
X173904327Y-109844699D01*
X173960139Y-109709956D01*
X174136493Y-109886310D01*
X174700670Y-110120000D01*
X175311330Y-110120000D01*
X175875507Y-109886310D01*
X176041817Y-109720000D01*
X177522479Y-109720000D01*
X177599466Y-109905862D01*
X178003138Y-110309534D01*
X178530561Y-110528000D01*
X179101439Y-110528000D01*
X179628862Y-110309534D01*
X180032534Y-109905862D01*
X180251000Y-109378439D01*
X180251000Y-108870750D01*
X181091000Y-108870750D01*
X181091000Y-109611310D01*
X181187673Y-109844699D01*
X181366302Y-110023327D01*
X181599691Y-110120000D01*
X182340250Y-110120000D01*
X182499000Y-109961250D01*
X182499000Y-108712000D01*
X181249750Y-108712000D01*
X181091000Y-108870750D01*
X180251000Y-108870750D01*
X180251000Y-108807561D01*
X180032534Y-108280138D01*
X179628862Y-107876466D01*
X179498832Y-107822606D01*
X179850577Y-107587577D01*
X179869878Y-107558690D01*
X181091000Y-107558690D01*
X181091000Y-108299250D01*
X181249750Y-108458000D01*
X182499000Y-108458000D01*
X182499000Y-107208750D01*
X182340250Y-107050000D01*
X181599691Y-107050000D01*
X181366302Y-107146673D01*
X181187673Y-107325301D01*
X181091000Y-107558690D01*
X179869878Y-107558690D01*
X180167740Y-107112909D01*
X180279113Y-106553000D01*
X180252260Y-106418000D01*
X187539740Y-106418000D01*
X187512887Y-106553000D01*
X187624260Y-107112909D01*
X187849497Y-107450000D01*
X186201817Y-107450000D01*
X186035507Y-107283690D01*
X185471330Y-107050000D01*
X184860670Y-107050000D01*
X184296493Y-107283690D01*
X184120139Y-107460044D01*
X184064327Y-107325301D01*
X183885698Y-107146673D01*
X183652309Y-107050000D01*
X182911750Y-107050000D01*
X182753000Y-107208750D01*
X182753000Y-108458000D01*
X182773000Y-108458000D01*
X182773000Y-108712000D01*
X182753000Y-108712000D01*
X182753000Y-109961250D01*
X182911750Y-110120000D01*
X183652309Y-110120000D01*
X183885698Y-110023327D01*
X184064327Y-109844699D01*
X184120139Y-109709956D01*
X184296493Y-109886310D01*
X184860670Y-110120000D01*
X185471330Y-110120000D01*
X186035507Y-109886310D01*
X186201817Y-109720000D01*
X187682479Y-109720000D01*
X187759466Y-109905862D01*
X188163138Y-110309534D01*
X188690561Y-110528000D01*
X189261439Y-110528000D01*
X189788862Y-110309534D01*
X190192534Y-109905862D01*
X190411000Y-109378439D01*
X190411000Y-108807561D01*
X190192534Y-108280138D01*
X189788862Y-107876466D01*
X189658832Y-107822606D01*
X190010577Y-107587577D01*
X190327740Y-107112909D01*
X190439113Y-106553000D01*
X190327740Y-105993091D01*
X190111000Y-105668717D01*
X190111000Y-105394782D01*
X190133235Y-105283000D01*
X190111000Y-105171217D01*
X190111000Y-104897283D01*
X190327740Y-104572909D01*
X190439113Y-104013000D01*
X190327740Y-103453091D01*
X190010577Y-102978423D01*
X189658832Y-102743394D01*
X189788862Y-102689534D01*
X190192534Y-102285862D01*
X190411000Y-101758439D01*
X190411000Y-101187561D01*
X190192534Y-100660138D01*
X189788862Y-100256466D01*
X189261439Y-100038000D01*
X188690561Y-100038000D01*
X188163138Y-100256466D01*
X187759466Y-100660138D01*
X187682479Y-100846000D01*
X186201817Y-100846000D01*
X186035507Y-100679690D01*
X185471330Y-100446000D01*
X184860670Y-100446000D01*
X184826161Y-100460294D01*
X183528587Y-99162720D01*
X183482001Y-99092999D01*
X183205801Y-98908448D01*
X182962237Y-98860000D01*
X182962233Y-98860000D01*
X182880000Y-98843643D01*
X182797767Y-98860000D01*
X181783977Y-98860000D01*
X181942280Y-98794429D01*
X182233431Y-98503278D01*
X182391000Y-98122872D01*
X182391000Y-97711124D01*
X182233431Y-97330718D01*
X181942280Y-97039567D01*
X181561874Y-96881998D01*
X181229241Y-96881998D01*
X181229440Y-96881000D01*
X181229440Y-96381000D01*
X181204576Y-96256000D01*
X181229440Y-96131000D01*
X181229440Y-95131000D01*
X181204576Y-95006000D01*
X181229440Y-94881000D01*
X181229440Y-94381000D01*
X181224467Y-94356000D01*
X181229440Y-94331001D01*
X181229440Y-94330999D01*
X181142096Y-93891893D01*
X180893363Y-93519636D01*
X180667000Y-93368386D01*
X180667000Y-92690687D01*
X181006147Y-92351540D01*
X181199629Y-91884431D01*
X184201000Y-91884431D01*
X184201000Y-92773569D01*
X184541259Y-93595026D01*
X185169974Y-94223741D01*
X185991431Y-94564000D01*
X186880569Y-94564000D01*
X187702026Y-94223741D01*
X188330741Y-93595026D01*
X188671000Y-92773569D01*
X188671000Y-91884431D01*
X188330741Y-91062974D01*
X187702026Y-90434259D01*
X186880569Y-90094000D01*
X185991431Y-90094000D01*
X185169974Y-90434259D01*
X184541259Y-91062974D01*
X184201000Y-91884431D01*
X181199629Y-91884431D01*
X181217000Y-91842494D01*
X181217000Y-91291506D01*
X181006147Y-90782460D01*
X180616540Y-90392853D01*
X180107494Y-90182000D01*
X179556506Y-90182000D01*
X179047460Y-90392853D01*
X178657853Y-90782460D01*
X178447000Y-91291506D01*
X178447000Y-91842494D01*
X178657853Y-92351540D01*
X178997001Y-92690688D01*
X178997000Y-93368386D01*
X178770637Y-93519636D01*
X178521904Y-93891893D01*
X178434560Y-94330999D01*
X178434560Y-94331001D01*
X178439533Y-94356000D01*
X178434560Y-94381000D01*
X178434560Y-94796000D01*
X177374233Y-94796000D01*
X177292000Y-94779643D01*
X177209767Y-94796000D01*
X177209763Y-94796000D01*
X176966199Y-94844448D01*
X176689999Y-95028999D01*
X176643416Y-95098716D01*
X176530132Y-95212000D01*
X176021868Y-95212000D01*
X173464613Y-92654745D01*
X175447861Y-92654745D01*
X175521995Y-92900864D01*
X176059223Y-93093965D01*
X176629454Y-93066778D01*
X177030005Y-92900864D01*
X177104139Y-92654745D01*
X176276000Y-91826605D01*
X175447861Y-92654745D01*
X173464613Y-92654745D01*
X173402000Y-92592133D01*
X173402000Y-92201750D01*
X173488250Y-92288000D01*
X173568310Y-92288000D01*
X173801699Y-92191327D01*
X173980327Y-92012698D01*
X174077000Y-91779309D01*
X174077000Y-91430223D01*
X174829035Y-91430223D01*
X174856222Y-92000454D01*
X175022136Y-92401005D01*
X175268255Y-92475139D01*
X176096395Y-91647000D01*
X176455605Y-91647000D01*
X177283745Y-92475139D01*
X177529864Y-92401005D01*
X177722965Y-91863777D01*
X177695778Y-91293546D01*
X177529864Y-90892995D01*
X177283745Y-90818861D01*
X176455605Y-91647000D01*
X176096395Y-91647000D01*
X175268255Y-90818861D01*
X175022136Y-90892995D01*
X174829035Y-91430223D01*
X174077000Y-91430223D01*
X174077000Y-91188750D01*
X173918250Y-91030000D01*
X173439440Y-91030000D01*
X173439440Y-90776000D01*
X173918250Y-90776000D01*
X174054995Y-90639255D01*
X175447861Y-90639255D01*
X176276000Y-91467395D01*
X177104139Y-90639255D01*
X177030005Y-90393136D01*
X176492777Y-90200035D01*
X175922546Y-90227222D01*
X175521995Y-90393136D01*
X175447861Y-90639255D01*
X174054995Y-90639255D01*
X174077000Y-90617250D01*
X174077000Y-90026691D01*
X173980327Y-89793302D01*
X173801699Y-89614673D01*
X173568310Y-89518000D01*
X173488250Y-89518000D01*
X173329500Y-89676750D01*
X173329500Y-89814456D01*
X173249809Y-89695191D01*
X173039765Y-89554843D01*
X172968397Y-89540647D01*
X172945750Y-89518000D01*
X172865690Y-89518000D01*
X172862073Y-89519498D01*
X172792000Y-89505560D01*
X172342000Y-89505560D01*
X172271927Y-89519498D01*
X172268310Y-89518000D01*
X172188250Y-89518000D01*
X172165603Y-89540647D01*
X172094235Y-89554843D01*
X171917000Y-89673269D01*
X171739765Y-89554843D01*
X171668397Y-89540647D01*
X171645750Y-89518000D01*
X171565690Y-89518000D01*
X171562073Y-89519498D01*
X171492000Y-89505560D01*
X171042000Y-89505560D01*
X170942000Y-89525451D01*
X170842000Y-89505560D01*
X170802000Y-89505560D01*
X170802000Y-89404237D01*
X170818358Y-89322000D01*
X170753552Y-88996200D01*
X170753552Y-88996199D01*
X170569001Y-88719999D01*
X170499282Y-88673415D01*
X169784867Y-87959000D01*
X190806001Y-87959000D01*
X190806000Y-111939000D01*
X109422000Y-111939000D01*
X109422000Y-108870750D01*
X109971000Y-108870750D01*
X109971000Y-109611310D01*
X110067673Y-109844699D01*
X110246302Y-110023327D01*
X110479691Y-110120000D01*
X111220250Y-110120000D01*
X111379000Y-109961250D01*
X111379000Y-108712000D01*
X110129750Y-108712000D01*
X109971000Y-108870750D01*
X109422000Y-108870750D01*
X109422000Y-107558690D01*
X109971000Y-107558690D01*
X109971000Y-108299250D01*
X110129750Y-108458000D01*
X111379000Y-108458000D01*
X111379000Y-107208750D01*
X111220250Y-107050000D01*
X110479691Y-107050000D01*
X110246302Y-107146673D01*
X110067673Y-107325301D01*
X109971000Y-107558690D01*
X109422000Y-107558690D01*
X109422000Y-102266750D01*
X109971000Y-102266750D01*
X109971000Y-103007310D01*
X110067673Y-103240699D01*
X110246302Y-103419327D01*
X110479691Y-103516000D01*
X111220250Y-103516000D01*
X111379000Y-103357250D01*
X111379000Y-102108000D01*
X110129750Y-102108000D01*
X109971000Y-102266750D01*
X109422000Y-102266750D01*
X109422000Y-100954690D01*
X109971000Y-100954690D01*
X109971000Y-101695250D01*
X110129750Y-101854000D01*
X111379000Y-101854000D01*
X111379000Y-100604750D01*
X111220250Y-100446000D01*
X110479691Y-100446000D01*
X110246302Y-100542673D01*
X110067673Y-100721301D01*
X109971000Y-100954690D01*
X109422000Y-100954690D01*
X109422000Y-91884431D01*
X111557000Y-91884431D01*
X111557000Y-92773569D01*
X111897259Y-93595026D01*
X112525974Y-94223741D01*
X113347431Y-94564000D01*
X114236569Y-94564000D01*
X115058026Y-94223741D01*
X115686741Y-93595026D01*
X116027000Y-92773569D01*
X116027000Y-91884431D01*
X115686741Y-91062974D01*
X115058026Y-90434259D01*
X114236569Y-90094000D01*
X113347431Y-90094000D01*
X112525974Y-90434259D01*
X111897259Y-91062974D01*
X111557000Y-91884431D01*
X109422000Y-91884431D01*
X109422000Y-87959000D01*
X141833131Y-87959000D01*
X137440705Y-92351428D01*
X137440705Y-92351428D01*
G37*
X137440705Y-92351428D02*
X137420358Y-92343000D01*
X137338868Y-92343000D01*
X136284587Y-91288720D01*
X136238001Y-91218999D01*
X135961801Y-91034448D01*
X135718237Y-90986000D01*
X135718233Y-90986000D01*
X135636000Y-90969643D01*
X135553767Y-90986000D01*
X125518237Y-90986000D01*
X125436000Y-90969642D01*
X125353763Y-90986000D01*
X125110199Y-91034448D01*
X124833999Y-91218999D01*
X124787415Y-91288717D01*
X123724705Y-92351428D01*
X123704358Y-92343000D01*
X123103642Y-92343000D01*
X122548654Y-92572884D01*
X122379504Y-92742034D01*
X122377157Y-92730235D01*
X122236809Y-92520191D01*
X122026765Y-92379843D01*
X121779000Y-92330560D01*
X120029000Y-92330560D01*
X119781235Y-92379843D01*
X119571191Y-92520191D01*
X119430843Y-92730235D01*
X119381560Y-92978000D01*
X119381560Y-94728000D01*
X119430843Y-94975765D01*
X119571191Y-95185809D01*
X119781235Y-95326157D01*
X120029000Y-95375440D01*
X121779000Y-95375440D01*
X122026765Y-95326157D01*
X122236809Y-95185809D01*
X122377157Y-94975765D01*
X122379504Y-94963966D01*
X122548654Y-95133116D01*
X123103642Y-95363000D01*
X123704358Y-95363000D01*
X124259346Y-95133116D01*
X124654000Y-94738462D01*
X125048654Y-95133116D01*
X125062253Y-95138749D01*
X125117448Y-95416236D01*
X125159012Y-95478441D01*
X125302000Y-95692437D01*
X125371718Y-95739021D01*
X125795978Y-96163282D01*
X125842563Y-96233001D01*
X126034967Y-96361561D01*
X126118763Y-96417552D01*
X126444564Y-96482358D01*
X126526801Y-96466000D01*
X137759767Y-96466000D01*
X137842000Y-96482357D01*
X137924233Y-96466000D01*
X137924237Y-96466000D01*
X138167801Y-96417552D01*
X138444001Y-96233001D01*
X138490587Y-96163280D01*
X139299296Y-95354573D01*
X139319642Y-95363000D01*
X139920358Y-95363000D01*
X140475346Y-95133116D01*
X140693402Y-94915060D01*
X141237545Y-94915060D01*
X141320884Y-95168953D01*
X141885306Y-95374590D01*
X142485458Y-95348579D01*
X142919116Y-95168953D01*
X143002455Y-94915060D01*
X142120000Y-94032605D01*
X141237545Y-94915060D01*
X140693402Y-94915060D01*
X140900116Y-94708346D01*
X140909121Y-94686606D01*
X141057940Y-94735455D01*
X141940395Y-93853000D01*
X142299605Y-93853000D01*
X143182060Y-94735455D01*
X143435953Y-94652116D01*
X143641590Y-94087694D01*
X143615579Y-93487542D01*
X143435953Y-93053884D01*
X143182060Y-92970545D01*
X142299605Y-93853000D01*
X141940395Y-93853000D01*
X141926253Y-93838858D01*
X142105858Y-93659253D01*
X142120000Y-93673395D01*
X143002455Y-92790940D01*
X142919116Y-92537047D01*
X142354694Y-92331410D01*
X142320997Y-92332870D01*
X144699857Y-89954011D01*
X146231000Y-89954011D01*
X146231000Y-90399070D01*
X146031423Y-90532423D01*
X145714260Y-91007091D01*
X145602887Y-91567000D01*
X145714260Y-92126909D01*
X146031423Y-92601577D01*
X146383168Y-92836606D01*
X146253138Y-92890466D01*
X145849466Y-93294138D01*
X145631000Y-93821561D01*
X145631000Y-94392439D01*
X145849466Y-94919862D01*
X146253138Y-95323534D01*
X146780561Y-95542000D01*
X147351439Y-95542000D01*
X147878862Y-95323534D01*
X148282534Y-94919862D01*
X148501000Y-94392439D01*
X148501000Y-93821561D01*
X148282534Y-93294138D01*
X147878862Y-92890466D01*
X147748832Y-92836606D01*
X148100577Y-92601577D01*
X148417740Y-92126909D01*
X148529113Y-91567000D01*
X149158887Y-91567000D01*
X149270260Y-92126909D01*
X149587423Y-92601577D01*
X149939168Y-92836606D01*
X149809138Y-92890466D01*
X149405466Y-93294138D01*
X149187000Y-93821561D01*
X149187000Y-94392439D01*
X149405466Y-94919862D01*
X149809138Y-95323534D01*
X150336561Y-95542000D01*
X150907439Y-95542000D01*
X151434862Y-95323534D01*
X151838534Y-94919862D01*
X152057000Y-94392439D01*
X152057000Y-93821561D01*
X151935818Y-93529000D01*
X154254560Y-93529000D01*
X154254560Y-95129000D01*
X154303843Y-95376765D01*
X154444191Y-95586809D01*
X154654235Y-95727157D01*
X154902000Y-95776440D01*
X156502000Y-95776440D01*
X156749765Y-95727157D01*
X156959809Y-95586809D01*
X157100157Y-95376765D01*
X157149440Y-95129000D01*
X157149440Y-93529000D01*
X157100157Y-93281235D01*
X156960005Y-93071484D01*
X157148965Y-92545777D01*
X157121778Y-91975546D01*
X157087481Y-91892745D01*
X159953861Y-91892745D01*
X160027995Y-92138864D01*
X160565223Y-92331965D01*
X161135454Y-92304778D01*
X161536005Y-92138864D01*
X161610139Y-91892745D01*
X160782000Y-91064605D01*
X159953861Y-91892745D01*
X157087481Y-91892745D01*
X156955864Y-91574995D01*
X156709745Y-91500861D01*
X155881605Y-92329000D01*
X155895748Y-92343142D01*
X155716143Y-92522748D01*
X155702000Y-92508605D01*
X155687858Y-92522748D01*
X155508252Y-92343142D01*
X155522395Y-92329000D01*
X154694255Y-91500861D01*
X154448136Y-91574995D01*
X154255035Y-92112223D01*
X154282222Y-92682454D01*
X154443605Y-93072067D01*
X154303843Y-93281235D01*
X154254560Y-93529000D01*
X151935818Y-93529000D01*
X151838534Y-93294138D01*
X151434862Y-92890466D01*
X151304832Y-92836606D01*
X151656577Y-92601577D01*
X151973740Y-92126909D01*
X152085113Y-91567000D01*
X152036232Y-91321255D01*
X154873861Y-91321255D01*
X155702000Y-92149395D01*
X156530139Y-91321255D01*
X156456005Y-91075136D01*
X155918777Y-90882035D01*
X155348546Y-90909222D01*
X154947995Y-91075136D01*
X154873861Y-91321255D01*
X152036232Y-91321255D01*
X151973740Y-91007091D01*
X151656577Y-90532423D01*
X151181909Y-90215260D01*
X150763333Y-90132000D01*
X150480667Y-90132000D01*
X150062091Y-90215260D01*
X149587423Y-90532423D01*
X149270260Y-91007091D01*
X149158887Y-91567000D01*
X148529113Y-91567000D01*
X148417740Y-91007091D01*
X148100577Y-90532423D01*
X147901000Y-90399070D01*
X147901000Y-89954011D01*
X159671403Y-89954011D01*
X159774253Y-90056861D01*
X159528136Y-90130995D01*
X159335035Y-90668223D01*
X159362222Y-91238454D01*
X159528136Y-91639005D01*
X159774255Y-91713139D01*
X160602395Y-90885000D01*
X160588252Y-90870858D01*
X160767858Y-90691252D01*
X160782000Y-90705395D01*
X160796142Y-90691252D01*
X160975748Y-90870858D01*
X160961605Y-90885000D01*
X161789745Y-91713139D01*
X162035864Y-91639005D01*
X162228965Y-91101777D01*
X162201778Y-90531546D01*
X162035864Y-90130995D01*
X161789747Y-90056861D01*
X161892597Y-89954011D01*
X164144121Y-89954011D01*
X163521720Y-90576413D01*
X163451999Y-90622999D01*
X163267448Y-90899200D01*
X163244999Y-91012058D01*
X163242636Y-91013637D01*
X162993903Y-91385894D01*
X162906559Y-91825000D01*
X162906559Y-92325000D01*
X162919001Y-92387549D01*
X162919000Y-94750000D01*
X161676396Y-94750000D01*
X161594862Y-94668466D01*
X161067439Y-94450000D01*
X160496561Y-94450000D01*
X159969138Y-94668466D01*
X159565466Y-95072138D01*
X159347000Y-95599561D01*
X159347000Y-96170439D01*
X159514161Y-96574000D01*
X122002237Y-96574000D01*
X121920000Y-96557642D01*
X121837763Y-96574000D01*
X121594199Y-96622448D01*
X121317999Y-96806999D01*
X121271415Y-96876717D01*
X118110133Y-100038000D01*
X117570561Y-100038000D01*
X117043138Y-100256466D01*
X116639466Y-100660138D01*
X116562479Y-100846000D01*
X115081817Y-100846000D01*
X114915507Y-100679690D01*
X114351330Y-100446000D01*
X113740670Y-100446000D01*
X113176493Y-100679690D01*
X113000139Y-100856044D01*
X112944327Y-100721301D01*
X112765698Y-100542673D01*
X112532309Y-100446000D01*
X111791750Y-100446000D01*
X111633000Y-100604750D01*
X111633000Y-101854000D01*
X111653000Y-101854000D01*
X111653000Y-102108000D01*
X111633000Y-102108000D01*
X111633000Y-103357250D01*
X111791750Y-103516000D01*
X112532309Y-103516000D01*
X112765698Y-103419327D01*
X112944327Y-103240699D01*
X113000139Y-103105956D01*
X113176493Y-103282310D01*
X113740670Y-103516000D01*
X114351330Y-103516000D01*
X114915507Y-103282310D01*
X115081817Y-103116000D01*
X116729497Y-103116000D01*
X116504260Y-103453091D01*
X116392887Y-104013000D01*
X116504260Y-104572909D01*
X116721000Y-104897283D01*
X116721000Y-105171217D01*
X116698765Y-105283000D01*
X116721000Y-105394782D01*
X116721000Y-105668717D01*
X116504260Y-105993091D01*
X116392887Y-106553000D01*
X116504260Y-107112909D01*
X116729497Y-107450000D01*
X115081817Y-107450000D01*
X114915507Y-107283690D01*
X114351330Y-107050000D01*
X113740670Y-107050000D01*
X113176493Y-107283690D01*
X113000139Y-107460044D01*
X112944327Y-107325301D01*
X112765698Y-107146673D01*
X112532309Y-107050000D01*
X111791750Y-107050000D01*
X111633000Y-107208750D01*
X111633000Y-108458000D01*
X111653000Y-108458000D01*
X111653000Y-108712000D01*
X111633000Y-108712000D01*
X111633000Y-109961250D01*
X111791750Y-110120000D01*
X112532309Y-110120000D01*
X112765698Y-110023327D01*
X112944327Y-109844699D01*
X113000139Y-109709956D01*
X113176493Y-109886310D01*
X113740670Y-110120000D01*
X114351330Y-110120000D01*
X114915507Y-109886310D01*
X115081817Y-109720000D01*
X116562479Y-109720000D01*
X116639466Y-109905862D01*
X117043138Y-110309534D01*
X117570561Y-110528000D01*
X118141439Y-110528000D01*
X118668862Y-110309534D01*
X119072534Y-109905862D01*
X119291000Y-109378439D01*
X119291000Y-108870750D01*
X120131000Y-108870750D01*
X120131000Y-109611310D01*
X120227673Y-109844699D01*
X120406302Y-110023327D01*
X120639691Y-110120000D01*
X121380250Y-110120000D01*
X121539000Y-109961250D01*
X121539000Y-108712000D01*
X120289750Y-108712000D01*
X120131000Y-108870750D01*
X119291000Y-108870750D01*
X119291000Y-108807561D01*
X119072534Y-108280138D01*
X118668862Y-107876466D01*
X118538832Y-107822606D01*
X118890577Y-107587577D01*
X118909878Y-107558690D01*
X120131000Y-107558690D01*
X120131000Y-108299250D01*
X120289750Y-108458000D01*
X121539000Y-108458000D01*
X121539000Y-107208750D01*
X121380250Y-107050000D01*
X120639691Y-107050000D01*
X120406302Y-107146673D01*
X120227673Y-107325301D01*
X120131000Y-107558690D01*
X118909878Y-107558690D01*
X119207740Y-107112909D01*
X119319113Y-106553000D01*
X119292260Y-106418000D01*
X126579740Y-106418000D01*
X126552887Y-106553000D01*
X126664260Y-107112909D01*
X126889497Y-107450000D01*
X125241817Y-107450000D01*
X125075507Y-107283690D01*
X124511330Y-107050000D01*
X123900670Y-107050000D01*
X123336493Y-107283690D01*
X123160139Y-107460044D01*
X123104327Y-107325301D01*
X122925698Y-107146673D01*
X122692309Y-107050000D01*
X121951750Y-107050000D01*
X121793000Y-107208750D01*
X121793000Y-108458000D01*
X121813000Y-108458000D01*
X121813000Y-108712000D01*
X121793000Y-108712000D01*
X121793000Y-109961250D01*
X121951750Y-110120000D01*
X122692309Y-110120000D01*
X122925698Y-110023327D01*
X123104327Y-109844699D01*
X123160139Y-109709956D01*
X123336493Y-109886310D01*
X123900670Y-110120000D01*
X124511330Y-110120000D01*
X125075507Y-109886310D01*
X125241817Y-109720000D01*
X126722479Y-109720000D01*
X126799466Y-109905862D01*
X127203138Y-110309534D01*
X127730561Y-110528000D01*
X128301439Y-110528000D01*
X128828862Y-110309534D01*
X129232534Y-109905862D01*
X129451000Y-109378439D01*
X129451000Y-108870750D01*
X130291000Y-108870750D01*
X130291000Y-109611310D01*
X130387673Y-109844699D01*
X130566302Y-110023327D01*
X130799691Y-110120000D01*
X131540250Y-110120000D01*
X131699000Y-109961250D01*
X131699000Y-108712000D01*
X130449750Y-108712000D01*
X130291000Y-108870750D01*
X129451000Y-108870750D01*
X129451000Y-108807561D01*
X129232534Y-108280138D01*
X128828862Y-107876466D01*
X128698832Y-107822606D01*
X129050577Y-107587577D01*
X129069878Y-107558690D01*
X130291000Y-107558690D01*
X130291000Y-108299250D01*
X130449750Y-108458000D01*
X131699000Y-108458000D01*
X131699000Y-107208750D01*
X131540250Y-107050000D01*
X130799691Y-107050000D01*
X130566302Y-107146673D01*
X130387673Y-107325301D01*
X130291000Y-107558690D01*
X129069878Y-107558690D01*
X129367740Y-107112909D01*
X129479113Y-106553000D01*
X129452260Y-106418000D01*
X136739740Y-106418000D01*
X136712887Y-106553000D01*
X136824260Y-107112909D01*
X137049497Y-107450000D01*
X135401817Y-107450000D01*
X135235507Y-107283690D01*
X134671330Y-107050000D01*
X134060670Y-107050000D01*
X133496493Y-107283690D01*
X133320139Y-107460044D01*
X133264327Y-107325301D01*
X133085698Y-107146673D01*
X132852309Y-107050000D01*
X132111750Y-107050000D01*
X131953000Y-107208750D01*
X131953000Y-108458000D01*
X131973000Y-108458000D01*
X131973000Y-108712000D01*
X131953000Y-108712000D01*
X131953000Y-109961250D01*
X132111750Y-110120000D01*
X132852309Y-110120000D01*
X133085698Y-110023327D01*
X133264327Y-109844699D01*
X133320139Y-109709956D01*
X133496493Y-109886310D01*
X134060670Y-110120000D01*
X134671330Y-110120000D01*
X135235507Y-109886310D01*
X135401817Y-109720000D01*
X136882479Y-109720000D01*
X136959466Y-109905862D01*
X137363138Y-110309534D01*
X137890561Y-110528000D01*
X138461439Y-110528000D01*
X138988862Y-110309534D01*
X139392534Y-109905862D01*
X139611000Y-109378439D01*
X139611000Y-108870750D01*
X140451000Y-108870750D01*
X140451000Y-109611310D01*
X140547673Y-109844699D01*
X140726302Y-110023327D01*
X140959691Y-110120000D01*
X141700250Y-110120000D01*
X141859000Y-109961250D01*
X141859000Y-108712000D01*
X140609750Y-108712000D01*
X140451000Y-108870750D01*
X139611000Y-108870750D01*
X139611000Y-108807561D01*
X139392534Y-108280138D01*
X138988862Y-107876466D01*
X138858832Y-107822606D01*
X139210577Y-107587577D01*
X139229878Y-107558690D01*
X140451000Y-107558690D01*
X140451000Y-108299250D01*
X140609750Y-108458000D01*
X141859000Y-108458000D01*
X141859000Y-107208750D01*
X141700250Y-107050000D01*
X140959691Y-107050000D01*
X140726302Y-107146673D01*
X140547673Y-107325301D01*
X140451000Y-107558690D01*
X139229878Y-107558690D01*
X139527740Y-107112909D01*
X139639113Y-106553000D01*
X139612260Y-106418000D01*
X146899740Y-106418000D01*
X146872887Y-106553000D01*
X146984260Y-107112909D01*
X147209497Y-107450000D01*
X145561817Y-107450000D01*
X145395507Y-107283690D01*
X144831330Y-107050000D01*
X144220670Y-107050000D01*
X143656493Y-107283690D01*
X143480139Y-107460044D01*
X143424327Y-107325301D01*
X143245698Y-107146673D01*
X143012309Y-107050000D01*
X142271750Y-107050000D01*
X142113000Y-107208750D01*
X142113000Y-108458000D01*
X142133000Y-108458000D01*
X142133000Y-108712000D01*
X142113000Y-108712000D01*
X142113000Y-109961250D01*
X142271750Y-110120000D01*
X143012309Y-110120000D01*
X143245698Y-110023327D01*
X143424327Y-109844699D01*
X143480139Y-109709956D01*
X143656493Y-109886310D01*
X144220670Y-110120000D01*
X144831330Y-110120000D01*
X145395507Y-109886310D01*
X145561817Y-109720000D01*
X147042479Y-109720000D01*
X147119466Y-109905862D01*
X147523138Y-110309534D01*
X148050561Y-110528000D01*
X148621439Y-110528000D01*
X149148862Y-110309534D01*
X149552534Y-109905862D01*
X149771000Y-109378439D01*
X149771000Y-108870750D01*
X150611000Y-108870750D01*
X150611000Y-109611310D01*
X150707673Y-109844699D01*
X150886302Y-110023327D01*
X151119691Y-110120000D01*
X151860250Y-110120000D01*
X152019000Y-109961250D01*
X152019000Y-108712000D01*
X150769750Y-108712000D01*
X150611000Y-108870750D01*
X149771000Y-108870750D01*
X149771000Y-108807561D01*
X149552534Y-108280138D01*
X149148862Y-107876466D01*
X149018832Y-107822606D01*
X149370577Y-107587577D01*
X149389878Y-107558690D01*
X150611000Y-107558690D01*
X150611000Y-108299250D01*
X150769750Y-108458000D01*
X152019000Y-108458000D01*
X152019000Y-107208750D01*
X151860250Y-107050000D01*
X151119691Y-107050000D01*
X150886302Y-107146673D01*
X150707673Y-107325301D01*
X150611000Y-107558690D01*
X149389878Y-107558690D01*
X149687740Y-107112909D01*
X149799113Y-106553000D01*
X149772260Y-106418000D01*
X157059740Y-106418000D01*
X157032887Y-106553000D01*
X157144260Y-107112909D01*
X157369497Y-107450000D01*
X155721817Y-107450000D01*
X155555507Y-107283690D01*
X154991330Y-107050000D01*
X154380670Y-107050000D01*
X153816493Y-107283690D01*
X153640139Y-107460044D01*
X153584327Y-107325301D01*
X153405698Y-107146673D01*
X153172309Y-107050000D01*
X152431750Y-107050000D01*
X152273000Y-107208750D01*
X152273000Y-108458000D01*
X152293000Y-108458000D01*
X152293000Y-108712000D01*
X152273000Y-108712000D01*
X152273000Y-109961250D01*
X152431750Y-110120000D01*
X153172309Y-110120000D01*
X153405698Y-110023327D01*
X153584327Y-109844699D01*
X153640139Y-109709956D01*
X153816493Y-109886310D01*
X154380670Y-110120000D01*
X154991330Y-110120000D01*
X155555507Y-109886310D01*
X155721817Y-109720000D01*
X157202479Y-109720000D01*
X157279466Y-109905862D01*
X157683138Y-110309534D01*
X158210561Y-110528000D01*
X158781439Y-110528000D01*
X159308862Y-110309534D01*
X159712534Y-109905862D01*
X159931000Y-109378439D01*
X159931000Y-108870750D01*
X160771000Y-108870750D01*
X160771000Y-109611310D01*
X160867673Y-109844699D01*
X161046302Y-110023327D01*
X161279691Y-110120000D01*
X162020250Y-110120000D01*
X162179000Y-109961250D01*
X162179000Y-108712000D01*
X160929750Y-108712000D01*
X160771000Y-108870750D01*
X159931000Y-108870750D01*
X159931000Y-108807561D01*
X159712534Y-108280138D01*
X159308862Y-107876466D01*
X159178832Y-107822606D01*
X159530577Y-107587577D01*
X159549878Y-107558690D01*
X160771000Y-107558690D01*
X160771000Y-108299250D01*
X160929750Y-108458000D01*
X162179000Y-108458000D01*
X162179000Y-107208750D01*
X162020250Y-107050000D01*
X161279691Y-107050000D01*
X161046302Y-107146673D01*
X160867673Y-107325301D01*
X160771000Y-107558690D01*
X159549878Y-107558690D01*
X159847740Y-107112909D01*
X159959113Y-106553000D01*
X159932260Y-106418000D01*
X167219740Y-106418000D01*
X167192887Y-106553000D01*
X167304260Y-107112909D01*
X167529497Y-107450000D01*
X165881817Y-107450000D01*
X165715507Y-107283690D01*
X165151330Y-107050000D01*
X164540670Y-107050000D01*
X163976493Y-107283690D01*
X163800139Y-107460044D01*
X163744327Y-107325301D01*
X163565698Y-107146673D01*
X163332309Y-107050000D01*
X162591750Y-107050000D01*
X162433000Y-107208750D01*
X162433000Y-108458000D01*
X162453000Y-108458000D01*
X162453000Y-108712000D01*
X162433000Y-108712000D01*
X162433000Y-109961250D01*
X162591750Y-110120000D01*
X163332309Y-110120000D01*
X163565698Y-110023327D01*
X163744327Y-109844699D01*
X163800139Y-109709956D01*
X163976493Y-109886310D01*
X164540670Y-110120000D01*
X165151330Y-110120000D01*
X165715507Y-109886310D01*
X165881817Y-109720000D01*
X167362479Y-109720000D01*
X167439466Y-109905862D01*
X167843138Y-110309534D01*
X168370561Y-110528000D01*
X168941439Y-110528000D01*
X169468862Y-110309534D01*
X169872534Y-109905862D01*
X170091000Y-109378439D01*
X170091000Y-108870750D01*
X170931000Y-108870750D01*
X170931000Y-109611310D01*
X171027673Y-109844699D01*
X171206302Y-110023327D01*
X171439691Y-110120000D01*
X172180250Y-110120000D01*
X172339000Y-109961250D01*
X172339000Y-108712000D01*
X171089750Y-108712000D01*
X170931000Y-108870750D01*
X170091000Y-108870750D01*
X170091000Y-108807561D01*
X169872534Y-108280138D01*
X169468862Y-107876466D01*
X169338832Y-107822606D01*
X169690577Y-107587577D01*
X169709878Y-107558690D01*
X170931000Y-107558690D01*
X170931000Y-108299250D01*
X171089750Y-108458000D01*
X172339000Y-108458000D01*
X172339000Y-107208750D01*
X172180250Y-107050000D01*
X171439691Y-107050000D01*
X171206302Y-107146673D01*
X171027673Y-107325301D01*
X170931000Y-107558690D01*
X169709878Y-107558690D01*
X170007740Y-107112909D01*
X170119113Y-106553000D01*
X170092260Y-106418000D01*
X177379740Y-106418000D01*
X177352887Y-106553000D01*
X177464260Y-107112909D01*
X177689497Y-107450000D01*
X176041817Y-107450000D01*
X175875507Y-107283690D01*
X175311330Y-107050000D01*
X174700670Y-107050000D01*
X174136493Y-107283690D01*
X173960139Y-107460044D01*
X173904327Y-107325301D01*
X173725698Y-107146673D01*
X173492309Y-107050000D01*
X172751750Y-107050000D01*
X172593000Y-107208750D01*
X172593000Y-108458000D01*
X172613000Y-108458000D01*
X172613000Y-108712000D01*
X172593000Y-108712000D01*
X172593000Y-109961250D01*
X172751750Y-110120000D01*
X173492309Y-110120000D01*
X173725698Y-110023327D01*
X173904327Y-109844699D01*
X173960139Y-109709956D01*
X174136493Y-109886310D01*
X174700670Y-110120000D01*
X175311330Y-110120000D01*
X175875507Y-109886310D01*
X176041817Y-109720000D01*
X177522479Y-109720000D01*
X177599466Y-109905862D01*
X178003138Y-110309534D01*
X178530561Y-110528000D01*
X179101439Y-110528000D01*
X179628862Y-110309534D01*
X180032534Y-109905862D01*
X180251000Y-109378439D01*
X180251000Y-108870750D01*
X181091000Y-108870750D01*
X181091000Y-109611310D01*
X181187673Y-109844699D01*
X181366302Y-110023327D01*
X181599691Y-110120000D01*
X182340250Y-110120000D01*
X182499000Y-109961250D01*
X182499000Y-108712000D01*
X181249750Y-108712000D01*
X181091000Y-108870750D01*
X180251000Y-108870750D01*
X180251000Y-108807561D01*
X180032534Y-108280138D01*
X179628862Y-107876466D01*
X179498832Y-107822606D01*
X179850577Y-107587577D01*
X179869878Y-107558690D01*
X181091000Y-107558690D01*
X181091000Y-108299250D01*
X181249750Y-108458000D01*
X182499000Y-108458000D01*
X182499000Y-107208750D01*
X182340250Y-107050000D01*
X181599691Y-107050000D01*
X181366302Y-107146673D01*
X181187673Y-107325301D01*
X181091000Y-107558690D01*
X179869878Y-107558690D01*
X180167740Y-107112909D01*
X180279113Y-106553000D01*
X180252260Y-106418000D01*
X187539740Y-106418000D01*
X187512887Y-106553000D01*
X187624260Y-107112909D01*
X187849497Y-107450000D01*
X186201817Y-107450000D01*
X186035507Y-107283690D01*
X185471330Y-107050000D01*
X184860670Y-107050000D01*
X184296493Y-107283690D01*
X184120139Y-107460044D01*
X184064327Y-107325301D01*
X183885698Y-107146673D01*
X183652309Y-107050000D01*
X182911750Y-107050000D01*
X182753000Y-107208750D01*
X182753000Y-108458000D01*
X182773000Y-108458000D01*
X182773000Y-108712000D01*
X182753000Y-108712000D01*
X182753000Y-109961250D01*
X182911750Y-110120000D01*
X183652309Y-110120000D01*
X183885698Y-110023327D01*
X184064327Y-109844699D01*
X184120139Y-109709956D01*
X184296493Y-109886310D01*
X184860670Y-110120000D01*
X185471330Y-110120000D01*
X186035507Y-109886310D01*
X186201817Y-109720000D01*
X187682479Y-109720000D01*
X187759466Y-109905862D01*
X188163138Y-110309534D01*
X188690561Y-110528000D01*
X189261439Y-110528000D01*
X189788862Y-110309534D01*
X190192534Y-109905862D01*
X190411000Y-109378439D01*
X190411000Y-108807561D01*
X190192534Y-108280138D01*
X189788862Y-107876466D01*
X189658832Y-107822606D01*
X190010577Y-107587577D01*
X190327740Y-107112909D01*
X190439113Y-106553000D01*
X190327740Y-105993091D01*
X190111000Y-105668717D01*
X190111000Y-105394782D01*
X190133235Y-105283000D01*
X190111000Y-105171217D01*
X190111000Y-104897283D01*
X190327740Y-104572909D01*
X190439113Y-104013000D01*
X190327740Y-103453091D01*
X190010577Y-102978423D01*
X189658832Y-102743394D01*
X189788862Y-102689534D01*
X190192534Y-102285862D01*
X190411000Y-101758439D01*
X190411000Y-101187561D01*
X190192534Y-100660138D01*
X189788862Y-100256466D01*
X189261439Y-100038000D01*
X188690561Y-100038000D01*
X188163138Y-100256466D01*
X187759466Y-100660138D01*
X187682479Y-100846000D01*
X186201817Y-100846000D01*
X186035507Y-100679690D01*
X185471330Y-100446000D01*
X184860670Y-100446000D01*
X184826161Y-100460294D01*
X183528587Y-99162720D01*
X183482001Y-99092999D01*
X183205801Y-98908448D01*
X182962237Y-98860000D01*
X182962233Y-98860000D01*
X182880000Y-98843643D01*
X182797767Y-98860000D01*
X181783977Y-98860000D01*
X181942280Y-98794429D01*
X182233431Y-98503278D01*
X182391000Y-98122872D01*
X182391000Y-97711124D01*
X182233431Y-97330718D01*
X181942280Y-97039567D01*
X181561874Y-96881998D01*
X181229241Y-96881998D01*
X181229440Y-96881000D01*
X181229440Y-96381000D01*
X181204576Y-96256000D01*
X181229440Y-96131000D01*
X181229440Y-95131000D01*
X181204576Y-95006000D01*
X181229440Y-94881000D01*
X181229440Y-94381000D01*
X181224467Y-94356000D01*
X181229440Y-94331001D01*
X181229440Y-94330999D01*
X181142096Y-93891893D01*
X180893363Y-93519636D01*
X180667000Y-93368386D01*
X180667000Y-92690687D01*
X181006147Y-92351540D01*
X181199629Y-91884431D01*
X184201000Y-91884431D01*
X184201000Y-92773569D01*
X184541259Y-93595026D01*
X185169974Y-94223741D01*
X185991431Y-94564000D01*
X186880569Y-94564000D01*
X187702026Y-94223741D01*
X188330741Y-93595026D01*
X188671000Y-92773569D01*
X188671000Y-91884431D01*
X188330741Y-91062974D01*
X187702026Y-90434259D01*
X186880569Y-90094000D01*
X185991431Y-90094000D01*
X185169974Y-90434259D01*
X184541259Y-91062974D01*
X184201000Y-91884431D01*
X181199629Y-91884431D01*
X181217000Y-91842494D01*
X181217000Y-91291506D01*
X181006147Y-90782460D01*
X180616540Y-90392853D01*
X180107494Y-90182000D01*
X179556506Y-90182000D01*
X179047460Y-90392853D01*
X178657853Y-90782460D01*
X178447000Y-91291506D01*
X178447000Y-91842494D01*
X178657853Y-92351540D01*
X178997001Y-92690688D01*
X178997000Y-93368386D01*
X178770637Y-93519636D01*
X178521904Y-93891893D01*
X178434560Y-94330999D01*
X178434560Y-94331001D01*
X178439533Y-94356000D01*
X178434560Y-94381000D01*
X178434560Y-94796000D01*
X177374233Y-94796000D01*
X177292000Y-94779643D01*
X177209767Y-94796000D01*
X177209763Y-94796000D01*
X176966199Y-94844448D01*
X176689999Y-95028999D01*
X176643416Y-95098716D01*
X176530132Y-95212000D01*
X176021868Y-95212000D01*
X173464613Y-92654745D01*
X175447861Y-92654745D01*
X175521995Y-92900864D01*
X176059223Y-93093965D01*
X176629454Y-93066778D01*
X177030005Y-92900864D01*
X177104139Y-92654745D01*
X176276000Y-91826605D01*
X175447861Y-92654745D01*
X173464613Y-92654745D01*
X173402000Y-92592133D01*
X173402000Y-92201750D01*
X173488250Y-92288000D01*
X173568310Y-92288000D01*
X173801699Y-92191327D01*
X173980327Y-92012698D01*
X174077000Y-91779309D01*
X174077000Y-91430223D01*
X174829035Y-91430223D01*
X174856222Y-92000454D01*
X175022136Y-92401005D01*
X175268255Y-92475139D01*
X176096395Y-91647000D01*
X176455605Y-91647000D01*
X177283745Y-92475139D01*
X177529864Y-92401005D01*
X177722965Y-91863777D01*
X177695778Y-91293546D01*
X177529864Y-90892995D01*
X177283745Y-90818861D01*
X176455605Y-91647000D01*
X176096395Y-91647000D01*
X175268255Y-90818861D01*
X175022136Y-90892995D01*
X174829035Y-91430223D01*
X174077000Y-91430223D01*
X174077000Y-91188750D01*
X173918250Y-91030000D01*
X173439440Y-91030000D01*
X173439440Y-90776000D01*
X173918250Y-90776000D01*
X174054995Y-90639255D01*
X175447861Y-90639255D01*
X176276000Y-91467395D01*
X177104139Y-90639255D01*
X177030005Y-90393136D01*
X176492777Y-90200035D01*
X175922546Y-90227222D01*
X175521995Y-90393136D01*
X175447861Y-90639255D01*
X174054995Y-90639255D01*
X174077000Y-90617250D01*
X174077000Y-90026691D01*
X173980327Y-89793302D01*
X173801699Y-89614673D01*
X173568310Y-89518000D01*
X173488250Y-89518000D01*
X173329500Y-89676750D01*
X173329500Y-89814456D01*
X173249809Y-89695191D01*
X173039765Y-89554843D01*
X172968397Y-89540647D01*
X172945750Y-89518000D01*
X172865690Y-89518000D01*
X172862073Y-89519498D01*
X172792000Y-89505560D01*
X172342000Y-89505560D01*
X172271927Y-89519498D01*
X172268310Y-89518000D01*
X172188250Y-89518000D01*
X172165603Y-89540647D01*
X172094235Y-89554843D01*
X171917000Y-89673269D01*
X171739765Y-89554843D01*
X171668397Y-89540647D01*
X171645750Y-89518000D01*
X171565690Y-89518000D01*
X171562073Y-89519498D01*
X171492000Y-89505560D01*
X171042000Y-89505560D01*
X170942000Y-89525451D01*
X170842000Y-89505560D01*
X170802000Y-89505560D01*
X170802000Y-89404237D01*
X170818358Y-89322000D01*
X170753552Y-88996200D01*
X170753552Y-88996199D01*
X170569001Y-88719999D01*
X170499282Y-88673415D01*
X169784867Y-87959000D01*
X190806001Y-87959000D01*
X190806000Y-111939000D01*
X109422000Y-111939000D01*
X109422000Y-108870750D01*
X109971000Y-108870750D01*
X109971000Y-109611310D01*
X110067673Y-109844699D01*
X110246302Y-110023327D01*
X110479691Y-110120000D01*
X111220250Y-110120000D01*
X111379000Y-109961250D01*
X111379000Y-108712000D01*
X110129750Y-108712000D01*
X109971000Y-108870750D01*
X109422000Y-108870750D01*
X109422000Y-107558690D01*
X109971000Y-107558690D01*
X109971000Y-108299250D01*
X110129750Y-108458000D01*
X111379000Y-108458000D01*
X111379000Y-107208750D01*
X111220250Y-107050000D01*
X110479691Y-107050000D01*
X110246302Y-107146673D01*
X110067673Y-107325301D01*
X109971000Y-107558690D01*
X109422000Y-107558690D01*
X109422000Y-102266750D01*
X109971000Y-102266750D01*
X109971000Y-103007310D01*
X110067673Y-103240699D01*
X110246302Y-103419327D01*
X110479691Y-103516000D01*
X111220250Y-103516000D01*
X111379000Y-103357250D01*
X111379000Y-102108000D01*
X110129750Y-102108000D01*
X109971000Y-102266750D01*
X109422000Y-102266750D01*
X109422000Y-100954690D01*
X109971000Y-100954690D01*
X109971000Y-101695250D01*
X110129750Y-101854000D01*
X111379000Y-101854000D01*
X111379000Y-100604750D01*
X111220250Y-100446000D01*
X110479691Y-100446000D01*
X110246302Y-100542673D01*
X110067673Y-100721301D01*
X109971000Y-100954690D01*
X109422000Y-100954690D01*
X109422000Y-91884431D01*
X111557000Y-91884431D01*
X111557000Y-92773569D01*
X111897259Y-93595026D01*
X112525974Y-94223741D01*
X113347431Y-94564000D01*
X114236569Y-94564000D01*
X115058026Y-94223741D01*
X115686741Y-93595026D01*
X116027000Y-92773569D01*
X116027000Y-91884431D01*
X115686741Y-91062974D01*
X115058026Y-90434259D01*
X114236569Y-90094000D01*
X113347431Y-90094000D01*
X112525974Y-90434259D01*
X111897259Y-91062974D01*
X111557000Y-91884431D01*
X109422000Y-91884431D01*
X109422000Y-87959000D01*
X141833131Y-87959000D01*
X137440705Y-92351428D01*
G36*
X160771000Y-101695250D02*
X160929750Y-101854000D01*
X162179000Y-101854000D01*
X162179000Y-101834000D01*
X162433000Y-101834000D01*
X162433000Y-101854000D01*
X162453000Y-101854000D01*
X162453000Y-102108000D01*
X162433000Y-102108000D01*
X162433000Y-103357250D01*
X162591750Y-103516000D01*
X163332309Y-103516000D01*
X163565698Y-103419327D01*
X163744327Y-103240699D01*
X163800139Y-103105956D01*
X163976493Y-103282310D01*
X164540670Y-103516000D01*
X165151330Y-103516000D01*
X165715507Y-103282310D01*
X165881817Y-103116000D01*
X167529497Y-103116000D01*
X167304260Y-103453091D01*
X167192887Y-104013000D01*
X167219740Y-104148000D01*
X159932260Y-104148000D01*
X159959113Y-104013000D01*
X159847740Y-103453091D01*
X159530577Y-102978423D01*
X159178832Y-102743394D01*
X159308862Y-102689534D01*
X159712534Y-102285862D01*
X159720450Y-102266750D01*
X160771000Y-102266750D01*
X160771000Y-103007310D01*
X160867673Y-103240699D01*
X161046302Y-103419327D01*
X161279691Y-103516000D01*
X162020250Y-103516000D01*
X162179000Y-103357250D01*
X162179000Y-102108000D01*
X160929750Y-102108000D01*
X160771000Y-102266750D01*
X159720450Y-102266750D01*
X159931000Y-101758439D01*
X159931000Y-101218868D01*
X160111868Y-101038000D01*
X160771000Y-101038000D01*
X160771000Y-101695250D01*
X160771000Y-101695250D01*
G37*
X160771000Y-101695250D02*
X160929750Y-101854000D01*
X162179000Y-101854000D01*
X162179000Y-101834000D01*
X162433000Y-101834000D01*
X162433000Y-101854000D01*
X162453000Y-101854000D01*
X162453000Y-102108000D01*
X162433000Y-102108000D01*
X162433000Y-103357250D01*
X162591750Y-103516000D01*
X163332309Y-103516000D01*
X163565698Y-103419327D01*
X163744327Y-103240699D01*
X163800139Y-103105956D01*
X163976493Y-103282310D01*
X164540670Y-103516000D01*
X165151330Y-103516000D01*
X165715507Y-103282310D01*
X165881817Y-103116000D01*
X167529497Y-103116000D01*
X167304260Y-103453091D01*
X167192887Y-104013000D01*
X167219740Y-104148000D01*
X159932260Y-104148000D01*
X159959113Y-104013000D01*
X159847740Y-103453091D01*
X159530577Y-102978423D01*
X159178832Y-102743394D01*
X159308862Y-102689534D01*
X159712534Y-102285862D01*
X159720450Y-102266750D01*
X160771000Y-102266750D01*
X160771000Y-103007310D01*
X160867673Y-103240699D01*
X161046302Y-103419327D01*
X161279691Y-103516000D01*
X162020250Y-103516000D01*
X162179000Y-103357250D01*
X162179000Y-102108000D01*
X160929750Y-102108000D01*
X160771000Y-102266750D01*
X159720450Y-102266750D01*
X159931000Y-101758439D01*
X159931000Y-101218868D01*
X160111868Y-101038000D01*
X160771000Y-101038000D01*
X160771000Y-101695250D01*
G36*
X148590133Y-100038000D02*
X148050561Y-100038000D01*
X147523138Y-100256466D01*
X147119466Y-100660138D01*
X147042479Y-100846000D01*
X145561817Y-100846000D01*
X145395507Y-100679690D01*
X144831330Y-100446000D01*
X144220670Y-100446000D01*
X143656493Y-100679690D01*
X143480139Y-100856044D01*
X143424327Y-100721301D01*
X143245698Y-100542673D01*
X143012309Y-100446000D01*
X142271750Y-100446000D01*
X142113000Y-100604750D01*
X142113000Y-101854000D01*
X142133000Y-101854000D01*
X142133000Y-102108000D01*
X142113000Y-102108000D01*
X142113000Y-103357250D01*
X142271750Y-103516000D01*
X143012309Y-103516000D01*
X143245698Y-103419327D01*
X143424327Y-103240699D01*
X143480139Y-103105956D01*
X143656493Y-103282310D01*
X144220670Y-103516000D01*
X144831330Y-103516000D01*
X145395507Y-103282310D01*
X145561817Y-103116000D01*
X147209497Y-103116000D01*
X146984260Y-103453091D01*
X146872887Y-104013000D01*
X146899740Y-104148000D01*
X139612260Y-104148000D01*
X139639113Y-104013000D01*
X139527740Y-103453091D01*
X139210577Y-102978423D01*
X138858832Y-102743394D01*
X138988862Y-102689534D01*
X139392534Y-102285862D01*
X139400450Y-102266750D01*
X140451000Y-102266750D01*
X140451000Y-103007310D01*
X140547673Y-103240699D01*
X140726302Y-103419327D01*
X140959691Y-103516000D01*
X141700250Y-103516000D01*
X141859000Y-103357250D01*
X141859000Y-102108000D01*
X140609750Y-102108000D01*
X140451000Y-102266750D01*
X139400450Y-102266750D01*
X139611000Y-101758439D01*
X139611000Y-101218868D01*
X139875178Y-100954690D01*
X140451000Y-100954690D01*
X140451000Y-101695250D01*
X140609750Y-101854000D01*
X141859000Y-101854000D01*
X141859000Y-100604750D01*
X141700250Y-100446000D01*
X140959691Y-100446000D01*
X140726302Y-100542673D01*
X140547673Y-100721301D01*
X140451000Y-100954690D01*
X139875178Y-100954690D01*
X141061869Y-99768000D01*
X148860132Y-99768000D01*
X148590133Y-100038000D01*
X148590133Y-100038000D01*
G37*
X148590133Y-100038000D02*
X148050561Y-100038000D01*
X147523138Y-100256466D01*
X147119466Y-100660138D01*
X147042479Y-100846000D01*
X145561817Y-100846000D01*
X145395507Y-100679690D01*
X144831330Y-100446000D01*
X144220670Y-100446000D01*
X143656493Y-100679690D01*
X143480139Y-100856044D01*
X143424327Y-100721301D01*
X143245698Y-100542673D01*
X143012309Y-100446000D01*
X142271750Y-100446000D01*
X142113000Y-100604750D01*
X142113000Y-101854000D01*
X142133000Y-101854000D01*
X142133000Y-102108000D01*
X142113000Y-102108000D01*
X142113000Y-103357250D01*
X142271750Y-103516000D01*
X143012309Y-103516000D01*
X143245698Y-103419327D01*
X143424327Y-103240699D01*
X143480139Y-103105956D01*
X143656493Y-103282310D01*
X144220670Y-103516000D01*
X144831330Y-103516000D01*
X145395507Y-103282310D01*
X145561817Y-103116000D01*
X147209497Y-103116000D01*
X146984260Y-103453091D01*
X146872887Y-104013000D01*
X146899740Y-104148000D01*
X139612260Y-104148000D01*
X139639113Y-104013000D01*
X139527740Y-103453091D01*
X139210577Y-102978423D01*
X138858832Y-102743394D01*
X138988862Y-102689534D01*
X139392534Y-102285862D01*
X139400450Y-102266750D01*
X140451000Y-102266750D01*
X140451000Y-103007310D01*
X140547673Y-103240699D01*
X140726302Y-103419327D01*
X140959691Y-103516000D01*
X141700250Y-103516000D01*
X141859000Y-103357250D01*
X141859000Y-102108000D01*
X140609750Y-102108000D01*
X140451000Y-102266750D01*
X139400450Y-102266750D01*
X139611000Y-101758439D01*
X139611000Y-101218868D01*
X139875178Y-100954690D01*
X140451000Y-100954690D01*
X140451000Y-101695250D01*
X140609750Y-101854000D01*
X141859000Y-101854000D01*
X141859000Y-100604750D01*
X141700250Y-100446000D01*
X140959691Y-100446000D01*
X140726302Y-100542673D01*
X140547673Y-100721301D01*
X140451000Y-100954690D01*
X139875178Y-100954690D01*
X141061869Y-99768000D01*
X148860132Y-99768000D01*
X148590133Y-100038000D01*
G36*
X128499719Y-99808414D02*
X128499716Y-99808416D01*
X128270132Y-100038000D01*
X127730561Y-100038000D01*
X127203138Y-100256466D01*
X126799466Y-100660138D01*
X126722479Y-100846000D01*
X125241817Y-100846000D01*
X125075507Y-100679690D01*
X124511330Y-100446000D01*
X123900670Y-100446000D01*
X123336493Y-100679690D01*
X123160139Y-100856044D01*
X123104327Y-100721301D01*
X122925698Y-100542673D01*
X122692309Y-100446000D01*
X121951750Y-100446000D01*
X121793000Y-100604750D01*
X121793000Y-101854000D01*
X121813000Y-101854000D01*
X121813000Y-102108000D01*
X121793000Y-102108000D01*
X121793000Y-103357250D01*
X121951750Y-103516000D01*
X122692309Y-103516000D01*
X122925698Y-103419327D01*
X123104327Y-103240699D01*
X123160139Y-103105956D01*
X123336493Y-103282310D01*
X123900670Y-103516000D01*
X124511330Y-103516000D01*
X125075507Y-103282310D01*
X125241817Y-103116000D01*
X126889497Y-103116000D01*
X126664260Y-103453091D01*
X126552887Y-104013000D01*
X126579740Y-104148000D01*
X119292260Y-104148000D01*
X119319113Y-104013000D01*
X119207740Y-103453091D01*
X118890577Y-102978423D01*
X118538832Y-102743394D01*
X118668862Y-102689534D01*
X119072534Y-102285862D01*
X119080450Y-102266750D01*
X120131000Y-102266750D01*
X120131000Y-103007310D01*
X120227673Y-103240699D01*
X120406302Y-103419327D01*
X120639691Y-103516000D01*
X121380250Y-103516000D01*
X121539000Y-103357250D01*
X121539000Y-102108000D01*
X120289750Y-102108000D01*
X120131000Y-102266750D01*
X119080450Y-102266750D01*
X119291000Y-101758439D01*
X119291000Y-101218867D01*
X119555177Y-100954690D01*
X120131000Y-100954690D01*
X120131000Y-101695250D01*
X120289750Y-101854000D01*
X121539000Y-101854000D01*
X121539000Y-100604750D01*
X121380250Y-100446000D01*
X120639691Y-100446000D01*
X120406302Y-100542673D01*
X120227673Y-100721301D01*
X120131000Y-100954690D01*
X119555177Y-100954690D01*
X122265868Y-98244000D01*
X130064132Y-98244000D01*
X128499719Y-99808414D01*
X128499719Y-99808414D01*
G37*
X128499719Y-99808414D02*
X128499716Y-99808416D01*
X128270132Y-100038000D01*
X127730561Y-100038000D01*
X127203138Y-100256466D01*
X126799466Y-100660138D01*
X126722479Y-100846000D01*
X125241817Y-100846000D01*
X125075507Y-100679690D01*
X124511330Y-100446000D01*
X123900670Y-100446000D01*
X123336493Y-100679690D01*
X123160139Y-100856044D01*
X123104327Y-100721301D01*
X122925698Y-100542673D01*
X122692309Y-100446000D01*
X121951750Y-100446000D01*
X121793000Y-100604750D01*
X121793000Y-101854000D01*
X121813000Y-101854000D01*
X121813000Y-102108000D01*
X121793000Y-102108000D01*
X121793000Y-103357250D01*
X121951750Y-103516000D01*
X122692309Y-103516000D01*
X122925698Y-103419327D01*
X123104327Y-103240699D01*
X123160139Y-103105956D01*
X123336493Y-103282310D01*
X123900670Y-103516000D01*
X124511330Y-103516000D01*
X125075507Y-103282310D01*
X125241817Y-103116000D01*
X126889497Y-103116000D01*
X126664260Y-103453091D01*
X126552887Y-104013000D01*
X126579740Y-104148000D01*
X119292260Y-104148000D01*
X119319113Y-104013000D01*
X119207740Y-103453091D01*
X118890577Y-102978423D01*
X118538832Y-102743394D01*
X118668862Y-102689534D01*
X119072534Y-102285862D01*
X119080450Y-102266750D01*
X120131000Y-102266750D01*
X120131000Y-103007310D01*
X120227673Y-103240699D01*
X120406302Y-103419327D01*
X120639691Y-103516000D01*
X121380250Y-103516000D01*
X121539000Y-103357250D01*
X121539000Y-102108000D01*
X120289750Y-102108000D01*
X120131000Y-102266750D01*
X119080450Y-102266750D01*
X119291000Y-101758439D01*
X119291000Y-101218867D01*
X119555177Y-100954690D01*
X120131000Y-100954690D01*
X120131000Y-101695250D01*
X120289750Y-101854000D01*
X121539000Y-101854000D01*
X121539000Y-100604750D01*
X121380250Y-100446000D01*
X120639691Y-100446000D01*
X120406302Y-100542673D01*
X120227673Y-100721301D01*
X120131000Y-100954690D01*
X119555177Y-100954690D01*
X122265868Y-98244000D01*
X130064132Y-98244000D01*
X128499719Y-99808414D01*
G36*
X181366302Y-100542673D02*
X181187673Y-100721301D01*
X181091000Y-100954690D01*
X181091000Y-101695250D01*
X181249750Y-101854000D01*
X182499000Y-101854000D01*
X182499000Y-101834000D01*
X182753000Y-101834000D01*
X182753000Y-101854000D01*
X182773000Y-101854000D01*
X182773000Y-102108000D01*
X182753000Y-102108000D01*
X182753000Y-103357250D01*
X182911750Y-103516000D01*
X183652309Y-103516000D01*
X183885698Y-103419327D01*
X184064327Y-103240699D01*
X184120139Y-103105956D01*
X184296493Y-103282310D01*
X184860670Y-103516000D01*
X185471330Y-103516000D01*
X186035507Y-103282310D01*
X186201817Y-103116000D01*
X187849497Y-103116000D01*
X187624260Y-103453091D01*
X187512887Y-104013000D01*
X187539740Y-104148000D01*
X180252260Y-104148000D01*
X180279113Y-104013000D01*
X180167740Y-103453091D01*
X179850577Y-102978423D01*
X179498832Y-102743394D01*
X179628862Y-102689534D01*
X180032534Y-102285862D01*
X180040450Y-102266750D01*
X181091000Y-102266750D01*
X181091000Y-103007310D01*
X181187673Y-103240699D01*
X181366302Y-103419327D01*
X181599691Y-103516000D01*
X182340250Y-103516000D01*
X182499000Y-103357250D01*
X182499000Y-102108000D01*
X181249750Y-102108000D01*
X181091000Y-102266750D01*
X180040450Y-102266750D01*
X180251000Y-101758439D01*
X180251000Y-101187561D01*
X180032534Y-100660138D01*
X179902396Y-100530000D01*
X181396897Y-100530000D01*
X181366302Y-100542673D01*
X181366302Y-100542673D01*
G37*
X181366302Y-100542673D02*
X181187673Y-100721301D01*
X181091000Y-100954690D01*
X181091000Y-101695250D01*
X181249750Y-101854000D01*
X182499000Y-101854000D01*
X182499000Y-101834000D01*
X182753000Y-101834000D01*
X182753000Y-101854000D01*
X182773000Y-101854000D01*
X182773000Y-102108000D01*
X182753000Y-102108000D01*
X182753000Y-103357250D01*
X182911750Y-103516000D01*
X183652309Y-103516000D01*
X183885698Y-103419327D01*
X184064327Y-103240699D01*
X184120139Y-103105956D01*
X184296493Y-103282310D01*
X184860670Y-103516000D01*
X185471330Y-103516000D01*
X186035507Y-103282310D01*
X186201817Y-103116000D01*
X187849497Y-103116000D01*
X187624260Y-103453091D01*
X187512887Y-104013000D01*
X187539740Y-104148000D01*
X180252260Y-104148000D01*
X180279113Y-104013000D01*
X180167740Y-103453091D01*
X179850577Y-102978423D01*
X179498832Y-102743394D01*
X179628862Y-102689534D01*
X180032534Y-102285862D01*
X180040450Y-102266750D01*
X181091000Y-102266750D01*
X181091000Y-103007310D01*
X181187673Y-103240699D01*
X181366302Y-103419327D01*
X181599691Y-103516000D01*
X182340250Y-103516000D01*
X182499000Y-103357250D01*
X182499000Y-102108000D01*
X181249750Y-102108000D01*
X181091000Y-102266750D01*
X180040450Y-102266750D01*
X180251000Y-101758439D01*
X180251000Y-101187561D01*
X180032534Y-100660138D01*
X179902396Y-100530000D01*
X181396897Y-100530000D01*
X181366302Y-100542673D01*
G36*
X138430132Y-100038000D02*
X137890561Y-100038000D01*
X137363138Y-100256466D01*
X136959466Y-100660138D01*
X136882479Y-100846000D01*
X135401817Y-100846000D01*
X135235507Y-100679690D01*
X134671330Y-100446000D01*
X134060670Y-100446000D01*
X133496493Y-100679690D01*
X133320139Y-100856044D01*
X133264327Y-100721301D01*
X133085698Y-100542673D01*
X132852309Y-100446000D01*
X132111750Y-100446000D01*
X131953000Y-100604750D01*
X131953000Y-101854000D01*
X131973000Y-101854000D01*
X131973000Y-102108000D01*
X131953000Y-102108000D01*
X131953000Y-103357250D01*
X132111750Y-103516000D01*
X132852309Y-103516000D01*
X133085698Y-103419327D01*
X133264327Y-103240699D01*
X133320139Y-103105956D01*
X133496493Y-103282310D01*
X134060670Y-103516000D01*
X134671330Y-103516000D01*
X135235507Y-103282310D01*
X135401817Y-103116000D01*
X137049497Y-103116000D01*
X136824260Y-103453091D01*
X136712887Y-104013000D01*
X136739740Y-104148000D01*
X129452260Y-104148000D01*
X129479113Y-104013000D01*
X129367740Y-103453091D01*
X129050577Y-102978423D01*
X128698832Y-102743394D01*
X128828862Y-102689534D01*
X129232534Y-102285862D01*
X129240450Y-102266750D01*
X130291000Y-102266750D01*
X130291000Y-103007310D01*
X130387673Y-103240699D01*
X130566302Y-103419327D01*
X130799691Y-103516000D01*
X131540250Y-103516000D01*
X131699000Y-103357250D01*
X131699000Y-102108000D01*
X130449750Y-102108000D01*
X130291000Y-102266750D01*
X129240450Y-102266750D01*
X129451000Y-101758439D01*
X129451000Y-101218868D01*
X129680584Y-100989284D01*
X129680586Y-100989281D01*
X129715177Y-100954690D01*
X130291000Y-100954690D01*
X130291000Y-101695250D01*
X130449750Y-101854000D01*
X131699000Y-101854000D01*
X131699000Y-100604750D01*
X131540250Y-100446000D01*
X130799691Y-100446000D01*
X130566302Y-100542673D01*
X130387673Y-100721301D01*
X130291000Y-100954690D01*
X129715177Y-100954690D01*
X131663868Y-99006000D01*
X139462132Y-99006000D01*
X138430132Y-100038000D01*
X138430132Y-100038000D01*
G37*
X138430132Y-100038000D02*
X137890561Y-100038000D01*
X137363138Y-100256466D01*
X136959466Y-100660138D01*
X136882479Y-100846000D01*
X135401817Y-100846000D01*
X135235507Y-100679690D01*
X134671330Y-100446000D01*
X134060670Y-100446000D01*
X133496493Y-100679690D01*
X133320139Y-100856044D01*
X133264327Y-100721301D01*
X133085698Y-100542673D01*
X132852309Y-100446000D01*
X132111750Y-100446000D01*
X131953000Y-100604750D01*
X131953000Y-101854000D01*
X131973000Y-101854000D01*
X131973000Y-102108000D01*
X131953000Y-102108000D01*
X131953000Y-103357250D01*
X132111750Y-103516000D01*
X132852309Y-103516000D01*
X133085698Y-103419327D01*
X133264327Y-103240699D01*
X133320139Y-103105956D01*
X133496493Y-103282310D01*
X134060670Y-103516000D01*
X134671330Y-103516000D01*
X135235507Y-103282310D01*
X135401817Y-103116000D01*
X137049497Y-103116000D01*
X136824260Y-103453091D01*
X136712887Y-104013000D01*
X136739740Y-104148000D01*
X129452260Y-104148000D01*
X129479113Y-104013000D01*
X129367740Y-103453091D01*
X129050577Y-102978423D01*
X128698832Y-102743394D01*
X128828862Y-102689534D01*
X129232534Y-102285862D01*
X129240450Y-102266750D01*
X130291000Y-102266750D01*
X130291000Y-103007310D01*
X130387673Y-103240699D01*
X130566302Y-103419327D01*
X130799691Y-103516000D01*
X131540250Y-103516000D01*
X131699000Y-103357250D01*
X131699000Y-102108000D01*
X130449750Y-102108000D01*
X130291000Y-102266750D01*
X129240450Y-102266750D01*
X129451000Y-101758439D01*
X129451000Y-101218868D01*
X129680584Y-100989284D01*
X129680586Y-100989281D01*
X129715177Y-100954690D01*
X130291000Y-100954690D01*
X130291000Y-101695250D01*
X130449750Y-101854000D01*
X131699000Y-101854000D01*
X131699000Y-100604750D01*
X131540250Y-100446000D01*
X130799691Y-100446000D01*
X130566302Y-100542673D01*
X130387673Y-100721301D01*
X130291000Y-100954690D01*
X129715177Y-100954690D01*
X131663868Y-99006000D01*
X139462132Y-99006000D01*
X138430132Y-100038000D01*
G36*
X172739012Y-100458738D02*
X172593000Y-100604750D01*
X172593000Y-101854000D01*
X172613000Y-101854000D01*
X172613000Y-102108000D01*
X172593000Y-102108000D01*
X172593000Y-103357250D01*
X172751750Y-103516000D01*
X173492309Y-103516000D01*
X173725698Y-103419327D01*
X173904327Y-103240699D01*
X173960139Y-103105956D01*
X174136493Y-103282310D01*
X174700670Y-103516000D01*
X175311330Y-103516000D01*
X175875507Y-103282310D01*
X176041817Y-103116000D01*
X177689497Y-103116000D01*
X177464260Y-103453091D01*
X177352887Y-104013000D01*
X177379740Y-104148000D01*
X170092260Y-104148000D01*
X170119113Y-104013000D01*
X170007740Y-103453091D01*
X169690577Y-102978423D01*
X169338832Y-102743394D01*
X169468862Y-102689534D01*
X169872534Y-102285862D01*
X169880450Y-102266750D01*
X170931000Y-102266750D01*
X170931000Y-103007310D01*
X171027673Y-103240699D01*
X171206302Y-103419327D01*
X171439691Y-103516000D01*
X172180250Y-103516000D01*
X172339000Y-103357250D01*
X172339000Y-102108000D01*
X171089750Y-102108000D01*
X170931000Y-102266750D01*
X169880450Y-102266750D01*
X170073785Y-101800000D01*
X170605767Y-101800000D01*
X170688000Y-101816357D01*
X170770233Y-101800000D01*
X170770237Y-101800000D01*
X170991698Y-101755948D01*
X171089750Y-101854000D01*
X172339000Y-101854000D01*
X172339000Y-100604750D01*
X172284059Y-100549809D01*
X172449286Y-100384583D01*
X172519001Y-100338001D01*
X172592981Y-100227283D01*
X172703552Y-100061801D01*
X172726385Y-99947010D01*
X172739012Y-99883534D01*
X172739012Y-100458738D01*
X172739012Y-100458738D01*
G37*
X172739012Y-100458738D02*
X172593000Y-100604750D01*
X172593000Y-101854000D01*
X172613000Y-101854000D01*
X172613000Y-102108000D01*
X172593000Y-102108000D01*
X172593000Y-103357250D01*
X172751750Y-103516000D01*
X173492309Y-103516000D01*
X173725698Y-103419327D01*
X173904327Y-103240699D01*
X173960139Y-103105956D01*
X174136493Y-103282310D01*
X174700670Y-103516000D01*
X175311330Y-103516000D01*
X175875507Y-103282310D01*
X176041817Y-103116000D01*
X177689497Y-103116000D01*
X177464260Y-103453091D01*
X177352887Y-104013000D01*
X177379740Y-104148000D01*
X170092260Y-104148000D01*
X170119113Y-104013000D01*
X170007740Y-103453091D01*
X169690577Y-102978423D01*
X169338832Y-102743394D01*
X169468862Y-102689534D01*
X169872534Y-102285862D01*
X169880450Y-102266750D01*
X170931000Y-102266750D01*
X170931000Y-103007310D01*
X171027673Y-103240699D01*
X171206302Y-103419327D01*
X171439691Y-103516000D01*
X172180250Y-103516000D01*
X172339000Y-103357250D01*
X172339000Y-102108000D01*
X171089750Y-102108000D01*
X170931000Y-102266750D01*
X169880450Y-102266750D01*
X170073785Y-101800000D01*
X170605767Y-101800000D01*
X170688000Y-101816357D01*
X170770233Y-101800000D01*
X170770237Y-101800000D01*
X170991698Y-101755948D01*
X171089750Y-101854000D01*
X172339000Y-101854000D01*
X172339000Y-100604750D01*
X172284059Y-100549809D01*
X172449286Y-100384583D01*
X172519001Y-100338001D01*
X172592981Y-100227283D01*
X172703552Y-100061801D01*
X172726385Y-99947010D01*
X172739012Y-99883534D01*
X172739012Y-100458738D01*
G36*
X157279466Y-100660138D02*
X157202479Y-100846000D01*
X155721817Y-100846000D01*
X155555507Y-100679690D01*
X154991330Y-100446000D01*
X154380670Y-100446000D01*
X153816493Y-100679690D01*
X153640139Y-100856044D01*
X153584327Y-100721301D01*
X153405698Y-100542673D01*
X153172309Y-100446000D01*
X152431750Y-100446000D01*
X152273000Y-100604750D01*
X152273000Y-101854000D01*
X152293000Y-101854000D01*
X152293000Y-102108000D01*
X152273000Y-102108000D01*
X152273000Y-103357250D01*
X152431750Y-103516000D01*
X153172309Y-103516000D01*
X153405698Y-103419327D01*
X153584327Y-103240699D01*
X153640139Y-103105956D01*
X153816493Y-103282310D01*
X154380670Y-103516000D01*
X154991330Y-103516000D01*
X155555507Y-103282310D01*
X155721817Y-103116000D01*
X157369497Y-103116000D01*
X157144260Y-103453091D01*
X157032887Y-104013000D01*
X157059740Y-104148000D01*
X149772260Y-104148000D01*
X149799113Y-104013000D01*
X149687740Y-103453091D01*
X149370577Y-102978423D01*
X149018832Y-102743394D01*
X149148862Y-102689534D01*
X149552534Y-102285862D01*
X149560450Y-102266750D01*
X150611000Y-102266750D01*
X150611000Y-103007310D01*
X150707673Y-103240699D01*
X150886302Y-103419327D01*
X151119691Y-103516000D01*
X151860250Y-103516000D01*
X152019000Y-103357250D01*
X152019000Y-102108000D01*
X150769750Y-102108000D01*
X150611000Y-102266750D01*
X149560450Y-102266750D01*
X149771000Y-101758439D01*
X149771000Y-101218867D01*
X150035177Y-100954690D01*
X150611000Y-100954690D01*
X150611000Y-101695250D01*
X150769750Y-101854000D01*
X152019000Y-101854000D01*
X152019000Y-100604750D01*
X151860250Y-100446000D01*
X151119691Y-100446000D01*
X150886302Y-100542673D01*
X150707673Y-100721301D01*
X150611000Y-100954690D01*
X150035177Y-100954690D01*
X150621857Y-100368011D01*
X157571593Y-100368011D01*
X157279466Y-100660138D01*
X157279466Y-100660138D01*
G37*
X157279466Y-100660138D02*
X157202479Y-100846000D01*
X155721817Y-100846000D01*
X155555507Y-100679690D01*
X154991330Y-100446000D01*
X154380670Y-100446000D01*
X153816493Y-100679690D01*
X153640139Y-100856044D01*
X153584327Y-100721301D01*
X153405698Y-100542673D01*
X153172309Y-100446000D01*
X152431750Y-100446000D01*
X152273000Y-100604750D01*
X152273000Y-101854000D01*
X152293000Y-101854000D01*
X152293000Y-102108000D01*
X152273000Y-102108000D01*
X152273000Y-103357250D01*
X152431750Y-103516000D01*
X153172309Y-103516000D01*
X153405698Y-103419327D01*
X153584327Y-103240699D01*
X153640139Y-103105956D01*
X153816493Y-103282310D01*
X154380670Y-103516000D01*
X154991330Y-103516000D01*
X155555507Y-103282310D01*
X155721817Y-103116000D01*
X157369497Y-103116000D01*
X157144260Y-103453091D01*
X157032887Y-104013000D01*
X157059740Y-104148000D01*
X149772260Y-104148000D01*
X149799113Y-104013000D01*
X149687740Y-103453091D01*
X149370577Y-102978423D01*
X149018832Y-102743394D01*
X149148862Y-102689534D01*
X149552534Y-102285862D01*
X149560450Y-102266750D01*
X150611000Y-102266750D01*
X150611000Y-103007310D01*
X150707673Y-103240699D01*
X150886302Y-103419327D01*
X151119691Y-103516000D01*
X151860250Y-103516000D01*
X152019000Y-103357250D01*
X152019000Y-102108000D01*
X150769750Y-102108000D01*
X150611000Y-102266750D01*
X149560450Y-102266750D01*
X149771000Y-101758439D01*
X149771000Y-101218867D01*
X150035177Y-100954690D01*
X150611000Y-100954690D01*
X150611000Y-101695250D01*
X150769750Y-101854000D01*
X152019000Y-101854000D01*
X152019000Y-100604750D01*
X151860250Y-100446000D01*
X151119691Y-100446000D01*
X150886302Y-100542673D01*
X150707673Y-100721301D01*
X150611000Y-100954690D01*
X150035177Y-100954690D01*
X150621857Y-100368011D01*
X157571593Y-100368011D01*
X157279466Y-100660138D01*
G36*
X171965000Y-93540001D02*
X172034718Y-93586585D01*
X174841000Y-96392868D01*
X174841000Y-96621133D01*
X174490587Y-96270720D01*
X174444001Y-96200999D01*
X174167801Y-96016448D01*
X174078642Y-95998713D01*
X174040157Y-95805235D01*
X173899809Y-95595191D01*
X173689765Y-95454843D01*
X173442000Y-95405560D01*
X172992000Y-95405560D01*
X172892000Y-95425451D01*
X172792000Y-95405560D01*
X172342000Y-95405560D01*
X172242000Y-95425451D01*
X172142000Y-95405560D01*
X171692000Y-95405560D01*
X171592000Y-95425451D01*
X171492000Y-95405560D01*
X171042000Y-95405560D01*
X170942000Y-95425451D01*
X170842000Y-95405560D01*
X170392000Y-95405560D01*
X170292000Y-95425451D01*
X170192000Y-95405560D01*
X169742000Y-95405560D01*
X169642000Y-95425451D01*
X169542000Y-95405560D01*
X169092000Y-95405560D01*
X168992000Y-95425451D01*
X168892000Y-95405560D01*
X168442000Y-95405560D01*
X168194235Y-95454843D01*
X167984191Y-95595191D01*
X167843843Y-95805235D01*
X167805358Y-95998713D01*
X167789000Y-96001967D01*
X167789000Y-95662750D01*
X167630250Y-95504000D01*
X166507000Y-95504000D01*
X166507000Y-95250000D01*
X167630250Y-95250000D01*
X167789000Y-95091250D01*
X167789000Y-94942000D01*
X170097767Y-94942000D01*
X170180000Y-94958357D01*
X170262233Y-94942000D01*
X170262237Y-94942000D01*
X170505801Y-94893552D01*
X170782001Y-94709001D01*
X170828587Y-94639280D01*
X171799282Y-93668585D01*
X171869001Y-93622001D01*
X171944396Y-93509165D01*
X171965000Y-93540001D01*
X171965000Y-93540001D01*
G37*
X171965000Y-93540001D02*
X172034718Y-93586585D01*
X174841000Y-96392868D01*
X174841000Y-96621133D01*
X174490587Y-96270720D01*
X174444001Y-96200999D01*
X174167801Y-96016448D01*
X174078642Y-95998713D01*
X174040157Y-95805235D01*
X173899809Y-95595191D01*
X173689765Y-95454843D01*
X173442000Y-95405560D01*
X172992000Y-95405560D01*
X172892000Y-95425451D01*
X172792000Y-95405560D01*
X172342000Y-95405560D01*
X172242000Y-95425451D01*
X172142000Y-95405560D01*
X171692000Y-95405560D01*
X171592000Y-95425451D01*
X171492000Y-95405560D01*
X171042000Y-95405560D01*
X170942000Y-95425451D01*
X170842000Y-95405560D01*
X170392000Y-95405560D01*
X170292000Y-95425451D01*
X170192000Y-95405560D01*
X169742000Y-95405560D01*
X169642000Y-95425451D01*
X169542000Y-95405560D01*
X169092000Y-95405560D01*
X168992000Y-95425451D01*
X168892000Y-95405560D01*
X168442000Y-95405560D01*
X168194235Y-95454843D01*
X167984191Y-95595191D01*
X167843843Y-95805235D01*
X167805358Y-95998713D01*
X167789000Y-96001967D01*
X167789000Y-95662750D01*
X167630250Y-95504000D01*
X166507000Y-95504000D01*
X166507000Y-95250000D01*
X167630250Y-95250000D01*
X167789000Y-95091250D01*
X167789000Y-94942000D01*
X170097767Y-94942000D01*
X170180000Y-94958357D01*
X170262233Y-94942000D01*
X170262237Y-94942000D01*
X170505801Y-94893552D01*
X170782001Y-94709001D01*
X170828587Y-94639280D01*
X171799282Y-93668585D01*
X171869001Y-93622001D01*
X171944396Y-93509165D01*
X171965000Y-93540001D01*
G36*
X127521545Y-92790940D02*
X128404000Y-93673395D01*
X129286455Y-92790940D01*
X129242162Y-92656000D01*
X133196446Y-92656000D01*
X133146843Y-92730235D01*
X133097560Y-92978000D01*
X133097560Y-94728000D01*
X133111086Y-94796000D01*
X129526608Y-94796000D01*
X129466062Y-94735454D01*
X129719953Y-94652116D01*
X129925590Y-94087694D01*
X129899579Y-93487542D01*
X129719953Y-93053884D01*
X129466060Y-92970545D01*
X128583605Y-93853000D01*
X128597748Y-93867143D01*
X128418143Y-94046748D01*
X128404000Y-94032605D01*
X128389858Y-94046748D01*
X128210253Y-93867143D01*
X128224395Y-93853000D01*
X127341940Y-92970545D01*
X127193121Y-93019394D01*
X127184116Y-92997654D01*
X126842462Y-92656000D01*
X127565838Y-92656000D01*
X127521545Y-92790940D01*
X127521545Y-92790940D01*
G37*
X127521545Y-92790940D02*
X128404000Y-93673395D01*
X129286455Y-92790940D01*
X129242162Y-92656000D01*
X133196446Y-92656000D01*
X133146843Y-92730235D01*
X133097560Y-92978000D01*
X133097560Y-94728000D01*
X133111086Y-94796000D01*
X129526608Y-94796000D01*
X129466062Y-94735454D01*
X129719953Y-94652116D01*
X129925590Y-94087694D01*
X129899579Y-93487542D01*
X129719953Y-93053884D01*
X129466060Y-92970545D01*
X128583605Y-93853000D01*
X128597748Y-93867143D01*
X128418143Y-94046748D01*
X128404000Y-94032605D01*
X128389858Y-94046748D01*
X128210253Y-93867143D01*
X128224395Y-93853000D01*
X127341940Y-92970545D01*
X127193121Y-93019394D01*
X127184116Y-92997654D01*
X126842462Y-92656000D01*
X127565838Y-92656000D01*
X127521545Y-92790940D01*
G36*
X167805358Y-91707287D02*
X167843843Y-91900765D01*
X167984191Y-92110809D01*
X168194235Y-92251157D01*
X168442000Y-92300440D01*
X168892000Y-92300440D01*
X168992000Y-92280549D01*
X169092000Y-92300440D01*
X169535693Y-92300440D01*
X169326133Y-92510000D01*
X167789000Y-92510000D01*
X167789000Y-92360750D01*
X167630250Y-92202000D01*
X166507000Y-92202000D01*
X166507000Y-91948000D01*
X167630250Y-91948000D01*
X167789000Y-91789250D01*
X167789000Y-91704033D01*
X167805358Y-91707287D01*
X167805358Y-91707287D01*
G37*
X167805358Y-91707287D02*
X167843843Y-91900765D01*
X167984191Y-92110809D01*
X168194235Y-92251157D01*
X168442000Y-92300440D01*
X168892000Y-92300440D01*
X168992000Y-92280549D01*
X169092000Y-92300440D01*
X169535693Y-92300440D01*
X169326133Y-92510000D01*
X167789000Y-92510000D01*
X167789000Y-92360750D01*
X167630250Y-92202000D01*
X166507000Y-92202000D01*
X166507000Y-91948000D01*
X167630250Y-91948000D01*
X167789000Y-91789250D01*
X167789000Y-91704033D01*
X167805358Y-91707287D01*
G04 #@! TD*
M02*
