G04 #@! TF.GenerationSoftware,KiCad,Pcbnew,(5.0.0-rc2-63-gd4393b281)*
G04 #@! TF.CreationDate,2018-06-20T09:41:06-07:00*
G04 #@! TF.ProjectId,IRSensorArray,495253656E736F7241727261792E6B69,rev?*
G04 #@! TF.SameCoordinates,Original*
G04 #@! TF.FileFunction,Soldermask,Bot*
G04 #@! TF.FilePolarity,Negative*
%FSLAX46Y46*%
G04 Gerber Fmt 4.6, Leading zero omitted, Abs format (unit mm)*
G04 Created by KiCad (PCBNEW (5.0.0-rc2-63-gd4393b281)) date 06/20/18 09:41:06*
%MOMM*%
%LPD*%
G01*
G04 APERTURE LIST*
%ADD10C,3.600000*%
%ADD11C,2.000000*%
%ADD12R,2.000000X2.000000*%
%ADD13C,2.200000*%
%ADD14R,2.200000X2.200000*%
%ADD15C,1.900000*%
%ADD16O,2.000000X2.000000*%
%ADD17R,2.150000X2.150000*%
%ADD18C,2.150000*%
G04 APERTURE END LIST*
D10*
G04 #@! TO.C,MH2*
X186436000Y-92329000D03*
G04 #@! TD*
D11*
G04 #@! TO.C,C1*
X176276000Y-91647000D03*
X176276000Y-96647000D03*
G04 #@! TD*
G04 #@! TO.C,C2*
X155702000Y-92329000D03*
D12*
X155702000Y-94329000D03*
G04 #@! TD*
D11*
G04 #@! TO.C,C4*
X160782000Y-95885000D03*
X160782000Y-90885000D03*
G04 #@! TD*
D13*
G04 #@! TO.C,D1*
X114046000Y-108585000D03*
D14*
X111506000Y-108585000D03*
G04 #@! TD*
G04 #@! TO.C,D2*
X152146000Y-108585000D03*
D13*
X154686000Y-108585000D03*
G04 #@! TD*
G04 #@! TO.C,D3*
X124206000Y-108585000D03*
D14*
X121666000Y-108585000D03*
G04 #@! TD*
G04 #@! TO.C,D4*
X162306000Y-108585000D03*
D13*
X164846000Y-108585000D03*
G04 #@! TD*
D14*
G04 #@! TO.C,D5*
X131826000Y-108585000D03*
D13*
X134366000Y-108585000D03*
G04 #@! TD*
G04 #@! TO.C,D6*
X175006000Y-108585000D03*
D14*
X172466000Y-108585000D03*
G04 #@! TD*
G04 #@! TO.C,D7*
X141986000Y-108585000D03*
D13*
X144526000Y-108585000D03*
G04 #@! TD*
D14*
G04 #@! TO.C,D8*
X182626000Y-108585000D03*
D13*
X185166000Y-108585000D03*
G04 #@! TD*
D15*
G04 #@! TO.C,J1*
X179832000Y-91567000D03*
G04 #@! TD*
D14*
G04 #@! TO.C,Q1*
X111506000Y-101981000D03*
D13*
X114046000Y-101981000D03*
G04 #@! TD*
D14*
G04 #@! TO.C,Q2*
X152146000Y-101981000D03*
D13*
X154686000Y-101981000D03*
G04 #@! TD*
D14*
G04 #@! TO.C,Q3*
X121666000Y-101981000D03*
D13*
X124206000Y-101981000D03*
G04 #@! TD*
G04 #@! TO.C,Q5*
X134366000Y-101981000D03*
D14*
X131826000Y-101981000D03*
G04 #@! TD*
D13*
G04 #@! TO.C,Q6*
X175006000Y-101981000D03*
D14*
X172466000Y-101981000D03*
G04 #@! TD*
D13*
G04 #@! TO.C,Q7*
X144526000Y-101981000D03*
D14*
X141986000Y-101981000D03*
G04 #@! TD*
D13*
G04 #@! TO.C,Q8*
X185166000Y-101981000D03*
D14*
X182626000Y-101981000D03*
G04 #@! TD*
D11*
G04 #@! TO.C,R1*
X147066000Y-94107000D03*
D16*
X147066000Y-91567000D03*
G04 #@! TD*
D11*
G04 #@! TO.C,R2*
X150622000Y-94107000D03*
D16*
X150622000Y-91567000D03*
G04 #@! TD*
D11*
G04 #@! TO.C,R3*
X117856000Y-109093000D03*
D16*
X117856000Y-106553000D03*
G04 #@! TD*
G04 #@! TO.C,R4*
X117856000Y-104013000D03*
D11*
X117856000Y-101473000D03*
G04 #@! TD*
D16*
G04 #@! TO.C,R5*
X158496000Y-106553000D03*
D11*
X158496000Y-109093000D03*
G04 #@! TD*
D16*
G04 #@! TO.C,R6*
X158496000Y-104013000D03*
D11*
X158496000Y-101473000D03*
G04 #@! TD*
G04 #@! TO.C,R7*
X128016000Y-109093000D03*
D16*
X128016000Y-106553000D03*
G04 #@! TD*
G04 #@! TO.C,R8*
X128016000Y-104013000D03*
D11*
X128016000Y-101473000D03*
G04 #@! TD*
G04 #@! TO.C,R9*
X168656000Y-109093000D03*
D16*
X168656000Y-106553000D03*
G04 #@! TD*
G04 #@! TO.C,R10*
X168656000Y-104013000D03*
D11*
X168656000Y-101473000D03*
G04 #@! TD*
G04 #@! TO.C,R11*
X138176000Y-109093000D03*
D16*
X138176000Y-106553000D03*
G04 #@! TD*
G04 #@! TO.C,R12*
X138176000Y-104013000D03*
D11*
X138176000Y-101473000D03*
G04 #@! TD*
G04 #@! TO.C,R13*
X178816000Y-109093000D03*
D16*
X178816000Y-106553000D03*
G04 #@! TD*
G04 #@! TO.C,R14*
X178816000Y-104013000D03*
D11*
X178816000Y-101473000D03*
G04 #@! TD*
G04 #@! TO.C,R15*
X148336000Y-109093000D03*
D16*
X148336000Y-106553000D03*
G04 #@! TD*
G04 #@! TO.C,R16*
X148336000Y-104013000D03*
D11*
X148336000Y-101473000D03*
G04 #@! TD*
G04 #@! TO.C,R17*
X188976000Y-109093000D03*
D16*
X188976000Y-106553000D03*
G04 #@! TD*
D11*
G04 #@! TO.C,R18*
X188976000Y-101473000D03*
D16*
X188976000Y-104013000D03*
G04 #@! TD*
D17*
G04 #@! TO.C,J2*
X134620000Y-93853000D03*
D18*
X137120000Y-93853000D03*
X139620000Y-93853000D03*
X142120000Y-93853000D03*
G04 #@! TD*
G04 #@! TO.C,J3*
X128404000Y-93853000D03*
X125904000Y-93853000D03*
X123404000Y-93853000D03*
D17*
X120904000Y-93853000D03*
G04 #@! TD*
D10*
G04 #@! TO.C,MH1*
X113792000Y-92329000D03*
G04 #@! TD*
D13*
G04 #@! TO.C,Q4*
X164846000Y-101981000D03*
D14*
X162306000Y-101981000D03*
G04 #@! TD*
M02*
